ISO-10303-21;
HEADER;
/* Generated by software containing ST-Developer
 * from STEP Tools, Inc. (www.steptools.com) 
 */

FILE_DESCRIPTION(
/* description */ (''),
/* implementation_level */ '2;1');

FILE_NAME(
/* name */ 'GYRA PITCH ARM V4 v6.step',
/* time_stamp */ '2026-05-28T20:25:16+05:30',
/* author */ (''),
/* organization */ (''),
/* preprocessor_version */ 'ST-DEVELOPER v20.1',
/* originating_system */ 'Autodesk Translation Framework v15.8.0.0',
/* authorisation */ '');

FILE_SCHEMA (('AUTOMOTIVE_DESIGN { 1 0 10303 214 3 1 1 }'));
ENDSEC;

DATA;
#10=MECHANICAL_DESIGN_GEOMETRIC_PRESENTATION_REPRESENTATION('',(#13),#978);
#11=SHAPE_REPRESENTATION_RELATIONSHIP('SRR','None',#985,#12);
#12=ADVANCED_BREP_SHAPE_REPRESENTATION('',(#14),#977);
#13=STYLED_ITEM('',(#994),#14);
#14=MANIFOLD_SOLID_BREP('Body1',#556);
#15=FACE_BOUND('',#76,.T.);
#16=FACE_BOUND('',#78,.T.);
#17=FACE_BOUND('',#80,.T.);
#18=FACE_BOUND('',#82,.T.);
#19=FACE_BOUND('',#90,.T.);
#20=FACE_BOUND('',#93,.T.);
#21=FACE_BOUND('',#96,.T.);
#22=FACE_BOUND('',#97,.T.);
#23=FACE_BOUND('',#98,.T.);
#24=FACE_BOUND('',#103,.T.);
#25=FACE_BOUND('',#115,.T.);
#26=FACE_BOUND('',#116,.T.);
#27=FACE_BOUND('',#117,.T.);
#28=FACE_BOUND('',#118,.T.);
#29=PLANE('',#573);
#30=PLANE('',#576);
#31=PLANE('',#579);
#32=PLANE('',#582);
#33=PLANE('',#598);
#34=PLANE('',#605);
#35=PLANE('',#611);
#36=PLANE('',#612);
#37=PLANE('',#620);
#38=PLANE('',#621);
#39=PLANE('',#630);
#40=PLANE('',#637);
#41=PLANE('',#638);
#42=FACE_OUTER_BOUND('',#74,.T.);
#43=FACE_OUTER_BOUND('',#75,.T.);
#44=FACE_OUTER_BOUND('',#77,.T.);
#45=FACE_OUTER_BOUND('',#79,.T.);
#46=FACE_OUTER_BOUND('',#81,.T.);
#47=FACE_OUTER_BOUND('',#83,.T.);
#48=FACE_OUTER_BOUND('',#84,.T.);
#49=FACE_OUTER_BOUND('',#85,.T.);
#50=FACE_OUTER_BOUND('',#86,.T.);
#51=FACE_OUTER_BOUND('',#87,.T.);
#52=FACE_OUTER_BOUND('',#88,.T.);
#53=FACE_OUTER_BOUND('',#89,.T.);
#54=FACE_OUTER_BOUND('',#91,.T.);
#55=FACE_OUTER_BOUND('',#92,.T.);
#56=FACE_OUTER_BOUND('',#94,.T.);
#57=FACE_OUTER_BOUND('',#95,.T.);
#58=FACE_OUTER_BOUND('',#99,.T.);
#59=FACE_OUTER_BOUND('',#100,.T.);
#60=FACE_OUTER_BOUND('',#101,.T.);
#61=FACE_OUTER_BOUND('',#102,.T.);
#62=FACE_OUTER_BOUND('',#104,.T.);
#63=FACE_OUTER_BOUND('',#105,.T.);
#64=FACE_OUTER_BOUND('',#106,.T.);
#65=FACE_OUTER_BOUND('',#107,.T.);
#66=FACE_OUTER_BOUND('',#108,.T.);
#67=FACE_OUTER_BOUND('',#109,.T.);
#68=FACE_OUTER_BOUND('',#110,.T.);
#69=FACE_OUTER_BOUND('',#111,.T.);
#70=FACE_OUTER_BOUND('',#112,.T.);
#71=FACE_OUTER_BOUND('',#113,.T.);
#72=FACE_OUTER_BOUND('',#114,.T.);
#73=FACE_OUTER_BOUND('',#119,.T.);
#74=EDGE_LOOP('',(#355,#356,#357,#358));
#75=EDGE_LOOP('',(#359));
#76=EDGE_LOOP('',(#360));
#77=EDGE_LOOP('',(#361));
#78=EDGE_LOOP('',(#362));
#79=EDGE_LOOP('',(#363,#364));
#80=EDGE_LOOP('',(#365));
#81=EDGE_LOOP('',(#366));
#82=EDGE_LOOP('',(#367));
#83=EDGE_LOOP('',(#368,#369,#370,#371));
#84=EDGE_LOOP('',(#372,#373,#374,#375));
#85=EDGE_LOOP('',(#376,#377,#378,#379));
#86=EDGE_LOOP('',(#380,#381,#382,#383));
#87=EDGE_LOOP('',(#384,#385,#386,#387));
#88=EDGE_LOOP('',(#388,#389,#390,#391));
#89=EDGE_LOOP('',(#392,#393,#394,#395,#396));
#90=EDGE_LOOP('',(#397));
#91=EDGE_LOOP('',(#398,#399,#400,#401));
#92=EDGE_LOOP('',(#402,#403,#404,#405));
#93=EDGE_LOOP('',(#406,#407,#408,#409,#410,#411));
#94=EDGE_LOOP('',(#412,#413,#414,#415,#416,#417,#418,#419));
#95=EDGE_LOOP('',(#420,#421,#422,#423));
#96=EDGE_LOOP('',(#424));
#97=EDGE_LOOP('',(#425,#426,#427));
#98=EDGE_LOOP('',(#428));
#99=EDGE_LOOP('',(#429,#430,#431,#432));
#100=EDGE_LOOP('',(#433,#434,#435,#436));
#101=EDGE_LOOP('',(#437,#438,#439,#440));
#102=EDGE_LOOP('',(#441,#442,#443,#444,#445));
#103=EDGE_LOOP('',(#446));
#104=EDGE_LOOP('',(#447,#448,#449,#450,#451,#452,#453,#454));
#105=EDGE_LOOP('',(#455,#456,#457,#458));
#106=EDGE_LOOP('',(#459,#460,#461,#462));
#107=EDGE_LOOP('',(#463,#464,#465,#466));
#108=EDGE_LOOP('',(#467,#468,#469,#470));
#109=EDGE_LOOP('',(#471,#472,#473,#474));
#110=EDGE_LOOP('',(#475,#476,#477,#478));
#111=EDGE_LOOP('',(#479,#480,#481,#482));
#112=EDGE_LOOP('',(#483,#484,#485,#486));
#113=EDGE_LOOP('',(#487,#488,#489,#490));
#114=EDGE_LOOP('',(#491,#492,#493,#494,#495,#496));
#115=EDGE_LOOP('',(#497));
#116=EDGE_LOOP('',(#498));
#117=EDGE_LOOP('',(#499));
#118=EDGE_LOOP('',(#500));
#119=EDGE_LOOP('',(#501,#502,#503,#504));
#120=CIRCLE('',#571,2.);
#121=CIRCLE('',#572,2.);
#122=CIRCLE('',#574,2.5);
#123=CIRCLE('',#575,1.5);
#124=CIRCLE('',#577,2.5);
#125=CIRCLE('',#578,1.5);
#126=CIRCLE('',#580,2.);
#127=CIRCLE('',#581,1.25);
#128=CIRCLE('',#583,2.);
#129=CIRCLE('',#584,1.25);
#130=CIRCLE('',#586,2.);
#131=CIRCLE('',#588,2.);
#132=CIRCLE('',#590,2.5);
#133=CIRCLE('',#592,2.5);
#134=CIRCLE('',#594,1.5);
#135=CIRCLE('',#596,7.5);
#136=CIRCLE('',#597,7.5);
#137=CIRCLE('',#599,15.);
#138=CIRCLE('',#600,15.);
#139=CIRCLE('',#601,2.75);
#140=CIRCLE('',#603,10.);
#141=CIRCLE('',#604,10.);
#142=CIRCLE('',#606,15.);
#143=CIRCLE('',#607,3.53553390593274);
#144=CIRCLE('',#608,31.0396054852254);
#145=CIRCLE('',#609,7.65);
#146=CIRCLE('',#610,31.0396054852251);
#147=CIRCLE('',#613,15.);
#148=CIRCLE('',#615,2.75);
#149=CIRCLE('',#617,15.);
#150=CIRCLE('',#619,15.);
#151=CIRCLE('',#623,1.25);
#152=CIRCLE('',#625,1.5);
#153=CIRCLE('',#627,1.25);
#154=CIRCLE('',#629,3.53553390593274);
#155=CIRCLE('',#632,31.0396054852251);
#156=CIRCLE('',#634,7.65);
#157=CIRCLE('',#636,31.0396054852254);
#158=LINE('',#823,#195);
#159=LINE('',#827,#196);
#160=LINE('',#848,#197);
#161=LINE('',#855,#198);
#162=LINE('',#859,#199);
#163=LINE('',#862,#200);
#164=LINE('',#869,#201);
#165=LINE('',#872,#202);
#166=LINE('',#875,#203);
#167=LINE('',#880,#204);
#168=LINE('',#888,#205);
#169=LINE('',#891,#206);
#170=LINE('',#894,#207);
#171=LINE('',#897,#208);
#172=LINE('',#902,#209);
#173=LINE('',#909,#210);
#174=LINE('',#912,#211);
#175=LINE('',#913,#212);
#176=LINE('',#915,#213);
#177=LINE('',#916,#214);
#178=LINE('',#919,#215);
#179=LINE('',#923,#216);
#180=LINE('',#927,#217);
#181=LINE('',#930,#218);
#182=LINE('',#934,#219);
#183=LINE('',#936,#220);
#184=LINE('',#940,#221);
#185=LINE('',#944,#222);
#186=LINE('',#948,#223);
#187=LINE('',#951,#224);
#188=LINE('',#954,#225);
#189=LINE('',#957,#226);
#190=LINE('',#958,#227);
#191=LINE('',#961,#228);
#192=LINE('',#965,#229);
#193=LINE('',#969,#230);
#194=LINE('',#972,#231);
#195=VECTOR('',#644,2.);
#196=VECTOR('',#647,10.);
#197=VECTOR('',#676,10.);
#198=VECTOR('',#687,2.5);
#199=VECTOR('',#692,2.5);
#200=VECTOR('',#695,1.5);
#201=VECTOR('',#702,10.);
#202=VECTOR('',#705,10.);
#203=VECTOR('',#708,10.);
#204=VECTOR('',#713,10.);
#205=VECTOR('',#720,10.);
#206=VECTOR('',#723,10.);
#207=VECTOR('',#726,10.);
#208=VECTOR('',#729,10.);
#209=VECTOR('',#732,10.);
#210=VECTOR('',#739,10.);
#211=VECTOR('',#742,10.);
#212=VECTOR('',#743,10.);
#213=VECTOR('',#744,10.);
#214=VECTOR('',#745,10.);
#215=VECTOR('',#748,10.);
#216=VECTOR('',#753,2.75);
#217=VECTOR('',#758,10.);
#218=VECTOR('',#761,10.);
#219=VECTOR('',#768,10.);
#220=VECTOR('',#771,10.);
#221=VECTOR('',#776,1.25);
#222=VECTOR('',#781,1.5);
#223=VECTOR('',#786,1.25);
#224=VECTOR('',#789,10.);
#225=VECTOR('',#792,10.);
#226=VECTOR('',#795,10.);
#227=VECTOR('',#796,10.);
#228=VECTOR('',#799,10.);
#229=VECTOR('',#804,10.);
#230=VECTOR('',#809,10.);
#231=VECTOR('',#814,10.);
#232=VERTEX_POINT('',#821);
#233=VERTEX_POINT('',#822);
#234=VERTEX_POINT('',#824);
#235=VERTEX_POINT('',#826);
#236=VERTEX_POINT('',#830);
#237=VERTEX_POINT('',#832);
#238=VERTEX_POINT('',#835);
#239=VERTEX_POINT('',#837);
#240=VERTEX_POINT('',#841);
#241=VERTEX_POINT('',#845);
#242=VERTEX_POINT('',#853);
#243=VERTEX_POINT('',#857);
#244=VERTEX_POINT('',#861);
#245=VERTEX_POINT('',#865);
#246=VERTEX_POINT('',#866);
#247=VERTEX_POINT('',#868);
#248=VERTEX_POINT('',#870);
#249=VERTEX_POINT('',#874);
#250=VERTEX_POINT('',#876);
#251=VERTEX_POINT('',#878);
#252=VERTEX_POINT('',#881);
#253=VERTEX_POINT('',#884);
#254=VERTEX_POINT('',#885);
#255=VERTEX_POINT('',#887);
#256=VERTEX_POINT('',#889);
#257=VERTEX_POINT('',#893);
#258=VERTEX_POINT('',#895);
#259=VERTEX_POINT('',#898);
#260=VERTEX_POINT('',#899);
#261=VERTEX_POINT('',#901);
#262=VERTEX_POINT('',#903);
#263=VERTEX_POINT('',#905);
#264=VERTEX_POINT('',#907);
#265=VERTEX_POINT('',#911);
#266=VERTEX_POINT('',#914);
#267=VERTEX_POINT('',#918);
#268=VERTEX_POINT('',#922);
#269=VERTEX_POINT('',#926);
#270=VERTEX_POINT('',#928);
#271=VERTEX_POINT('',#938);
#272=VERTEX_POINT('',#942);
#273=VERTEX_POINT('',#946);
#274=VERTEX_POINT('',#950);
#275=VERTEX_POINT('',#952);
#276=VERTEX_POINT('',#956);
#277=VERTEX_POINT('',#960);
#278=VERTEX_POINT('',#964);
#279=VERTEX_POINT('',#968);
#280=EDGE_CURVE('',#232,#233,#158,.T.);
#281=EDGE_CURVE('',#234,#232,#120,.T.);
#282=EDGE_CURVE('',#234,#235,#159,.T.);
#283=EDGE_CURVE('',#235,#233,#121,.T.);
#284=EDGE_CURVE('',#236,#236,#122,.T.);
#285=EDGE_CURVE('',#237,#237,#123,.T.);
#286=EDGE_CURVE('',#238,#238,#124,.T.);
#287=EDGE_CURVE('',#239,#239,#125,.T.);
#288=EDGE_CURVE('',#233,#235,#126,.T.);
#289=EDGE_CURVE('',#240,#240,#127,.T.);
#290=EDGE_CURVE('',#235,#235,#128,.T.);
#291=EDGE_CURVE('',#241,#241,#129,.T.);
#292=EDGE_CURVE('',#234,#235,#160,.T.);
#293=EDGE_CURVE('',#232,#234,#130,.T.);
#294=EDGE_CURVE('',#234,#234,#131,.T.);
#295=EDGE_CURVE('',#242,#242,#132,.T.);
#296=EDGE_CURVE('',#242,#236,#161,.T.);
#297=EDGE_CURVE('',#243,#243,#133,.T.);
#298=EDGE_CURVE('',#243,#238,#162,.T.);
#299=EDGE_CURVE('',#239,#244,#163,.T.);
#300=EDGE_CURVE('',#244,#244,#134,.T.);
#301=EDGE_CURVE('',#245,#246,#135,.T.);
#302=EDGE_CURVE('',#246,#247,#164,.T.);
#303=EDGE_CURVE('',#247,#248,#136,.T.);
#304=EDGE_CURVE('',#248,#245,#165,.T.);
#305=EDGE_CURVE('',#249,#246,#166,.T.);
#306=EDGE_CURVE('',#250,#249,#137,.T.);
#307=EDGE_CURVE('',#251,#250,#138,.T.);
#308=EDGE_CURVE('',#247,#251,#167,.T.);
#309=EDGE_CURVE('',#252,#252,#139,.T.);
#310=EDGE_CURVE('',#253,#254,#140,.T.);
#311=EDGE_CURVE('',#254,#255,#168,.T.);
#312=EDGE_CURVE('',#255,#256,#141,.T.);
#313=EDGE_CURVE('',#256,#253,#169,.T.);
#314=EDGE_CURVE('',#256,#257,#170,.T.);
#315=EDGE_CURVE('',#258,#257,#142,.T.);
#316=EDGE_CURVE('',#253,#258,#171,.T.);
#317=EDGE_CURVE('',#259,#260,#143,.T.);
#318=EDGE_CURVE('',#260,#261,#172,.T.);
#319=EDGE_CURVE('',#261,#262,#144,.T.);
#320=EDGE_CURVE('',#262,#263,#145,.T.);
#321=EDGE_CURVE('',#263,#264,#146,.T.);
#322=EDGE_CURVE('',#264,#259,#173,.T.);
#323=EDGE_CURVE('',#265,#255,#174,.T.);
#324=EDGE_CURVE('',#249,#265,#175,.T.);
#325=EDGE_CURVE('',#266,#245,#176,.T.);
#326=EDGE_CURVE('',#257,#266,#177,.T.);
#327=EDGE_CURVE('',#248,#267,#178,.T.);
#328=EDGE_CURVE('',#267,#266,#147,.T.);
#329=EDGE_CURVE('',#252,#268,#179,.T.);
#330=EDGE_CURVE('',#268,#268,#148,.T.);
#331=EDGE_CURVE('',#250,#269,#180,.T.);
#332=EDGE_CURVE('',#269,#270,#149,.T.);
#333=EDGE_CURVE('',#270,#251,#181,.T.);
#334=EDGE_CURVE('',#265,#269,#150,.T.);
#335=EDGE_CURVE('',#254,#270,#182,.T.);
#336=EDGE_CURVE('',#258,#267,#183,.T.);
#337=EDGE_CURVE('',#271,#271,#151,.T.);
#338=EDGE_CURVE('',#271,#241,#184,.T.);
#339=EDGE_CURVE('',#272,#272,#152,.T.);
#340=EDGE_CURVE('',#272,#237,#185,.T.);
#341=EDGE_CURVE('',#273,#273,#153,.T.);
#342=EDGE_CURVE('',#273,#240,#186,.T.);
#343=EDGE_CURVE('',#259,#274,#187,.T.);
#344=EDGE_CURVE('',#274,#275,#154,.T.);
#345=EDGE_CURVE('',#260,#275,#188,.T.);
#346=EDGE_CURVE('',#264,#276,#189,.T.);
#347=EDGE_CURVE('',#276,#274,#190,.T.);
#348=EDGE_CURVE('',#263,#277,#191,.T.);
#349=EDGE_CURVE('',#277,#276,#155,.T.);
#350=EDGE_CURVE('',#262,#278,#192,.T.);
#351=EDGE_CURVE('',#278,#277,#156,.T.);
#352=EDGE_CURVE('',#261,#279,#193,.T.);
#353=EDGE_CURVE('',#279,#278,#157,.T.);
#354=EDGE_CURVE('',#275,#279,#194,.T.);
#355=ORIENTED_EDGE('',*,*,#280,.F.);
#356=ORIENTED_EDGE('',*,*,#281,.F.);
#357=ORIENTED_EDGE('',*,*,#282,.T.);
#358=ORIENTED_EDGE('',*,*,#283,.T.);
#359=ORIENTED_EDGE('',*,*,#284,.F.);
#360=ORIENTED_EDGE('',*,*,#285,.T.);
#361=ORIENTED_EDGE('',*,*,#286,.F.);
#362=ORIENTED_EDGE('',*,*,#287,.T.);
#363=ORIENTED_EDGE('',*,*,#283,.F.);
#364=ORIENTED_EDGE('',*,*,#288,.F.);
#365=ORIENTED_EDGE('',*,*,#289,.T.);
#366=ORIENTED_EDGE('',*,*,#290,.F.);
#367=ORIENTED_EDGE('',*,*,#291,.T.);
#368=ORIENTED_EDGE('',*,*,#280,.T.);
#369=ORIENTED_EDGE('',*,*,#288,.T.);
#370=ORIENTED_EDGE('',*,*,#292,.F.);
#371=ORIENTED_EDGE('',*,*,#293,.F.);
#372=ORIENTED_EDGE('',*,*,#290,.T.);
#373=ORIENTED_EDGE('',*,*,#282,.F.);
#374=ORIENTED_EDGE('',*,*,#294,.F.);
#375=ORIENTED_EDGE('',*,*,#292,.T.);
#376=ORIENTED_EDGE('',*,*,#295,.F.);
#377=ORIENTED_EDGE('',*,*,#296,.T.);
#378=ORIENTED_EDGE('',*,*,#284,.T.);
#379=ORIENTED_EDGE('',*,*,#296,.F.);
#380=ORIENTED_EDGE('',*,*,#297,.F.);
#381=ORIENTED_EDGE('',*,*,#298,.T.);
#382=ORIENTED_EDGE('',*,*,#286,.T.);
#383=ORIENTED_EDGE('',*,*,#298,.F.);
#384=ORIENTED_EDGE('',*,*,#287,.F.);
#385=ORIENTED_EDGE('',*,*,#299,.T.);
#386=ORIENTED_EDGE('',*,*,#300,.F.);
#387=ORIENTED_EDGE('',*,*,#299,.F.);
#388=ORIENTED_EDGE('',*,*,#301,.T.);
#389=ORIENTED_EDGE('',*,*,#302,.T.);
#390=ORIENTED_EDGE('',*,*,#303,.T.);
#391=ORIENTED_EDGE('',*,*,#304,.T.);
#392=ORIENTED_EDGE('',*,*,#302,.F.);
#393=ORIENTED_EDGE('',*,*,#305,.F.);
#394=ORIENTED_EDGE('',*,*,#306,.F.);
#395=ORIENTED_EDGE('',*,*,#307,.F.);
#396=ORIENTED_EDGE('',*,*,#308,.F.);
#397=ORIENTED_EDGE('',*,*,#309,.F.);
#398=ORIENTED_EDGE('',*,*,#310,.T.);
#399=ORIENTED_EDGE('',*,*,#311,.T.);
#400=ORIENTED_EDGE('',*,*,#312,.T.);
#401=ORIENTED_EDGE('',*,*,#313,.T.);
#402=ORIENTED_EDGE('',*,*,#313,.F.);
#403=ORIENTED_EDGE('',*,*,#314,.T.);
#404=ORIENTED_EDGE('',*,*,#315,.F.);
#405=ORIENTED_EDGE('',*,*,#316,.F.);
#406=ORIENTED_EDGE('',*,*,#317,.T.);
#407=ORIENTED_EDGE('',*,*,#318,.T.);
#408=ORIENTED_EDGE('',*,*,#319,.T.);
#409=ORIENTED_EDGE('',*,*,#320,.T.);
#410=ORIENTED_EDGE('',*,*,#321,.T.);
#411=ORIENTED_EDGE('',*,*,#322,.T.);
#412=ORIENTED_EDGE('',*,*,#312,.F.);
#413=ORIENTED_EDGE('',*,*,#323,.F.);
#414=ORIENTED_EDGE('',*,*,#324,.F.);
#415=ORIENTED_EDGE('',*,*,#305,.T.);
#416=ORIENTED_EDGE('',*,*,#301,.F.);
#417=ORIENTED_EDGE('',*,*,#325,.F.);
#418=ORIENTED_EDGE('',*,*,#326,.F.);
#419=ORIENTED_EDGE('',*,*,#314,.F.);
#420=ORIENTED_EDGE('',*,*,#304,.F.);
#421=ORIENTED_EDGE('',*,*,#327,.T.);
#422=ORIENTED_EDGE('',*,*,#328,.T.);
#423=ORIENTED_EDGE('',*,*,#325,.T.);
#424=ORIENTED_EDGE('',*,*,#297,.T.);
#425=ORIENTED_EDGE('',*,*,#294,.T.);
#426=ORIENTED_EDGE('',*,*,#281,.T.);
#427=ORIENTED_EDGE('',*,*,#293,.T.);
#428=ORIENTED_EDGE('',*,*,#295,.T.);
#429=ORIENTED_EDGE('',*,*,#309,.T.);
#430=ORIENTED_EDGE('',*,*,#329,.T.);
#431=ORIENTED_EDGE('',*,*,#330,.F.);
#432=ORIENTED_EDGE('',*,*,#329,.F.);
#433=ORIENTED_EDGE('',*,*,#307,.T.);
#434=ORIENTED_EDGE('',*,*,#331,.T.);
#435=ORIENTED_EDGE('',*,*,#332,.T.);
#436=ORIENTED_EDGE('',*,*,#333,.T.);
#437=ORIENTED_EDGE('',*,*,#334,.T.);
#438=ORIENTED_EDGE('',*,*,#331,.F.);
#439=ORIENTED_EDGE('',*,*,#306,.T.);
#440=ORIENTED_EDGE('',*,*,#324,.T.);
#441=ORIENTED_EDGE('',*,*,#311,.F.);
#442=ORIENTED_EDGE('',*,*,#335,.T.);
#443=ORIENTED_EDGE('',*,*,#332,.F.);
#444=ORIENTED_EDGE('',*,*,#334,.F.);
#445=ORIENTED_EDGE('',*,*,#323,.T.);
#446=ORIENTED_EDGE('',*,*,#330,.T.);
#447=ORIENTED_EDGE('',*,*,#310,.F.);
#448=ORIENTED_EDGE('',*,*,#316,.T.);
#449=ORIENTED_EDGE('',*,*,#336,.T.);
#450=ORIENTED_EDGE('',*,*,#327,.F.);
#451=ORIENTED_EDGE('',*,*,#303,.F.);
#452=ORIENTED_EDGE('',*,*,#308,.T.);
#453=ORIENTED_EDGE('',*,*,#333,.F.);
#454=ORIENTED_EDGE('',*,*,#335,.F.);
#455=ORIENTED_EDGE('',*,*,#337,.T.);
#456=ORIENTED_EDGE('',*,*,#338,.T.);
#457=ORIENTED_EDGE('',*,*,#291,.F.);
#458=ORIENTED_EDGE('',*,*,#338,.F.);
#459=ORIENTED_EDGE('',*,*,#339,.T.);
#460=ORIENTED_EDGE('',*,*,#340,.T.);
#461=ORIENTED_EDGE('',*,*,#285,.F.);
#462=ORIENTED_EDGE('',*,*,#340,.F.);
#463=ORIENTED_EDGE('',*,*,#341,.T.);
#464=ORIENTED_EDGE('',*,*,#342,.T.);
#465=ORIENTED_EDGE('',*,*,#289,.F.);
#466=ORIENTED_EDGE('',*,*,#342,.F.);
#467=ORIENTED_EDGE('',*,*,#317,.F.);
#468=ORIENTED_EDGE('',*,*,#343,.T.);
#469=ORIENTED_EDGE('',*,*,#344,.T.);
#470=ORIENTED_EDGE('',*,*,#345,.F.);
#471=ORIENTED_EDGE('',*,*,#322,.F.);
#472=ORIENTED_EDGE('',*,*,#346,.T.);
#473=ORIENTED_EDGE('',*,*,#347,.T.);
#474=ORIENTED_EDGE('',*,*,#343,.F.);
#475=ORIENTED_EDGE('',*,*,#321,.F.);
#476=ORIENTED_EDGE('',*,*,#348,.T.);
#477=ORIENTED_EDGE('',*,*,#349,.T.);
#478=ORIENTED_EDGE('',*,*,#346,.F.);
#479=ORIENTED_EDGE('',*,*,#320,.F.);
#480=ORIENTED_EDGE('',*,*,#350,.T.);
#481=ORIENTED_EDGE('',*,*,#351,.T.);
#482=ORIENTED_EDGE('',*,*,#348,.F.);
#483=ORIENTED_EDGE('',*,*,#319,.F.);
#484=ORIENTED_EDGE('',*,*,#352,.T.);
#485=ORIENTED_EDGE('',*,*,#353,.T.);
#486=ORIENTED_EDGE('',*,*,#350,.F.);
#487=ORIENTED_EDGE('',*,*,#318,.F.);
#488=ORIENTED_EDGE('',*,*,#345,.T.);
#489=ORIENTED_EDGE('',*,*,#354,.T.);
#490=ORIENTED_EDGE('',*,*,#352,.F.);
#491=ORIENTED_EDGE('',*,*,#354,.F.);
#492=ORIENTED_EDGE('',*,*,#344,.F.);
#493=ORIENTED_EDGE('',*,*,#347,.F.);
#494=ORIENTED_EDGE('',*,*,#349,.F.);
#495=ORIENTED_EDGE('',*,*,#351,.F.);
#496=ORIENTED_EDGE('',*,*,#353,.F.);
#497=ORIENTED_EDGE('',*,*,#300,.T.);
#498=ORIENTED_EDGE('',*,*,#337,.F.);
#499=ORIENTED_EDGE('',*,*,#341,.F.);
#500=ORIENTED_EDGE('',*,*,#339,.F.);
#501=ORIENTED_EDGE('',*,*,#336,.F.);
#502=ORIENTED_EDGE('',*,*,#315,.T.);
#503=ORIENTED_EDGE('',*,*,#326,.T.);
#504=ORIENTED_EDGE('',*,*,#328,.F.);
#505=CYLINDRICAL_SURFACE('',#570,2.);
#506=CYLINDRICAL_SURFACE('',#585,2.);
#507=CYLINDRICAL_SURFACE('',#587,2.);
#508=CYLINDRICAL_SURFACE('',#589,2.5);
#509=CYLINDRICAL_SURFACE('',#591,2.5);
#510=CYLINDRICAL_SURFACE('',#593,1.5);
#511=CYLINDRICAL_SURFACE('',#595,7.5);
#512=CYLINDRICAL_SURFACE('',#602,10.);
#513=CYLINDRICAL_SURFACE('',#614,2.75);
#514=CYLINDRICAL_SURFACE('',#616,15.);
#515=CYLINDRICAL_SURFACE('',#618,15.);
#516=CYLINDRICAL_SURFACE('',#622,1.25);
#517=CYLINDRICAL_SURFACE('',#624,1.5);
#518=CYLINDRICAL_SURFACE('',#626,1.25);
#519=CYLINDRICAL_SURFACE('',#628,3.53553390593274);
#520=CYLINDRICAL_SURFACE('',#631,31.0396054852251);
#521=CYLINDRICAL_SURFACE('',#633,7.65);
#522=CYLINDRICAL_SURFACE('',#635,31.0396054852254);
#523=CYLINDRICAL_SURFACE('',#639,15.);
#524=ADVANCED_FACE('',(#42),#505,.F.);
#525=ADVANCED_FACE('',(#43,#15),#29,.T.);
#526=ADVANCED_FACE('',(#44,#16),#30,.T.);
#527=ADVANCED_FACE('',(#45,#17),#31,.T.);
#528=ADVANCED_FACE('',(#46,#18),#32,.T.);
#529=ADVANCED_FACE('',(#47),#506,.F.);
#530=ADVANCED_FACE('',(#48),#507,.F.);
#531=ADVANCED_FACE('',(#49),#508,.F.);
#532=ADVANCED_FACE('',(#50),#509,.F.);
#533=ADVANCED_FACE('',(#51),#510,.F.);
#534=ADVANCED_FACE('',(#52),#511,.F.);
#535=ADVANCED_FACE('',(#53,#19),#33,.T.);
#536=ADVANCED_FACE('',(#54),#512,.T.);
#537=ADVANCED_FACE('',(#55,#20),#34,.F.);
#538=ADVANCED_FACE('',(#56),#35,.T.);
#539=ADVANCED_FACE('',(#57,#21,#22,#23),#36,.T.);
#540=ADVANCED_FACE('',(#58),#513,.F.);
#541=ADVANCED_FACE('',(#59),#514,.T.);
#542=ADVANCED_FACE('',(#60),#515,.T.);
#543=ADVANCED_FACE('',(#61,#24),#37,.T.);
#544=ADVANCED_FACE('',(#62),#38,.T.);
#545=ADVANCED_FACE('',(#63),#516,.F.);
#546=ADVANCED_FACE('',(#64),#517,.F.);
#547=ADVANCED_FACE('',(#65),#518,.F.);
#548=ADVANCED_FACE('',(#66),#519,.F.);
#549=ADVANCED_FACE('',(#67),#39,.F.);
#550=ADVANCED_FACE('',(#68),#520,.T.);
#551=ADVANCED_FACE('',(#69),#521,.F.);
#552=ADVANCED_FACE('',(#70),#522,.T.);
#553=ADVANCED_FACE('',(#71),#40,.F.);
#554=ADVANCED_FACE('',(#72,#25,#26,#27,#28),#41,.T.);
#555=ADVANCED_FACE('',(#73),#523,.T.);
#556=CLOSED_SHELL('',(#524,#525,#526,#527,#528,#529,#530,#531,#532,#533,
#534,#535,#536,#537,#538,#539,#540,#541,#542,#543,#544,#545,#546,#547,#548,
#549,#550,#551,#552,#553,#554,#555));
#557=DERIVED_UNIT_ELEMENT(#559,1.);
#558=DERIVED_UNIT_ELEMENT(#980,-3.);
#559=(
MASS_UNIT()
NAMED_UNIT(*)
SI_UNIT(.KILO.,.GRAM.)
);
#560=DERIVED_UNIT((#557,#558));
#561=MEASURE_REPRESENTATION_ITEM('density measure',
POSITIVE_RATIO_MEASURE(952.),#560);
#562=PROPERTY_DEFINITION_REPRESENTATION(#567,#564);
#563=PROPERTY_DEFINITION_REPRESENTATION(#568,#565);
#564=REPRESENTATION('material name',(#566),#977);
#565=REPRESENTATION('density',(#561),#977);
#566=DESCRIPTIVE_REPRESENTATION_ITEM('Plastic, Opaque White',
'Plastic, Opaque White');
#567=PROPERTY_DEFINITION('material property','material name',#987);
#568=PROPERTY_DEFINITION('material property','density of part',#987);
#569=AXIS2_PLACEMENT_3D('',#819,#640,#641);
#570=AXIS2_PLACEMENT_3D('',#820,#642,#643);
#571=AXIS2_PLACEMENT_3D('',#825,#645,#646);
#572=AXIS2_PLACEMENT_3D('',#828,#648,#649);
#573=AXIS2_PLACEMENT_3D('',#829,#650,#651);
#574=AXIS2_PLACEMENT_3D('',#831,#652,#653);
#575=AXIS2_PLACEMENT_3D('',#833,#654,#655);
#576=AXIS2_PLACEMENT_3D('',#834,#656,#657);
#577=AXIS2_PLACEMENT_3D('',#836,#658,#659);
#578=AXIS2_PLACEMENT_3D('',#838,#660,#661);
#579=AXIS2_PLACEMENT_3D('',#839,#662,#663);
#580=AXIS2_PLACEMENT_3D('',#840,#664,#665);
#581=AXIS2_PLACEMENT_3D('',#842,#666,#667);
#582=AXIS2_PLACEMENT_3D('',#843,#668,#669);
#583=AXIS2_PLACEMENT_3D('',#844,#670,#671);
#584=AXIS2_PLACEMENT_3D('',#846,#672,#673);
#585=AXIS2_PLACEMENT_3D('',#847,#674,#675);
#586=AXIS2_PLACEMENT_3D('',#849,#677,#678);
#587=AXIS2_PLACEMENT_3D('',#850,#679,#680);
#588=AXIS2_PLACEMENT_3D('',#851,#681,#682);
#589=AXIS2_PLACEMENT_3D('',#852,#683,#684);
#590=AXIS2_PLACEMENT_3D('',#854,#685,#686);
#591=AXIS2_PLACEMENT_3D('',#856,#688,#689);
#592=AXIS2_PLACEMENT_3D('',#858,#690,#691);
#593=AXIS2_PLACEMENT_3D('',#860,#693,#694);
#594=AXIS2_PLACEMENT_3D('',#863,#696,#697);
#595=AXIS2_PLACEMENT_3D('',#864,#698,#699);
#596=AXIS2_PLACEMENT_3D('',#867,#700,#701);
#597=AXIS2_PLACEMENT_3D('',#871,#703,#704);
#598=AXIS2_PLACEMENT_3D('',#873,#706,#707);
#599=AXIS2_PLACEMENT_3D('',#877,#709,#710);
#600=AXIS2_PLACEMENT_3D('',#879,#711,#712);
#601=AXIS2_PLACEMENT_3D('',#882,#714,#715);
#602=AXIS2_PLACEMENT_3D('',#883,#716,#717);
#603=AXIS2_PLACEMENT_3D('',#886,#718,#719);
#604=AXIS2_PLACEMENT_3D('',#890,#721,#722);
#605=AXIS2_PLACEMENT_3D('',#892,#724,#725);
#606=AXIS2_PLACEMENT_3D('',#896,#727,#728);
#607=AXIS2_PLACEMENT_3D('',#900,#730,#731);
#608=AXIS2_PLACEMENT_3D('',#904,#733,#734);
#609=AXIS2_PLACEMENT_3D('',#906,#735,#736);
#610=AXIS2_PLACEMENT_3D('',#908,#737,#738);
#611=AXIS2_PLACEMENT_3D('',#910,#740,#741);
#612=AXIS2_PLACEMENT_3D('',#917,#746,#747);
#613=AXIS2_PLACEMENT_3D('',#920,#749,#750);
#614=AXIS2_PLACEMENT_3D('',#921,#751,#752);
#615=AXIS2_PLACEMENT_3D('',#924,#754,#755);
#616=AXIS2_PLACEMENT_3D('',#925,#756,#757);
#617=AXIS2_PLACEMENT_3D('',#929,#759,#760);
#618=AXIS2_PLACEMENT_3D('',#931,#762,#763);
#619=AXIS2_PLACEMENT_3D('',#932,#764,#765);
#620=AXIS2_PLACEMENT_3D('',#933,#766,#767);
#621=AXIS2_PLACEMENT_3D('',#935,#769,#770);
#622=AXIS2_PLACEMENT_3D('',#937,#772,#773);
#623=AXIS2_PLACEMENT_3D('',#939,#774,#775);
#624=AXIS2_PLACEMENT_3D('',#941,#777,#778);
#625=AXIS2_PLACEMENT_3D('',#943,#779,#780);
#626=AXIS2_PLACEMENT_3D('',#945,#782,#783);
#627=AXIS2_PLACEMENT_3D('',#947,#784,#785);
#628=AXIS2_PLACEMENT_3D('',#949,#787,#788);
#629=AXIS2_PLACEMENT_3D('',#953,#790,#791);
#630=AXIS2_PLACEMENT_3D('',#955,#793,#794);
#631=AXIS2_PLACEMENT_3D('',#959,#797,#798);
#632=AXIS2_PLACEMENT_3D('',#962,#800,#801);
#633=AXIS2_PLACEMENT_3D('',#963,#802,#803);
#634=AXIS2_PLACEMENT_3D('',#966,#805,#806);
#635=AXIS2_PLACEMENT_3D('',#967,#807,#808);
#636=AXIS2_PLACEMENT_3D('',#970,#810,#811);
#637=AXIS2_PLACEMENT_3D('',#971,#812,#813);
#638=AXIS2_PLACEMENT_3D('',#973,#815,#816);
#639=AXIS2_PLACEMENT_3D('',#974,#817,#818);
#640=DIRECTION('axis',(0.,0.,1.));
#641=DIRECTION('refdir',(1.,0.,0.));
#642=DIRECTION('center_axis',(0.,0.,-1.));
#643=DIRECTION('ref_axis',(-1.,0.,0.));
#644=DIRECTION('',(0.,0.,-1.));
#645=DIRECTION('center_axis',(0.,0.,-1.));
#646=DIRECTION('ref_axis',(-1.,0.,0.));
#647=DIRECTION('',(0.,0.,-1.));
#648=DIRECTION('center_axis',(0.,0.,-1.));
#649=DIRECTION('ref_axis',(-1.,0.,0.));
#650=DIRECTION('center_axis',(0.,0.,1.));
#651=DIRECTION('ref_axis',(-1.,0.,0.));
#652=DIRECTION('center_axis',(0.,0.,-1.));
#653=DIRECTION('ref_axis',(-1.,0.,0.));
#654=DIRECTION('center_axis',(0.,0.,-1.));
#655=DIRECTION('ref_axis',(1.,0.,0.));
#656=DIRECTION('center_axis',(0.,0.,1.));
#657=DIRECTION('ref_axis',(-1.,0.,0.));
#658=DIRECTION('center_axis',(0.,0.,-1.));
#659=DIRECTION('ref_axis',(-1.,0.,0.));
#660=DIRECTION('center_axis',(0.,0.,-1.));
#661=DIRECTION('ref_axis',(-1.,0.,0.));
#662=DIRECTION('center_axis',(0.,0.,1.));
#663=DIRECTION('ref_axis',(-1.,0.,0.));
#664=DIRECTION('center_axis',(0.,0.,-1.));
#665=DIRECTION('ref_axis',(-1.,0.,0.));
#666=DIRECTION('center_axis',(0.,0.,-1.));
#667=DIRECTION('ref_axis',(1.,0.,0.));
#668=DIRECTION('center_axis',(0.,0.,1.));
#669=DIRECTION('ref_axis',(-1.,0.,0.));
#670=DIRECTION('center_axis',(0.,0.,-1.));
#671=DIRECTION('ref_axis',(-1.,0.,0.));
#672=DIRECTION('center_axis',(0.,0.,-1.));
#673=DIRECTION('ref_axis',(1.,0.,0.));
#674=DIRECTION('center_axis',(0.,0.,-1.));
#675=DIRECTION('ref_axis',(-1.,0.,0.));
#676=DIRECTION('',(0.,0.,-1.));
#677=DIRECTION('center_axis',(0.,0.,-1.));
#678=DIRECTION('ref_axis',(-1.,0.,0.));
#679=DIRECTION('center_axis',(0.,0.,-1.));
#680=DIRECTION('ref_axis',(-1.,0.,0.));
#681=DIRECTION('center_axis',(0.,0.,-1.));
#682=DIRECTION('ref_axis',(-1.,0.,0.));
#683=DIRECTION('center_axis',(0.,0.,-1.));
#684=DIRECTION('ref_axis',(-1.,0.,0.));
#685=DIRECTION('center_axis',(0.,0.,-1.));
#686=DIRECTION('ref_axis',(-1.,0.,0.));
#687=DIRECTION('',(0.,0.,-1.));
#688=DIRECTION('center_axis',(0.,0.,-1.));
#689=DIRECTION('ref_axis',(-1.,0.,0.));
#690=DIRECTION('center_axis',(0.,0.,-1.));
#691=DIRECTION('ref_axis',(-1.,0.,0.));
#692=DIRECTION('',(0.,0.,-1.));
#693=DIRECTION('center_axis',(0.,0.,-1.));
#694=DIRECTION('ref_axis',(-1.,0.,0.));
#695=DIRECTION('',(0.,0.,-1.));
#696=DIRECTION('center_axis',(0.,0.,1.));
#697=DIRECTION('ref_axis',(-1.,0.,0.));
#698=DIRECTION('center_axis',(0.,1.,0.));
#699=DIRECTION('ref_axis',(0.707106781186547,0.,-0.707106781186547));
#700=DIRECTION('center_axis',(0.,-1.,0.));
#701=DIRECTION('ref_axis',(0.707106781186547,0.,-0.707106781186547));
#702=DIRECTION('',(0.,1.,0.));
#703=DIRECTION('center_axis',(0.,1.,0.));
#704=DIRECTION('ref_axis',(0.707106781186547,0.,-0.707106781186547));
#705=DIRECTION('',(0.,-1.,0.));
#706=DIRECTION('center_axis',(-1.,0.,0.));
#707=DIRECTION('ref_axis',(0.,-1.,0.));
#708=DIRECTION('',(0.,0.,-1.));
#709=DIRECTION('center_axis',(1.,0.,0.));
#710=DIRECTION('ref_axis',(0.,-0.707106781186547,0.707106781186547));
#711=DIRECTION('center_axis',(1.,0.,0.));
#712=DIRECTION('ref_axis',(0.,0.707106781186547,0.707106781186547));
#713=DIRECTION('',(0.,0.,1.));
#714=DIRECTION('center_axis',(-1.,0.,0.));
#715=DIRECTION('ref_axis',(0.,-1.,0.));
#716=DIRECTION('center_axis',(0.,1.,0.));
#717=DIRECTION('ref_axis',(0.707106781186547,0.,-0.707106781186547));
#718=DIRECTION('center_axis',(0.,-1.,0.));
#719=DIRECTION('ref_axis',(0.707106781186547,0.,-0.707106781186547));
#720=DIRECTION('',(0.,-1.,0.));
#721=DIRECTION('center_axis',(0.,1.,0.));
#722=DIRECTION('ref_axis',(0.707106781186547,0.,-0.707106781186547));
#723=DIRECTION('',(0.,1.,0.));
#724=DIRECTION('center_axis',(0.,0.,1.));
#725=DIRECTION('ref_axis',(1.,0.,0.));
#726=DIRECTION('',(-1.,0.,0.));
#727=DIRECTION('center_axis',(0.,0.,1.));
#728=DIRECTION('ref_axis',(1.,0.,0.));
#729=DIRECTION('',(-1.,0.,0.));
#730=DIRECTION('center_axis',(0.,0.,1.));
#731=DIRECTION('ref_axis',(0.,1.,0.));
#732=DIRECTION('',(-0.999995589717781,-0.00296994023292054,0.));
#733=DIRECTION('center_axis',(0.,0.,-1.));
#734=DIRECTION('ref_axis',(-0.170396859382508,-0.985375517410788,0.));
#735=DIRECTION('center_axis',(0.,0.,1.));
#736=DIRECTION('ref_axis',(1.,0.,0.));
#737=DIRECTION('center_axis',(0.,0.,-1.));
#738=DIRECTION('ref_axis',(-0.382726656133952,0.923861627455391,0.));
#739=DIRECTION('',(0.999995589717781,-0.00296994023292054,0.));
#740=DIRECTION('center_axis',(0.,-1.,0.));
#741=DIRECTION('ref_axis',(-1.,0.,0.));
#742=DIRECTION('',(0.,0.,-1.));
#743=DIRECTION('',(1.,0.,0.));
#744=DIRECTION('',(1.,0.,0.));
#745=DIRECTION('',(0.,0.,1.));
#746=DIRECTION('center_axis',(0.,0.,1.));
#747=DIRECTION('ref_axis',(1.,0.,0.));
#748=DIRECTION('',(-1.,0.,0.));
#749=DIRECTION('center_axis',(0.,0.,1.));
#750=DIRECTION('ref_axis',(1.,0.,0.));
#751=DIRECTION('center_axis',(1.,0.,0.));
#752=DIRECTION('ref_axis',(0.,-1.,0.));
#753=DIRECTION('',(1.,0.,0.));
#754=DIRECTION('center_axis',(-1.,0.,0.));
#755=DIRECTION('ref_axis',(0.,-1.,0.));
#756=DIRECTION('center_axis',(-1.,0.,0.));
#757=DIRECTION('ref_axis',(0.,0.707106781186547,0.707106781186547));
#758=DIRECTION('',(1.,0.,0.));
#759=DIRECTION('center_axis',(-1.,0.,0.));
#760=DIRECTION('ref_axis',(0.,0.707106781186547,0.707106781186547));
#761=DIRECTION('',(-1.,0.,0.));
#762=DIRECTION('center_axis',(1.,0.,0.));
#763=DIRECTION('ref_axis',(0.,-0.707106781186547,0.707106781186547));
#764=DIRECTION('center_axis',(-1.,0.,0.));
#765=DIRECTION('ref_axis',(0.,-0.707106781186547,0.707106781186547));
#766=DIRECTION('center_axis',(1.,0.,0.));
#767=DIRECTION('ref_axis',(0.,0.,-1.));
#768=DIRECTION('',(0.,0.,1.));
#769=DIRECTION('center_axis',(0.,1.,0.));
#770=DIRECTION('ref_axis',(1.,0.,0.));
#771=DIRECTION('',(0.,0.,1.));
#772=DIRECTION('center_axis',(0.,0.,1.));
#773=DIRECTION('ref_axis',(1.,0.,0.));
#774=DIRECTION('center_axis',(0.,0.,-1.));
#775=DIRECTION('ref_axis',(1.,0.,0.));
#776=DIRECTION('',(0.,0.,1.));
#777=DIRECTION('center_axis',(0.,0.,1.));
#778=DIRECTION('ref_axis',(1.,0.,0.));
#779=DIRECTION('center_axis',(0.,0.,-1.));
#780=DIRECTION('ref_axis',(1.,0.,0.));
#781=DIRECTION('',(0.,0.,1.));
#782=DIRECTION('center_axis',(0.,0.,1.));
#783=DIRECTION('ref_axis',(1.,0.,0.));
#784=DIRECTION('center_axis',(0.,0.,-1.));
#785=DIRECTION('ref_axis',(1.,0.,0.));
#786=DIRECTION('',(0.,0.,1.));
#787=DIRECTION('center_axis',(0.,0.,1.));
#788=DIRECTION('ref_axis',(0.,1.,0.));
#789=DIRECTION('',(0.,0.,1.));
#790=DIRECTION('center_axis',(0.,0.,1.));
#791=DIRECTION('ref_axis',(0.,1.,0.));
#792=DIRECTION('',(0.,0.,1.));
#793=DIRECTION('center_axis',(-0.00296994023292054,-0.999995589717781,0.));
#794=DIRECTION('ref_axis',(0.999995589717781,-0.00296994023292054,0.));
#795=DIRECTION('',(0.,0.,1.));
#796=DIRECTION('',(0.999995589717781,-0.00296994023292054,0.));
#797=DIRECTION('center_axis',(0.,0.,1.));
#798=DIRECTION('ref_axis',(-0.382726656133952,0.923861627455391,0.));
#799=DIRECTION('',(0.,0.,1.));
#800=DIRECTION('center_axis',(0.,0.,-1.));
#801=DIRECTION('ref_axis',(-0.382726656133952,0.923861627455391,0.));
#802=DIRECTION('center_axis',(0.,0.,1.));
#803=DIRECTION('ref_axis',(-1.,-7.6571373978539E-16,0.));
#804=DIRECTION('',(0.,0.,1.));
#805=DIRECTION('center_axis',(0.,0.,1.));
#806=DIRECTION('ref_axis',(1.,0.,0.));
#807=DIRECTION('center_axis',(0.,0.,1.));
#808=DIRECTION('ref_axis',(-0.170396859382508,-0.985375517410788,0.));
#809=DIRECTION('',(0.,0.,1.));
#810=DIRECTION('center_axis',(0.,0.,-1.));
#811=DIRECTION('ref_axis',(-0.170396859382508,-0.985375517410788,0.));
#812=DIRECTION('center_axis',(-0.00296994023292054,0.999995589717781,0.));
#813=DIRECTION('ref_axis',(-0.999995589717781,-0.00296994023292054,0.));
#814=DIRECTION('',(-0.999995589717781,-0.00296994023292054,0.));
#815=DIRECTION('center_axis',(0.,0.,-1.));
#816=DIRECTION('ref_axis',(1.,0.,0.));
#817=DIRECTION('center_axis',(0.,0.,1.));
#818=DIRECTION('ref_axis',(-1.,1.22464679914735E-16,0.));
#819=CARTESIAN_POINT('',(0.,0.,0.));
#820=CARTESIAN_POINT('Origin',(24.,0.,10.7));
#821=CARTESIAN_POINT('',(26.,-2.44929359829471E-16,10.7));
#822=CARTESIAN_POINT('',(26.,-2.44929359829471E-16,8.7));
#823=CARTESIAN_POINT('',(26.,-2.44929359829471E-16,10.7));
#824=CARTESIAN_POINT('',(22.,2.44929359829471E-16,10.7));
#825=CARTESIAN_POINT('Origin',(24.,0.,10.7));
#826=CARTESIAN_POINT('',(22.,2.44929359829471E-16,8.7));
#827=CARTESIAN_POINT('',(22.,0.,10.7));
#828=CARTESIAN_POINT('Origin',(24.,0.,8.7));
#829=CARTESIAN_POINT('Origin',(9.,0.,8.7));
#830=CARTESIAN_POINT('',(11.5,3.06161699786838E-16,8.7));
#831=CARTESIAN_POINT('Origin',(9.,0.,8.7));
#832=CARTESIAN_POINT('',(7.5,-1.83697019872103E-16,8.7));
#833=CARTESIAN_POINT('Origin',(9.,0.,8.7));
#834=CARTESIAN_POINT('Origin',(0.,0.,8.7));
#835=CARTESIAN_POINT('',(2.5,3.06161699786838E-16,8.7));
#836=CARTESIAN_POINT('Origin',(0.,0.,8.7));
#837=CARTESIAN_POINT('',(1.5,1.83697019872103E-16,8.7));
#838=CARTESIAN_POINT('Origin',(0.,0.,8.7));
#839=CARTESIAN_POINT('Origin',(24.,0.,8.7));
#840=CARTESIAN_POINT('Origin',(24.,0.,8.7));
#841=CARTESIAN_POINT('',(22.75,-1.53080849893419E-16,8.7));
#842=CARTESIAN_POINT('Origin',(24.,0.,8.7));
#843=CARTESIAN_POINT('Origin',(20.,0.,8.7));
#844=CARTESIAN_POINT('Origin',(20.,0.,8.7));
#845=CARTESIAN_POINT('',(18.75,-1.53080849893419E-16,8.7));
#846=CARTESIAN_POINT('Origin',(20.,0.,8.7));
#847=CARTESIAN_POINT('Origin',(24.,0.,10.7));
#848=CARTESIAN_POINT('',(22.,0.,10.7));
#849=CARTESIAN_POINT('Origin',(24.,0.,10.7));
#850=CARTESIAN_POINT('Origin',(20.,0.,10.7));
#851=CARTESIAN_POINT('Origin',(20.,0.,10.7));
#852=CARTESIAN_POINT('Origin',(9.,0.,10.7));
#853=CARTESIAN_POINT('',(11.5,3.06161699786838E-16,10.7));
#854=CARTESIAN_POINT('Origin',(9.,0.,10.7));
#855=CARTESIAN_POINT('',(11.5,-3.06161699786838E-16,10.7));
#856=CARTESIAN_POINT('Origin',(0.,0.,10.7));
#857=CARTESIAN_POINT('',(2.5,3.06161699786838E-16,10.7));
#858=CARTESIAN_POINT('Origin',(0.,0.,10.7));
#859=CARTESIAN_POINT('',(2.5,-3.06161699786838E-16,10.7));
#860=CARTESIAN_POINT('Origin',(0.,0.,110.7));
#861=CARTESIAN_POINT('',(1.5,1.83697019872103E-16,6.));
#862=CARTESIAN_POINT('',(1.5,-1.83697019872103E-16,110.7));
#863=CARTESIAN_POINT('Origin',(0.,0.,6.));
#864=CARTESIAN_POINT('Origin',(27.0124772184771,0.,18.2));
#865=CARTESIAN_POINT('',(27.0124772184771,-15.0000002235174,10.7));
#866=CARTESIAN_POINT('',(34.5124772184771,-15.0000002235174,18.2));
#867=CARTESIAN_POINT('Origin',(27.0124772184771,-15.0000002235174,18.2));
#868=CARTESIAN_POINT('',(34.5124772184771,15.0000002235174,18.2));
#869=CARTESIAN_POINT('',(34.5124772184771,0.,18.2));
#870=CARTESIAN_POINT('',(27.0124772184771,15.0000002235174,10.7));
#871=CARTESIAN_POINT('Origin',(27.0124772184771,15.0000002235174,18.2));
#872=CARTESIAN_POINT('',(27.0124772184771,0.,10.7));
#873=CARTESIAN_POINT('Origin',(34.5124772184771,0.,73.119179247432));
#874=CARTESIAN_POINT('',(34.5124772184771,-15.0000002235174,113.767908811563));
#875=CARTESIAN_POINT('',(34.5124772184771,-15.0000002235174,41.909589623716));
#876=CARTESIAN_POINT('',(34.5124772184771,2.23517417907715E-7,128.767908811563));
#877=CARTESIAN_POINT('Origin',(34.5124772184771,-2.23517417907715E-7,113.767908811563));
#878=CARTESIAN_POINT('',(34.5124772184771,15.0000002235174,113.767908811563));
#879=CARTESIAN_POINT('Origin',(34.5124772184771,2.23517417907715E-7,113.767908811563));
#880=CARTESIAN_POINT('',(34.5124772184771,15.0000002235174,41.909589623716));
#881=CARTESIAN_POINT('',(34.5124772184771,2.75000022351743,72.4704496833009));
#882=CARTESIAN_POINT('Origin',(34.5124772184771,2.23517434190986E-7,72.4704496833009));
#883=CARTESIAN_POINT('Origin',(34.5124772184771,7.50000011175871,10.));
#884=CARTESIAN_POINT('',(34.5124772184771,14.9999997764826,0.));
#885=CARTESIAN_POINT('',(44.5124772184771,15.0000002235174,10.));
#886=CARTESIAN_POINT('Origin',(34.5124772184771,15.0000002235174,10.));
#887=CARTESIAN_POINT('',(44.5124772184771,-15.0000002235174,10.));
#888=CARTESIAN_POINT('',(44.5124772184771,7.50000011175871,10.));
#889=CARTESIAN_POINT('',(34.5124772184771,-15.0000002235174,0.));
#890=CARTESIAN_POINT('Origin',(34.5124772184771,-15.0000002235174,10.));
#891=CARTESIAN_POINT('',(34.5124772184771,7.50000011175871,0.));
#892=CARTESIAN_POINT('Origin',(0.,0.,0.));
#893=CARTESIAN_POINT('',(0.,-15.0000002235174,0.));
#894=CARTESIAN_POINT('',(0.,-15.0000002235174,0.));
#895=CARTESIAN_POINT('',(0.,15.0000002235174,0.));
#896=CARTESIAN_POINT('Origin',(0.,0.,0.));
#897=CARTESIAN_POINT('',(44.5124772184771,14.9999997764826,0.));
#898=CARTESIAN_POINT('',(23.9644660940673,-3.53553390593274,0.));
#899=CARTESIAN_POINT('',(23.9644660940673,3.53553390593274,0.));
#900=CARTESIAN_POINT('Origin',(23.9644660940673,0.,0.));
#901=CARTESIAN_POINT('',(12.,3.5,0.));
#902=CARTESIAN_POINT('',(11.9770885978179,3.49993195420477,0.));
#903=CARTESIAN_POINT('',(5.40936687607708,5.40936687607709,0.));
#904=CARTESIAN_POINT('Origin',(17.2890512911545,34.0856673152307,0.));
#905=CARTESIAN_POINT('',(5.40936687607709,-5.40936687607709,0.));
#906=CARTESIAN_POINT('Origin',(0.,0.,0.));
#907=CARTESIAN_POINT('',(12.,-3.50000000000001,0.));
#908=CARTESIAN_POINT('Origin',(17.2890512911544,-34.0856673152304,0.));
#909=CARTESIAN_POINT('',(5.99485555078429,-3.4821650012384,0.));
#910=CARTESIAN_POINT('Origin',(28.6,-15.0000002235174,10.7));
#911=CARTESIAN_POINT('',(44.5124772184771,-15.0000002235174,113.767908811563));
#912=CARTESIAN_POINT('',(44.5124772184771,-15.0000002235174,17.9260501155029));
#913=CARTESIAN_POINT('',(49.0562386092386,-15.0000002235174,113.767908811563));
#914=CARTESIAN_POINT('',(0.,-15.0000002235174,10.7));
#915=CARTESIAN_POINT('',(0.,-15.0000002235174,10.7));
#916=CARTESIAN_POINT('',(0.,-15.0000002235174,0.));
#917=CARTESIAN_POINT('Origin',(0.,0.,10.7));
#918=CARTESIAN_POINT('',(0.,15.0000002235174,10.7));
#919=CARTESIAN_POINT('',(28.6,15.0000002235174,10.7));
#920=CARTESIAN_POINT('Origin',(0.,0.,10.7));
#921=CARTESIAN_POINT('Origin',(24.5124772184771,2.23517434190986E-7,72.4704496833009));
#922=CARTESIAN_POINT('',(44.5124772184771,2.75000022351743,72.4704496833009));
#923=CARTESIAN_POINT('',(24.5124772184771,2.75000022351743,72.4704496833009));
#924=CARTESIAN_POINT('Origin',(44.5124772184771,2.23517434190986E-7,72.4704496833009));
#925=CARTESIAN_POINT('Origin',(34.7562386092386,2.23517417907715E-7,113.767908811563));
#926=CARTESIAN_POINT('',(44.5124772184771,2.23517417907715E-7,128.767908811563));
#927=CARTESIAN_POINT('',(34.7562386092386,2.23517417907715E-7,128.767908811563));
#928=CARTESIAN_POINT('',(44.5124772184771,15.0000002235174,113.767908811563));
#929=CARTESIAN_POINT('Origin',(44.5124772184771,2.23517417907715E-7,113.767908811563));
#930=CARTESIAN_POINT('',(34.7562386092386,15.0000002235174,113.767908811563));
#931=CARTESIAN_POINT('Origin',(49.0562386092386,-2.23517417907715E-7,113.767908811563));
#932=CARTESIAN_POINT('Origin',(44.5124772184771,-2.23517417907715E-7,113.767908811563));
#933=CARTESIAN_POINT('Origin',(44.5124772184771,15.0000002235174,33.0814514546504));
#934=CARTESIAN_POINT('',(44.5124772184771,15.0000002235174,10.741996163194));
#935=CARTESIAN_POINT('Origin',(0.,15.0000002235174,10.7));
#936=CARTESIAN_POINT('',(0.,15.0000002235174,0.));
#937=CARTESIAN_POINT('Origin',(20.,0.,0.));
#938=CARTESIAN_POINT('',(18.75,1.53080849893419E-16,6.));
#939=CARTESIAN_POINT('Origin',(20.,0.,6.));
#940=CARTESIAN_POINT('',(18.75,-1.53080849893419E-16,0.));
#941=CARTESIAN_POINT('Origin',(9.,0.,0.));
#942=CARTESIAN_POINT('',(7.5,1.83697019872103E-16,6.));
#943=CARTESIAN_POINT('Origin',(9.,0.,6.));
#944=CARTESIAN_POINT('',(7.5,-1.83697019872103E-16,0.));
#945=CARTESIAN_POINT('Origin',(24.,0.,0.));
#946=CARTESIAN_POINT('',(22.75,1.53080849893419E-16,6.));
#947=CARTESIAN_POINT('Origin',(24.,0.,6.));
#948=CARTESIAN_POINT('',(22.75,-1.53080849893419E-16,0.));
#949=CARTESIAN_POINT('Origin',(23.9644660940673,0.,0.));
#950=CARTESIAN_POINT('',(23.9644660940673,-3.53553390593274,6.));
#951=CARTESIAN_POINT('',(23.9644660940673,-3.53553390593274,0.));
#952=CARTESIAN_POINT('',(23.9644660940673,3.53553390593274,6.));
#953=CARTESIAN_POINT('Origin',(23.9644660940673,0.,6.));
#954=CARTESIAN_POINT('',(23.9644660940673,3.53553390593274,0.));
#955=CARTESIAN_POINT('Origin',(12.,-3.5,0.));
#956=CARTESIAN_POINT('',(12.,-3.50000000000001,6.));
#957=CARTESIAN_POINT('',(12.,-3.50000000000001,0.));
#958=CARTESIAN_POINT('',(12.,-3.5,6.));
#959=CARTESIAN_POINT('Origin',(17.2890512911544,-34.0856673152304,0.));
#960=CARTESIAN_POINT('',(5.40936687607709,-5.40936687607709,6.));
#961=CARTESIAN_POINT('',(5.40936687607709,-5.40936687607709,0.));
#962=CARTESIAN_POINT('Origin',(17.2890512911544,-34.0856673152304,6.));
#963=CARTESIAN_POINT('Origin',(0.,0.,0.));
#964=CARTESIAN_POINT('',(5.40936687607708,5.40936687607709,6.));
#965=CARTESIAN_POINT('',(5.40936687607708,5.40936687607709,0.));
#966=CARTESIAN_POINT('Origin',(0.,0.,6.));
#967=CARTESIAN_POINT('Origin',(17.2890512911545,34.0856673152307,0.));
#968=CARTESIAN_POINT('',(12.,3.5,6.));
#969=CARTESIAN_POINT('',(12.,3.5,0.));
#970=CARTESIAN_POINT('Origin',(17.2890512911545,34.0856673152307,6.));
#971=CARTESIAN_POINT('Origin',(23.9644660940673,3.53553390593274,0.));
#972=CARTESIAN_POINT('',(12.,3.5,6.));
#973=CARTESIAN_POINT('Origin',(9.925,0.,6.));
#974=CARTESIAN_POINT('Origin',(0.,0.,0.));
#975=UNCERTAINTY_MEASURE_WITH_UNIT(LENGTH_MEASURE(0.01),#979,
'DISTANCE_ACCURACY_VALUE',
'Maximum model space distance between geometric entities at asserted c
onnectivities');
#976=UNCERTAINTY_MEASURE_WITH_UNIT(LENGTH_MEASURE(0.01),#979,
'DISTANCE_ACCURACY_VALUE',
'Maximum model space distance between geometric entities at asserted c
onnectivities');
#977=(
GEOMETRIC_REPRESENTATION_CONTEXT(3)
GLOBAL_UNCERTAINTY_ASSIGNED_CONTEXT((#975))
GLOBAL_UNIT_ASSIGNED_CONTEXT((#979,#981,#982))
REPRESENTATION_CONTEXT('','3D')
);
#978=(
GEOMETRIC_REPRESENTATION_CONTEXT(3)
GLOBAL_UNCERTAINTY_ASSIGNED_CONTEXT((#976))
GLOBAL_UNIT_ASSIGNED_CONTEXT((#979,#981,#982))
REPRESENTATION_CONTEXT('','3D')
);
#979=(
LENGTH_UNIT()
NAMED_UNIT(*)
SI_UNIT(.MILLI.,.METRE.)
);
#980=(
LENGTH_UNIT()
NAMED_UNIT(*)
SI_UNIT($,.METRE.)
);
#981=(
NAMED_UNIT(*)
PLANE_ANGLE_UNIT()
SI_UNIT($,.RADIAN.)
);
#982=(
NAMED_UNIT(*)
SI_UNIT($,.STERADIAN.)
SOLID_ANGLE_UNIT()
);
#983=SHAPE_DEFINITION_REPRESENTATION(#984,#985);
#984=PRODUCT_DEFINITION_SHAPE('',$,#987);
#985=SHAPE_REPRESENTATION('',(#569),#977);
#986=PRODUCT_DEFINITION_CONTEXT('part definition',#991,'design');
#987=PRODUCT_DEFINITION('GYRA PITCH ARM V4','GYRA PITCH ARM V4 v6',#988,
#986);
#988=PRODUCT_DEFINITION_FORMATION('',$,#993);
#989=PRODUCT_RELATED_PRODUCT_CATEGORY('GYRA PITCH ARM V4 v6',
'GYRA PITCH ARM V4 v6',(#993));
#990=APPLICATION_PROTOCOL_DEFINITION('international standard',
'automotive_design',2009,#991);
#991=APPLICATION_CONTEXT(
'Core Data for Automotive Mechanical Design Process');
#992=PRODUCT_CONTEXT('part definition',#991,'mechanical');
#993=PRODUCT('GYRA PITCH ARM V4','GYRA PITCH ARM V4 v6',$,(#992));
#994=PRESENTATION_STYLE_ASSIGNMENT((#995));
#995=SURFACE_STYLE_USAGE(.BOTH.,#996);
#996=SURFACE_SIDE_STYLE('',(#997));
#997=SURFACE_STYLE_FILL_AREA(#998);
#998=FILL_AREA_STYLE('Plastic - Glossy (White)',(#999));
#999=FILL_AREA_STYLE_COLOUR('Plastic - Glossy (White)',#1000);
#1000=COLOUR_RGB('Plastic - Glossy (White)',0.964705882352941,0.964705882352941,
0.952941176470588);
ENDSEC;
END-ISO-10303-21;
