ISO-10303-21;
HEADER;
/* Generated by software containing ST-Developer
 * from STEP Tools, Inc. (www.steptools.com) 
 */

FILE_DESCRIPTION(
/* description */ (''),
/* implementation_level */ '2;1');

FILE_NAME(
/* name */ 'GYRA PITCH ARM V4 v2.step',
/* time_stamp */ '2026-05-20T22:52:06+05:30',
/* author */ (''),
/* organization */ (''),
/* preprocessor_version */ 'ST-DEVELOPER v20.1',
/* originating_system */ 'Autodesk Translation Framework v15.8.0.0',
/* authorisation */ '');

FILE_SCHEMA (('AUTOMOTIVE_DESIGN { 1 0 10303 214 3 1 1 }'));
ENDSEC;

DATA;
#10=MECHANICAL_DESIGN_GEOMETRIC_PRESENTATION_REPRESENTATION('',(#13),#851);
#11=SHAPE_REPRESENTATION_RELATIONSHIP('SRR','None',#858,#12);
#12=ADVANCED_BREP_SHAPE_REPRESENTATION('',(#14),#850);
#13=STYLED_ITEM('',(#867),#14);
#14=MANIFOLD_SOLID_BREP('Body1',#491);
#15=FACE_BOUND('',#68,.T.);
#16=FACE_BOUND('',#73,.T.);
#17=FACE_BOUND('',#80,.T.);
#18=FACE_BOUND('',#85,.T.);
#19=FACE_BOUND('',#90,.T.);
#20=FACE_BOUND('',#91,.T.);
#21=FACE_BOUND('',#92,.T.);
#22=FACE_BOUND('',#93,.T.);
#23=FACE_BOUND('',#94,.T.);
#24=FACE_BOUND('',#98,.T.);
#25=FACE_BOUND('',#99,.T.);
#26=FACE_BOUND('',#100,.T.);
#27=FACE_BOUND('',#101,.T.);
#28=FACE_BOUND('',#102,.T.);
#29=PLANE('',#508);
#30=PLANE('',#513);
#31=PLANE('',#517);
#32=PLANE('',#520);
#33=PLANE('',#532);
#34=PLANE('',#536);
#35=PLANE('',#539);
#36=PLANE('',#540);
#37=PLANE('',#545);
#38=PLANE('',#546);
#39=PLANE('',#554);
#40=FACE_OUTER_BOUND('',#66,.T.);
#41=FACE_OUTER_BOUND('',#67,.T.);
#42=FACE_OUTER_BOUND('',#69,.T.);
#43=FACE_OUTER_BOUND('',#70,.T.);
#44=FACE_OUTER_BOUND('',#71,.T.);
#45=FACE_OUTER_BOUND('',#72,.T.);
#46=FACE_OUTER_BOUND('',#74,.T.);
#47=FACE_OUTER_BOUND('',#75,.T.);
#48=FACE_OUTER_BOUND('',#76,.T.);
#49=FACE_OUTER_BOUND('',#77,.T.);
#50=FACE_OUTER_BOUND('',#78,.T.);
#51=FACE_OUTER_BOUND('',#79,.T.);
#52=FACE_OUTER_BOUND('',#81,.T.);
#53=FACE_OUTER_BOUND('',#82,.T.);
#54=FACE_OUTER_BOUND('',#83,.T.);
#55=FACE_OUTER_BOUND('',#84,.T.);
#56=FACE_OUTER_BOUND('',#86,.T.);
#57=FACE_OUTER_BOUND('',#87,.T.);
#58=FACE_OUTER_BOUND('',#88,.T.);
#59=FACE_OUTER_BOUND('',#89,.T.);
#60=FACE_OUTER_BOUND('',#95,.T.);
#61=FACE_OUTER_BOUND('',#96,.T.);
#62=FACE_OUTER_BOUND('',#97,.T.);
#63=FACE_OUTER_BOUND('',#103,.T.);
#64=FACE_OUTER_BOUND('',#104,.T.);
#65=FACE_OUTER_BOUND('',#105,.T.);
#66=EDGE_LOOP('',(#318,#319,#320,#321));
#67=EDGE_LOOP('',(#322));
#68=EDGE_LOOP('',(#323));
#69=EDGE_LOOP('',(#324,#325,#326,#327));
#70=EDGE_LOOP('',(#328,#329,#330,#331));
#71=EDGE_LOOP('',(#332,#333,#334,#335));
#72=EDGE_LOOP('',(#336,#337,#338,#339));
#73=EDGE_LOOP('',(#340));
#74=EDGE_LOOP('',(#341,#342,#343,#344,#345,#346,#347,#348,#349,#350,#351,
#352));
#75=EDGE_LOOP('',(#353,#354,#355,#356));
#76=EDGE_LOOP('',(#357,#358,#359,#360));
#77=EDGE_LOOP('',(#361,#362,#363,#364));
#78=EDGE_LOOP('',(#365,#366,#367,#368));
#79=EDGE_LOOP('',(#369,#370,#371,#372,#373,#374));
#80=EDGE_LOOP('',(#375));
#81=EDGE_LOOP('',(#376,#377,#378,#379,#380,#381,#382,#383,#384,#385,#386,
#387));
#82=EDGE_LOOP('',(#388,#389,#390,#391));
#83=EDGE_LOOP('',(#392,#393,#394,#395));
#84=EDGE_LOOP('',(#396,#397,#398,#399,#400,#401));
#85=EDGE_LOOP('',(#402));
#86=EDGE_LOOP('',(#403,#404,#405,#406));
#87=EDGE_LOOP('',(#407,#408,#409,#410));
#88=EDGE_LOOP('',(#411,#412,#413,#414));
#89=EDGE_LOOP('',(#415,#416,#417,#418));
#90=EDGE_LOOP('',(#419));
#91=EDGE_LOOP('',(#420));
#92=EDGE_LOOP('',(#421));
#93=EDGE_LOOP('',(#422));
#94=EDGE_LOOP('',(#423));
#95=EDGE_LOOP('',(#424,#425,#426,#427));
#96=EDGE_LOOP('',(#428,#429,#430,#431));
#97=EDGE_LOOP('',(#432));
#98=EDGE_LOOP('',(#433));
#99=EDGE_LOOP('',(#434));
#100=EDGE_LOOP('',(#435));
#101=EDGE_LOOP('',(#436));
#102=EDGE_LOOP('',(#437));
#103=EDGE_LOOP('',(#438,#439,#440,#441));
#104=EDGE_LOOP('',(#442,#443,#444,#445));
#105=EDGE_LOOP('',(#446,#447,#448,#449));
#106=LINE('',#716,#142);
#107=LINE('',#726,#143);
#108=LINE('',#729,#144);
#109=LINE('',#732,#145);
#110=LINE('',#734,#146);
#111=LINE('',#735,#147);
#112=LINE('',#741,#148);
#113=LINE('',#744,#149);
#114=LINE('',#747,#150);
#115=LINE('',#750,#151);
#116=LINE('',#755,#152);
#117=LINE('',#759,#153);
#118=LINE('',#761,#154);
#119=LINE('',#763,#155);
#120=LINE('',#766,#156);
#121=LINE('',#767,#157);
#122=LINE('',#771,#158);
#123=LINE('',#776,#159);
#124=LINE('',#781,#160);
#125=LINE('',#784,#161);
#126=LINE('',#787,#162);
#127=LINE('',#790,#163);
#128=LINE('',#794,#164);
#129=LINE('',#800,#165);
#130=LINE('',#801,#166);
#131=LINE('',#803,#167);
#132=LINE('',#804,#168);
#133=LINE('',#805,#169);
#134=LINE('',#809,#170);
#135=LINE('',#812,#171);
#136=LINE('',#813,#172);
#137=LINE('',#820,#173);
#138=LINE('',#833,#174);
#139=LINE('',#843,#175);
#140=LINE('',#845,#176);
#141=LINE('',#847,#177);
#142=VECTOR('',#567,2.5);
#143=VECTOR('',#578,10.);
#144=VECTOR('',#581,10.);
#145=VECTOR('',#584,10.);
#146=VECTOR('',#585,10.);
#147=VECTOR('',#586,10.);
#148=VECTOR('',#591,10.);
#149=VECTOR('',#594,10.);
#150=VECTOR('',#597,10.);
#151=VECTOR('',#600,10.);
#152=VECTOR('',#605,10.);
#153=VECTOR('',#608,10.);
#154=VECTOR('',#609,10.);
#155=VECTOR('',#610,10.);
#156=VECTOR('',#613,10.);
#157=VECTOR('',#614,10.);
#158=VECTOR('',#619,1.25);
#159=VECTOR('',#624,1.25);
#160=VECTOR('',#631,10.);
#161=VECTOR('',#634,10.);
#162=VECTOR('',#637,10.);
#163=VECTOR('',#640,10.);
#164=VECTOR('',#643,10.);
#165=VECTOR('',#650,10.);
#166=VECTOR('',#651,10.);
#167=VECTOR('',#652,10.);
#168=VECTOR('',#653,10.);
#169=VECTOR('',#654,10.);
#170=VECTOR('',#659,10.);
#171=VECTOR('',#662,10.);
#172=VECTOR('',#663,10.);
#173=VECTOR('',#674,3.175);
#174=VECTOR('',#691,1.25);
#175=VECTOR('',#704,1.25);
#176=VECTOR('',#707,1.25);
#177=VECTOR('',#710,11.25);
#178=CIRCLE('',#506,2.5);
#179=CIRCLE('',#507,2.5);
#180=CIRCLE('',#509,1.25);
#181=CIRCLE('',#511,10.);
#182=CIRCLE('',#512,10.);
#183=CIRCLE('',#515,10.);
#184=CIRCLE('',#516,10.);
#185=CIRCLE('',#518,15.);
#186=CIRCLE('',#519,11.25);
#187=CIRCLE('',#521,8.);
#188=CIRCLE('',#522,8.);
#189=CIRCLE('',#524,1.25);
#190=CIRCLE('',#526,1.25);
#191=CIRCLE('',#527,1.25);
#192=CIRCLE('',#529,8.);
#193=CIRCLE('',#531,8.);
#194=CIRCLE('',#533,10.);
#195=CIRCLE('',#534,10.);
#196=CIRCLE('',#535,2.55778);
#197=CIRCLE('',#538,10.);
#198=CIRCLE('',#541,10.);
#199=CIRCLE('',#542,2.55778);
#200=CIRCLE('',#547,15.);
#201=CIRCLE('',#548,1.25);
#202=CIRCLE('',#549,1.25);
#203=CIRCLE('',#550,1.25);
#204=CIRCLE('',#552,1.25);
#205=CIRCLE('',#555,11.25);
#206=CIRCLE('',#556,1.25);
#207=CIRCLE('',#557,1.25);
#208=VERTEX_POINT('',#713);
#209=VERTEX_POINT('',#715);
#210=VERTEX_POINT('',#719);
#211=VERTEX_POINT('',#722);
#212=VERTEX_POINT('',#723);
#213=VERTEX_POINT('',#725);
#214=VERTEX_POINT('',#727);
#215=VERTEX_POINT('',#731);
#216=VERTEX_POINT('',#733);
#217=VERTEX_POINT('',#737);
#218=VERTEX_POINT('',#738);
#219=VERTEX_POINT('',#740);
#220=VERTEX_POINT('',#742);
#221=VERTEX_POINT('',#746);
#222=VERTEX_POINT('',#748);
#223=VERTEX_POINT('',#751);
#224=VERTEX_POINT('',#754);
#225=VERTEX_POINT('',#756);
#226=VERTEX_POINT('',#758);
#227=VERTEX_POINT('',#760);
#228=VERTEX_POINT('',#762);
#229=VERTEX_POINT('',#765);
#230=VERTEX_POINT('',#769);
#231=VERTEX_POINT('',#773);
#232=VERTEX_POINT('',#775);
#233=VERTEX_POINT('',#779);
#234=VERTEX_POINT('',#783);
#235=VERTEX_POINT('',#785);
#236=VERTEX_POINT('',#789);
#237=VERTEX_POINT('',#791);
#238=VERTEX_POINT('',#793);
#239=VERTEX_POINT('',#796);
#240=VERTEX_POINT('',#799);
#241=VERTEX_POINT('',#802);
#242=VERTEX_POINT('',#807);
#243=VERTEX_POINT('',#811);
#244=VERTEX_POINT('',#816);
#245=VERTEX_POINT('',#824);
#246=VERTEX_POINT('',#826);
#247=VERTEX_POINT('',#828);
#248=VERTEX_POINT('',#831);
#249=VERTEX_POINT('',#836);
#250=VERTEX_POINT('',#838);
#251=VERTEX_POINT('',#840);
#252=EDGE_CURVE('',#208,#208,#178,.T.);
#253=EDGE_CURVE('',#208,#209,#106,.T.);
#254=EDGE_CURVE('',#209,#209,#179,.T.);
#255=EDGE_CURVE('',#210,#210,#180,.T.);
#256=EDGE_CURVE('',#211,#212,#181,.T.);
#257=EDGE_CURVE('',#212,#213,#107,.T.);
#258=EDGE_CURVE('',#213,#214,#182,.T.);
#259=EDGE_CURVE('',#214,#211,#108,.T.);
#260=EDGE_CURVE('',#215,#212,#109,.T.);
#261=EDGE_CURVE('',#216,#215,#110,.T.);
#262=EDGE_CURVE('',#213,#216,#111,.T.);
#263=EDGE_CURVE('',#217,#218,#183,.T.);
#264=EDGE_CURVE('',#218,#219,#112,.T.);
#265=EDGE_CURVE('',#219,#220,#184,.T.);
#266=EDGE_CURVE('',#220,#217,#113,.T.);
#267=EDGE_CURVE('',#218,#221,#114,.T.);
#268=EDGE_CURVE('',#222,#221,#185,.T.);
#269=EDGE_CURVE('',#222,#219,#115,.T.);
#270=EDGE_CURVE('',#223,#223,#186,.T.);
#271=EDGE_CURVE('',#217,#224,#116,.T.);
#272=EDGE_CURVE('',#225,#224,#187,.T.);
#273=EDGE_CURVE('',#225,#226,#117,.T.);
#274=EDGE_CURVE('',#227,#226,#118,.T.);
#275=EDGE_CURVE('',#228,#227,#119,.T.);
#276=EDGE_CURVE('',#215,#228,#188,.T.);
#277=EDGE_CURVE('',#229,#211,#120,.T.);
#278=EDGE_CURVE('',#221,#229,#121,.T.);
#279=EDGE_CURVE('',#230,#230,#189,.T.);
#280=EDGE_CURVE('',#230,#210,#122,.T.);
#281=EDGE_CURVE('',#231,#231,#190,.T.);
#282=EDGE_CURVE('',#231,#232,#123,.T.);
#283=EDGE_CURVE('',#232,#232,#191,.T.);
#284=EDGE_CURVE('',#233,#216,#192,.T.);
#285=EDGE_CURVE('',#228,#233,#124,.T.);
#286=EDGE_CURVE('',#224,#234,#125,.T.);
#287=EDGE_CURVE('',#234,#235,#193,.T.);
#288=EDGE_CURVE('',#235,#225,#126,.T.);
#289=EDGE_CURVE('',#236,#235,#127,.T.);
#290=EDGE_CURVE('',#237,#236,#194,.T.);
#291=EDGE_CURVE('',#238,#237,#128,.T.);
#292=EDGE_CURVE('',#226,#238,#195,.T.);
#293=EDGE_CURVE('',#239,#239,#196,.T.);
#294=EDGE_CURVE('',#222,#240,#129,.T.);
#295=EDGE_CURVE('',#214,#240,#130,.T.);
#296=EDGE_CURVE('',#233,#241,#131,.T.);
#297=EDGE_CURVE('',#236,#241,#132,.T.);
#298=EDGE_CURVE('',#234,#220,#133,.T.);
#299=EDGE_CURVE('',#241,#242,#197,.T.);
#300=EDGE_CURVE('',#242,#237,#134,.T.);
#301=EDGE_CURVE('',#242,#243,#135,.T.);
#302=EDGE_CURVE('',#238,#243,#136,.T.);
#303=EDGE_CURVE('',#243,#227,#198,.T.);
#304=EDGE_CURVE('',#244,#244,#199,.T.);
#305=EDGE_CURVE('',#244,#239,#137,.T.);
#306=EDGE_CURVE('',#240,#229,#200,.T.);
#307=EDGE_CURVE('',#245,#245,#201,.T.);
#308=EDGE_CURVE('',#246,#246,#202,.T.);
#309=EDGE_CURVE('',#247,#247,#203,.T.);
#310=EDGE_CURVE('',#248,#248,#204,.T.);
#311=EDGE_CURVE('',#248,#245,#138,.T.);
#312=EDGE_CURVE('',#249,#249,#205,.T.);
#313=EDGE_CURVE('',#250,#250,#206,.T.);
#314=EDGE_CURVE('',#251,#251,#207,.T.);
#315=EDGE_CURVE('',#251,#247,#139,.T.);
#316=EDGE_CURVE('',#250,#246,#140,.T.);
#317=EDGE_CURVE('',#223,#249,#141,.T.);
#318=ORIENTED_EDGE('',*,*,#252,.F.);
#319=ORIENTED_EDGE('',*,*,#253,.T.);
#320=ORIENTED_EDGE('',*,*,#254,.T.);
#321=ORIENTED_EDGE('',*,*,#253,.F.);
#322=ORIENTED_EDGE('',*,*,#254,.F.);
#323=ORIENTED_EDGE('',*,*,#255,.F.);
#324=ORIENTED_EDGE('',*,*,#256,.T.);
#325=ORIENTED_EDGE('',*,*,#257,.T.);
#326=ORIENTED_EDGE('',*,*,#258,.T.);
#327=ORIENTED_EDGE('',*,*,#259,.T.);
#328=ORIENTED_EDGE('',*,*,#257,.F.);
#329=ORIENTED_EDGE('',*,*,#260,.F.);
#330=ORIENTED_EDGE('',*,*,#261,.F.);
#331=ORIENTED_EDGE('',*,*,#262,.F.);
#332=ORIENTED_EDGE('',*,*,#263,.T.);
#333=ORIENTED_EDGE('',*,*,#264,.T.);
#334=ORIENTED_EDGE('',*,*,#265,.T.);
#335=ORIENTED_EDGE('',*,*,#266,.T.);
#336=ORIENTED_EDGE('',*,*,#264,.F.);
#337=ORIENTED_EDGE('',*,*,#267,.T.);
#338=ORIENTED_EDGE('',*,*,#268,.F.);
#339=ORIENTED_EDGE('',*,*,#269,.T.);
#340=ORIENTED_EDGE('',*,*,#270,.T.);
#341=ORIENTED_EDGE('',*,*,#263,.F.);
#342=ORIENTED_EDGE('',*,*,#271,.T.);
#343=ORIENTED_EDGE('',*,*,#272,.F.);
#344=ORIENTED_EDGE('',*,*,#273,.T.);
#345=ORIENTED_EDGE('',*,*,#274,.F.);
#346=ORIENTED_EDGE('',*,*,#275,.F.);
#347=ORIENTED_EDGE('',*,*,#276,.F.);
#348=ORIENTED_EDGE('',*,*,#260,.T.);
#349=ORIENTED_EDGE('',*,*,#256,.F.);
#350=ORIENTED_EDGE('',*,*,#277,.F.);
#351=ORIENTED_EDGE('',*,*,#278,.F.);
#352=ORIENTED_EDGE('',*,*,#267,.F.);
#353=ORIENTED_EDGE('',*,*,#279,.T.);
#354=ORIENTED_EDGE('',*,*,#280,.T.);
#355=ORIENTED_EDGE('',*,*,#255,.T.);
#356=ORIENTED_EDGE('',*,*,#280,.F.);
#357=ORIENTED_EDGE('',*,*,#281,.T.);
#358=ORIENTED_EDGE('',*,*,#282,.T.);
#359=ORIENTED_EDGE('',*,*,#283,.F.);
#360=ORIENTED_EDGE('',*,*,#282,.F.);
#361=ORIENTED_EDGE('',*,*,#284,.T.);
#362=ORIENTED_EDGE('',*,*,#261,.T.);
#363=ORIENTED_EDGE('',*,*,#276,.T.);
#364=ORIENTED_EDGE('',*,*,#285,.T.);
#365=ORIENTED_EDGE('',*,*,#272,.T.);
#366=ORIENTED_EDGE('',*,*,#286,.T.);
#367=ORIENTED_EDGE('',*,*,#287,.T.);
#368=ORIENTED_EDGE('',*,*,#288,.T.);
#369=ORIENTED_EDGE('',*,*,#288,.F.);
#370=ORIENTED_EDGE('',*,*,#289,.F.);
#371=ORIENTED_EDGE('',*,*,#290,.F.);
#372=ORIENTED_EDGE('',*,*,#291,.F.);
#373=ORIENTED_EDGE('',*,*,#292,.F.);
#374=ORIENTED_EDGE('',*,*,#273,.F.);
#375=ORIENTED_EDGE('',*,*,#293,.T.);
#376=ORIENTED_EDGE('',*,*,#265,.F.);
#377=ORIENTED_EDGE('',*,*,#269,.F.);
#378=ORIENTED_EDGE('',*,*,#294,.T.);
#379=ORIENTED_EDGE('',*,*,#295,.F.);
#380=ORIENTED_EDGE('',*,*,#258,.F.);
#381=ORIENTED_EDGE('',*,*,#262,.T.);
#382=ORIENTED_EDGE('',*,*,#284,.F.);
#383=ORIENTED_EDGE('',*,*,#296,.T.);
#384=ORIENTED_EDGE('',*,*,#297,.F.);
#385=ORIENTED_EDGE('',*,*,#289,.T.);
#386=ORIENTED_EDGE('',*,*,#287,.F.);
#387=ORIENTED_EDGE('',*,*,#298,.T.);
#388=ORIENTED_EDGE('',*,*,#299,.T.);
#389=ORIENTED_EDGE('',*,*,#300,.T.);
#390=ORIENTED_EDGE('',*,*,#290,.T.);
#391=ORIENTED_EDGE('',*,*,#297,.T.);
#392=ORIENTED_EDGE('',*,*,#300,.F.);
#393=ORIENTED_EDGE('',*,*,#301,.T.);
#394=ORIENTED_EDGE('',*,*,#302,.F.);
#395=ORIENTED_EDGE('',*,*,#291,.T.);
#396=ORIENTED_EDGE('',*,*,#285,.F.);
#397=ORIENTED_EDGE('',*,*,#275,.T.);
#398=ORIENTED_EDGE('',*,*,#303,.F.);
#399=ORIENTED_EDGE('',*,*,#301,.F.);
#400=ORIENTED_EDGE('',*,*,#299,.F.);
#401=ORIENTED_EDGE('',*,*,#296,.F.);
#402=ORIENTED_EDGE('',*,*,#304,.T.);
#403=ORIENTED_EDGE('',*,*,#292,.T.);
#404=ORIENTED_EDGE('',*,*,#302,.T.);
#405=ORIENTED_EDGE('',*,*,#303,.T.);
#406=ORIENTED_EDGE('',*,*,#274,.T.);
#407=ORIENTED_EDGE('',*,*,#304,.F.);
#408=ORIENTED_EDGE('',*,*,#305,.T.);
#409=ORIENTED_EDGE('',*,*,#293,.F.);
#410=ORIENTED_EDGE('',*,*,#305,.F.);
#411=ORIENTED_EDGE('',*,*,#266,.F.);
#412=ORIENTED_EDGE('',*,*,#298,.F.);
#413=ORIENTED_EDGE('',*,*,#286,.F.);
#414=ORIENTED_EDGE('',*,*,#271,.F.);
#415=ORIENTED_EDGE('',*,*,#259,.F.);
#416=ORIENTED_EDGE('',*,*,#295,.T.);
#417=ORIENTED_EDGE('',*,*,#306,.T.);
#418=ORIENTED_EDGE('',*,*,#277,.T.);
#419=ORIENTED_EDGE('',*,*,#252,.T.);
#420=ORIENTED_EDGE('',*,*,#307,.T.);
#421=ORIENTED_EDGE('',*,*,#308,.T.);
#422=ORIENTED_EDGE('',*,*,#283,.T.);
#423=ORIENTED_EDGE('',*,*,#309,.T.);
#424=ORIENTED_EDGE('',*,*,#310,.T.);
#425=ORIENTED_EDGE('',*,*,#311,.T.);
#426=ORIENTED_EDGE('',*,*,#307,.F.);
#427=ORIENTED_EDGE('',*,*,#311,.F.);
#428=ORIENTED_EDGE('',*,*,#294,.F.);
#429=ORIENTED_EDGE('',*,*,#268,.T.);
#430=ORIENTED_EDGE('',*,*,#278,.T.);
#431=ORIENTED_EDGE('',*,*,#306,.F.);
#432=ORIENTED_EDGE('',*,*,#312,.F.);
#433=ORIENTED_EDGE('',*,*,#279,.F.);
#434=ORIENTED_EDGE('',*,*,#281,.F.);
#435=ORIENTED_EDGE('',*,*,#310,.F.);
#436=ORIENTED_EDGE('',*,*,#313,.F.);
#437=ORIENTED_EDGE('',*,*,#314,.F.);
#438=ORIENTED_EDGE('',*,*,#314,.T.);
#439=ORIENTED_EDGE('',*,*,#315,.T.);
#440=ORIENTED_EDGE('',*,*,#309,.F.);
#441=ORIENTED_EDGE('',*,*,#315,.F.);
#442=ORIENTED_EDGE('',*,*,#313,.T.);
#443=ORIENTED_EDGE('',*,*,#316,.T.);
#444=ORIENTED_EDGE('',*,*,#308,.F.);
#445=ORIENTED_EDGE('',*,*,#316,.F.);
#446=ORIENTED_EDGE('',*,*,#270,.F.);
#447=ORIENTED_EDGE('',*,*,#317,.T.);
#448=ORIENTED_EDGE('',*,*,#312,.T.);
#449=ORIENTED_EDGE('',*,*,#317,.F.);
#450=CYLINDRICAL_SURFACE('',#505,2.5);
#451=CYLINDRICAL_SURFACE('',#510,10.);
#452=CYLINDRICAL_SURFACE('',#514,10.);
#453=CYLINDRICAL_SURFACE('',#523,1.25);
#454=CYLINDRICAL_SURFACE('',#525,1.25);
#455=CYLINDRICAL_SURFACE('',#528,8.);
#456=CYLINDRICAL_SURFACE('',#530,8.);
#457=CYLINDRICAL_SURFACE('',#537,10.);
#458=CYLINDRICAL_SURFACE('',#543,10.);
#459=CYLINDRICAL_SURFACE('',#544,2.55778);
#460=CYLINDRICAL_SURFACE('',#551,1.25);
#461=CYLINDRICAL_SURFACE('',#553,15.);
#462=CYLINDRICAL_SURFACE('',#558,1.25);
#463=CYLINDRICAL_SURFACE('',#559,1.25);
#464=CYLINDRICAL_SURFACE('',#560,11.25);
#465=ADVANCED_FACE('',(#40),#450,.F.);
#466=ADVANCED_FACE('',(#41,#15),#29,.T.);
#467=ADVANCED_FACE('',(#42),#451,.F.);
#468=ADVANCED_FACE('',(#43),#30,.T.);
#469=ADVANCED_FACE('',(#44),#452,.T.);
#470=ADVANCED_FACE('',(#45,#16),#31,.F.);
#471=ADVANCED_FACE('',(#46),#32,.T.);
#472=ADVANCED_FACE('',(#47),#453,.F.);
#473=ADVANCED_FACE('',(#48),#454,.F.);
#474=ADVANCED_FACE('',(#49),#455,.F.);
#475=ADVANCED_FACE('',(#50),#456,.T.);
#476=ADVANCED_FACE('',(#51,#17),#33,.T.);
#477=ADVANCED_FACE('',(#52),#34,.T.);
#478=ADVANCED_FACE('',(#53),#457,.T.);
#479=ADVANCED_FACE('',(#54),#35,.T.);
#480=ADVANCED_FACE('',(#55,#18),#36,.T.);
#481=ADVANCED_FACE('',(#56),#458,.T.);
#482=ADVANCED_FACE('',(#57),#459,.F.);
#483=ADVANCED_FACE('',(#58),#37,.T.);
#484=ADVANCED_FACE('',(#59,#19,#20,#21,#22,#23),#38,.T.);
#485=ADVANCED_FACE('',(#60),#460,.F.);
#486=ADVANCED_FACE('',(#61),#461,.T.);
#487=ADVANCED_FACE('',(#62,#24,#25,#26,#27,#28),#39,.F.);
#488=ADVANCED_FACE('',(#63),#462,.F.);
#489=ADVANCED_FACE('',(#64),#463,.F.);
#490=ADVANCED_FACE('',(#65),#464,.F.);
#491=CLOSED_SHELL('',(#465,#466,#467,#468,#469,#470,#471,#472,#473,#474,
#475,#476,#477,#478,#479,#480,#481,#482,#483,#484,#485,#486,#487,#488,#489,
#490));
#492=DERIVED_UNIT_ELEMENT(#494,1.);
#493=DERIVED_UNIT_ELEMENT(#853,-3.);
#494=(
MASS_UNIT()
NAMED_UNIT(*)
SI_UNIT(.KILO.,.GRAM.)
);
#495=DERIVED_UNIT((#492,#493));
#496=MEASURE_REPRESENTATION_ITEM('density measure',
POSITIVE_RATIO_MEASURE(952.),#495);
#497=PROPERTY_DEFINITION_REPRESENTATION(#502,#499);
#498=PROPERTY_DEFINITION_REPRESENTATION(#503,#500);
#499=REPRESENTATION('material name',(#501),#850);
#500=REPRESENTATION('density',(#496),#850);
#501=DESCRIPTIVE_REPRESENTATION_ITEM('Plastic, Opaque White',
'Plastic, Opaque White');
#502=PROPERTY_DEFINITION('material property','material name',#860);
#503=PROPERTY_DEFINITION('material property','density of part',#860);
#504=AXIS2_PLACEMENT_3D('',#711,#561,#562);
#505=AXIS2_PLACEMENT_3D('',#712,#563,#564);
#506=AXIS2_PLACEMENT_3D('',#714,#565,#566);
#507=AXIS2_PLACEMENT_3D('',#717,#568,#569);
#508=AXIS2_PLACEMENT_3D('',#718,#570,#571);
#509=AXIS2_PLACEMENT_3D('',#720,#572,#573);
#510=AXIS2_PLACEMENT_3D('',#721,#574,#575);
#511=AXIS2_PLACEMENT_3D('',#724,#576,#577);
#512=AXIS2_PLACEMENT_3D('',#728,#579,#580);
#513=AXIS2_PLACEMENT_3D('',#730,#582,#583);
#514=AXIS2_PLACEMENT_3D('',#736,#587,#588);
#515=AXIS2_PLACEMENT_3D('',#739,#589,#590);
#516=AXIS2_PLACEMENT_3D('',#743,#592,#593);
#517=AXIS2_PLACEMENT_3D('',#745,#595,#596);
#518=AXIS2_PLACEMENT_3D('',#749,#598,#599);
#519=AXIS2_PLACEMENT_3D('',#752,#601,#602);
#520=AXIS2_PLACEMENT_3D('',#753,#603,#604);
#521=AXIS2_PLACEMENT_3D('',#757,#606,#607);
#522=AXIS2_PLACEMENT_3D('',#764,#611,#612);
#523=AXIS2_PLACEMENT_3D('',#768,#615,#616);
#524=AXIS2_PLACEMENT_3D('',#770,#617,#618);
#525=AXIS2_PLACEMENT_3D('',#772,#620,#621);
#526=AXIS2_PLACEMENT_3D('',#774,#622,#623);
#527=AXIS2_PLACEMENT_3D('',#777,#625,#626);
#528=AXIS2_PLACEMENT_3D('',#778,#627,#628);
#529=AXIS2_PLACEMENT_3D('',#780,#629,#630);
#530=AXIS2_PLACEMENT_3D('',#782,#632,#633);
#531=AXIS2_PLACEMENT_3D('',#786,#635,#636);
#532=AXIS2_PLACEMENT_3D('',#788,#638,#639);
#533=AXIS2_PLACEMENT_3D('',#792,#641,#642);
#534=AXIS2_PLACEMENT_3D('',#795,#644,#645);
#535=AXIS2_PLACEMENT_3D('',#797,#646,#647);
#536=AXIS2_PLACEMENT_3D('',#798,#648,#649);
#537=AXIS2_PLACEMENT_3D('',#806,#655,#656);
#538=AXIS2_PLACEMENT_3D('',#808,#657,#658);
#539=AXIS2_PLACEMENT_3D('',#810,#660,#661);
#540=AXIS2_PLACEMENT_3D('',#814,#664,#665);
#541=AXIS2_PLACEMENT_3D('',#815,#666,#667);
#542=AXIS2_PLACEMENT_3D('',#817,#668,#669);
#543=AXIS2_PLACEMENT_3D('',#818,#670,#671);
#544=AXIS2_PLACEMENT_3D('',#819,#672,#673);
#545=AXIS2_PLACEMENT_3D('',#821,#675,#676);
#546=AXIS2_PLACEMENT_3D('',#822,#677,#678);
#547=AXIS2_PLACEMENT_3D('',#823,#679,#680);
#548=AXIS2_PLACEMENT_3D('',#825,#681,#682);
#549=AXIS2_PLACEMENT_3D('',#827,#683,#684);
#550=AXIS2_PLACEMENT_3D('',#829,#685,#686);
#551=AXIS2_PLACEMENT_3D('',#830,#687,#688);
#552=AXIS2_PLACEMENT_3D('',#832,#689,#690);
#553=AXIS2_PLACEMENT_3D('',#834,#692,#693);
#554=AXIS2_PLACEMENT_3D('',#835,#694,#695);
#555=AXIS2_PLACEMENT_3D('',#837,#696,#697);
#556=AXIS2_PLACEMENT_3D('',#839,#698,#699);
#557=AXIS2_PLACEMENT_3D('',#841,#700,#701);
#558=AXIS2_PLACEMENT_3D('',#842,#702,#703);
#559=AXIS2_PLACEMENT_3D('',#844,#705,#706);
#560=AXIS2_PLACEMENT_3D('',#846,#708,#709);
#561=DIRECTION('axis',(0.,0.,1.));
#562=DIRECTION('refdir',(1.,0.,0.));
#563=DIRECTION('center_axis',(0.,0.,-1.));
#564=DIRECTION('ref_axis',(-1.,0.,0.));
#565=DIRECTION('center_axis',(0.,0.,-1.));
#566=DIRECTION('ref_axis',(-1.,0.,0.));
#567=DIRECTION('',(0.,0.,-1.));
#568=DIRECTION('center_axis',(0.,0.,-1.));
#569=DIRECTION('ref_axis',(-1.,0.,0.));
#570=DIRECTION('center_axis',(0.,0.,1.));
#571=DIRECTION('ref_axis',(-1.,0.,0.));
#572=DIRECTION('center_axis',(0.,0.,1.));
#573=DIRECTION('ref_axis',(1.,0.,0.));
#574=DIRECTION('center_axis',(0.,1.,0.));
#575=DIRECTION('ref_axis',(0.279829014030992,0.,-0.960049854385929));
#576=DIRECTION('center_axis',(0.,-1.,0.));
#577=DIRECTION('ref_axis',(0.279829014030992,0.,-0.960049854385929));
#578=DIRECTION('',(0.,1.,0.));
#579=DIRECTION('center_axis',(0.,1.,0.));
#580=DIRECTION('ref_axis',(0.279829014030992,0.,-0.960049854385929));
#581=DIRECTION('',(0.,-1.,0.));
#582=DIRECTION('center_axis',(-0.537299608346824,0.,0.843391445812886));
#583=DIRECTION('ref_axis',(-0.843391445812886,0.,-0.537299608346824));
#584=DIRECTION('',(-0.843391445812886,0.,-0.537299608346824));
#585=DIRECTION('',(0.,-1.,0.));
#586=DIRECTION('',(0.843391445812886,0.,0.537299608346824));
#587=DIRECTION('center_axis',(0.,-1.,0.));
#588=DIRECTION('ref_axis',(0.279829014030993,0.,-0.960049854385928));
#589=DIRECTION('center_axis',(0.,1.,0.));
#590=DIRECTION('ref_axis',(0.279829014030993,0.,-0.960049854385928));
#591=DIRECTION('',(0.,1.,0.));
#592=DIRECTION('center_axis',(0.,-1.,0.));
#593=DIRECTION('ref_axis',(0.279829014030993,0.,-0.960049854385928));
#594=DIRECTION('',(0.,-1.,0.));
#595=DIRECTION('center_axis',(0.,0.,1.));
#596=DIRECTION('ref_axis',(1.,0.,0.));
#597=DIRECTION('',(-1.,0.,0.));
#598=DIRECTION('center_axis',(0.,0.,1.));
#599=DIRECTION('ref_axis',(1.,0.,0.));
#600=DIRECTION('',(1.,0.,0.));
#601=DIRECTION('center_axis',(0.,0.,1.));
#602=DIRECTION('ref_axis',(1.,0.,0.));
#603=DIRECTION('center_axis',(0.,-1.,0.));
#604=DIRECTION('ref_axis',(-1.,0.,0.));
#605=DIRECTION('',(0.843391445812886,0.,0.537299608346824));
#606=DIRECTION('center_axis',(0.,1.,0.));
#607=DIRECTION('ref_axis',(0.876726755707508,0.,-0.480988768919387));
#608=DIRECTION('',(0.,0.,1.));
#609=DIRECTION('',(1.,0.,0.));
#610=DIRECTION('',(0.,0.,1.));
#611=DIRECTION('center_axis',(0.,-1.,0.));
#612=DIRECTION('ref_axis',(0.876726755707508,0.,-0.480988768919387));
#613=DIRECTION('',(1.,0.,0.));
#614=DIRECTION('',(0.,0.,1.));
#615=DIRECTION('center_axis',(0.,0.,1.));
#616=DIRECTION('ref_axis',(1.,0.,0.));
#617=DIRECTION('center_axis',(0.,0.,-1.));
#618=DIRECTION('ref_axis',(1.,0.,0.));
#619=DIRECTION('',(0.,0.,1.));
#620=DIRECTION('center_axis',(0.,0.,1.));
#621=DIRECTION('ref_axis',(1.,0.,0.));
#622=DIRECTION('center_axis',(0.,0.,-1.));
#623=DIRECTION('ref_axis',(1.,0.,0.));
#624=DIRECTION('',(0.,0.,1.));
#625=DIRECTION('center_axis',(0.,0.,-1.));
#626=DIRECTION('ref_axis',(1.,0.,0.));
#627=DIRECTION('center_axis',(0.,-1.,0.));
#628=DIRECTION('ref_axis',(0.876726755707508,0.,-0.480988768919387));
#629=DIRECTION('center_axis',(0.,1.,0.));
#630=DIRECTION('ref_axis',(0.876726755707508,0.,-0.480988768919387));
#631=DIRECTION('',(0.,1.,0.));
#632=DIRECTION('center_axis',(0.,-1.,0.));
#633=DIRECTION('ref_axis',(0.876726755707508,0.,-0.480988768919387));
#634=DIRECTION('',(0.,1.,0.));
#635=DIRECTION('center_axis',(0.,-1.,0.));
#636=DIRECTION('ref_axis',(0.876726755707508,0.,-0.480988768919387));
#637=DIRECTION('',(0.,-1.,0.));
#638=DIRECTION('center_axis',(1.,0.,0.));
#639=DIRECTION('ref_axis',(0.,0.,1.));
#640=DIRECTION('',(0.,0.,-1.));
#641=DIRECTION('center_axis',(-1.,0.,0.));
#642=DIRECTION('ref_axis',(0.,0.707106781186547,0.707106781186547));
#643=DIRECTION('',(0.,1.,0.));
#644=DIRECTION('center_axis',(-1.,0.,0.));
#645=DIRECTION('ref_axis',(0.,-0.707106781186547,0.707106781186547));
#646=DIRECTION('center_axis',(-1.,0.,0.));
#647=DIRECTION('ref_axis',(0.,-1.,0.));
#648=DIRECTION('center_axis',(0.,1.,0.));
#649=DIRECTION('ref_axis',(1.,0.,0.));
#650=DIRECTION('',(0.,0.,1.));
#651=DIRECTION('',(-1.,0.,0.));
#652=DIRECTION('',(0.,0.,1.));
#653=DIRECTION('',(-1.,0.,0.));
#654=DIRECTION('',(-0.843391445812886,0.,-0.537299608346824));
#655=DIRECTION('center_axis',(-1.,0.,0.));
#656=DIRECTION('ref_axis',(0.,0.707106781186547,0.707106781186547));
#657=DIRECTION('center_axis',(1.,0.,0.));
#658=DIRECTION('ref_axis',(0.,0.707106781186547,0.707106781186547));
#659=DIRECTION('',(1.,0.,0.));
#660=DIRECTION('center_axis',(0.,0.,1.));
#661=DIRECTION('ref_axis',(1.,0.,0.));
#662=DIRECTION('',(0.,-1.,0.));
#663=DIRECTION('',(-1.,0.,0.));
#664=DIRECTION('center_axis',(-1.,0.,0.));
#665=DIRECTION('ref_axis',(0.,-1.,0.));
#666=DIRECTION('center_axis',(1.,0.,0.));
#667=DIRECTION('ref_axis',(0.,-0.707106781186547,0.707106781186547));
#668=DIRECTION('center_axis',(1.,0.,0.));
#669=DIRECTION('ref_axis',(0.,-1.,0.));
#670=DIRECTION('center_axis',(1.,0.,0.));
#671=DIRECTION('ref_axis',(0.,-0.707106781186547,0.707106781186547));
#672=DIRECTION('center_axis',(1.,0.,0.));
#673=DIRECTION('ref_axis',(0.,-1.,0.));
#674=DIRECTION('',(1.,0.,0.));
#675=DIRECTION('center_axis',(0.537299608346825,0.,-0.843391445812885));
#676=DIRECTION('ref_axis',(0.843391445812885,0.,0.537299608346825));
#677=DIRECTION('center_axis',(0.,0.,1.));
#678=DIRECTION('ref_axis',(1.,0.,0.));
#679=DIRECTION('center_axis',(0.,0.,1.));
#680=DIRECTION('ref_axis',(1.,0.,0.));
#681=DIRECTION('center_axis',(0.,0.,-1.));
#682=DIRECTION('ref_axis',(1.,0.,0.));
#683=DIRECTION('center_axis',(0.,0.,-1.));
#684=DIRECTION('ref_axis',(1.,0.,0.));
#685=DIRECTION('center_axis',(0.,0.,-1.));
#686=DIRECTION('ref_axis',(1.,0.,0.));
#687=DIRECTION('center_axis',(0.,0.,1.));
#688=DIRECTION('ref_axis',(1.,0.,0.));
#689=DIRECTION('center_axis',(0.,0.,-1.));
#690=DIRECTION('ref_axis',(1.,0.,0.));
#691=DIRECTION('',(0.,0.,1.));
#692=DIRECTION('center_axis',(0.,0.,1.));
#693=DIRECTION('ref_axis',(-1.,1.22464679914735E-16,0.));
#694=DIRECTION('center_axis',(0.,0.,1.));
#695=DIRECTION('ref_axis',(1.,0.,0.));
#696=DIRECTION('center_axis',(0.,0.,1.));
#697=DIRECTION('ref_axis',(1.,0.,0.));
#698=DIRECTION('center_axis',(0.,0.,-1.));
#699=DIRECTION('ref_axis',(1.,0.,0.));
#700=DIRECTION('center_axis',(0.,0.,-1.));
#701=DIRECTION('ref_axis',(1.,0.,0.));
#702=DIRECTION('center_axis',(0.,0.,1.));
#703=DIRECTION('ref_axis',(1.,0.,0.));
#704=DIRECTION('',(0.,0.,1.));
#705=DIRECTION('center_axis',(0.,0.,1.));
#706=DIRECTION('ref_axis',(1.,0.,0.));
#707=DIRECTION('',(0.,0.,1.));
#708=DIRECTION('center_axis',(0.,0.,1.));
#709=DIRECTION('ref_axis',(1.,0.,0.));
#710=DIRECTION('',(0.,0.,1.));
#711=CARTESIAN_POINT('',(0.,0.,0.));
#712=CARTESIAN_POINT('Origin',(0.,0.,10.7));
#713=CARTESIAN_POINT('',(2.5,3.06161699786838E-16,10.7));
#714=CARTESIAN_POINT('Origin',(0.,0.,10.7));
#715=CARTESIAN_POINT('',(2.5,3.06161699786838E-16,5.7));
#716=CARTESIAN_POINT('',(2.5,-3.06161699786838E-16,10.7));
#717=CARTESIAN_POINT('Origin',(0.,0.,5.7));
#718=CARTESIAN_POINT('Origin',(0.,0.,5.7));
#719=CARTESIAN_POINT('',(-1.25,-1.53080849893419E-16,5.7));
#720=CARTESIAN_POINT('Origin',(0.,0.,5.7));
#721=CARTESIAN_POINT('Origin',(10.9702658041391,7.50000011175871,20.7));
#722=CARTESIAN_POINT('',(10.9702658041391,-15.0000002235174,10.7));
#723=CARTESIAN_POINT('',(16.3432618876074,-14.9999997764826,12.2660855418711));
#724=CARTESIAN_POINT('Origin',(10.9702658041391,-15.0000002235174,20.7));
#725=CARTESIAN_POINT('',(16.3432618876074,15.0000002235174,12.2660855418711));
#726=CARTESIAN_POINT('',(16.3432618876074,7.50000011175871,12.2660855418711));
#727=CARTESIAN_POINT('',(10.9702658041391,15.0000002235174,10.7));
#728=CARTESIAN_POINT('Origin',(10.9702658041391,15.0000002235174,20.7));
#729=CARTESIAN_POINT('',(10.9702658041391,7.50000011175871,10.7));
#730=CARTESIAN_POINT('Origin',(59.5124772184771,15.0000002235174,39.7679088115632));
#731=CARTESIAN_POINT('',(55.8108740852517,-14.9999997764826,37.4097275380734));
#732=CARTESIAN_POINT('',(13.885,-14.9999997764826,10.7));
#733=CARTESIAN_POINT('',(55.8108740852517,15.0000002235174,37.4097275380734));
#734=CARTESIAN_POINT('',(55.8108740852517,15.0000002235174,37.4097275380734));
#735=CARTESIAN_POINT('',(13.885,15.0000002235174,10.7));
#736=CARTESIAN_POINT('Origin',(14.6702658041393,7.50000011175871,10.));
#737=CARTESIAN_POINT('',(20.0432618876075,-15.0000002235174,1.56608554187123));
#738=CARTESIAN_POINT('',(14.6702658041393,-15.0000002235174,0.));
#739=CARTESIAN_POINT('Origin',(14.6702658041393,-15.0000002235174,10.));
#740=CARTESIAN_POINT('',(14.6702658041393,15.0000002235174,0.));
#741=CARTESIAN_POINT('',(14.6702658041393,7.50000011175871,0.));
#742=CARTESIAN_POINT('',(20.0432618876075,15.0000002235174,1.56608554187123));
#743=CARTESIAN_POINT('Origin',(14.6702658041393,15.0000002235174,10.));
#744=CARTESIAN_POINT('',(20.0432618876076,7.50000011175871,1.56608554187115));
#745=CARTESIAN_POINT('Origin',(0.,0.,0.));
#746=CARTESIAN_POINT('',(0.,-15.0000002235174,0.));
#747=CARTESIAN_POINT('',(0.,-15.0000002235174,0.));
#748=CARTESIAN_POINT('',(0.,15.0000002235174,0.));
#749=CARTESIAN_POINT('Origin',(0.,0.,0.));
#750=CARTESIAN_POINT('',(28.6,15.0000002235174,0.));
#751=CARTESIAN_POINT('',(-11.25,-1.37772764904077E-15,0.));
#752=CARTESIAN_POINT('Origin',(0.,0.,0.));
#753=CARTESIAN_POINT('Origin',(28.6,-15.0000002235174,10.7));
#754=CARTESIAN_POINT('',(65.8108740852517,-15.0000002235174,30.7232701811606));
#755=CARTESIAN_POINT('',(29.4344083685915,-15.0000002235174,7.54890567979307));
#756=CARTESIAN_POINT('',(69.5124772184771,-14.9999997764826,37.4704017476637));
#757=CARTESIAN_POINT('Origin',(61.5124772184771,-15.0000002235174,37.4704017476637));
#758=CARTESIAN_POINT('',(69.5124772184771,-14.9999997764826,118.767908811563));
#759=CARTESIAN_POINT('',(69.5124772184771,-14.9999997764826,39.7679088115632));
#760=CARTESIAN_POINT('',(59.5124772184771,-14.9999997764826,118.767908811563));
#761=CARTESIAN_POINT('',(49.0562386092386,-15.0000002235174,118.767908811563));
#762=CARTESIAN_POINT('',(59.5124772184771,-14.9999997764826,44.1568591045765));
#763=CARTESIAN_POINT('',(59.5124772184771,-14.9999997764826,39.7679088115632));
#764=CARTESIAN_POINT('Origin',(51.5124772184771,-15.0000002235174,44.1568591045765));
#765=CARTESIAN_POINT('',(0.,-15.0000002235174,10.7));
#766=CARTESIAN_POINT('',(0.,-15.0000002235174,10.7));
#767=CARTESIAN_POINT('',(0.,-15.0000002235174,0.));
#768=CARTESIAN_POINT('Origin',(0.,0.,0.));
#769=CARTESIAN_POINT('',(-1.25,0.,4.));
#770=CARTESIAN_POINT('Origin',(0.,0.,4.));
#771=CARTESIAN_POINT('',(-1.25,-1.53080849893419E-16,0.));
#772=CARTESIAN_POINT('Origin',(0.,-7.,0.));
#773=CARTESIAN_POINT('',(-1.25,-7.,4.));
#774=CARTESIAN_POINT('Origin',(0.,-7.,4.));
#775=CARTESIAN_POINT('',(-1.25,-7.,10.7));
#776=CARTESIAN_POINT('',(-1.25,-7.,0.));
#777=CARTESIAN_POINT('Origin',(0.,-7.,10.7));
#778=CARTESIAN_POINT('Origin',(51.5124772184771,15.0000002235174,44.1568591045765));
#779=CARTESIAN_POINT('',(59.5124772184771,15.0000002235174,44.1568591045765));
#780=CARTESIAN_POINT('Origin',(51.5124772184771,15.0000002235174,44.1568591045765));
#781=CARTESIAN_POINT('',(59.5124772184771,15.0000002235174,44.1568591045765));
#782=CARTESIAN_POINT('Origin',(61.5124772184771,15.0000002235174,37.4704017476637));
#783=CARTESIAN_POINT('',(65.8108740852517,15.0000002235174,30.7232701811606));
#784=CARTESIAN_POINT('',(65.8108740852517,15.0000002235174,30.7232701811606));
#785=CARTESIAN_POINT('',(69.5124772184771,15.0000002235174,37.4704017476637));
#786=CARTESIAN_POINT('Origin',(61.5124772184771,15.0000002235174,37.4704017476637));
#787=CARTESIAN_POINT('',(69.5124772184771,15.0000002235174,37.4704017476637));
#788=CARTESIAN_POINT('Origin',(69.5124772184771,15.0000002235174,33.0814514546504));
#789=CARTESIAN_POINT('',(69.5124772184771,15.0000002235174,118.767908811563));
#790=CARTESIAN_POINT('',(69.5124772184771,15.0000002235174,39.7679088115632));
#791=CARTESIAN_POINT('',(69.5124772184771,5.00000022351742,128.767908811563));
#792=CARTESIAN_POINT('Origin',(69.5124772184771,5.00000022351742,118.767908811563));
#793=CARTESIAN_POINT('',(69.5124772184771,-5.00000022351742,128.767908811563));
#794=CARTESIAN_POINT('',(69.5124772184771,15.0000002235174,128.767908811563));
#795=CARTESIAN_POINT('Origin',(69.5124772184771,-5.00000022351742,118.767908811563));
#796=CARTESIAN_POINT('',(69.5124772184771,2.55778022351742,77.4979088115632));
#797=CARTESIAN_POINT('Origin',(69.5124772184771,2.23517417907715E-7,77.4979088115632));
#798=CARTESIAN_POINT('Origin',(0.,15.0000002235174,10.7));
#799=CARTESIAN_POINT('',(0.,15.0000002235174,10.7));
#800=CARTESIAN_POINT('',(0.,15.0000002235174,0.));
#801=CARTESIAN_POINT('',(28.6,15.0000002235174,10.7));
#802=CARTESIAN_POINT('',(59.5124772184771,15.0000002235174,118.767908811563));
#803=CARTESIAN_POINT('',(59.5124772184771,15.0000002235174,39.7679088115632));
#804=CARTESIAN_POINT('',(34.7562386092386,15.0000002235174,118.767908811563));
#805=CARTESIAN_POINT('',(19.2626877971455,15.0000002235174,1.06880500248102));
#806=CARTESIAN_POINT('Origin',(34.7562386092386,5.00000022351742,118.767908811563));
#807=CARTESIAN_POINT('',(59.5124772184771,5.00000022351742,128.767908811563));
#808=CARTESIAN_POINT('Origin',(59.5124772184771,5.00000022351742,118.767908811563));
#809=CARTESIAN_POINT('',(34.7562386092386,5.00000022351742,128.767908811563));
#810=CARTESIAN_POINT('Origin',(69.5124772184771,15.0000002235174,128.767908811563));
#811=CARTESIAN_POINT('',(59.5124772184771,-5.00000022351742,128.767908811563));
#812=CARTESIAN_POINT('',(59.5124772184771,15.0000002235174,128.767908811563));
#813=CARTESIAN_POINT('',(49.0562386092386,-5.00000022351742,128.767908811563));
#814=CARTESIAN_POINT('Origin',(59.5124772184771,15.0000002235174,39.7679088115632));
#815=CARTESIAN_POINT('Origin',(59.5124772184771,-5.00000022351742,118.767908811563));
#816=CARTESIAN_POINT('',(59.5124772184771,2.55778022351742,77.4979088115632));
#817=CARTESIAN_POINT('Origin',(59.5124772184771,2.23517417907715E-7,77.4979088115632));
#818=CARTESIAN_POINT('Origin',(49.0562386092386,-5.00000022351742,118.767908811563));
#819=CARTESIAN_POINT('Origin',(59.5124772184771,2.23517417907715E-7,77.4979088115632));
#820=CARTESIAN_POINT('',(59.5124772184771,2.55778022351742,77.4979088115632));
#821=CARTESIAN_POINT('Origin',(28.6,15.0000002235174,7.01732892279447));
#822=CARTESIAN_POINT('Origin',(0.,0.,10.7));
#823=CARTESIAN_POINT('Origin',(0.,0.,10.7));
#824=CARTESIAN_POINT('',(5.75,1.53080849893419E-16,10.7));
#825=CARTESIAN_POINT('Origin',(7.,0.,10.7));
#826=CARTESIAN_POINT('',(-1.25,7.,10.7));
#827=CARTESIAN_POINT('Origin',(0.,7.,10.7));
#828=CARTESIAN_POINT('',(-8.25,1.53080849893419E-16,10.7));
#829=CARTESIAN_POINT('Origin',(-7.,0.,10.7));
#830=CARTESIAN_POINT('Origin',(7.,0.,0.));
#831=CARTESIAN_POINT('',(5.75,0.,4.));
#832=CARTESIAN_POINT('Origin',(7.,0.,4.));
#833=CARTESIAN_POINT('',(5.75,-1.53080849893419E-16,0.));
#834=CARTESIAN_POINT('Origin',(0.,0.,0.));
#835=CARTESIAN_POINT('Origin',(0.,0.,4.));
#836=CARTESIAN_POINT('',(-11.25,-1.11022302462516E-15,4.));
#837=CARTESIAN_POINT('Origin',(0.,0.,4.));
#838=CARTESIAN_POINT('',(-1.25,7.,4.));
#839=CARTESIAN_POINT('Origin',(0.,7.,4.));
#840=CARTESIAN_POINT('',(-8.25,-1.53080849893419E-16,4.));
#841=CARTESIAN_POINT('Origin',(-7.,0.,4.));
#842=CARTESIAN_POINT('Origin',(-7.,0.,0.));
#843=CARTESIAN_POINT('',(-8.25,-1.53080849893419E-16,0.));
#844=CARTESIAN_POINT('Origin',(0.,7.,0.));
#845=CARTESIAN_POINT('',(-1.25,7.,0.));
#846=CARTESIAN_POINT('Origin',(0.,0.,0.));
#847=CARTESIAN_POINT('',(-11.25,-1.37772764904077E-15,0.));
#848=UNCERTAINTY_MEASURE_WITH_UNIT(LENGTH_MEASURE(0.01),#852,
'DISTANCE_ACCURACY_VALUE',
'Maximum model space distance between geometric entities at asserted c
onnectivities');
#849=UNCERTAINTY_MEASURE_WITH_UNIT(LENGTH_MEASURE(0.01),#852,
'DISTANCE_ACCURACY_VALUE',
'Maximum model space distance between geometric entities at asserted c
onnectivities');
#850=(
GEOMETRIC_REPRESENTATION_CONTEXT(3)
GLOBAL_UNCERTAINTY_ASSIGNED_CONTEXT((#848))
GLOBAL_UNIT_ASSIGNED_CONTEXT((#852,#854,#855))
REPRESENTATION_CONTEXT('','3D')
);
#851=(
GEOMETRIC_REPRESENTATION_CONTEXT(3)
GLOBAL_UNCERTAINTY_ASSIGNED_CONTEXT((#849))
GLOBAL_UNIT_ASSIGNED_CONTEXT((#852,#854,#855))
REPRESENTATION_CONTEXT('','3D')
);
#852=(
LENGTH_UNIT()
NAMED_UNIT(*)
SI_UNIT(.MILLI.,.METRE.)
);
#853=(
LENGTH_UNIT()
NAMED_UNIT(*)
SI_UNIT($,.METRE.)
);
#854=(
NAMED_UNIT(*)
PLANE_ANGLE_UNIT()
SI_UNIT($,.RADIAN.)
);
#855=(
NAMED_UNIT(*)
SI_UNIT($,.STERADIAN.)
SOLID_ANGLE_UNIT()
);
#856=SHAPE_DEFINITION_REPRESENTATION(#857,#858);
#857=PRODUCT_DEFINITION_SHAPE('',$,#860);
#858=SHAPE_REPRESENTATION('',(#504),#850);
#859=PRODUCT_DEFINITION_CONTEXT('part definition',#864,'design');
#860=PRODUCT_DEFINITION('GYRA PITCH ARM V4','GYRA PITCH ARM V4 v2',#861,
#859);
#861=PRODUCT_DEFINITION_FORMATION('',$,#866);
#862=PRODUCT_RELATED_PRODUCT_CATEGORY('GYRA PITCH ARM V4 v2',
'GYRA PITCH ARM V4 v2',(#866));
#863=APPLICATION_PROTOCOL_DEFINITION('international standard',
'automotive_design',2009,#864);
#864=APPLICATION_CONTEXT(
'Core Data for Automotive Mechanical Design Process');
#865=PRODUCT_CONTEXT('part definition',#864,'mechanical');
#866=PRODUCT('GYRA PITCH ARM V4','GYRA PITCH ARM V4 v2',$,(#865));
#867=PRESENTATION_STYLE_ASSIGNMENT((#868));
#868=SURFACE_STYLE_USAGE(.BOTH.,#869);
#869=SURFACE_SIDE_STYLE('',(#870));
#870=SURFACE_STYLE_FILL_AREA(#871);
#871=FILL_AREA_STYLE('Plastic - Matte (White)',(#872));
#872=FILL_AREA_STYLE_COLOUR('Plastic - Matte (White)',#873);
#873=COLOUR_RGB('Plastic - Matte (White)',0.964705882352941,0.964705882352941,
0.952941176470588);
ENDSEC;
END-ISO-10303-21;
