%TF.GenerationSoftware,KiCad,Pcbnew,9.0.7*%
%TF.CreationDate,2026-05-25T19:45:48+05:30*%
%TF.ProjectId,GYRA_motherboard,47595241-5f6d-46f7-9468-6572626f6172,rev?*%
%TF.SameCoordinates,Original*%
%TF.FileFunction,Copper,L1,Top*%
%TF.FilePolarity,Positive*%
%FSLAX46Y46*%
G04 Gerber Fmt 4.6, Leading zero omitted, Abs format (unit mm)*
G04 Created by KiCad (PCBNEW 9.0.7) date 2026-05-25 19:45:48*
%MOMM*%
%LPD*%
G01*
G04 APERTURE LIST*
G04 Aperture macros list*
%AMRoundRect*
0 Rectangle with rounded corners*
0 $1 Rounding radius*
0 $2 $3 $4 $5 $6 $7 $8 $9 X,Y pos of 4 corners*
0 Add a 4 corners polygon primitive as box body*
4,1,4,$2,$3,$4,$5,$6,$7,$8,$9,$2,$3,0*
0 Add four circle primitives for the rounded corners*
1,1,$1+$1,$2,$3*
1,1,$1+$1,$4,$5*
1,1,$1+$1,$6,$7*
1,1,$1+$1,$8,$9*
0 Add four rect primitives between the rounded corners*
20,1,$1+$1,$2,$3,$4,$5,0*
20,1,$1+$1,$4,$5,$6,$7,0*
20,1,$1+$1,$6,$7,$8,$9,0*
20,1,$1+$1,$8,$9,$2,$3,0*%
G04 Aperture macros list end*
%TA.AperFunction,NonConductor*%
%ADD10C,0.200000*%
%TD*%
%TA.AperFunction,HeatsinkPad*%
%ADD11C,0.600000*%
%TD*%
%TA.AperFunction,HeatsinkPad*%
%ADD12R,3.900000X3.900000*%
%TD*%
%TA.AperFunction,SMDPad,CuDef*%
%ADD13R,1.500000X0.900000*%
%TD*%
%TA.AperFunction,SMDPad,CuDef*%
%ADD14R,0.900000X1.500000*%
%TD*%
%TA.AperFunction,ComponentPad*%
%ADD15RoundRect,0.250000X0.725000X-0.600000X0.725000X0.600000X-0.725000X0.600000X-0.725000X-0.600000X0*%
%TD*%
%TA.AperFunction,ComponentPad*%
%ADD16O,1.950000X1.700000*%
%TD*%
%TA.AperFunction,SMDPad,CuDef*%
%ADD17RoundRect,0.150000X0.512500X0.150000X-0.512500X0.150000X-0.512500X-0.150000X0.512500X-0.150000X0*%
%TD*%
%TA.AperFunction,SMDPad,CuDef*%
%ADD18R,2.200000X1.500000*%
%TD*%
%TA.AperFunction,SMDPad,CuDef*%
%ADD19RoundRect,0.250000X-0.250000X-0.475000X0.250000X-0.475000X0.250000X0.475000X-0.250000X0.475000X0*%
%TD*%
%TA.AperFunction,SMDPad,CuDef*%
%ADD20RoundRect,0.250000X0.250000X0.475000X-0.250000X0.475000X-0.250000X-0.475000X0.250000X-0.475000X0*%
%TD*%
%TA.AperFunction,SMDPad,CuDef*%
%ADD21R,1.000000X0.900000*%
%TD*%
%TA.AperFunction,SMDPad,CuDef*%
%ADD22RoundRect,0.250000X-0.475000X0.250000X-0.475000X-0.250000X0.475000X-0.250000X0.475000X0.250000X0*%
%TD*%
%TA.AperFunction,SMDPad,CuDef*%
%ADD23RoundRect,0.250000X0.450000X-0.262500X0.450000X0.262500X-0.450000X0.262500X-0.450000X-0.262500X0*%
%TD*%
%TA.AperFunction,ComponentPad*%
%ADD24RoundRect,0.250000X-0.725000X0.600000X-0.725000X-0.600000X0.725000X-0.600000X0.725000X0.600000X0*%
%TD*%
%TA.AperFunction,SMDPad,CuDef*%
%ADD25RoundRect,0.250000X-0.450000X0.262500X-0.450000X-0.262500X0.450000X-0.262500X0.450000X0.262500X0*%
%TD*%
%TA.AperFunction,ComponentPad*%
%ADD26RoundRect,0.250000X0.750000X-0.600000X0.750000X0.600000X-0.750000X0.600000X-0.750000X-0.600000X0*%
%TD*%
%TA.AperFunction,ComponentPad*%
%ADD27O,2.000000X1.700000*%
%TD*%
%TA.AperFunction,ViaPad*%
%ADD28C,0.600000*%
%TD*%
%TA.AperFunction,Conductor*%
%ADD29C,0.200000*%
%TD*%
G04 APERTURE END LIST*
D10*
X113500000Y-58000000D02*
X155500000Y-58000000D01*
X155500000Y-103000000D01*
X113500000Y-103000000D01*
X113500000Y-58000000D01*
D11*
%TO.P,U1,41,GND*%
%TO.N,GND*%
X135200000Y-74610000D03*
X135200000Y-73210000D03*
X134500000Y-75310000D03*
X134500000Y-73910000D03*
X134500000Y-72510000D03*
X133800000Y-74610000D03*
D12*
X133800000Y-73910000D03*
D11*
X133800000Y-73210000D03*
X133100000Y-75310000D03*
X133100000Y-73910000D03*
X133100000Y-72510000D03*
X132400000Y-74610000D03*
X132400000Y-73210000D03*
D13*
%TO.P,U1,40,GND*%
X144050000Y-66190000D03*
%TO.P,U1,39,IO1*%
%TO.N,unconnected-(U1-IO1-Pad39)*%
X144050000Y-67460000D03*
%TO.P,U1,38,IO2*%
%TO.N,unconnected-(U1-IO2-Pad38)*%
X144050000Y-68730000D03*
%TO.P,U1,37,TXD0*%
%TO.N,unconnected-(U1-TXD0-Pad37)*%
X144050000Y-70000000D03*
%TO.P,U1,36,RXD0*%
%TO.N,unconnected-(U1-RXD0-Pad36)*%
X144050000Y-71270000D03*
%TO.P,U1,35,IO42*%
%TO.N,unconnected-(U1-IO42-Pad35)*%
X144050000Y-72540000D03*
%TO.P,U1,34,IO41*%
%TO.N,unconnected-(U1-IO41-Pad34)*%
X144050000Y-73810000D03*
%TO.P,U1,33,IO40*%
%TO.N,unconnected-(U1-IO40-Pad33)*%
X144050000Y-75080000D03*
%TO.P,U1,32,IO39*%
%TO.N,unconnected-(U1-IO39-Pad32)*%
X144050000Y-76350000D03*
%TO.P,U1,31,IO38*%
%TO.N,unconnected-(U1-IO38-Pad31)*%
X144050000Y-77620000D03*
%TO.P,U1,30,IO37*%
%TO.N,unconnected-(U1-IO37-Pad30)*%
X144050000Y-78890000D03*
%TO.P,U1,29,IO36*%
%TO.N,unconnected-(U1-IO36-Pad29)*%
X144050000Y-80160000D03*
%TO.P,U1,28,IO35*%
%TO.N,unconnected-(U1-IO35-Pad28)*%
X144050000Y-81430000D03*
%TO.P,U1,27,IO0*%
%TO.N,IO0*%
X144050000Y-82700000D03*
D14*
%TO.P,U1,26,IO45*%
%TO.N,unconnected-(U1-IO45-Pad26)*%
X142285000Y-83950000D03*
%TO.P,U1,25,IO48*%
%TO.N,unconnected-(U1-IO48-Pad25)*%
X141015000Y-83950000D03*
%TO.P,U1,24,IO47*%
%TO.N,unconnected-(U1-IO47-Pad24)*%
X139745000Y-83950000D03*
%TO.P,U1,23,IO21*%
%TO.N,unconnected-(U1-IO21-Pad23)*%
X138475000Y-83950000D03*
%TO.P,U1,22,IO14*%
%TO.N,unconnected-(U1-IO14-Pad22)*%
X137205000Y-83950000D03*
%TO.P,U1,21,IO13*%
%TO.N,unconnected-(U1-IO13-Pad21)*%
X135935000Y-83950000D03*
%TO.P,U1,20,IO12*%
%TO.N,unconnected-(U1-IO12-Pad20)*%
X134665000Y-83950000D03*
%TO.P,U1,19,IO11*%
%TO.N,unconnected-(U1-IO11-Pad19)*%
X133395000Y-83950000D03*
%TO.P,U1,18,IO10*%
%TO.N,unconnected-(U1-IO10-Pad18)*%
X132125000Y-83950000D03*
%TO.P,U1,17,IO9*%
%TO.N,SCL*%
X130855000Y-83950000D03*
%TO.P,U1,16,IO46*%
%TO.N,unconnected-(U1-IO46-Pad16)*%
X129585000Y-83950000D03*
%TO.P,U1,15,IO3*%
%TO.N,unconnected-(U1-IO3-Pad15)*%
X128315000Y-83950000D03*
D13*
%TO.P,U1,14,USB_D+*%
%TO.N,unconnected-(U1-USB_D+-Pad14)*%
X126550000Y-82700000D03*
%TO.P,U1,13,USB_D-*%
%TO.N,unconnected-(U1-USB_D--Pad13)*%
X126550000Y-81430000D03*
%TO.P,U1,12,IO8*%
%TO.N,SDA*%
X126550000Y-80160000D03*
%TO.P,U1,11,IO18*%
%TO.N,unconnected-(U1-IO18-Pad11)*%
X126550000Y-78890000D03*
%TO.P,U1,10,IO17*%
%TO.N,unconnected-(U1-IO17-Pad10)*%
X126550000Y-77620000D03*
%TO.P,U1,9,IO16*%
%TO.N,unconnected-(U1-IO16-Pad9)*%
X126550000Y-76350000D03*
%TO.P,U1,8,IO15*%
%TO.N,unconnected-(U1-IO15-Pad8)*%
X126550000Y-75080000D03*
%TO.P,U1,7,IO7*%
%TO.N,unconnected-(U1-IO7-Pad7)*%
X126550000Y-73810000D03*
%TO.P,U1,6,IO6*%
%TO.N,PITCH*%
X126550000Y-72540000D03*
%TO.P,U1,5,IO5*%
%TO.N,ROLL*%
X126550000Y-71270000D03*
%TO.P,U1,4,IO4*%
%TO.N,YAW*%
X126550000Y-70000000D03*
%TO.P,U1,3,EN*%
%TO.N,EN*%
X126550000Y-68730000D03*
%TO.P,U1,2,3V3*%
%TO.N,3V3*%
X126550000Y-67460000D03*
%TO.P,U1,1,GND*%
%TO.N,GND*%
X126550000Y-66190000D03*
%TD*%
D15*
%TO.P,J1,1,Pin_1*%
%TO.N,3V3*%
X150000000Y-83000000D03*
D16*
%TO.P,J1,2,Pin_2*%
%TO.N,GND*%
X150000000Y-80500000D03*
%TO.P,J1,3,Pin_3*%
%TO.N,SCL*%
X150000000Y-78000000D03*
%TO.P,J1,4,Pin_4*%
%TO.N,SDA*%
X150000000Y-75500000D03*
%TD*%
D17*
%TO.P,U2,1,FB*%
%TO.N,3V3*%
X144000000Y-96400000D03*
%TO.P,U2,2,EN*%
%TO.N,Net-(J4-Pin_1)*%
X144000000Y-95450000D03*
%TO.P,U2,3,IN*%
X144000000Y-94500000D03*
%TO.P,U2,4,GND*%
%TO.N,GND*%
X141725000Y-94500000D03*
%TO.P,U2,5,SW*%
%TO.N,Net-(U2-SW)*%
X141725000Y-95450000D03*
%TO.P,U2,6,BST*%
%TO.N,Net-(U2-BST)*%
X141725000Y-96400000D03*
%TD*%
D18*
%TO.P,L1,2,2*%
%TO.N,3V3*%
X133000000Y-92100000D03*
%TO.P,L1,1,1*%
%TO.N,Net-(U2-SW)*%
X133000000Y-98500000D03*
%TD*%
D19*
%TO.P,C4,1*%
%TO.N,3V3*%
X142550000Y-92000000D03*
%TO.P,C4,2*%
%TO.N,GND*%
X144450000Y-92000000D03*
%TD*%
D20*
%TO.P,C2,2*%
%TO.N,GND*%
X142100000Y-100500000D03*
%TO.P,C2,1*%
%TO.N,Net-(J4-Pin_1)*%
X144000000Y-100500000D03*
%TD*%
D21*
%TO.P,SW1,1,1*%
%TO.N,GND*%
X116200000Y-70050000D03*
X116200000Y-65950000D03*
%TO.P,SW1,2,2*%
%TO.N,EN*%
X117800000Y-70050000D03*
X117800000Y-65950000D03*
%TD*%
D22*
%TO.P,C7,2*%
%TO.N,GND*%
X122500000Y-69500000D03*
%TO.P,C7,1*%
%TO.N,3V3*%
X122500000Y-67600000D03*
%TD*%
%TO.P,C3,1*%
%TO.N,Net-(U2-SW)*%
X139000000Y-94550000D03*
%TO.P,C3,2*%
%TO.N,Net-(U2-BST)*%
X139000000Y-96450000D03*
%TD*%
D20*
%TO.P,C6,1*%
%TO.N,Net-(J4-Pin_1)*%
X144000000Y-98500000D03*
%TO.P,C6,2*%
%TO.N,GND*%
X142100000Y-98500000D03*
%TD*%
D23*
%TO.P,R1,1*%
%TO.N,EN*%
X124500000Y-69500000D03*
%TO.P,R1,2*%
%TO.N,3V3*%
X124500000Y-67675000D03*
%TD*%
D19*
%TO.P,C5,1*%
%TO.N,3V3*%
X139050000Y-92000000D03*
%TO.P,C5,2*%
%TO.N,GND*%
X140950000Y-92000000D03*
%TD*%
D24*
%TO.P,J3,1,Pin_1*%
%TO.N,YAW*%
X119500000Y-77000000D03*
D16*
%TO.P,J3,2,Pin_2*%
%TO.N,ROLL*%
X119500000Y-79500000D03*
%TO.P,J3,3,Pin_3*%
%TO.N,PITCH*%
X119500000Y-82000000D03*
%TO.P,J3,4,Pin_4*%
%TO.N,GND*%
X119500000Y-84500000D03*
%TD*%
D21*
%TO.P,SW2,1,1*%
%TO.N,GND*%
X152000000Y-66500000D03*
X152000000Y-70600000D03*
%TO.P,SW2,2,2*%
%TO.N,IO0*%
X150400000Y-66500000D03*
X150400000Y-70600000D03*
%TD*%
D25*
%TO.P,R2,1*%
%TO.N,IO0*%
X148000000Y-67587500D03*
%TO.P,R2,2*%
%TO.N,3V3*%
X148000000Y-69412500D03*
%TD*%
D19*
%TO.P,C1,2*%
%TO.N,EN*%
X118000000Y-72000000D03*
%TO.P,C1,1*%
%TO.N,GND*%
X116100000Y-72000000D03*
%TD*%
D22*
%TO.P,C8,2*%
%TO.N,GND*%
X120500000Y-69500000D03*
%TO.P,C8,1*%
%TO.N,3V3*%
X120500000Y-67600000D03*
%TD*%
D26*
%TO.P,J4,1,Pin_1*%
%TO.N,Net-(J4-Pin_1)*%
X148500000Y-96500000D03*
D27*
%TO.P,J4,2,Pin_2*%
%TO.N,GND*%
X148500000Y-94000000D03*
%TD*%
D24*
%TO.P,J2,1,Pin_1*%
%TO.N,3V3*%
X119500000Y-91000000D03*
D16*
%TO.P,J2,2,Pin_2*%
%TO.N,GND*%
X119500000Y-93500000D03*
%TO.P,J2,3,Pin_3*%
%TO.N,SCL*%
X119500000Y-96000000D03*
%TO.P,J2,4,Pin_4*%
%TO.N,SDA*%
X119500000Y-98500000D03*
%TD*%
D28*
%TO.N,IO0*%
X145900000Y-82500000D03*
X149000000Y-71000000D03*
%TO.N,SDA*%
X128500000Y-80000000D03*
X147000000Y-75500000D03*
%TO.N,3V3*%
X146000000Y-69500000D03*
X141500000Y-67500000D03*
X128500000Y-91000000D03*
X123000000Y-91000000D03*
%TO.N,SCL*%
X123000000Y-93500000D03*
X124600000Y-92500000D03*
%TD*%
D29*
%TO.N,GND*%
X119000000Y-66199000D02*
X120000000Y-65199000D01*
X119500000Y-69500000D02*
X119000000Y-69000000D01*
X119000000Y-69000000D02*
X119000000Y-66199000D01*
X120500000Y-69500000D02*
X119500000Y-69500000D01*
X120000000Y-65199000D02*
X123699000Y-65199000D01*
X122500000Y-69500000D02*
X120500000Y-69500000D01*
%TO.N,IO0*%
X144250000Y-82500000D02*
X144050000Y-82700000D01*
X145900000Y-82500000D02*
X144250000Y-82500000D01*
X149400000Y-70600000D02*
X149000000Y-71000000D01*
X150400000Y-70600000D02*
X149400000Y-70600000D01*
%TO.N,SCL*%
X133000000Y-86500000D02*
X130855000Y-84355000D01*
X145500000Y-86500000D02*
X133000000Y-86500000D01*
X146500000Y-85500000D02*
X145500000Y-86500000D01*
X146500000Y-79000000D02*
X146500000Y-85500000D01*
X147500000Y-78000000D02*
X146500000Y-79000000D01*
X150000000Y-78000000D02*
X147500000Y-78000000D01*
X130855000Y-84355000D02*
X130855000Y-83950000D01*
X124600000Y-90900000D02*
X130855000Y-84645000D01*
X124600000Y-92500000D02*
X124600000Y-90900000D01*
X130855000Y-84645000D02*
X130855000Y-83950000D01*
%TO.N,SDA*%
X126710000Y-80000000D02*
X126550000Y-80160000D01*
X128500000Y-80000000D02*
X126710000Y-80000000D01*
X150000000Y-75500000D02*
X147000000Y-75500000D01*
%TO.N,3V3*%
X148000000Y-71000000D02*
X148000000Y-69412500D01*
X149000000Y-72000000D02*
X148000000Y-71000000D01*
X150500000Y-72000000D02*
X149000000Y-72000000D01*
X152500000Y-74000000D02*
X150500000Y-72000000D01*
X152500000Y-80500000D02*
X152500000Y-74000000D01*
X150000000Y-83000000D02*
X152500000Y-80500000D01*
X146087500Y-69412500D02*
X148000000Y-69412500D01*
X146000000Y-69500000D02*
X146087500Y-69412500D01*
X141460000Y-67460000D02*
X141500000Y-67500000D01*
X126550000Y-67460000D02*
X141460000Y-67460000D01*
%TO.N,IO0*%
X148912500Y-67587500D02*
X148000000Y-67587500D01*
X150400000Y-66500000D02*
X150000000Y-66500000D01*
X150000000Y-66500000D02*
X148912500Y-67587500D01*
X150400000Y-70600000D02*
X150400000Y-66500000D01*
%TO.N,GND*%
X152000000Y-66500000D02*
X152000000Y-70600000D01*
X118224000Y-92224000D02*
X118224000Y-85776000D01*
X118224000Y-85776000D02*
X119500000Y-84500000D01*
X119500000Y-93500000D02*
X118224000Y-92224000D01*
%TO.N,3V3*%
X128500000Y-91000000D02*
X129600000Y-92100000D01*
X129600000Y-92100000D02*
X133000000Y-92100000D01*
X119500000Y-91000000D02*
X123000000Y-91000000D01*
%TO.N,SCL*%
X120500000Y-96000000D02*
X123000000Y-93500000D01*
X119500000Y-96000000D02*
X120500000Y-96000000D01*
%TO.N,SDA*%
X124000000Y-81500000D02*
X125340000Y-80160000D01*
X124000000Y-94000000D02*
X124000000Y-81500000D01*
X119500000Y-98500000D02*
X124000000Y-94000000D01*
X125340000Y-80160000D02*
X126550000Y-80160000D01*
%TO.N,PITCH*%
X125960000Y-72540000D02*
X126550000Y-72540000D01*
X122000000Y-76500000D02*
X125960000Y-72540000D01*
X122000000Y-79500000D02*
X122000000Y-76500000D01*
X119500000Y-82000000D02*
X122000000Y-79500000D01*
%TO.N,YAW*%
X125500000Y-70000000D02*
X126550000Y-70000000D01*
X119500000Y-76000000D02*
X125500000Y-70000000D01*
X119500000Y-77000000D02*
X119500000Y-76000000D01*
%TO.N,GND*%
X124690000Y-66190000D02*
X126550000Y-66190000D01*
X123699000Y-65199000D02*
X124690000Y-66190000D01*
X116951000Y-65199000D02*
X120000000Y-65199000D01*
X116200000Y-65950000D02*
X116951000Y-65199000D01*
%TO.N,EN*%
X125270000Y-68730000D02*
X126550000Y-68730000D01*
X124500000Y-69500000D02*
X125270000Y-68730000D01*
X122000000Y-72000000D02*
X118000000Y-72000000D01*
X124500000Y-69500000D02*
X122000000Y-72000000D01*
X118000000Y-66150000D02*
X117800000Y-65950000D01*
X118000000Y-72000000D02*
X118000000Y-66150000D01*
%TO.N,GND*%
X116100000Y-72000000D02*
X116100000Y-66050000D01*
X116100000Y-66050000D02*
X116200000Y-65950000D01*
%TO.N,3V3*%
X126410000Y-67600000D02*
X126550000Y-67460000D01*
X120500000Y-67600000D02*
X126410000Y-67600000D01*
X138950000Y-92100000D02*
X139050000Y-92000000D01*
X133000000Y-92100000D02*
X138950000Y-92100000D01*
%TO.N,Net-(U2-SW)*%
X134950000Y-94550000D02*
X139000000Y-94550000D01*
X133000000Y-96500000D02*
X134950000Y-94550000D01*
X133000000Y-98500000D02*
X133000000Y-96500000D01*
%TO.N,GND*%
X142100000Y-100500000D02*
X142100000Y-101100000D01*
X142100000Y-100500000D02*
X142100000Y-98500000D01*
X146450000Y-94000000D02*
X148500000Y-94000000D01*
X144450000Y-92000000D02*
X146450000Y-94000000D01*
X140950000Y-93725000D02*
X141725000Y-94500000D01*
X140950000Y-92000000D02*
X140950000Y-93725000D01*
%TO.N,3V3*%
X141524000Y-90974000D02*
X142550000Y-92000000D01*
X140076000Y-90974000D02*
X141524000Y-90974000D01*
X139050000Y-92000000D02*
X140076000Y-90974000D01*
X143337501Y-96400000D02*
X144000000Y-96400000D01*
X143036500Y-96098999D02*
X143337501Y-96400000D01*
X143036500Y-92486500D02*
X143036500Y-96098999D01*
X142550000Y-92000000D02*
X143036500Y-92486500D01*
%TO.N,Net-(U2-SW)*%
X139900000Y-95450000D02*
X139000000Y-94550000D01*
X141725000Y-95450000D02*
X139900000Y-95450000D01*
%TO.N,Net-(U2-BST)*%
X139050000Y-96400000D02*
X139000000Y-96450000D01*
X141725000Y-96400000D02*
X139050000Y-96400000D01*
%TO.N,Net-(J4-Pin_1)*%
X148500000Y-97500000D02*
X148500000Y-96500000D01*
X147500000Y-98500000D02*
X148500000Y-97500000D01*
X144000000Y-98500000D02*
X147500000Y-98500000D01*
X144000000Y-100500000D02*
X144000000Y-98500000D01*
X144000000Y-94500000D02*
X144000000Y-95450000D01*
X147450000Y-95450000D02*
X144000000Y-95450000D01*
X148500000Y-96500000D02*
X147450000Y-95450000D01*
%TO.N,3V3*%
X150000000Y-83000000D02*
X142026000Y-90974000D01*
X142026000Y-90974000D02*
X141524000Y-90974000D01*
%TO.N,ROLL*%
X125730000Y-71270000D02*
X126550000Y-71270000D01*
X119500000Y-79500000D02*
X121000000Y-78000000D01*
X121000000Y-78000000D02*
X121000000Y-76000000D01*
X121000000Y-76000000D02*
X125730000Y-71270000D01*
%TD*%
%TA.AperFunction,Conductor*%
%TO.N,GND*%
G36*
X122487273Y-91620185D02*
G01*
X122489125Y-91621398D01*
X122620814Y-91709390D01*
X122620827Y-91709397D01*
X122766498Y-91769735D01*
X122766503Y-91769737D01*
X122896982Y-91795691D01*
X122921153Y-91800499D01*
X122921156Y-91800500D01*
X122921158Y-91800500D01*
X123078844Y-91800500D01*
X123078845Y-91800499D01*
X123233497Y-91769737D01*
X123233509Y-91769731D01*
X123239324Y-91767969D01*
X123240158Y-91770720D01*
X123297359Y-91764497D01*
X123359878Y-91795691D01*
X123395608Y-91855734D01*
X123399500Y-91886555D01*
X123399500Y-92613444D01*
X123379815Y-92680483D01*
X123327011Y-92726238D01*
X123257853Y-92736182D01*
X123239575Y-92731202D01*
X123239324Y-92732031D01*
X123233500Y-92730264D01*
X123233497Y-92730263D01*
X123233492Y-92730262D01*
X123233489Y-92730261D01*
X123078845Y-92699500D01*
X123078842Y-92699500D01*
X122921158Y-92699500D01*
X122921155Y-92699500D01*
X122766510Y-92730261D01*
X122766498Y-92730264D01*
X122620827Y-92790602D01*
X122620814Y-92790609D01*
X122489711Y-92878210D01*
X122489707Y-92878213D01*
X122378213Y-92989707D01*
X122378210Y-92989711D01*
X122290609Y-93120814D01*
X122290602Y-93120827D01*
X122230264Y-93266498D01*
X122230261Y-93266508D01*
X122199361Y-93421850D01*
X122166976Y-93483761D01*
X122165425Y-93485339D01*
X120680511Y-94970253D01*
X120619188Y-95003738D01*
X120549496Y-94998754D01*
X120519227Y-94982365D01*
X120511735Y-94976839D01*
X120504792Y-94969896D01*
X120339487Y-94849796D01*
X120339063Y-94849483D01*
X120318158Y-94821967D01*
X120297115Y-94794678D01*
X120297075Y-94794217D01*
X120296795Y-94793848D01*
X120294088Y-94759442D01*
X120291136Y-94725065D01*
X120291352Y-94724655D01*
X120291316Y-94724194D01*
X120307610Y-94693840D01*
X120323741Y-94663270D01*
X120324267Y-94662813D01*
X120324364Y-94662634D01*
X120324672Y-94662462D01*
X120339781Y-94649371D01*
X120504466Y-94529721D01*
X120654723Y-94379464D01*
X120654727Y-94379459D01*
X120779620Y-94207557D01*
X120876095Y-94018217D01*
X120941757Y-93816129D01*
X120941757Y-93816126D01*
X120952231Y-93750000D01*
X119904146Y-93750000D01*
X119942630Y-93683343D01*
X119975000Y-93562535D01*
X119975000Y-93437465D01*
X119942630Y-93316657D01*
X119904146Y-93250000D01*
X120952231Y-93250000D01*
X120941757Y-93183873D01*
X120941757Y-93183870D01*
X120876095Y-92981782D01*
X120779620Y-92792442D01*
X120654727Y-92620540D01*
X120654723Y-92620535D01*
X120515856Y-92481668D01*
X120482371Y-92420345D01*
X120487355Y-92350653D01*
X120529227Y-92294720D01*
X120538441Y-92288448D01*
X120544331Y-92284814D01*
X120544334Y-92284814D01*
X120693656Y-92192712D01*
X120817712Y-92068656D01*
X120909814Y-91919334D01*
X120964999Y-91752797D01*
X120969177Y-91711896D01*
X120995573Y-91647207D01*
X121052753Y-91607055D01*
X121092535Y-91600500D01*
X122420234Y-91600500D01*
X122487273Y-91620185D01*
G37*
%TD.AperFunction*%
%TA.AperFunction,Conductor*%
G36*
X148656320Y-78620185D02*
G01*
X148699765Y-78668205D01*
X148719947Y-78707814D01*
X148844890Y-78879786D01*
X148995209Y-79030105D01*
X148995214Y-79030109D01*
X149160218Y-79149991D01*
X149202884Y-79205320D01*
X149208863Y-79274934D01*
X149176258Y-79336729D01*
X149160218Y-79350627D01*
X148995540Y-79470272D01*
X148995535Y-79470276D01*
X148845276Y-79620535D01*
X148845272Y-79620540D01*
X148720379Y-79792442D01*
X148623904Y-79981782D01*
X148558242Y-80183870D01*
X148558242Y-80183873D01*
X148547769Y-80250000D01*
X149595854Y-80250000D01*
X149557370Y-80316657D01*
X149525000Y-80437465D01*
X149525000Y-80562535D01*
X149557370Y-80683343D01*
X149595854Y-80750000D01*
X148547769Y-80750000D01*
X148558242Y-80816126D01*
X148558242Y-80816129D01*
X148623904Y-81018217D01*
X148720379Y-81207557D01*
X148845272Y-81379459D01*
X148845276Y-81379464D01*
X148984143Y-81518331D01*
X149017628Y-81579654D01*
X149012644Y-81649346D01*
X148970772Y-81705279D01*
X148961559Y-81711551D01*
X148806342Y-81807289D01*
X148682289Y-81931342D01*
X148590187Y-82080663D01*
X148590185Y-82080668D01*
X148569690Y-82142518D01*
X148535001Y-82247203D01*
X148535001Y-82247204D01*
X148535000Y-82247204D01*
X148524500Y-82349983D01*
X148524500Y-83574902D01*
X148504815Y-83641941D01*
X148488181Y-83662583D01*
X147312181Y-84838583D01*
X147250858Y-84872068D01*
X147181166Y-84867084D01*
X147125233Y-84825212D01*
X147100816Y-84759748D01*
X147100500Y-84750902D01*
X147100500Y-79300097D01*
X147120185Y-79233058D01*
X147136819Y-79212416D01*
X147712417Y-78636819D01*
X147773740Y-78603334D01*
X147800098Y-78600500D01*
X148589281Y-78600500D01*
X148656320Y-78620185D01*
G37*
%TD.AperFunction*%
%TA.AperFunction,Conductor*%
G36*
X146817282Y-70015874D02*
G01*
X146827408Y-70014610D01*
X146850239Y-70025552D01*
X146874531Y-70032685D01*
X146882890Y-70041200D01*
X146890416Y-70044807D01*
X146913029Y-70071900D01*
X146957288Y-70143656D01*
X147081344Y-70267712D01*
X147230666Y-70359814D01*
X147314505Y-70387595D01*
X147371948Y-70427366D01*
X147398772Y-70491882D01*
X147399500Y-70505300D01*
X147399500Y-70913330D01*
X147399499Y-70913348D01*
X147399499Y-71079054D01*
X147399498Y-71079054D01*
X147440423Y-71231785D01*
X147469358Y-71281900D01*
X147469359Y-71281904D01*
X147469360Y-71281904D01*
X147516284Y-71363181D01*
X147519479Y-71368714D01*
X147519481Y-71368717D01*
X147638349Y-71487585D01*
X147638354Y-71487589D01*
X148631284Y-72480520D01*
X148631286Y-72480521D01*
X148631290Y-72480524D01*
X148708302Y-72524986D01*
X148768216Y-72559577D01*
X148920943Y-72600501D01*
X148920945Y-72600501D01*
X149086654Y-72600501D01*
X149086670Y-72600500D01*
X150199903Y-72600500D01*
X150266942Y-72620185D01*
X150287584Y-72636819D01*
X151863181Y-74212416D01*
X151896666Y-74273739D01*
X151899500Y-74300097D01*
X151899500Y-80199903D01*
X151879815Y-80266942D01*
X151863181Y-80287584D01*
X151437084Y-80713681D01*
X151375761Y-80747166D01*
X151349403Y-80750000D01*
X150404146Y-80750000D01*
X150442630Y-80683343D01*
X150475000Y-80562535D01*
X150475000Y-80437465D01*
X150442630Y-80316657D01*
X150404146Y-80250000D01*
X151452231Y-80250000D01*
X151441757Y-80183873D01*
X151441757Y-80183870D01*
X151376095Y-79981782D01*
X151279620Y-79792442D01*
X151154727Y-79620540D01*
X151154723Y-79620535D01*
X151004464Y-79470276D01*
X151004459Y-79470272D01*
X150839781Y-79350627D01*
X150797115Y-79295297D01*
X150791136Y-79225684D01*
X150823741Y-79163889D01*
X150839776Y-79149994D01*
X151004792Y-79030104D01*
X151155104Y-78879792D01*
X151155106Y-78879788D01*
X151155109Y-78879786D01*
X151280048Y-78707820D01*
X151280047Y-78707820D01*
X151280051Y-78707816D01*
X151376557Y-78518412D01*
X151442246Y-78316243D01*
X151475500Y-78106287D01*
X151475500Y-77893713D01*
X151442246Y-77683757D01*
X151376557Y-77481588D01*
X151280051Y-77292184D01*
X151280049Y-77292181D01*
X151280048Y-77292179D01*
X151155109Y-77120213D01*
X151004792Y-76969896D01*
X150989302Y-76958642D01*
X150840204Y-76850316D01*
X150797540Y-76794989D01*
X150791561Y-76725376D01*
X150824166Y-76663580D01*
X150840199Y-76649686D01*
X151004792Y-76530104D01*
X151155104Y-76379792D01*
X151155106Y-76379788D01*
X151155109Y-76379786D01*
X151278902Y-76209397D01*
X151280051Y-76207816D01*
X151376557Y-76018412D01*
X151442246Y-75816243D01*
X151475500Y-75606287D01*
X151475500Y-75393713D01*
X151442246Y-75183757D01*
X151376557Y-74981588D01*
X151280051Y-74792184D01*
X151280049Y-74792181D01*
X151280048Y-74792179D01*
X151155109Y-74620213D01*
X151004786Y-74469890D01*
X150832820Y-74344951D01*
X150643414Y-74248444D01*
X150643413Y-74248443D01*
X150643412Y-74248443D01*
X150441243Y-74182754D01*
X150441241Y-74182753D01*
X150441240Y-74182753D01*
X150279957Y-74157208D01*
X150231287Y-74149500D01*
X149768713Y-74149500D01*
X149720042Y-74157208D01*
X149558760Y-74182753D01*
X149356585Y-74248444D01*
X149167179Y-74344951D01*
X148995213Y-74469890D01*
X148844890Y-74620213D01*
X148719948Y-74792184D01*
X148719947Y-74792185D01*
X148699765Y-74831795D01*
X148651791Y-74882591D01*
X148589281Y-74899500D01*
X147579766Y-74899500D01*
X147512727Y-74879815D01*
X147510875Y-74878602D01*
X147379185Y-74790609D01*
X147379172Y-74790602D01*
X147233501Y-74730264D01*
X147233489Y-74730261D01*
X147078845Y-74699500D01*
X147078842Y-74699500D01*
X146921158Y-74699500D01*
X146921155Y-74699500D01*
X146766510Y-74730261D01*
X146766498Y-74730264D01*
X146620827Y-74790602D01*
X146620814Y-74790609D01*
X146489711Y-74878210D01*
X146489707Y-74878213D01*
X146378213Y-74989707D01*
X146378210Y-74989711D01*
X146290609Y-75120814D01*
X146290602Y-75120827D01*
X146230264Y-75266498D01*
X146230261Y-75266510D01*
X146199500Y-75421153D01*
X146199500Y-75578846D01*
X146230261Y-75733489D01*
X146230264Y-75733501D01*
X146290602Y-75879172D01*
X146290609Y-75879185D01*
X146378210Y-76010288D01*
X146378213Y-76010292D01*
X146489707Y-76121786D01*
X146489711Y-76121789D01*
X146620814Y-76209390D01*
X146620827Y-76209397D01*
X146712103Y-76247204D01*
X146766503Y-76269737D01*
X146921153Y-76300499D01*
X146921156Y-76300500D01*
X146921158Y-76300500D01*
X147078844Y-76300500D01*
X147078845Y-76300499D01*
X147233497Y-76269737D01*
X147379179Y-76209394D01*
X147440823Y-76168205D01*
X147510875Y-76121398D01*
X147577553Y-76100520D01*
X147579766Y-76100500D01*
X148589281Y-76100500D01*
X148656320Y-76120185D01*
X148699765Y-76168205D01*
X148719947Y-76207814D01*
X148719948Y-76207815D01*
X148844890Y-76379786D01*
X148995209Y-76530105D01*
X148995214Y-76530109D01*
X149159793Y-76649682D01*
X149202459Y-76705011D01*
X149208438Y-76774625D01*
X149175833Y-76836420D01*
X149159793Y-76850318D01*
X148995214Y-76969890D01*
X148995209Y-76969894D01*
X148844890Y-77120213D01*
X148719948Y-77292184D01*
X148719947Y-77292185D01*
X148699765Y-77331795D01*
X148651791Y-77382591D01*
X148589281Y-77399500D01*
X147586670Y-77399500D01*
X147586654Y-77399499D01*
X147579058Y-77399499D01*
X147420943Y-77399499D01*
X147344579Y-77419961D01*
X147268214Y-77440423D01*
X147268209Y-77440426D01*
X147131290Y-77519475D01*
X147131282Y-77519481D01*
X146019481Y-78631282D01*
X146019475Y-78631290D01*
X145975295Y-78707814D01*
X145975295Y-78707815D01*
X145940423Y-78768214D01*
X145940423Y-78768215D01*
X145899499Y-78920943D01*
X145899499Y-78920945D01*
X145899499Y-79089046D01*
X145899500Y-79089059D01*
X145899500Y-81582152D01*
X145879815Y-81649191D01*
X145827011Y-81694946D01*
X145799692Y-81703769D01*
X145666508Y-81730261D01*
X145666498Y-81730264D01*
X145520827Y-81790602D01*
X145520813Y-81790610D01*
X145493387Y-81808935D01*
X145426709Y-81829811D01*
X145359330Y-81811325D01*
X145312641Y-81759345D01*
X145300499Y-81705834D01*
X145300499Y-80932128D01*
X145294091Y-80872517D01*
X145281340Y-80838332D01*
X145276357Y-80768642D01*
X145281340Y-80751669D01*
X145294091Y-80717483D01*
X145300500Y-80657873D01*
X145300499Y-79662128D01*
X145294091Y-79602517D01*
X145281340Y-79568332D01*
X145276357Y-79498642D01*
X145281340Y-79481669D01*
X145294091Y-79447483D01*
X145300500Y-79387873D01*
X145300499Y-78392128D01*
X145294091Y-78332517D01*
X145281340Y-78298332D01*
X145276357Y-78228642D01*
X145281340Y-78211669D01*
X145294091Y-78177483D01*
X145300500Y-78117873D01*
X145300499Y-77122128D01*
X145294091Y-77062517D01*
X145281340Y-77028332D01*
X145276357Y-76958642D01*
X145281340Y-76941669D01*
X145294091Y-76907483D01*
X145300500Y-76847873D01*
X145300499Y-75852128D01*
X145294091Y-75792517D01*
X145281340Y-75758332D01*
X145276357Y-75688642D01*
X145281340Y-75671669D01*
X145294091Y-75637483D01*
X145300500Y-75577873D01*
X145300499Y-74582128D01*
X145294091Y-74522517D01*
X145281340Y-74488332D01*
X145276357Y-74418642D01*
X145281340Y-74401669D01*
X145294091Y-74367483D01*
X145300500Y-74307873D01*
X145300499Y-73312128D01*
X145294091Y-73252517D01*
X145281340Y-73218332D01*
X145276357Y-73148642D01*
X145281340Y-73131669D01*
X145294091Y-73097483D01*
X145300500Y-73037873D01*
X145300499Y-72042128D01*
X145294091Y-71982517D01*
X145281340Y-71948332D01*
X145276357Y-71878642D01*
X145281340Y-71861669D01*
X145294091Y-71827483D01*
X145300500Y-71767873D01*
X145300499Y-70772128D01*
X145294091Y-70712517D01*
X145281340Y-70678332D01*
X145276357Y-70608642D01*
X145281340Y-70591669D01*
X145294091Y-70557483D01*
X145300500Y-70497873D01*
X145300499Y-70227347D01*
X145320183Y-70160310D01*
X145372987Y-70114555D01*
X145442146Y-70104611D01*
X145493389Y-70124246D01*
X145620821Y-70209394D01*
X145620823Y-70209395D01*
X145620827Y-70209397D01*
X145761609Y-70267710D01*
X145766503Y-70269737D01*
X145918644Y-70300000D01*
X145921153Y-70300499D01*
X145921156Y-70300500D01*
X145921158Y-70300500D01*
X146078844Y-70300500D01*
X146078845Y-70300499D01*
X146233497Y-70269737D01*
X146379179Y-70209394D01*
X146510289Y-70121789D01*
X146582760Y-70049317D01*
X146644081Y-70015834D01*
X146670440Y-70013000D01*
X146807492Y-70013000D01*
X146817282Y-70015874D01*
G37*
%TD.AperFunction*%
%TA.AperFunction,Conductor*%
G36*
X154842539Y-64719685D02*
G01*
X154888294Y-64772489D01*
X154899500Y-64824000D01*
X154899500Y-102275500D01*
X154879815Y-102342539D01*
X154827011Y-102388294D01*
X154775500Y-102399500D01*
X114224500Y-102399500D01*
X114157461Y-102379815D01*
X114111706Y-102327011D01*
X114100500Y-102275500D01*
X114100500Y-101024986D01*
X141100001Y-101024986D01*
X141110494Y-101127697D01*
X141165641Y-101294119D01*
X141165643Y-101294124D01*
X141257684Y-101443345D01*
X141381654Y-101567315D01*
X141530875Y-101659356D01*
X141530880Y-101659358D01*
X141697302Y-101714505D01*
X141697309Y-101714506D01*
X141800019Y-101724999D01*
X141849999Y-101724998D01*
X141850000Y-101724998D01*
X141850000Y-100750000D01*
X141100001Y-100750000D01*
X141100001Y-101024986D01*
X114100500Y-101024986D01*
X114100500Y-99975013D01*
X141100000Y-99975013D01*
X141100000Y-100250000D01*
X141850000Y-100250000D01*
X141850000Y-98750000D01*
X141100001Y-98750000D01*
X141100001Y-99024986D01*
X141110494Y-99127697D01*
X141165641Y-99294119D01*
X141165643Y-99294124D01*
X141252477Y-99434903D01*
X141270917Y-99502296D01*
X141252477Y-99565097D01*
X141165643Y-99705875D01*
X141165641Y-99705880D01*
X141110494Y-99872302D01*
X141110493Y-99872309D01*
X141100000Y-99975013D01*
X114100500Y-99975013D01*
X114100500Y-72524986D01*
X115100001Y-72524986D01*
X115110494Y-72627697D01*
X115165641Y-72794119D01*
X115165643Y-72794124D01*
X115257684Y-72943345D01*
X115381654Y-73067315D01*
X115530875Y-73159356D01*
X115530880Y-73159358D01*
X115697302Y-73214505D01*
X115697309Y-73214506D01*
X115800019Y-73224999D01*
X115849999Y-73224998D01*
X115850000Y-73224998D01*
X115850000Y-72250000D01*
X115100001Y-72250000D01*
X115100001Y-72524986D01*
X114100500Y-72524986D01*
X114100500Y-71475013D01*
X115100000Y-71475013D01*
X115100000Y-71750000D01*
X115850000Y-71750000D01*
X115850000Y-71141827D01*
X116350000Y-71141827D01*
X116350000Y-73224999D01*
X116399972Y-73224999D01*
X116399986Y-73224998D01*
X116502697Y-73214505D01*
X116669119Y-73159358D01*
X116669124Y-73159356D01*
X116818345Y-73067315D01*
X116942318Y-72943342D01*
X116944165Y-72940348D01*
X116945969Y-72938724D01*
X116946798Y-72937677D01*
X116946976Y-72937818D01*
X116996110Y-72893621D01*
X117065073Y-72882396D01*
X117129156Y-72910236D01*
X117155243Y-72940341D01*
X117157288Y-72943656D01*
X117281344Y-73067712D01*
X117430666Y-73159814D01*
X117597203Y-73214999D01*
X117699991Y-73225500D01*
X118300008Y-73225499D01*
X118300016Y-73225498D01*
X118300019Y-73225498D01*
X118370149Y-73218334D01*
X118402797Y-73214999D01*
X118569334Y-73159814D01*
X118718656Y-73067712D01*
X118842712Y-72943656D01*
X118934814Y-72794334D01*
X118970879Y-72685494D01*
X119010652Y-72628051D01*
X119075167Y-72601228D01*
X119088585Y-72600500D01*
X121750903Y-72600500D01*
X121817942Y-72620185D01*
X121863697Y-72672989D01*
X121873641Y-72742147D01*
X121844616Y-72805703D01*
X121838584Y-72812179D01*
X119131286Y-75519478D01*
X119131284Y-75519480D01*
X119072900Y-75577864D01*
X119037582Y-75613182D01*
X118976258Y-75646666D01*
X118949902Y-75649500D01*
X118724999Y-75649500D01*
X118724980Y-75649501D01*
X118622203Y-75660000D01*
X118622200Y-75660001D01*
X118455668Y-75715185D01*
X118455663Y-75715187D01*
X118306342Y-75807289D01*
X118182289Y-75931342D01*
X118090187Y-76080663D01*
X118090185Y-76080668D01*
X118076689Y-76121398D01*
X118035001Y-76247203D01*
X118035001Y-76247204D01*
X118035000Y-76247204D01*
X118024500Y-76349983D01*
X118024500Y-77650001D01*
X118024501Y-77650018D01*
X118035000Y-77752796D01*
X118035001Y-77752799D01*
X118090185Y-77919331D01*
X118090187Y-77919336D01*
X118182289Y-78068657D01*
X118306344Y-78192712D01*
X118461120Y-78288178D01*
X118507845Y-78340126D01*
X118519068Y-78409088D01*
X118491224Y-78473171D01*
X118483706Y-78481398D01*
X118344889Y-78620215D01*
X118219951Y-78792179D01*
X118123444Y-78981585D01*
X118123443Y-78981587D01*
X118123443Y-78981588D01*
X118102147Y-79047131D01*
X118057753Y-79183760D01*
X118033525Y-79336729D01*
X118024500Y-79393713D01*
X118024500Y-79606287D01*
X118057754Y-79816243D01*
X118114449Y-79990732D01*
X118123444Y-80018414D01*
X118219951Y-80207820D01*
X118344890Y-80379786D01*
X118495209Y-80530105D01*
X118495214Y-80530109D01*
X118659793Y-80649682D01*
X118702459Y-80705011D01*
X118708438Y-80774625D01*
X118675833Y-80836420D01*
X118659793Y-80850318D01*
X118495214Y-80969890D01*
X118495209Y-80969894D01*
X118344890Y-81120213D01*
X118219951Y-81292179D01*
X118123444Y-81481585D01*
X118057753Y-81683760D01*
X118037549Y-81811325D01*
X118024500Y-81893713D01*
X118024500Y-82106287D01*
X118057754Y-82316243D01*
X118076434Y-82373735D01*
X118123444Y-82518414D01*
X118219951Y-82707820D01*
X118344890Y-82879786D01*
X118495209Y-83030105D01*
X118495214Y-83030109D01*
X118660218Y-83149991D01*
X118702884Y-83205320D01*
X118708863Y-83274934D01*
X118676258Y-83336729D01*
X118660218Y-83350627D01*
X118495540Y-83470272D01*
X118495535Y-83470276D01*
X118345276Y-83620535D01*
X118345272Y-83620540D01*
X118220379Y-83792442D01*
X118123904Y-83981782D01*
X118058242Y-84183870D01*
X118058242Y-84183873D01*
X118047769Y-84250000D01*
X119095854Y-84250000D01*
X119057370Y-84316657D01*
X119025000Y-84437465D01*
X119025000Y-84562535D01*
X119057370Y-84683343D01*
X119095854Y-84750000D01*
X118047769Y-84750000D01*
X118058242Y-84816126D01*
X118058242Y-84816129D01*
X118123904Y-85018217D01*
X118220379Y-85207557D01*
X118345272Y-85379459D01*
X118345276Y-85379464D01*
X118495535Y-85529723D01*
X118495540Y-85529727D01*
X118667442Y-85654620D01*
X118856782Y-85751095D01*
X119058872Y-85816757D01*
X119250000Y-85847029D01*
X119250000Y-84904145D01*
X119316657Y-84942630D01*
X119437465Y-84975000D01*
X119562535Y-84975000D01*
X119683343Y-84942630D01*
X119750000Y-84904145D01*
X119750000Y-85847028D01*
X119941127Y-85816757D01*
X120143217Y-85751095D01*
X120332557Y-85654620D01*
X120504459Y-85529727D01*
X120504464Y-85529723D01*
X120654723Y-85379464D01*
X120654727Y-85379459D01*
X120779620Y-85207557D01*
X120876095Y-85018217D01*
X120941757Y-84816129D01*
X120941757Y-84816126D01*
X120952231Y-84750000D01*
X119904146Y-84750000D01*
X119942630Y-84683343D01*
X119975000Y-84562535D01*
X119975000Y-84437465D01*
X119942630Y-84316657D01*
X119904146Y-84250000D01*
X120952231Y-84250000D01*
X120941757Y-84183873D01*
X120941757Y-84183870D01*
X120876095Y-83981782D01*
X120779620Y-83792442D01*
X120654727Y-83620540D01*
X120654723Y-83620535D01*
X120504464Y-83470276D01*
X120504459Y-83470272D01*
X120339781Y-83350627D01*
X120297115Y-83295297D01*
X120291136Y-83225684D01*
X120323741Y-83163889D01*
X120339776Y-83149994D01*
X120504792Y-83030104D01*
X120655104Y-82879792D01*
X120655106Y-82879788D01*
X120655109Y-82879786D01*
X120780048Y-82707820D01*
X120780047Y-82707820D01*
X120780051Y-82707816D01*
X120876557Y-82518412D01*
X120942246Y-82316243D01*
X120975500Y-82106287D01*
X120975500Y-81893713D01*
X120942246Y-81683757D01*
X120897851Y-81547126D01*
X120895857Y-81477290D01*
X120928100Y-81421133D01*
X122358506Y-79990728D01*
X122358511Y-79990724D01*
X122368714Y-79980520D01*
X122368716Y-79980520D01*
X122480520Y-79868716D01*
X122539532Y-79766503D01*
X122559577Y-79731785D01*
X122600501Y-79579057D01*
X122600501Y-79420943D01*
X122600501Y-79413348D01*
X122600500Y-79413330D01*
X122600500Y-76800096D01*
X122620185Y-76733057D01*
X122636814Y-76712420D01*
X125091177Y-74258056D01*
X125098055Y-74254301D01*
X125102632Y-74247933D01*
X125128289Y-74237791D01*
X125152498Y-74224573D01*
X125160318Y-74225132D01*
X125167611Y-74222250D01*
X125194673Y-74227589D01*
X125222190Y-74229557D01*
X125228467Y-74234256D01*
X125236159Y-74235774D01*
X125256038Y-74254896D01*
X125278123Y-74271429D01*
X125282140Y-74280003D01*
X125286514Y-74284211D01*
X125291892Y-74300820D01*
X125299488Y-74317034D01*
X125301308Y-74324682D01*
X125305909Y-74367483D01*
X125321334Y-74408842D01*
X125323108Y-74416295D01*
X125321674Y-74443842D01*
X125323642Y-74471361D01*
X125319510Y-74485432D01*
X125319477Y-74486070D01*
X125319216Y-74486432D01*
X125318659Y-74488331D01*
X125305908Y-74522518D01*
X125299501Y-74582116D01*
X125299501Y-74582123D01*
X125299500Y-74582135D01*
X125299500Y-75577870D01*
X125299501Y-75577876D01*
X125305908Y-75637481D01*
X125318659Y-75671669D01*
X125323642Y-75741361D01*
X125318659Y-75758331D01*
X125305908Y-75792518D01*
X125299501Y-75852116D01*
X125299501Y-75852123D01*
X125299500Y-75852135D01*
X125299500Y-76847870D01*
X125299501Y-76847876D01*
X125305908Y-76907481D01*
X125318659Y-76941669D01*
X125323642Y-77011361D01*
X125318659Y-77028331D01*
X125305908Y-77062518D01*
X125299706Y-77120208D01*
X125299501Y-77122123D01*
X125299500Y-77122135D01*
X125299500Y-78117870D01*
X125299501Y-78117876D01*
X125305908Y-78177481D01*
X125318659Y-78211669D01*
X125323642Y-78281361D01*
X125318659Y-78298331D01*
X125305908Y-78332518D01*
X125304572Y-78344949D01*
X125299501Y-78392123D01*
X125299500Y-78392135D01*
X125299500Y-79387870D01*
X125299501Y-79387881D01*
X125305007Y-79439103D01*
X125299791Y-79468002D01*
X125297298Y-79497266D01*
X125293658Y-79501992D01*
X125292599Y-79507862D01*
X125272589Y-79529352D01*
X125254669Y-79552624D01*
X125247923Y-79555844D01*
X125244987Y-79558998D01*
X125223464Y-79569115D01*
X125218693Y-79570820D01*
X125108215Y-79600423D01*
X125072885Y-79620821D01*
X125063186Y-79626420D01*
X125063179Y-79626423D01*
X124971290Y-79679475D01*
X124971282Y-79679481D01*
X123519481Y-81131282D01*
X123519479Y-81131285D01*
X123469361Y-81218094D01*
X123469359Y-81218096D01*
X123440425Y-81268209D01*
X123440424Y-81268210D01*
X123440423Y-81268215D01*
X123399499Y-81420943D01*
X123399499Y-81420945D01*
X123399499Y-81589046D01*
X123399500Y-81589059D01*
X123399500Y-90113444D01*
X123379815Y-90180483D01*
X123327011Y-90226238D01*
X123257853Y-90236182D01*
X123239575Y-90231202D01*
X123239324Y-90232031D01*
X123233500Y-90230264D01*
X123233497Y-90230263D01*
X123233492Y-90230262D01*
X123233489Y-90230261D01*
X123078845Y-90199500D01*
X123078842Y-90199500D01*
X122921158Y-90199500D01*
X122921155Y-90199500D01*
X122766510Y-90230261D01*
X122766498Y-90230264D01*
X122620827Y-90290602D01*
X122620814Y-90290609D01*
X122489125Y-90378602D01*
X122422447Y-90399480D01*
X122420234Y-90399500D01*
X121092535Y-90399500D01*
X121025496Y-90379815D01*
X120979741Y-90327011D01*
X120969177Y-90288102D01*
X120968663Y-90283071D01*
X120964999Y-90247203D01*
X120909814Y-90080666D01*
X120817712Y-89931344D01*
X120693656Y-89807288D01*
X120544334Y-89715186D01*
X120377797Y-89660001D01*
X120377795Y-89660000D01*
X120275010Y-89649500D01*
X118724998Y-89649500D01*
X118724981Y-89649501D01*
X118622203Y-89660000D01*
X118622200Y-89660001D01*
X118455668Y-89715185D01*
X118455663Y-89715187D01*
X118306342Y-89807289D01*
X118182289Y-89931342D01*
X118090187Y-90080663D01*
X118090186Y-90080666D01*
X118035001Y-90247203D01*
X118035001Y-90247204D01*
X118035000Y-90247204D01*
X118024500Y-90349983D01*
X118024500Y-91650001D01*
X118024501Y-91650018D01*
X118035000Y-91752796D01*
X118035001Y-91752799D01*
X118069111Y-91855734D01*
X118090186Y-91919334D01*
X118182288Y-92068656D01*
X118306344Y-92192712D01*
X118425990Y-92266510D01*
X118461558Y-92288448D01*
X118508283Y-92340396D01*
X118519506Y-92409358D01*
X118491663Y-92473441D01*
X118484144Y-92481668D01*
X118345271Y-92620541D01*
X118220379Y-92792442D01*
X118123904Y-92981782D01*
X118058242Y-93183870D01*
X118058242Y-93183873D01*
X118047769Y-93250000D01*
X119095854Y-93250000D01*
X119057370Y-93316657D01*
X119025000Y-93437465D01*
X119025000Y-93562535D01*
X119057370Y-93683343D01*
X119095854Y-93750000D01*
X118047769Y-93750000D01*
X118058242Y-93816126D01*
X118058242Y-93816129D01*
X118123904Y-94018217D01*
X118220379Y-94207557D01*
X118345272Y-94379459D01*
X118345276Y-94379464D01*
X118495535Y-94529723D01*
X118495540Y-94529727D01*
X118660218Y-94649372D01*
X118702884Y-94704701D01*
X118708863Y-94774315D01*
X118676258Y-94836110D01*
X118660218Y-94850008D01*
X118495214Y-94969890D01*
X118495209Y-94969894D01*
X118344890Y-95120213D01*
X118219951Y-95292179D01*
X118123444Y-95481585D01*
X118057753Y-95683760D01*
X118024500Y-95893713D01*
X118024500Y-96106286D01*
X118050146Y-96268213D01*
X118057754Y-96316243D01*
X118091773Y-96420943D01*
X118123444Y-96518414D01*
X118219951Y-96707820D01*
X118344890Y-96879786D01*
X118495209Y-97030105D01*
X118495214Y-97030109D01*
X118659793Y-97149682D01*
X118702459Y-97205011D01*
X118708438Y-97274625D01*
X118675833Y-97336420D01*
X118659793Y-97350318D01*
X118495214Y-97469890D01*
X118495209Y-97469894D01*
X118344890Y-97620213D01*
X118219951Y-97792179D01*
X118123444Y-97981585D01*
X118057753Y-98183760D01*
X118057753Y-98183762D01*
X118024500Y-98393713D01*
X118024500Y-98606287D01*
X118057754Y-98816243D01*
X118111130Y-98980518D01*
X118123444Y-99018414D01*
X118219951Y-99207820D01*
X118344890Y-99379786D01*
X118495213Y-99530109D01*
X118667179Y-99655048D01*
X118667181Y-99655049D01*
X118667184Y-99655051D01*
X118856588Y-99751557D01*
X119058757Y-99817246D01*
X119268713Y-99850500D01*
X119268714Y-99850500D01*
X119731286Y-99850500D01*
X119731287Y-99850500D01*
X119941243Y-99817246D01*
X120143412Y-99751557D01*
X120332816Y-99655051D01*
X120398200Y-99607547D01*
X120504786Y-99530109D01*
X120504788Y-99530106D01*
X120504792Y-99530104D01*
X120655104Y-99379792D01*
X120655106Y-99379788D01*
X120655109Y-99379786D01*
X120780048Y-99207820D01*
X120780047Y-99207820D01*
X120780051Y-99207816D01*
X120876557Y-99018412D01*
X120942246Y-98816243D01*
X120975500Y-98606287D01*
X120975500Y-98393713D01*
X120942246Y-98183757D01*
X120897851Y-98047126D01*
X120895857Y-97977290D01*
X120928100Y-97921133D01*
X124358506Y-94490728D01*
X124358511Y-94490724D01*
X124368714Y-94480520D01*
X124368716Y-94480520D01*
X124480520Y-94368716D01*
X124549065Y-94249992D01*
X124559577Y-94231785D01*
X124600501Y-94079057D01*
X124600501Y-93920943D01*
X124600501Y-93913348D01*
X124600500Y-93913330D01*
X124600500Y-93417847D01*
X124620185Y-93350808D01*
X124672989Y-93305053D01*
X124700309Y-93296230D01*
X124719352Y-93292442D01*
X124833497Y-93269737D01*
X124965650Y-93214998D01*
X124979172Y-93209397D01*
X124979172Y-93209396D01*
X124979179Y-93209394D01*
X125110289Y-93121789D01*
X125221789Y-93010289D01*
X125309394Y-92879179D01*
X125369737Y-92733497D01*
X125400500Y-92578842D01*
X125400500Y-92421158D01*
X125400500Y-92421155D01*
X125400499Y-92421153D01*
X125397772Y-92407443D01*
X125369737Y-92266503D01*
X125339172Y-92192712D01*
X125309397Y-92120827D01*
X125309390Y-92120814D01*
X125221398Y-91989125D01*
X125200520Y-91922447D01*
X125200500Y-91920234D01*
X125200500Y-91200097D01*
X125220185Y-91133058D01*
X125236819Y-91112416D01*
X130912319Y-85436916D01*
X130973642Y-85403431D01*
X131043334Y-85408415D01*
X131087681Y-85436916D01*
X132515139Y-86864374D01*
X132515149Y-86864385D01*
X132519479Y-86868715D01*
X132519480Y-86868716D01*
X132631284Y-86980520D01*
X132718095Y-87030639D01*
X132718097Y-87030641D01*
X132756151Y-87052611D01*
X132768215Y-87059577D01*
X132920943Y-87100500D01*
X144750903Y-87100500D01*
X144817942Y-87120185D01*
X144863697Y-87172989D01*
X144873641Y-87242147D01*
X144844616Y-87305703D01*
X144838584Y-87312181D01*
X141813584Y-90337181D01*
X141786656Y-90351884D01*
X141760838Y-90368477D01*
X141754637Y-90369368D01*
X141752261Y-90370666D01*
X141725903Y-90373500D01*
X141610669Y-90373500D01*
X141610653Y-90373499D01*
X141603057Y-90373499D01*
X141444943Y-90373499D01*
X141437347Y-90373499D01*
X141437331Y-90373500D01*
X139996943Y-90373500D01*
X139844214Y-90414423D01*
X139828433Y-90423535D01*
X139828432Y-90423535D01*
X139707290Y-90493475D01*
X139707282Y-90493481D01*
X139595480Y-90605283D01*
X139595480Y-90605284D01*
X139595478Y-90605286D01*
X139513544Y-90687220D01*
X139460861Y-90739903D01*
X139399538Y-90773387D01*
X139360582Y-90775579D01*
X139350028Y-90774501D01*
X139350012Y-90774500D01*
X139350009Y-90774500D01*
X139350004Y-90774500D01*
X138749998Y-90774500D01*
X138749980Y-90774501D01*
X138647203Y-90785000D01*
X138647200Y-90785001D01*
X138480668Y-90840185D01*
X138480663Y-90840187D01*
X138331342Y-90932289D01*
X138207289Y-91056342D01*
X138115187Y-91205663D01*
X138115185Y-91205668D01*
X138060001Y-91372204D01*
X138060000Y-91372205D01*
X138058377Y-91388101D01*
X138031982Y-91452793D01*
X137974802Y-91492945D01*
X137935019Y-91499500D01*
X134724499Y-91499500D01*
X134657460Y-91479815D01*
X134611705Y-91427011D01*
X134600499Y-91375500D01*
X134600499Y-91302129D01*
X134600498Y-91302123D01*
X134600497Y-91302116D01*
X134594091Y-91242517D01*
X134590728Y-91233501D01*
X134543797Y-91107671D01*
X134543793Y-91107664D01*
X134457547Y-90992455D01*
X134457544Y-90992452D01*
X134342335Y-90906206D01*
X134342328Y-90906202D01*
X134207482Y-90855908D01*
X134207483Y-90855908D01*
X134147883Y-90849501D01*
X134147881Y-90849500D01*
X134147873Y-90849500D01*
X134147864Y-90849500D01*
X131852129Y-90849500D01*
X131852123Y-90849501D01*
X131792516Y-90855908D01*
X131657671Y-90906202D01*
X131657664Y-90906206D01*
X131542455Y-90992452D01*
X131542452Y-90992455D01*
X131456206Y-91107664D01*
X131456202Y-91107671D01*
X131405908Y-91242517D01*
X131399501Y-91302116D01*
X131399501Y-91302123D01*
X131399500Y-91302135D01*
X131399500Y-91375500D01*
X131379815Y-91442539D01*
X131327011Y-91488294D01*
X131275500Y-91499500D01*
X129900097Y-91499500D01*
X129833058Y-91479815D01*
X129812416Y-91463181D01*
X129334574Y-90985339D01*
X129301089Y-90924016D01*
X129300638Y-90921849D01*
X129278933Y-90812736D01*
X129269737Y-90766503D01*
X129236897Y-90687220D01*
X129209397Y-90620827D01*
X129209390Y-90620814D01*
X129121789Y-90489711D01*
X129121786Y-90489707D01*
X129010292Y-90378213D01*
X129010288Y-90378210D01*
X128879185Y-90290609D01*
X128879172Y-90290602D01*
X128733501Y-90230264D01*
X128733489Y-90230261D01*
X128578845Y-90199500D01*
X128578842Y-90199500D01*
X128421158Y-90199500D01*
X128421155Y-90199500D01*
X128266510Y-90230261D01*
X128266498Y-90230264D01*
X128120827Y-90290602D01*
X128120814Y-90290609D01*
X127989711Y-90378210D01*
X127989707Y-90378213D01*
X127878213Y-90489707D01*
X127878210Y-90489711D01*
X127790609Y-90620814D01*
X127790602Y-90620827D01*
X127730264Y-90766498D01*
X127730261Y-90766510D01*
X127699500Y-90921153D01*
X127699500Y-91078846D01*
X127730261Y-91233489D01*
X127730264Y-91233501D01*
X127790602Y-91379172D01*
X127790609Y-91379185D01*
X127878210Y-91510288D01*
X127878213Y-91510292D01*
X127989707Y-91621786D01*
X127989711Y-91621789D01*
X128120814Y-91709390D01*
X128120827Y-91709397D01*
X128266498Y-91769735D01*
X128266503Y-91769737D01*
X128331147Y-91782595D01*
X128421849Y-91800638D01*
X128483760Y-91833023D01*
X128485339Y-91834574D01*
X129115139Y-92464374D01*
X129115149Y-92464385D01*
X129119479Y-92468715D01*
X129119480Y-92468716D01*
X129231284Y-92580520D01*
X129313171Y-92627797D01*
X129313172Y-92627798D01*
X129368209Y-92659574D01*
X129368212Y-92659576D01*
X129368214Y-92659576D01*
X129368215Y-92659577D01*
X129520943Y-92700501D01*
X129520946Y-92700501D01*
X129686653Y-92700501D01*
X129686669Y-92700500D01*
X131275501Y-92700500D01*
X131342540Y-92720185D01*
X131388295Y-92772989D01*
X131399501Y-92824500D01*
X131399501Y-92897876D01*
X131405908Y-92957483D01*
X131456202Y-93092328D01*
X131456206Y-93092335D01*
X131542452Y-93207544D01*
X131542455Y-93207547D01*
X131657664Y-93293793D01*
X131657671Y-93293797D01*
X131792517Y-93344091D01*
X131792516Y-93344091D01*
X131799444Y-93344835D01*
X131852127Y-93350500D01*
X134147872Y-93350499D01*
X134207483Y-93344091D01*
X134342331Y-93293796D01*
X134457546Y-93207546D01*
X134543796Y-93092331D01*
X134594091Y-92957483D01*
X134600500Y-92897873D01*
X134600500Y-92824500D01*
X134620185Y-92757461D01*
X134672989Y-92711706D01*
X134724500Y-92700500D01*
X137994551Y-92700500D01*
X138061590Y-92720185D01*
X138107345Y-92772989D01*
X138112256Y-92785493D01*
X138115114Y-92794119D01*
X138115186Y-92794334D01*
X138207288Y-92943656D01*
X138331344Y-93067712D01*
X138480666Y-93159814D01*
X138647203Y-93214999D01*
X138749991Y-93225500D01*
X139350008Y-93225499D01*
X139350016Y-93225498D01*
X139350019Y-93225498D01*
X139406302Y-93219748D01*
X139452797Y-93214999D01*
X139619334Y-93159814D01*
X139768656Y-93067712D01*
X139892712Y-92943656D01*
X139894752Y-92940347D01*
X139896745Y-92938555D01*
X139897193Y-92937989D01*
X139897289Y-92938065D01*
X139946694Y-92893623D01*
X140015656Y-92882395D01*
X140079740Y-92910234D01*
X140105829Y-92940339D01*
X140107681Y-92943341D01*
X140107683Y-92943344D01*
X140231654Y-93067315D01*
X140380875Y-93159356D01*
X140380880Y-93159358D01*
X140547302Y-93214505D01*
X140547309Y-93214506D01*
X140650019Y-93224999D01*
X140699999Y-93224998D01*
X140700000Y-93224998D01*
X140700000Y-92124000D01*
X140719685Y-92056961D01*
X140772489Y-92011206D01*
X140824000Y-92000000D01*
X141076000Y-92000000D01*
X141143039Y-92019685D01*
X141188794Y-92072489D01*
X141200000Y-92124000D01*
X141200000Y-93224999D01*
X141249972Y-93224999D01*
X141249986Y-93224998D01*
X141352697Y-93214505D01*
X141519119Y-93159358D01*
X141519124Y-93159356D01*
X141668346Y-93067314D01*
X141672683Y-93063886D01*
X141737479Y-93037745D01*
X141806121Y-93050786D01*
X141826503Y-93063884D01*
X141831342Y-93067710D01*
X141831344Y-93067712D01*
X141980666Y-93159814D01*
X142147203Y-93214999D01*
X142249991Y-93225500D01*
X142312000Y-93225499D01*
X142320684Y-93228049D01*
X142329647Y-93226761D01*
X142353686Y-93237739D01*
X142379038Y-93245183D01*
X142384966Y-93252024D01*
X142393203Y-93255786D01*
X142407489Y-93278016D01*
X142424794Y-93297986D01*
X142427081Y-93308502D01*
X142430977Y-93314564D01*
X142436000Y-93349499D01*
X142436000Y-93576313D01*
X142416315Y-93643352D01*
X142363511Y-93689107D01*
X142305609Y-93699351D01*
X142305580Y-93700096D01*
X142303134Y-93700000D01*
X141975000Y-93700000D01*
X141975000Y-94376000D01*
X141955315Y-94443039D01*
X141902511Y-94488794D01*
X141851000Y-94500000D01*
X141725000Y-94500000D01*
X141725000Y-94525500D01*
X141705315Y-94592539D01*
X141652511Y-94638294D01*
X141601000Y-94649500D01*
X141146798Y-94649500D01*
X141109932Y-94652401D01*
X141109926Y-94652402D01*
X140952106Y-94698254D01*
X140952103Y-94698255D01*
X140893806Y-94732732D01*
X140830685Y-94750000D01*
X140565205Y-94750000D01*
X140552412Y-94763838D01*
X140548145Y-94784152D01*
X140538382Y-94794053D01*
X140532606Y-94806703D01*
X140514335Y-94818444D01*
X140499091Y-94833907D01*
X140484322Y-94837732D01*
X140473828Y-94844477D01*
X140438893Y-94849500D01*
X140349500Y-94849500D01*
X140282461Y-94829815D01*
X140236706Y-94777011D01*
X140225500Y-94725500D01*
X140225499Y-94294344D01*
X140225499Y-94249998D01*
X140565204Y-94249998D01*
X140565205Y-94250000D01*
X141475000Y-94250000D01*
X141475000Y-93700000D01*
X141146850Y-93700000D01*
X141110010Y-93702899D01*
X141110004Y-93702900D01*
X140952306Y-93748716D01*
X140952303Y-93748717D01*
X140810947Y-93832314D01*
X140810938Y-93832321D01*
X140694821Y-93948438D01*
X140694814Y-93948447D01*
X140611218Y-94089801D01*
X140565399Y-94247513D01*
X140565204Y-94249998D01*
X140225499Y-94249998D01*
X140225499Y-94249993D01*
X140225498Y-94249980D01*
X140214999Y-94147203D01*
X140214998Y-94147200D01*
X140195912Y-94089602D01*
X140159814Y-93980666D01*
X140067712Y-93831344D01*
X139943656Y-93707288D01*
X139839999Y-93643352D01*
X139794336Y-93615187D01*
X139794331Y-93615185D01*
X139792862Y-93614698D01*
X139627797Y-93560001D01*
X139627795Y-93560000D01*
X139525010Y-93549500D01*
X138474998Y-93549500D01*
X138474980Y-93549501D01*
X138372203Y-93560000D01*
X138372200Y-93560001D01*
X138205668Y-93615185D01*
X138205663Y-93615187D01*
X138056342Y-93707289D01*
X137932289Y-93831342D01*
X137931685Y-93832321D01*
X137902219Y-93880095D01*
X137895741Y-93890597D01*
X137843793Y-93937321D01*
X137790202Y-93949500D01*
X134870940Y-93949500D01*
X134830019Y-93960464D01*
X134830019Y-93960465D01*
X134792751Y-93970451D01*
X134718214Y-93990423D01*
X134718209Y-93990426D01*
X134581290Y-94069475D01*
X134581282Y-94069481D01*
X132519481Y-96131282D01*
X132519479Y-96131285D01*
X132504174Y-96157795D01*
X132488868Y-96184306D01*
X132440423Y-96268215D01*
X132399499Y-96420943D01*
X132399499Y-96420945D01*
X132399499Y-96589046D01*
X132399500Y-96589059D01*
X132399500Y-97125500D01*
X132379815Y-97192539D01*
X132327011Y-97238294D01*
X132275500Y-97249500D01*
X131852129Y-97249500D01*
X131852123Y-97249501D01*
X131792516Y-97255908D01*
X131657671Y-97306202D01*
X131657664Y-97306206D01*
X131542455Y-97392452D01*
X131542452Y-97392455D01*
X131456206Y-97507664D01*
X131456202Y-97507671D01*
X131405908Y-97642517D01*
X131401038Y-97687819D01*
X131399501Y-97702123D01*
X131399500Y-97702135D01*
X131399500Y-99297870D01*
X131399501Y-99297876D01*
X131405908Y-99357483D01*
X131456202Y-99492328D01*
X131456206Y-99492335D01*
X131542452Y-99607544D01*
X131542455Y-99607547D01*
X131657664Y-99693793D01*
X131657671Y-99693797D01*
X131792517Y-99744091D01*
X131792516Y-99744091D01*
X131799444Y-99744835D01*
X131852127Y-99750500D01*
X134147872Y-99750499D01*
X134207483Y-99744091D01*
X134342331Y-99693796D01*
X134457546Y-99607546D01*
X134543796Y-99492331D01*
X134594091Y-99357483D01*
X134600500Y-99297873D01*
X134600499Y-97702128D01*
X134594091Y-97642517D01*
X134585772Y-97620213D01*
X134543797Y-97507671D01*
X134543793Y-97507664D01*
X134457547Y-97392455D01*
X134457544Y-97392452D01*
X134342335Y-97306206D01*
X134342328Y-97306202D01*
X134207482Y-97255908D01*
X134207483Y-97255908D01*
X134147883Y-97249501D01*
X134147881Y-97249500D01*
X134147873Y-97249500D01*
X134147865Y-97249500D01*
X133724500Y-97249500D01*
X133657461Y-97229815D01*
X133611706Y-97177011D01*
X133600500Y-97125500D01*
X133600500Y-96800097D01*
X133620185Y-96733058D01*
X133636819Y-96712416D01*
X135162416Y-95186819D01*
X135223739Y-95153334D01*
X135250097Y-95150500D01*
X137790202Y-95150500D01*
X137857241Y-95170185D01*
X137895739Y-95209401D01*
X137899308Y-95215186D01*
X137932289Y-95268657D01*
X138056346Y-95392714D01*
X138059182Y-95394463D01*
X138060717Y-95396170D01*
X138062011Y-95397193D01*
X138061836Y-95397414D01*
X138105905Y-95446411D01*
X138117126Y-95515374D01*
X138089282Y-95579456D01*
X138059182Y-95605537D01*
X138056346Y-95607285D01*
X137932289Y-95731342D01*
X137840187Y-95880663D01*
X137840185Y-95880668D01*
X137812349Y-95964670D01*
X137785001Y-96047203D01*
X137785001Y-96047204D01*
X137785000Y-96047204D01*
X137774500Y-96149983D01*
X137774500Y-96750001D01*
X137774501Y-96750019D01*
X137785000Y-96852796D01*
X137785001Y-96852799D01*
X137840185Y-97019331D01*
X137840187Y-97019336D01*
X137846832Y-97030109D01*
X137932288Y-97168656D01*
X138056344Y-97292712D01*
X138205666Y-97384814D01*
X138372203Y-97439999D01*
X138474991Y-97450500D01*
X139525008Y-97450499D01*
X139525016Y-97450498D01*
X139525019Y-97450498D01*
X139581302Y-97444748D01*
X139627797Y-97439999D01*
X139794334Y-97384814D01*
X139943656Y-97292712D01*
X140067712Y-97168656D01*
X140135099Y-97059402D01*
X140187047Y-97012679D01*
X140240638Y-97000500D01*
X140691692Y-97000500D01*
X140758731Y-97020185D01*
X140779374Y-97036820D01*
X140810629Y-97068076D01*
X140810633Y-97068079D01*
X140810635Y-97068081D01*
X140952102Y-97151744D01*
X140963485Y-97155051D01*
X141109926Y-97197597D01*
X141109929Y-97197597D01*
X141109931Y-97197598D01*
X141146806Y-97200500D01*
X141146814Y-97200500D01*
X141320846Y-97200500D01*
X141387885Y-97220185D01*
X141433640Y-97272989D01*
X141443584Y-97342147D01*
X141414559Y-97405703D01*
X141385945Y-97430038D01*
X141381654Y-97432684D01*
X141257684Y-97556654D01*
X141165643Y-97705875D01*
X141165641Y-97705880D01*
X141110494Y-97872302D01*
X141110493Y-97872309D01*
X141100000Y-97975013D01*
X141100000Y-98250000D01*
X141976000Y-98250000D01*
X142043039Y-98269685D01*
X142088794Y-98322489D01*
X142100000Y-98374000D01*
X142100000Y-98500000D01*
X142226000Y-98500000D01*
X142293039Y-98519685D01*
X142338794Y-98572489D01*
X142350000Y-98624000D01*
X142350000Y-101724999D01*
X142399972Y-101724999D01*
X142399986Y-101724998D01*
X142502697Y-101714505D01*
X142669119Y-101659358D01*
X142669124Y-101659356D01*
X142818345Y-101567315D01*
X142942318Y-101443342D01*
X142944165Y-101440348D01*
X142945969Y-101438724D01*
X142946798Y-101437677D01*
X142946976Y-101437818D01*
X142996110Y-101393621D01*
X143065073Y-101382396D01*
X143129156Y-101410236D01*
X143155243Y-101440341D01*
X143157288Y-101443656D01*
X143281344Y-101567712D01*
X143430666Y-101659814D01*
X143597203Y-101714999D01*
X143699991Y-101725500D01*
X144300008Y-101725499D01*
X144300016Y-101725498D01*
X144300019Y-101725498D01*
X144356302Y-101719748D01*
X144402797Y-101714999D01*
X144569334Y-101659814D01*
X144718656Y-101567712D01*
X144842712Y-101443656D01*
X144934814Y-101294334D01*
X144989999Y-101127797D01*
X145000500Y-101025009D01*
X145000499Y-99974992D01*
X144989999Y-99872203D01*
X144934814Y-99705666D01*
X144848109Y-99565094D01*
X144829670Y-99497704D01*
X144848109Y-99434905D01*
X144934814Y-99294334D01*
X144970879Y-99185494D01*
X145010652Y-99128051D01*
X145075167Y-99101228D01*
X145088585Y-99100500D01*
X147413331Y-99100500D01*
X147413347Y-99100501D01*
X147420943Y-99100501D01*
X147579054Y-99100501D01*
X147579057Y-99100501D01*
X147731785Y-99059577D01*
X147791660Y-99025008D01*
X147868716Y-98980520D01*
X147980520Y-98868716D01*
X147980520Y-98868714D01*
X147990724Y-98858511D01*
X147990727Y-98858506D01*
X148579550Y-98269685D01*
X148962419Y-97886818D01*
X149023742Y-97853333D01*
X149050100Y-97850499D01*
X149300002Y-97850499D01*
X149300008Y-97850499D01*
X149402797Y-97839999D01*
X149569334Y-97784814D01*
X149718656Y-97692712D01*
X149842712Y-97568656D01*
X149934814Y-97419334D01*
X149989999Y-97252797D01*
X150000500Y-97150009D01*
X150000499Y-95849992D01*
X149989999Y-95747203D01*
X149934814Y-95580666D01*
X149842712Y-95431344D01*
X149718656Y-95307288D01*
X149569334Y-95215186D01*
X149569332Y-95215185D01*
X149563440Y-95211551D01*
X149516716Y-95159603D01*
X149505493Y-95090641D01*
X149533337Y-95026558D01*
X149540856Y-95018330D01*
X149679728Y-94879458D01*
X149804620Y-94707557D01*
X149901095Y-94518217D01*
X149966757Y-94316129D01*
X149966757Y-94316126D01*
X149977231Y-94250000D01*
X148933012Y-94250000D01*
X148965925Y-94192993D01*
X149000000Y-94065826D01*
X149000000Y-93934174D01*
X148965925Y-93807007D01*
X148933012Y-93750000D01*
X149977231Y-93750000D01*
X149966757Y-93683873D01*
X149966757Y-93683870D01*
X149901095Y-93481782D01*
X149804620Y-93292442D01*
X149679727Y-93120540D01*
X149679723Y-93120535D01*
X149529464Y-92970276D01*
X149529459Y-92970272D01*
X149357557Y-92845379D01*
X149168217Y-92748904D01*
X148966129Y-92683242D01*
X148756246Y-92650000D01*
X148750000Y-92650000D01*
X148750000Y-93566988D01*
X148692993Y-93534075D01*
X148565826Y-93500000D01*
X148434174Y-93500000D01*
X148307007Y-93534075D01*
X148250000Y-93566988D01*
X148250000Y-92650000D01*
X148243754Y-92650000D01*
X148033872Y-92683242D01*
X148033869Y-92683242D01*
X147831782Y-92748904D01*
X147642442Y-92845379D01*
X147470540Y-92970272D01*
X147470535Y-92970276D01*
X147320276Y-93120535D01*
X147320272Y-93120540D01*
X147195379Y-93292442D01*
X147098904Y-93481782D01*
X147033242Y-93683870D01*
X147033242Y-93683873D01*
X147022769Y-93750000D01*
X148066988Y-93750000D01*
X148034075Y-93807007D01*
X148000000Y-93934174D01*
X148000000Y-94065826D01*
X148034075Y-94192993D01*
X148066988Y-94250000D01*
X147022769Y-94250000D01*
X147033242Y-94316126D01*
X147033242Y-94316129D01*
X147098904Y-94518217D01*
X147175837Y-94669205D01*
X147188733Y-94737874D01*
X147162457Y-94802615D01*
X147105350Y-94842872D01*
X147065352Y-94849500D01*
X145286612Y-94849500D01*
X145219573Y-94829815D01*
X145173818Y-94777011D01*
X145163413Y-94718152D01*
X145162904Y-94718132D01*
X145162995Y-94715789D01*
X145162994Y-94715778D01*
X145162998Y-94715717D01*
X145163000Y-94715694D01*
X145163000Y-94284306D01*
X145160098Y-94247431D01*
X145155552Y-94231785D01*
X145114245Y-94089606D01*
X145114244Y-94089603D01*
X145114244Y-94089602D01*
X145030581Y-93948135D01*
X145030579Y-93948133D01*
X145030576Y-93948129D01*
X144914370Y-93831923D01*
X144914362Y-93831917D01*
X144775847Y-93750000D01*
X144772898Y-93748256D01*
X144772897Y-93748255D01*
X144772896Y-93748255D01*
X144772893Y-93748254D01*
X144615073Y-93702402D01*
X144615067Y-93702401D01*
X144578201Y-93699500D01*
X144578194Y-93699500D01*
X143761000Y-93699500D01*
X143693961Y-93679815D01*
X143648206Y-93627011D01*
X143637000Y-93575500D01*
X143637000Y-93231107D01*
X143656685Y-93164068D01*
X143709489Y-93118313D01*
X143778647Y-93108369D01*
X143826097Y-93125569D01*
X143880869Y-93159353D01*
X143880880Y-93159358D01*
X144047302Y-93214505D01*
X144047309Y-93214506D01*
X144150019Y-93224999D01*
X144700000Y-93224999D01*
X144749972Y-93224999D01*
X144749986Y-93224998D01*
X144852697Y-93214505D01*
X145019119Y-93159358D01*
X145019124Y-93159356D01*
X145168345Y-93067315D01*
X145292315Y-92943345D01*
X145384356Y-92794124D01*
X145384358Y-92794119D01*
X145439505Y-92627697D01*
X145439506Y-92627690D01*
X145449999Y-92524986D01*
X145450000Y-92524973D01*
X145450000Y-92250000D01*
X144700000Y-92250000D01*
X144700000Y-93224999D01*
X144150019Y-93224999D01*
X144199999Y-93224998D01*
X144200000Y-93224998D01*
X144200000Y-91750000D01*
X144700000Y-91750000D01*
X145449999Y-91750000D01*
X145449999Y-91475028D01*
X145449998Y-91475013D01*
X145439505Y-91372302D01*
X145384358Y-91205880D01*
X145384356Y-91205875D01*
X145292315Y-91056654D01*
X145168345Y-90932684D01*
X145019124Y-90840643D01*
X145019119Y-90840641D01*
X144852697Y-90785494D01*
X144852690Y-90785493D01*
X144749986Y-90775000D01*
X144700000Y-90775000D01*
X144700000Y-91750000D01*
X144200000Y-91750000D01*
X144200000Y-90775000D01*
X144199999Y-90774999D01*
X144150029Y-90775000D01*
X144150011Y-90775001D01*
X144047302Y-90785494D01*
X143880880Y-90840641D01*
X143880875Y-90840643D01*
X143731654Y-90932684D01*
X143607683Y-91056655D01*
X143607679Y-91056660D01*
X143605826Y-91059665D01*
X143604018Y-91061290D01*
X143603202Y-91062323D01*
X143603025Y-91062183D01*
X143553874Y-91106385D01*
X143484911Y-91117601D01*
X143420831Y-91089752D01*
X143394753Y-91059653D01*
X143394737Y-91059628D01*
X143392712Y-91056344D01*
X143268656Y-90932288D01*
X143268652Y-90932285D01*
X143184597Y-90880439D01*
X143137872Y-90828491D01*
X143126651Y-90759529D01*
X143154494Y-90695447D01*
X143162002Y-90687231D01*
X149462416Y-84386818D01*
X149523739Y-84353333D01*
X149550097Y-84350499D01*
X150775002Y-84350499D01*
X150775008Y-84350499D01*
X150877797Y-84339999D01*
X151044334Y-84284814D01*
X151193656Y-84192712D01*
X151317712Y-84068656D01*
X151409814Y-83919334D01*
X151464999Y-83752797D01*
X151475500Y-83650009D01*
X151475499Y-82425095D01*
X151495184Y-82358057D01*
X151511813Y-82337420D01*
X152858506Y-80990728D01*
X152858511Y-80990724D01*
X152868714Y-80980520D01*
X152868716Y-80980520D01*
X152980520Y-80868716D01*
X153037665Y-80769737D01*
X153059577Y-80731785D01*
X153100501Y-80579057D01*
X153100501Y-80420943D01*
X153100501Y-80413348D01*
X153100500Y-80413330D01*
X153100500Y-73920945D01*
X153100500Y-73920943D01*
X153059577Y-73768216D01*
X153059577Y-73768215D01*
X153059577Y-73768214D01*
X153030639Y-73718095D01*
X153030637Y-73718092D01*
X152980520Y-73631284D01*
X152868716Y-73519480D01*
X152868715Y-73519479D01*
X152864385Y-73515149D01*
X152864374Y-73515139D01*
X151060772Y-71711537D01*
X151044573Y-71681871D01*
X151027809Y-71652508D01*
X151027873Y-71651287D01*
X151027287Y-71650214D01*
X151029699Y-71616484D01*
X151031470Y-71582735D01*
X151032183Y-71581742D01*
X151032271Y-71580522D01*
X151052531Y-71553457D01*
X151072272Y-71526017D01*
X151073650Y-71525247D01*
X151074143Y-71524589D01*
X151102923Y-71508517D01*
X151103969Y-71508104D01*
X151142331Y-71493796D01*
X151144692Y-71492028D01*
X151154996Y-71487961D01*
X151182444Y-71485473D01*
X151209367Y-71479616D01*
X151218262Y-71482227D01*
X151224580Y-71481655D01*
X151235221Y-71487206D01*
X151249207Y-71491312D01*
X151249602Y-71490253D01*
X151392623Y-71543597D01*
X151392627Y-71543598D01*
X151452155Y-71549999D01*
X151452172Y-71550000D01*
X151750000Y-71550000D01*
X152250000Y-71550000D01*
X152547828Y-71550000D01*
X152547844Y-71549999D01*
X152607372Y-71543598D01*
X152607379Y-71543596D01*
X152742086Y-71493354D01*
X152742093Y-71493350D01*
X152857187Y-71407190D01*
X152857190Y-71407187D01*
X152943350Y-71292093D01*
X152943354Y-71292086D01*
X152993596Y-71157379D01*
X152993598Y-71157372D01*
X152999999Y-71097844D01*
X153000000Y-71097827D01*
X153000000Y-70850000D01*
X152250000Y-70850000D01*
X152250000Y-71550000D01*
X151750000Y-71550000D01*
X151750000Y-70350000D01*
X152250000Y-70350000D01*
X153000000Y-70350000D01*
X153000000Y-70102172D01*
X152999999Y-70102155D01*
X152993598Y-70042627D01*
X152993596Y-70042620D01*
X152943354Y-69907913D01*
X152943350Y-69907906D01*
X152857190Y-69792812D01*
X152857187Y-69792809D01*
X152742093Y-69706649D01*
X152742086Y-69706645D01*
X152607379Y-69656403D01*
X152607372Y-69656401D01*
X152547844Y-69650000D01*
X152250000Y-69650000D01*
X152250000Y-70350000D01*
X151750000Y-70350000D01*
X151750000Y-69650000D01*
X151452155Y-69650000D01*
X151392627Y-69656401D01*
X151392620Y-69656403D01*
X151249601Y-69709746D01*
X151249036Y-69708232D01*
X151225083Y-69713116D01*
X151191674Y-69720383D01*
X151190615Y-69720145D01*
X151190069Y-69720257D01*
X151187000Y-69719334D01*
X151155683Y-69712306D01*
X151144889Y-69708119D01*
X151142331Y-69706204D01*
X151080470Y-69683131D01*
X151079657Y-69682816D01*
X151052598Y-69662005D01*
X151025233Y-69641520D01*
X151024939Y-69640732D01*
X151024273Y-69640220D01*
X151012752Y-69608059D01*
X151000816Y-69576056D01*
X151000763Y-69574589D01*
X151000711Y-69574443D01*
X151000752Y-69574265D01*
X151000500Y-69567209D01*
X151000500Y-67532790D01*
X151020185Y-67465751D01*
X151072989Y-67419996D01*
X151081150Y-67416614D01*
X151142331Y-67393796D01*
X151142332Y-67393794D01*
X151150641Y-67390696D01*
X151151226Y-67392265D01*
X151209367Y-67379616D01*
X151249207Y-67391312D01*
X151249602Y-67390253D01*
X151392623Y-67443597D01*
X151392627Y-67443598D01*
X151452155Y-67449999D01*
X151452172Y-67450000D01*
X151750000Y-67450000D01*
X152250000Y-67450000D01*
X152547828Y-67450000D01*
X152547844Y-67449999D01*
X152607372Y-67443598D01*
X152607379Y-67443596D01*
X152742086Y-67393354D01*
X152742093Y-67393350D01*
X152857187Y-67307190D01*
X152857190Y-67307187D01*
X152943350Y-67192093D01*
X152943354Y-67192086D01*
X152993596Y-67057379D01*
X152993598Y-67057372D01*
X152999999Y-66997844D01*
X153000000Y-66997827D01*
X153000000Y-66750000D01*
X152250000Y-66750000D01*
X152250000Y-67450000D01*
X151750000Y-67450000D01*
X151750000Y-66250000D01*
X152250000Y-66250000D01*
X153000000Y-66250000D01*
X153000000Y-66002172D01*
X152999999Y-66002155D01*
X152993598Y-65942627D01*
X152993596Y-65942620D01*
X152943354Y-65807913D01*
X152943350Y-65807906D01*
X152857190Y-65692812D01*
X152857187Y-65692809D01*
X152742093Y-65606649D01*
X152742086Y-65606645D01*
X152607379Y-65556403D01*
X152607372Y-65556401D01*
X152547844Y-65550000D01*
X152250000Y-65550000D01*
X152250000Y-66250000D01*
X151750000Y-66250000D01*
X151750000Y-65550000D01*
X151452155Y-65550000D01*
X151392627Y-65556401D01*
X151392620Y-65556403D01*
X151249601Y-65609746D01*
X151248924Y-65607931D01*
X151191674Y-65620383D01*
X151150967Y-65608428D01*
X151150641Y-65609303D01*
X151007482Y-65555908D01*
X151007483Y-65555908D01*
X150947883Y-65549501D01*
X150947881Y-65549500D01*
X150947873Y-65549500D01*
X150947864Y-65549500D01*
X149852129Y-65549500D01*
X149852123Y-65549501D01*
X149792516Y-65555908D01*
X149657671Y-65606202D01*
X149657664Y-65606206D01*
X149542455Y-65692452D01*
X149542452Y-65692455D01*
X149456206Y-65807664D01*
X149456202Y-65807671D01*
X149405908Y-65942517D01*
X149399501Y-66002116D01*
X149399500Y-66002135D01*
X149399500Y-66199902D01*
X149379815Y-66266941D01*
X149363181Y-66287583D01*
X148987873Y-66662890D01*
X148926550Y-66696375D01*
X148856858Y-66691391D01*
X148835101Y-66680750D01*
X148772426Y-66642093D01*
X148769336Y-66640187D01*
X148769331Y-66640185D01*
X148748149Y-66633166D01*
X148602797Y-66585001D01*
X148602795Y-66585000D01*
X148500010Y-66574500D01*
X147499998Y-66574500D01*
X147499980Y-66574501D01*
X147397203Y-66585000D01*
X147397200Y-66585001D01*
X147230668Y-66640185D01*
X147230663Y-66640187D01*
X147081342Y-66732289D01*
X146957289Y-66856342D01*
X146865187Y-67005663D01*
X146865185Y-67005668D01*
X146837349Y-67089670D01*
X146810001Y-67172203D01*
X146810001Y-67172204D01*
X146810000Y-67172204D01*
X146799500Y-67274983D01*
X146799500Y-67900001D01*
X146799501Y-67900019D01*
X146810000Y-68002796D01*
X146810001Y-68002799D01*
X146857811Y-68147077D01*
X146865186Y-68169334D01*
X146957287Y-68318655D01*
X146957289Y-68318657D01*
X147050951Y-68412319D01*
X147052468Y-68415097D01*
X147055169Y-68416750D01*
X147069103Y-68445563D01*
X147084436Y-68473642D01*
X147084210Y-68476799D01*
X147085589Y-68479650D01*
X147081734Y-68511416D01*
X147079452Y-68543334D01*
X147077439Y-68546812D01*
X147077173Y-68549011D01*
X147070326Y-68559108D01*
X147058751Y-68579116D01*
X147055052Y-68583579D01*
X146957288Y-68681344D01*
X146908491Y-68760456D01*
X146902973Y-68767116D01*
X146880888Y-68782007D01*
X146861083Y-68799821D01*
X146851107Y-68802087D01*
X146845042Y-68806178D01*
X146831827Y-68806469D01*
X146807492Y-68812000D01*
X146448812Y-68812000D01*
X146384705Y-68793176D01*
X146384546Y-68793475D01*
X146383110Y-68792707D01*
X146381773Y-68792315D01*
X146379923Y-68791103D01*
X146379179Y-68790606D01*
X146379174Y-68790603D01*
X146233501Y-68730264D01*
X146233489Y-68730261D01*
X146078845Y-68699500D01*
X146078842Y-68699500D01*
X145921158Y-68699500D01*
X145921155Y-68699500D01*
X145766510Y-68730261D01*
X145766498Y-68730264D01*
X145620827Y-68790602D01*
X145620814Y-68790609D01*
X145493390Y-68875752D01*
X145426712Y-68896630D01*
X145359332Y-68878145D01*
X145312642Y-68826167D01*
X145300499Y-68772650D01*
X145300499Y-68232129D01*
X145300498Y-68232123D01*
X145300497Y-68232116D01*
X145294091Y-68172517D01*
X145281340Y-68138332D01*
X145276357Y-68068642D01*
X145281340Y-68051669D01*
X145294091Y-68017483D01*
X145300500Y-67957873D01*
X145300499Y-66962128D01*
X145294091Y-66902517D01*
X145281073Y-66867616D01*
X145276090Y-66797926D01*
X145281075Y-66780949D01*
X145293597Y-66747375D01*
X145293598Y-66747372D01*
X145299999Y-66687844D01*
X145300000Y-66687827D01*
X145300000Y-66440000D01*
X142800000Y-66440000D01*
X142800000Y-66687844D01*
X142806401Y-66747372D01*
X142806403Y-66747379D01*
X142818925Y-66780952D01*
X142823909Y-66850643D01*
X142818925Y-66867617D01*
X142805909Y-66902514D01*
X142805908Y-66902516D01*
X142799501Y-66962116D01*
X142799501Y-66962123D01*
X142799500Y-66962135D01*
X142799500Y-67957870D01*
X142799501Y-67957876D01*
X142805908Y-68017481D01*
X142818659Y-68051669D01*
X142823642Y-68121361D01*
X142818659Y-68138331D01*
X142805908Y-68172518D01*
X142799501Y-68232116D01*
X142799501Y-68232123D01*
X142799500Y-68232135D01*
X142799500Y-69227870D01*
X142799501Y-69227876D01*
X142805908Y-69287481D01*
X142818659Y-69321669D01*
X142823642Y-69391361D01*
X142818659Y-69408331D01*
X142805908Y-69442518D01*
X142800533Y-69492516D01*
X142799501Y-69502123D01*
X142799500Y-69502135D01*
X142799500Y-70497870D01*
X142799501Y-70497876D01*
X142805908Y-70557481D01*
X142818659Y-70591669D01*
X142823642Y-70661361D01*
X142818659Y-70678331D01*
X142805908Y-70712518D01*
X142802703Y-70742332D01*
X142799501Y-70772123D01*
X142799500Y-70772135D01*
X142799500Y-71767870D01*
X142799501Y-71767876D01*
X142805908Y-71827481D01*
X142818659Y-71861669D01*
X142823642Y-71931361D01*
X142818659Y-71948331D01*
X142805908Y-71982518D01*
X142799501Y-72042116D01*
X142799501Y-72042123D01*
X142799500Y-72042135D01*
X142799500Y-73037870D01*
X142799501Y-73037876D01*
X142805908Y-73097481D01*
X142818659Y-73131669D01*
X142823642Y-73201361D01*
X142818659Y-73218331D01*
X142805908Y-73252518D01*
X142799501Y-73312116D01*
X142799501Y-73312123D01*
X142799500Y-73312135D01*
X142799500Y-74307870D01*
X142799501Y-74307876D01*
X142805908Y-74367481D01*
X142818659Y-74401669D01*
X142823642Y-74471361D01*
X142818659Y-74488331D01*
X142805908Y-74522518D01*
X142799501Y-74582116D01*
X142799501Y-74582123D01*
X142799500Y-74582135D01*
X142799500Y-75577870D01*
X142799501Y-75577876D01*
X142805908Y-75637481D01*
X142818659Y-75671669D01*
X142823642Y-75741361D01*
X142818659Y-75758331D01*
X142805908Y-75792518D01*
X142799501Y-75852116D01*
X142799501Y-75852123D01*
X142799500Y-75852135D01*
X142799500Y-76847870D01*
X142799501Y-76847876D01*
X142805908Y-76907481D01*
X142818659Y-76941669D01*
X142823642Y-77011361D01*
X142818659Y-77028331D01*
X142805908Y-77062518D01*
X142799706Y-77120208D01*
X142799501Y-77122123D01*
X142799500Y-77122135D01*
X142799500Y-78117870D01*
X142799501Y-78117876D01*
X142805908Y-78177481D01*
X142818659Y-78211669D01*
X142823642Y-78281361D01*
X142818659Y-78298331D01*
X142805908Y-78332518D01*
X142804572Y-78344949D01*
X142799501Y-78392123D01*
X142799500Y-78392135D01*
X142799500Y-79387870D01*
X142799501Y-79387876D01*
X142805908Y-79447481D01*
X142818659Y-79481669D01*
X142823642Y-79551361D01*
X142818659Y-79568331D01*
X142805908Y-79602518D01*
X142799501Y-79662116D01*
X142799501Y-79662123D01*
X142799500Y-79662135D01*
X142799500Y-80657870D01*
X142799501Y-80657876D01*
X142805908Y-80717481D01*
X142818659Y-80751669D01*
X142823642Y-80821361D01*
X142818659Y-80838331D01*
X142805908Y-80872518D01*
X142799501Y-80932116D01*
X142799501Y-80932123D01*
X142799500Y-80932135D01*
X142799500Y-81927870D01*
X142799501Y-81927876D01*
X142805908Y-81987481D01*
X142818659Y-82021669D01*
X142823642Y-82091361D01*
X142818659Y-82108331D01*
X142805908Y-82142518D01*
X142799501Y-82202116D01*
X142799501Y-82202123D01*
X142799500Y-82202135D01*
X142799500Y-82575500D01*
X142779815Y-82642539D01*
X142727011Y-82688294D01*
X142675500Y-82699500D01*
X141787129Y-82699500D01*
X141787123Y-82699501D01*
X141727518Y-82705908D01*
X141693331Y-82718659D01*
X141623639Y-82723642D01*
X141606669Y-82718659D01*
X141572480Y-82705908D01*
X141572482Y-82705908D01*
X141512883Y-82699501D01*
X141512881Y-82699500D01*
X141512873Y-82699500D01*
X141512864Y-82699500D01*
X140517129Y-82699500D01*
X140517123Y-82699501D01*
X140457518Y-82705908D01*
X140423331Y-82718659D01*
X140353639Y-82723642D01*
X140336669Y-82718659D01*
X140302480Y-82705908D01*
X140302482Y-82705908D01*
X140242883Y-82699501D01*
X140242881Y-82699500D01*
X140242873Y-82699500D01*
X140242864Y-82699500D01*
X139247129Y-82699500D01*
X139247123Y-82699501D01*
X139187518Y-82705908D01*
X139153331Y-82718659D01*
X139083639Y-82723642D01*
X139066669Y-82718659D01*
X139032480Y-82705908D01*
X139032482Y-82705908D01*
X138972883Y-82699501D01*
X138972881Y-82699500D01*
X138972873Y-82699500D01*
X138972864Y-82699500D01*
X137977129Y-82699500D01*
X137977123Y-82699501D01*
X137917518Y-82705908D01*
X137883331Y-82718659D01*
X137813639Y-82723642D01*
X137796669Y-82718659D01*
X137762480Y-82705908D01*
X137762482Y-82705908D01*
X137702883Y-82699501D01*
X137702881Y-82699500D01*
X137702873Y-82699500D01*
X137702864Y-82699500D01*
X136707129Y-82699500D01*
X136707123Y-82699501D01*
X136647518Y-82705908D01*
X136613331Y-82718659D01*
X136543639Y-82723642D01*
X136526669Y-82718659D01*
X136492480Y-82705908D01*
X136492482Y-82705908D01*
X136432883Y-82699501D01*
X136432881Y-82699500D01*
X136432873Y-82699500D01*
X136432864Y-82699500D01*
X135437129Y-82699500D01*
X135437123Y-82699501D01*
X135377518Y-82705908D01*
X135343331Y-82718659D01*
X135273639Y-82723642D01*
X135256669Y-82718659D01*
X135222480Y-82705908D01*
X135222482Y-82705908D01*
X135162883Y-82699501D01*
X135162881Y-82699500D01*
X135162873Y-82699500D01*
X135162864Y-82699500D01*
X134167129Y-82699500D01*
X134167123Y-82699501D01*
X134107518Y-82705908D01*
X134073331Y-82718659D01*
X134003639Y-82723642D01*
X133986669Y-82718659D01*
X133952480Y-82705908D01*
X133952482Y-82705908D01*
X133892883Y-82699501D01*
X133892881Y-82699500D01*
X133892873Y-82699500D01*
X133892864Y-82699500D01*
X132897129Y-82699500D01*
X132897123Y-82699501D01*
X132837518Y-82705908D01*
X132803331Y-82718659D01*
X132733639Y-82723642D01*
X132716669Y-82718659D01*
X132682480Y-82705908D01*
X132682482Y-82705908D01*
X132622883Y-82699501D01*
X132622881Y-82699500D01*
X132622873Y-82699500D01*
X132622864Y-82699500D01*
X131627129Y-82699500D01*
X131627123Y-82699501D01*
X131567518Y-82705908D01*
X131533331Y-82718659D01*
X131463639Y-82723642D01*
X131446669Y-82718659D01*
X131412480Y-82705908D01*
X131412482Y-82705908D01*
X131352883Y-82699501D01*
X131352881Y-82699500D01*
X131352873Y-82699500D01*
X131352864Y-82699500D01*
X130357129Y-82699500D01*
X130357123Y-82699501D01*
X130297518Y-82705908D01*
X130263331Y-82718659D01*
X130193639Y-82723642D01*
X130176669Y-82718659D01*
X130142480Y-82705908D01*
X130142482Y-82705908D01*
X130082883Y-82699501D01*
X130082881Y-82699500D01*
X130082873Y-82699500D01*
X130082864Y-82699500D01*
X129087129Y-82699500D01*
X129087123Y-82699501D01*
X129027518Y-82705908D01*
X128993331Y-82718659D01*
X128923639Y-82723642D01*
X128906669Y-82718659D01*
X128872480Y-82705908D01*
X128872482Y-82705908D01*
X128812883Y-82699501D01*
X128812881Y-82699500D01*
X128812873Y-82699500D01*
X128812865Y-82699500D01*
X127924499Y-82699500D01*
X127857460Y-82679815D01*
X127811705Y-82627011D01*
X127800499Y-82575500D01*
X127800499Y-82202129D01*
X127800498Y-82202123D01*
X127800497Y-82202116D01*
X127794091Y-82142517D01*
X127781340Y-82108332D01*
X127776357Y-82038642D01*
X127781340Y-82021669D01*
X127794091Y-81987483D01*
X127800500Y-81927873D01*
X127800499Y-80932128D01*
X127794091Y-80872517D01*
X127781340Y-80838332D01*
X127779771Y-80816382D01*
X127773523Y-80795280D01*
X127776910Y-80776382D01*
X127776357Y-80768642D01*
X127778467Y-80760334D01*
X127779742Y-80755952D01*
X127794091Y-80717483D01*
X127795933Y-80700349D01*
X127798995Y-80689834D01*
X127812153Y-80669257D01*
X127821500Y-80646693D01*
X127830642Y-80640345D01*
X127836637Y-80630971D01*
X127858829Y-80620775D01*
X127878893Y-80606845D01*
X127894739Y-80604277D01*
X127900127Y-80601802D01*
X127905406Y-80602548D01*
X127918051Y-80600500D01*
X127920234Y-80600500D01*
X127947488Y-80608502D01*
X127969308Y-80611590D01*
X127975143Y-80616623D01*
X127987273Y-80620185D01*
X127989125Y-80621398D01*
X128120814Y-80709390D01*
X128120827Y-80709397D01*
X128243802Y-80760334D01*
X128266503Y-80769737D01*
X128421153Y-80800499D01*
X128421156Y-80800500D01*
X128421158Y-80800500D01*
X128578844Y-80800500D01*
X128578845Y-80800499D01*
X128733497Y-80769737D01*
X128879179Y-80709394D01*
X129010289Y-80621789D01*
X129121789Y-80510289D01*
X129209394Y-80379179D01*
X129269737Y-80233497D01*
X129300500Y-80078842D01*
X129300500Y-79921158D01*
X129300500Y-79921155D01*
X129300499Y-79921153D01*
X129269737Y-79766503D01*
X129269735Y-79766498D01*
X129209397Y-79620827D01*
X129209390Y-79620814D01*
X129121789Y-79489711D01*
X129121786Y-79489707D01*
X129010292Y-79378213D01*
X129010288Y-79378210D01*
X128879185Y-79290609D01*
X128879172Y-79290602D01*
X128733501Y-79230264D01*
X128733489Y-79230261D01*
X128578845Y-79199500D01*
X128578842Y-79199500D01*
X128421158Y-79199500D01*
X128421155Y-79199500D01*
X128266510Y-79230261D01*
X128266498Y-79230264D01*
X128120827Y-79290602D01*
X128120816Y-79290608D01*
X127993389Y-79375752D01*
X127926712Y-79396629D01*
X127859332Y-79378144D01*
X127812642Y-79326165D01*
X127800499Y-79272652D01*
X127800499Y-78392128D01*
X127794091Y-78332517D01*
X127781340Y-78298332D01*
X127776357Y-78228642D01*
X127781340Y-78211669D01*
X127794091Y-78177483D01*
X127800500Y-78117873D01*
X127800499Y-77122128D01*
X127794091Y-77062517D01*
X127781340Y-77028332D01*
X127776357Y-76958642D01*
X127781340Y-76941669D01*
X127794091Y-76907483D01*
X127800500Y-76847873D01*
X127800499Y-75852128D01*
X127794091Y-75792517D01*
X127781340Y-75758332D01*
X127776357Y-75688642D01*
X127781340Y-75671669D01*
X127794091Y-75637483D01*
X127800500Y-75577873D01*
X127800499Y-74582128D01*
X127794091Y-74522517D01*
X127781340Y-74488332D01*
X127776357Y-74418642D01*
X127781340Y-74401669D01*
X127794091Y-74367483D01*
X127800500Y-74307873D01*
X127800499Y-73312128D01*
X127794091Y-73252517D01*
X127781340Y-73218332D01*
X127776357Y-73148642D01*
X127781340Y-73131669D01*
X127794091Y-73097483D01*
X127800500Y-73037873D01*
X127800499Y-72042128D01*
X127794091Y-71982517D01*
X127781340Y-71948332D01*
X127776357Y-71878642D01*
X127781340Y-71861669D01*
X127794091Y-71827483D01*
X127800500Y-71767873D01*
X127800499Y-70772128D01*
X127794091Y-70712517D01*
X127781340Y-70678332D01*
X127776357Y-70608642D01*
X127781340Y-70591669D01*
X127794091Y-70557483D01*
X127800500Y-70497873D01*
X127800499Y-69502128D01*
X127794091Y-69442517D01*
X127781340Y-69408332D01*
X127776357Y-69338642D01*
X127781340Y-69321669D01*
X127794091Y-69287483D01*
X127800500Y-69227873D01*
X127800499Y-68232128D01*
X127796804Y-68197753D01*
X127809211Y-68128994D01*
X127856822Y-68077857D01*
X127920094Y-68060500D01*
X140877059Y-68060500D01*
X140944098Y-68080185D01*
X140964740Y-68096819D01*
X140989707Y-68121786D01*
X140989711Y-68121789D01*
X141120814Y-68209390D01*
X141120827Y-68209397D01*
X141266498Y-68269735D01*
X141266503Y-68269737D01*
X141421153Y-68300499D01*
X141421156Y-68300500D01*
X141421158Y-68300500D01*
X141578844Y-68300500D01*
X141578845Y-68300499D01*
X141733497Y-68269737D01*
X141879179Y-68209394D01*
X142010289Y-68121789D01*
X142121789Y-68010289D01*
X142209394Y-67879179D01*
X142269737Y-67733497D01*
X142300500Y-67578842D01*
X142300500Y-67421158D01*
X142300500Y-67421155D01*
X142300499Y-67421153D01*
X142294441Y-67390696D01*
X142269737Y-67266503D01*
X142241033Y-67197204D01*
X142209397Y-67120827D01*
X142209390Y-67120814D01*
X142121789Y-66989711D01*
X142121786Y-66989707D01*
X142010292Y-66878213D01*
X142010288Y-66878210D01*
X141879185Y-66790609D01*
X141879172Y-66790602D01*
X141733501Y-66730264D01*
X141733489Y-66730261D01*
X141578845Y-66699500D01*
X141578842Y-66699500D01*
X141421158Y-66699500D01*
X141421155Y-66699500D01*
X141266510Y-66730261D01*
X141266498Y-66730264D01*
X141120827Y-66790602D01*
X141120815Y-66790609D01*
X141048990Y-66838602D01*
X140982313Y-66859480D01*
X140980099Y-66859500D01*
X127919589Y-66859500D01*
X127852550Y-66839815D01*
X127806795Y-66787011D01*
X127796300Y-66722242D01*
X127799999Y-66687839D01*
X127800000Y-66687827D01*
X127800000Y-66440000D01*
X125300000Y-66440000D01*
X125300000Y-66566127D01*
X125280315Y-66633166D01*
X125227511Y-66678921D01*
X125158353Y-66688865D01*
X125136998Y-66683834D01*
X125102794Y-66672500D01*
X125102795Y-66672500D01*
X125000010Y-66662000D01*
X123999998Y-66662000D01*
X123999980Y-66662001D01*
X123897203Y-66672500D01*
X123897200Y-66672501D01*
X123730668Y-66727685D01*
X123730659Y-66727690D01*
X123618287Y-66797000D01*
X123550894Y-66815440D01*
X123484231Y-66794517D01*
X123465510Y-66779142D01*
X123443657Y-66757289D01*
X123443656Y-66757288D01*
X123331041Y-66687827D01*
X123294336Y-66665187D01*
X123294331Y-66665185D01*
X123255911Y-66652454D01*
X123127797Y-66610001D01*
X123127795Y-66610000D01*
X123025010Y-66599500D01*
X121974998Y-66599500D01*
X121974980Y-66599501D01*
X121872203Y-66610000D01*
X121872200Y-66610001D01*
X121705668Y-66665185D01*
X121705659Y-66665189D01*
X121565096Y-66751889D01*
X121497704Y-66770329D01*
X121434904Y-66751889D01*
X121294340Y-66665189D01*
X121294335Y-66665187D01*
X121294334Y-66665186D01*
X121127797Y-66610001D01*
X121127795Y-66610000D01*
X121025010Y-66599500D01*
X119974998Y-66599500D01*
X119974980Y-66599501D01*
X119872203Y-66610000D01*
X119872200Y-66610001D01*
X119705668Y-66665185D01*
X119705663Y-66665187D01*
X119556342Y-66757289D01*
X119432289Y-66881342D01*
X119340187Y-67030663D01*
X119340185Y-67030668D01*
X119312349Y-67114670D01*
X119285001Y-67197203D01*
X119285001Y-67197204D01*
X119285000Y-67197204D01*
X119274500Y-67299983D01*
X119274500Y-67900001D01*
X119274501Y-67900019D01*
X119285000Y-68002796D01*
X119285001Y-68002799D01*
X119332811Y-68147077D01*
X119340186Y-68169334D01*
X119432288Y-68318656D01*
X119556344Y-68442712D01*
X119559628Y-68444737D01*
X119559653Y-68444753D01*
X119561445Y-68446746D01*
X119562011Y-68447193D01*
X119561934Y-68447289D01*
X119606379Y-68496699D01*
X119617603Y-68565661D01*
X119589761Y-68629744D01*
X119559665Y-68655826D01*
X119556660Y-68657679D01*
X119556655Y-68657683D01*
X119432684Y-68781654D01*
X119340643Y-68930875D01*
X119340641Y-68930880D01*
X119285494Y-69097302D01*
X119285493Y-69097309D01*
X119275000Y-69200013D01*
X119275000Y-69250000D01*
X122376000Y-69250000D01*
X122443039Y-69269685D01*
X122488794Y-69322489D01*
X122500000Y-69374000D01*
X122500000Y-69626000D01*
X122480315Y-69693039D01*
X122427511Y-69738794D01*
X122376000Y-69750000D01*
X120750000Y-69750000D01*
X120750000Y-70499999D01*
X121024972Y-70499999D01*
X121024986Y-70499998D01*
X121127697Y-70489505D01*
X121294119Y-70434358D01*
X121294130Y-70434353D01*
X121434903Y-70347523D01*
X121502295Y-70329082D01*
X121565097Y-70347523D01*
X121705869Y-70434353D01*
X121705880Y-70434358D01*
X121872302Y-70489505D01*
X121872309Y-70489506D01*
X121975019Y-70499999D01*
X122351402Y-70499999D01*
X122418441Y-70519683D01*
X122464196Y-70572487D01*
X122474140Y-70641646D01*
X122445115Y-70705201D01*
X122439083Y-70711680D01*
X121787584Y-71363181D01*
X121726261Y-71396666D01*
X121699903Y-71399500D01*
X119088585Y-71399500D01*
X119021546Y-71379815D01*
X118975791Y-71327011D01*
X118970879Y-71314504D01*
X118963453Y-71292093D01*
X118934814Y-71205666D01*
X118842712Y-71056344D01*
X118727686Y-70941318D01*
X118694201Y-70879995D01*
X118699185Y-70810303D01*
X118716099Y-70779329D01*
X118743796Y-70742331D01*
X118794091Y-70607483D01*
X118800500Y-70547873D01*
X118800499Y-69799986D01*
X119275001Y-69799986D01*
X119285494Y-69902697D01*
X119340641Y-70069119D01*
X119340643Y-70069124D01*
X119432684Y-70218345D01*
X119556654Y-70342315D01*
X119705875Y-70434356D01*
X119705880Y-70434358D01*
X119872302Y-70489505D01*
X119872309Y-70489506D01*
X119975019Y-70499999D01*
X120249999Y-70499999D01*
X120250000Y-70499998D01*
X120250000Y-69750000D01*
X119275001Y-69750000D01*
X119275001Y-69799986D01*
X118800499Y-69799986D01*
X118800499Y-69552128D01*
X118794091Y-69492517D01*
X118775442Y-69442517D01*
X118743797Y-69357671D01*
X118743793Y-69357664D01*
X118657548Y-69242457D01*
X118657546Y-69242454D01*
X118657542Y-69242451D01*
X118657540Y-69242449D01*
X118650187Y-69236944D01*
X118608317Y-69181009D01*
X118600500Y-69137679D01*
X118600500Y-66862320D01*
X118620185Y-66795281D01*
X118650192Y-66763051D01*
X118657546Y-66757546D01*
X118743796Y-66642331D01*
X118794091Y-66507483D01*
X118800500Y-66447873D01*
X118800499Y-65692155D01*
X125300000Y-65692155D01*
X125300000Y-65940000D01*
X126300000Y-65940000D01*
X126800000Y-65940000D01*
X127800000Y-65940000D01*
X127800000Y-65692172D01*
X127799999Y-65692155D01*
X142800000Y-65692155D01*
X142800000Y-65940000D01*
X143800000Y-65940000D01*
X144300000Y-65940000D01*
X145300000Y-65940000D01*
X145300000Y-65692172D01*
X145299999Y-65692155D01*
X145293598Y-65632627D01*
X145293596Y-65632620D01*
X145243354Y-65497913D01*
X145243350Y-65497906D01*
X145157190Y-65382812D01*
X145157187Y-65382809D01*
X145042093Y-65296649D01*
X145042086Y-65296645D01*
X144907379Y-65246403D01*
X144907372Y-65246401D01*
X144847844Y-65240000D01*
X144300000Y-65240000D01*
X144300000Y-65940000D01*
X143800000Y-65940000D01*
X143800000Y-65240000D01*
X143252155Y-65240000D01*
X143192627Y-65246401D01*
X143192620Y-65246403D01*
X143057913Y-65296645D01*
X143057906Y-65296649D01*
X142942812Y-65382809D01*
X142942809Y-65382812D01*
X142856649Y-65497906D01*
X142856645Y-65497913D01*
X142806403Y-65632620D01*
X142806401Y-65632627D01*
X142800000Y-65692155D01*
X127799999Y-65692155D01*
X127793598Y-65632627D01*
X127793596Y-65632620D01*
X127743354Y-65497913D01*
X127743350Y-65497906D01*
X127657190Y-65382812D01*
X127657187Y-65382809D01*
X127542093Y-65296649D01*
X127542086Y-65296645D01*
X127407379Y-65246403D01*
X127407372Y-65246401D01*
X127347844Y-65240000D01*
X126800000Y-65240000D01*
X126800000Y-65940000D01*
X126300000Y-65940000D01*
X126300000Y-65240000D01*
X125752155Y-65240000D01*
X125692627Y-65246401D01*
X125692620Y-65246403D01*
X125557913Y-65296645D01*
X125557906Y-65296649D01*
X125442812Y-65382809D01*
X125442809Y-65382812D01*
X125356649Y-65497906D01*
X125356645Y-65497913D01*
X125306403Y-65632620D01*
X125306401Y-65632627D01*
X125300000Y-65692155D01*
X118800499Y-65692155D01*
X118800499Y-65452128D01*
X118794091Y-65392517D01*
X118790471Y-65382812D01*
X118743797Y-65257671D01*
X118743793Y-65257664D01*
X118657547Y-65142455D01*
X118657544Y-65142452D01*
X118542335Y-65056206D01*
X118542328Y-65056202D01*
X118407482Y-65005908D01*
X118407483Y-65005908D01*
X118347883Y-64999501D01*
X118347881Y-64999500D01*
X118347873Y-64999500D01*
X118347864Y-64999500D01*
X117252129Y-64999500D01*
X117252123Y-64999501D01*
X117192516Y-65005908D01*
X117049359Y-65059303D01*
X117048774Y-65057734D01*
X116990624Y-65070383D01*
X116950794Y-65058686D01*
X116950399Y-65059746D01*
X116807379Y-65006403D01*
X116807372Y-65006401D01*
X116747844Y-65000000D01*
X116450000Y-65000000D01*
X116450000Y-66900000D01*
X116747828Y-66900000D01*
X116747844Y-66899999D01*
X116807372Y-66893598D01*
X116807376Y-66893597D01*
X116950398Y-66840253D01*
X116951076Y-66842070D01*
X117008306Y-66829615D01*
X117049032Y-66841572D01*
X117049359Y-66840697D01*
X117107334Y-66862320D01*
X117192517Y-66894091D01*
X117252127Y-66900500D01*
X117275497Y-66900499D01*
X117342536Y-66920181D01*
X117388292Y-66972983D01*
X117399500Y-67024499D01*
X117399500Y-68975500D01*
X117379815Y-69042539D01*
X117327011Y-69088294D01*
X117275505Y-69099500D01*
X117252132Y-69099500D01*
X117252123Y-69099501D01*
X117192516Y-69105908D01*
X117049359Y-69159303D01*
X117048774Y-69157734D01*
X116990624Y-69170383D01*
X116950794Y-69158686D01*
X116950399Y-69159746D01*
X116807379Y-69106403D01*
X116807372Y-69106401D01*
X116747844Y-69100000D01*
X116450000Y-69100000D01*
X116450000Y-71006000D01*
X116448456Y-71011255D01*
X116449544Y-71016624D01*
X116438717Y-71044422D01*
X116430315Y-71073039D01*
X116426176Y-71076625D01*
X116424188Y-71081731D01*
X116398875Y-71106326D01*
X116350000Y-71141827D01*
X115850000Y-71141827D01*
X115850000Y-70769000D01*
X115869685Y-70701961D01*
X115922489Y-70656206D01*
X115943327Y-70651672D01*
X115950000Y-70645000D01*
X115950000Y-70300000D01*
X115200000Y-70300000D01*
X115200000Y-70547844D01*
X115206401Y-70607372D01*
X115206403Y-70607379D01*
X115256645Y-70742086D01*
X115256647Y-70742089D01*
X115327369Y-70836562D01*
X115351786Y-70902027D01*
X115336934Y-70970300D01*
X115315785Y-70998553D01*
X115257682Y-71056656D01*
X115165643Y-71205875D01*
X115165641Y-71205880D01*
X115110494Y-71372302D01*
X115110493Y-71372309D01*
X115100000Y-71475013D01*
X114100500Y-71475013D01*
X114100500Y-69552155D01*
X115200000Y-69552155D01*
X115200000Y-69800000D01*
X115950000Y-69800000D01*
X115950000Y-69100000D01*
X115652155Y-69100000D01*
X115592627Y-69106401D01*
X115592620Y-69106403D01*
X115457913Y-69156645D01*
X115457906Y-69156649D01*
X115342812Y-69242809D01*
X115342809Y-69242812D01*
X115256649Y-69357906D01*
X115256645Y-69357913D01*
X115206403Y-69492620D01*
X115206401Y-69492627D01*
X115200000Y-69552155D01*
X114100500Y-69552155D01*
X114100500Y-66447844D01*
X115200000Y-66447844D01*
X115206401Y-66507372D01*
X115206403Y-66507379D01*
X115256645Y-66642086D01*
X115256649Y-66642093D01*
X115342809Y-66757187D01*
X115342812Y-66757190D01*
X115457906Y-66843350D01*
X115457913Y-66843354D01*
X115592620Y-66893596D01*
X115592627Y-66893598D01*
X115652155Y-66899999D01*
X115652172Y-66900000D01*
X115950000Y-66900000D01*
X115950000Y-66200000D01*
X115200000Y-66200000D01*
X115200000Y-66447844D01*
X114100500Y-66447844D01*
X114100500Y-65452155D01*
X115200000Y-65452155D01*
X115200000Y-65700000D01*
X115950000Y-65700000D01*
X115950000Y-65000000D01*
X115652155Y-65000000D01*
X115592627Y-65006401D01*
X115592620Y-65006403D01*
X115457913Y-65056645D01*
X115457906Y-65056649D01*
X115342812Y-65142809D01*
X115342809Y-65142812D01*
X115256649Y-65257906D01*
X115256645Y-65257913D01*
X115206403Y-65392620D01*
X115206401Y-65392627D01*
X115200000Y-65452155D01*
X114100500Y-65452155D01*
X114100500Y-64824000D01*
X114120185Y-64756961D01*
X114172989Y-64711206D01*
X114224500Y-64700000D01*
X154775500Y-64700000D01*
X154842539Y-64719685D01*
G37*
%TD.AperFunction*%
%TD*%
M02*
