%TF.GenerationSoftware,KiCad,Pcbnew,9.0.7*%
%TF.CreationDate,2026-05-25T19:45:48+05:30*%
%TF.ProjectId,GYRA_motherboard,47595241-5f6d-46f7-9468-6572626f6172,rev?*%
%TF.SameCoordinates,Original*%
%TF.FileFunction,Legend,Bot*%
%TF.FilePolarity,Positive*%
%FSLAX46Y46*%
G04 Gerber Fmt 4.6, Leading zero omitted, Abs format (unit mm)*
G04 Created by KiCad (PCBNEW 9.0.7) date 2026-05-25 19:45:48*
%MOMM*%
%LPD*%
G01*
G04 APERTURE LIST*
%ADD10C,0.150000*%
%ADD11C,0.000000*%
G04 APERTURE END LIST*
D10*
X124639411Y-65917438D02*
X124734649Y-65869819D01*
X124734649Y-65869819D02*
X124877506Y-65869819D01*
X124877506Y-65869819D02*
X125020363Y-65917438D01*
X125020363Y-65917438D02*
X125115601Y-66012676D01*
X125115601Y-66012676D02*
X125163220Y-66107914D01*
X125163220Y-66107914D02*
X125210839Y-66298390D01*
X125210839Y-66298390D02*
X125210839Y-66441247D01*
X125210839Y-66441247D02*
X125163220Y-66631723D01*
X125163220Y-66631723D02*
X125115601Y-66726961D01*
X125115601Y-66726961D02*
X125020363Y-66822200D01*
X125020363Y-66822200D02*
X124877506Y-66869819D01*
X124877506Y-66869819D02*
X124782268Y-66869819D01*
X124782268Y-66869819D02*
X124639411Y-66822200D01*
X124639411Y-66822200D02*
X124591792Y-66774580D01*
X124591792Y-66774580D02*
X124591792Y-66441247D01*
X124591792Y-66441247D02*
X124782268Y-66441247D01*
X123972744Y-66393628D02*
X123972744Y-66869819D01*
X124306077Y-65869819D02*
X123972744Y-66393628D01*
X123972744Y-66393628D02*
X123639411Y-65869819D01*
X122734649Y-66869819D02*
X123067982Y-66393628D01*
X123306077Y-66869819D02*
X123306077Y-65869819D01*
X123306077Y-65869819D02*
X122925125Y-65869819D01*
X122925125Y-65869819D02*
X122829887Y-65917438D01*
X122829887Y-65917438D02*
X122782268Y-65965057D01*
X122782268Y-65965057D02*
X122734649Y-66060295D01*
X122734649Y-66060295D02*
X122734649Y-66203152D01*
X122734649Y-66203152D02*
X122782268Y-66298390D01*
X122782268Y-66298390D02*
X122829887Y-66346009D01*
X122829887Y-66346009D02*
X122925125Y-66393628D01*
X122925125Y-66393628D02*
X123306077Y-66393628D01*
X122353696Y-66584104D02*
X121877506Y-66584104D01*
X122448934Y-66869819D02*
X122115601Y-65869819D01*
X122115601Y-65869819D02*
X121782268Y-66869819D01*
X120687029Y-66869819D02*
X120687029Y-65869819D01*
X120687029Y-65869819D02*
X120353696Y-66584104D01*
X120353696Y-66584104D02*
X120020363Y-65869819D01*
X120020363Y-65869819D02*
X120020363Y-66869819D01*
X119591791Y-66584104D02*
X119115601Y-66584104D01*
X119687029Y-66869819D02*
X119353696Y-65869819D01*
X119353696Y-65869819D02*
X119020363Y-66869819D01*
X118115601Y-66869819D02*
X118448934Y-66393628D01*
X118687029Y-66869819D02*
X118687029Y-65869819D01*
X118687029Y-65869819D02*
X118306077Y-65869819D01*
X118306077Y-65869819D02*
X118210839Y-65917438D01*
X118210839Y-65917438D02*
X118163220Y-65965057D01*
X118163220Y-65965057D02*
X118115601Y-66060295D01*
X118115601Y-66060295D02*
X118115601Y-66203152D01*
X118115601Y-66203152D02*
X118163220Y-66298390D01*
X118163220Y-66298390D02*
X118210839Y-66346009D01*
X118210839Y-66346009D02*
X118306077Y-66393628D01*
X118306077Y-66393628D02*
X118687029Y-66393628D01*
X117687029Y-66869819D02*
X117687029Y-65869819D01*
X117115601Y-66869819D02*
X117544172Y-66298390D01*
X117115601Y-65869819D02*
X117687029Y-66441247D01*
X116687029Y-66488866D02*
X115925125Y-66488866D01*
X114925125Y-66869819D02*
X115496553Y-66869819D01*
X115210839Y-66869819D02*
X115210839Y-65869819D01*
X115210839Y-65869819D02*
X115306077Y-66012676D01*
X115306077Y-66012676D02*
X115401315Y-66107914D01*
X115401315Y-66107914D02*
X115496553Y-66155533D01*
X152829887Y-65736065D02*
X153163220Y-65736065D01*
X153163220Y-66259875D02*
X153163220Y-65259875D01*
X153163220Y-65259875D02*
X152687030Y-65259875D01*
X151877506Y-66259875D02*
X151877506Y-65736065D01*
X151877506Y-65736065D02*
X151925125Y-65640827D01*
X151925125Y-65640827D02*
X152020363Y-65593208D01*
X152020363Y-65593208D02*
X152210839Y-65593208D01*
X152210839Y-65593208D02*
X152306077Y-65640827D01*
X151877506Y-66212256D02*
X151972744Y-66259875D01*
X151972744Y-66259875D02*
X152210839Y-66259875D01*
X152210839Y-66259875D02*
X152306077Y-66212256D01*
X152306077Y-66212256D02*
X152353696Y-66117017D01*
X152353696Y-66117017D02*
X152353696Y-66021779D01*
X152353696Y-66021779D02*
X152306077Y-65926541D01*
X152306077Y-65926541D02*
X152210839Y-65878922D01*
X152210839Y-65878922D02*
X151972744Y-65878922D01*
X151972744Y-65878922D02*
X151877506Y-65831303D01*
X151258458Y-66259875D02*
X151353696Y-66212256D01*
X151353696Y-66212256D02*
X151401315Y-66117017D01*
X151401315Y-66117017D02*
X151401315Y-65259875D01*
X150734648Y-66259875D02*
X150829886Y-66212256D01*
X150829886Y-66212256D02*
X150877505Y-66117017D01*
X150877505Y-66117017D02*
X150877505Y-65259875D01*
X150210838Y-66259875D02*
X150306076Y-66212256D01*
X150306076Y-66212256D02*
X150353695Y-66164636D01*
X150353695Y-66164636D02*
X150401314Y-66069398D01*
X150401314Y-66069398D02*
X150401314Y-65783684D01*
X150401314Y-65783684D02*
X150353695Y-65688446D01*
X150353695Y-65688446D02*
X150306076Y-65640827D01*
X150306076Y-65640827D02*
X150210838Y-65593208D01*
X150210838Y-65593208D02*
X150067981Y-65593208D01*
X150067981Y-65593208D02*
X149972743Y-65640827D01*
X149972743Y-65640827D02*
X149925124Y-65688446D01*
X149925124Y-65688446D02*
X149877505Y-65783684D01*
X149877505Y-65783684D02*
X149877505Y-66069398D01*
X149877505Y-66069398D02*
X149925124Y-66164636D01*
X149925124Y-66164636D02*
X149972743Y-66212256D01*
X149972743Y-66212256D02*
X150067981Y-66259875D01*
X150067981Y-66259875D02*
X150210838Y-66259875D01*
X149020362Y-65593208D02*
X149020362Y-66259875D01*
X149448933Y-65593208D02*
X149448933Y-66117017D01*
X149448933Y-66117017D02*
X149401314Y-66212256D01*
X149401314Y-66212256D02*
X149306076Y-66259875D01*
X149306076Y-66259875D02*
X149163219Y-66259875D01*
X149163219Y-66259875D02*
X149067981Y-66212256D01*
X149067981Y-66212256D02*
X149020362Y-66164636D01*
X148687028Y-65593208D02*
X148306076Y-65593208D01*
X148544171Y-65259875D02*
X148544171Y-66117017D01*
X148544171Y-66117017D02*
X148496552Y-66212256D01*
X148496552Y-66212256D02*
X148401314Y-66259875D01*
X148401314Y-66259875D02*
X148306076Y-66259875D01*
X152639411Y-66917438D02*
X152734649Y-66869819D01*
X152734649Y-66869819D02*
X152877506Y-66869819D01*
X152877506Y-66869819D02*
X153020363Y-66917438D01*
X153020363Y-66917438D02*
X153115601Y-67012676D01*
X153115601Y-67012676D02*
X153163220Y-67107914D01*
X153163220Y-67107914D02*
X153210839Y-67298390D01*
X153210839Y-67298390D02*
X153210839Y-67441247D01*
X153210839Y-67441247D02*
X153163220Y-67631723D01*
X153163220Y-67631723D02*
X153115601Y-67726961D01*
X153115601Y-67726961D02*
X153020363Y-67822200D01*
X153020363Y-67822200D02*
X152877506Y-67869819D01*
X152877506Y-67869819D02*
X152782268Y-67869819D01*
X152782268Y-67869819D02*
X152639411Y-67822200D01*
X152639411Y-67822200D02*
X152591792Y-67774580D01*
X152591792Y-67774580D02*
X152591792Y-67441247D01*
X152591792Y-67441247D02*
X152782268Y-67441247D01*
X151972744Y-67393628D02*
X151972744Y-67869819D01*
X152306077Y-66869819D02*
X151972744Y-67393628D01*
X151972744Y-67393628D02*
X151639411Y-66869819D01*
X150734649Y-67869819D02*
X151067982Y-67393628D01*
X151306077Y-67869819D02*
X151306077Y-66869819D01*
X151306077Y-66869819D02*
X150925125Y-66869819D01*
X150925125Y-66869819D02*
X150829887Y-66917438D01*
X150829887Y-66917438D02*
X150782268Y-66965057D01*
X150782268Y-66965057D02*
X150734649Y-67060295D01*
X150734649Y-67060295D02*
X150734649Y-67203152D01*
X150734649Y-67203152D02*
X150782268Y-67298390D01*
X150782268Y-67298390D02*
X150829887Y-67346009D01*
X150829887Y-67346009D02*
X150925125Y-67393628D01*
X150925125Y-67393628D02*
X151306077Y-67393628D01*
X150353696Y-67584104D02*
X149877506Y-67584104D01*
X150448934Y-67869819D02*
X150115601Y-66869819D01*
X150115601Y-66869819D02*
X149782268Y-67869819D01*
X149687030Y-67965057D02*
X148925125Y-67965057D01*
X148687029Y-67869819D02*
X148687029Y-66869819D01*
X148687029Y-66869819D02*
X148353696Y-67584104D01*
X148353696Y-67584104D02*
X148020363Y-66869819D01*
X148020363Y-66869819D02*
X148020363Y-67869819D01*
X147353696Y-66869819D02*
X147163220Y-66869819D01*
X147163220Y-66869819D02*
X147067982Y-66917438D01*
X147067982Y-66917438D02*
X146972744Y-67012676D01*
X146972744Y-67012676D02*
X146925125Y-67203152D01*
X146925125Y-67203152D02*
X146925125Y-67536485D01*
X146925125Y-67536485D02*
X146972744Y-67726961D01*
X146972744Y-67726961D02*
X147067982Y-67822200D01*
X147067982Y-67822200D02*
X147163220Y-67869819D01*
X147163220Y-67869819D02*
X147353696Y-67869819D01*
X147353696Y-67869819D02*
X147448934Y-67822200D01*
X147448934Y-67822200D02*
X147544172Y-67726961D01*
X147544172Y-67726961D02*
X147591791Y-67536485D01*
X147591791Y-67536485D02*
X147591791Y-67203152D01*
X147591791Y-67203152D02*
X147544172Y-67012676D01*
X147544172Y-67012676D02*
X147448934Y-66917438D01*
X147448934Y-66917438D02*
X147353696Y-66869819D01*
X146639410Y-66869819D02*
X146067982Y-66869819D01*
X146353696Y-67869819D02*
X146353696Y-66869819D01*
X145734648Y-67869819D02*
X145734648Y-66869819D01*
X145734648Y-67346009D02*
X145163220Y-67346009D01*
X145163220Y-67869819D02*
X145163220Y-66869819D01*
X144687029Y-67346009D02*
X144353696Y-67346009D01*
X144210839Y-67869819D02*
X144687029Y-67869819D01*
X144687029Y-67869819D02*
X144687029Y-66869819D01*
X144687029Y-66869819D02*
X144210839Y-66869819D01*
X143210839Y-67869819D02*
X143544172Y-67393628D01*
X143782267Y-67869819D02*
X143782267Y-66869819D01*
X143782267Y-66869819D02*
X143401315Y-66869819D01*
X143401315Y-66869819D02*
X143306077Y-66917438D01*
X143306077Y-66917438D02*
X143258458Y-66965057D01*
X143258458Y-66965057D02*
X143210839Y-67060295D01*
X143210839Y-67060295D02*
X143210839Y-67203152D01*
X143210839Y-67203152D02*
X143258458Y-67298390D01*
X143258458Y-67298390D02*
X143306077Y-67346009D01*
X143306077Y-67346009D02*
X143401315Y-67393628D01*
X143401315Y-67393628D02*
X143782267Y-67393628D01*
X142448934Y-67346009D02*
X142306077Y-67393628D01*
X142306077Y-67393628D02*
X142258458Y-67441247D01*
X142258458Y-67441247D02*
X142210839Y-67536485D01*
X142210839Y-67536485D02*
X142210839Y-67679342D01*
X142210839Y-67679342D02*
X142258458Y-67774580D01*
X142258458Y-67774580D02*
X142306077Y-67822200D01*
X142306077Y-67822200D02*
X142401315Y-67869819D01*
X142401315Y-67869819D02*
X142782267Y-67869819D01*
X142782267Y-67869819D02*
X142782267Y-66869819D01*
X142782267Y-66869819D02*
X142448934Y-66869819D01*
X142448934Y-66869819D02*
X142353696Y-66917438D01*
X142353696Y-66917438D02*
X142306077Y-66965057D01*
X142306077Y-66965057D02*
X142258458Y-67060295D01*
X142258458Y-67060295D02*
X142258458Y-67155533D01*
X142258458Y-67155533D02*
X142306077Y-67250771D01*
X142306077Y-67250771D02*
X142353696Y-67298390D01*
X142353696Y-67298390D02*
X142448934Y-67346009D01*
X142448934Y-67346009D02*
X142782267Y-67346009D01*
X141591791Y-66869819D02*
X141401315Y-66869819D01*
X141401315Y-66869819D02*
X141306077Y-66917438D01*
X141306077Y-66917438D02*
X141210839Y-67012676D01*
X141210839Y-67012676D02*
X141163220Y-67203152D01*
X141163220Y-67203152D02*
X141163220Y-67536485D01*
X141163220Y-67536485D02*
X141210839Y-67726961D01*
X141210839Y-67726961D02*
X141306077Y-67822200D01*
X141306077Y-67822200D02*
X141401315Y-67869819D01*
X141401315Y-67869819D02*
X141591791Y-67869819D01*
X141591791Y-67869819D02*
X141687029Y-67822200D01*
X141687029Y-67822200D02*
X141782267Y-67726961D01*
X141782267Y-67726961D02*
X141829886Y-67536485D01*
X141829886Y-67536485D02*
X141829886Y-67203152D01*
X141829886Y-67203152D02*
X141782267Y-67012676D01*
X141782267Y-67012676D02*
X141687029Y-66917438D01*
X141687029Y-66917438D02*
X141591791Y-66869819D01*
X140782267Y-67584104D02*
X140306077Y-67584104D01*
X140877505Y-67869819D02*
X140544172Y-66869819D01*
X140544172Y-66869819D02*
X140210839Y-67869819D01*
X139306077Y-67869819D02*
X139639410Y-67393628D01*
X139877505Y-67869819D02*
X139877505Y-66869819D01*
X139877505Y-66869819D02*
X139496553Y-66869819D01*
X139496553Y-66869819D02*
X139401315Y-66917438D01*
X139401315Y-66917438D02*
X139353696Y-66965057D01*
X139353696Y-66965057D02*
X139306077Y-67060295D01*
X139306077Y-67060295D02*
X139306077Y-67203152D01*
X139306077Y-67203152D02*
X139353696Y-67298390D01*
X139353696Y-67298390D02*
X139401315Y-67346009D01*
X139401315Y-67346009D02*
X139496553Y-67393628D01*
X139496553Y-67393628D02*
X139877505Y-67393628D01*
X138877505Y-67869819D02*
X138877505Y-66869819D01*
X138877505Y-66869819D02*
X138639410Y-66869819D01*
X138639410Y-66869819D02*
X138496553Y-66917438D01*
X138496553Y-66917438D02*
X138401315Y-67012676D01*
X138401315Y-67012676D02*
X138353696Y-67107914D01*
X138353696Y-67107914D02*
X138306077Y-67298390D01*
X138306077Y-67298390D02*
X138306077Y-67441247D01*
X138306077Y-67441247D02*
X138353696Y-67631723D01*
X138353696Y-67631723D02*
X138401315Y-67726961D01*
X138401315Y-67726961D02*
X138496553Y-67822200D01*
X138496553Y-67822200D02*
X138639410Y-67869819D01*
X138639410Y-67869819D02*
X138877505Y-67869819D01*
X152663220Y-88259875D02*
X152663220Y-87259875D01*
X152663220Y-87259875D02*
X152425125Y-87259875D01*
X152425125Y-87259875D02*
X152282268Y-87307494D01*
X152282268Y-87307494D02*
X152187030Y-87402732D01*
X152187030Y-87402732D02*
X152139411Y-87497970D01*
X152139411Y-87497970D02*
X152091792Y-87688446D01*
X152091792Y-87688446D02*
X152091792Y-87831303D01*
X152091792Y-87831303D02*
X152139411Y-88021779D01*
X152139411Y-88021779D02*
X152187030Y-88117017D01*
X152187030Y-88117017D02*
X152282268Y-88212256D01*
X152282268Y-88212256D02*
X152425125Y-88259875D01*
X152425125Y-88259875D02*
X152663220Y-88259875D01*
X151282268Y-88212256D02*
X151377506Y-88259875D01*
X151377506Y-88259875D02*
X151567982Y-88259875D01*
X151567982Y-88259875D02*
X151663220Y-88212256D01*
X151663220Y-88212256D02*
X151710839Y-88117017D01*
X151710839Y-88117017D02*
X151710839Y-87736065D01*
X151710839Y-87736065D02*
X151663220Y-87640827D01*
X151663220Y-87640827D02*
X151567982Y-87593208D01*
X151567982Y-87593208D02*
X151377506Y-87593208D01*
X151377506Y-87593208D02*
X151282268Y-87640827D01*
X151282268Y-87640827D02*
X151234649Y-87736065D01*
X151234649Y-87736065D02*
X151234649Y-87831303D01*
X151234649Y-87831303D02*
X151710839Y-87926541D01*
X150853696Y-88212256D02*
X150758458Y-88259875D01*
X150758458Y-88259875D02*
X150567982Y-88259875D01*
X150567982Y-88259875D02*
X150472744Y-88212256D01*
X150472744Y-88212256D02*
X150425125Y-88117017D01*
X150425125Y-88117017D02*
X150425125Y-88069398D01*
X150425125Y-88069398D02*
X150472744Y-87974160D01*
X150472744Y-87974160D02*
X150567982Y-87926541D01*
X150567982Y-87926541D02*
X150710839Y-87926541D01*
X150710839Y-87926541D02*
X150806077Y-87878922D01*
X150806077Y-87878922D02*
X150853696Y-87783684D01*
X150853696Y-87783684D02*
X150853696Y-87736065D01*
X150853696Y-87736065D02*
X150806077Y-87640827D01*
X150806077Y-87640827D02*
X150710839Y-87593208D01*
X150710839Y-87593208D02*
X150567982Y-87593208D01*
X150567982Y-87593208D02*
X150472744Y-87640827D01*
X149996553Y-88259875D02*
X149996553Y-87593208D01*
X149996553Y-87259875D02*
X150044172Y-87307494D01*
X150044172Y-87307494D02*
X149996553Y-87355113D01*
X149996553Y-87355113D02*
X149948934Y-87307494D01*
X149948934Y-87307494D02*
X149996553Y-87259875D01*
X149996553Y-87259875D02*
X149996553Y-87355113D01*
X149091792Y-87593208D02*
X149091792Y-88402732D01*
X149091792Y-88402732D02*
X149139411Y-88497970D01*
X149139411Y-88497970D02*
X149187030Y-88545589D01*
X149187030Y-88545589D02*
X149282268Y-88593208D01*
X149282268Y-88593208D02*
X149425125Y-88593208D01*
X149425125Y-88593208D02*
X149520363Y-88545589D01*
X149091792Y-88212256D02*
X149187030Y-88259875D01*
X149187030Y-88259875D02*
X149377506Y-88259875D01*
X149377506Y-88259875D02*
X149472744Y-88212256D01*
X149472744Y-88212256D02*
X149520363Y-88164636D01*
X149520363Y-88164636D02*
X149567982Y-88069398D01*
X149567982Y-88069398D02*
X149567982Y-87783684D01*
X149567982Y-87783684D02*
X149520363Y-87688446D01*
X149520363Y-87688446D02*
X149472744Y-87640827D01*
X149472744Y-87640827D02*
X149377506Y-87593208D01*
X149377506Y-87593208D02*
X149187030Y-87593208D01*
X149187030Y-87593208D02*
X149091792Y-87640827D01*
X148615601Y-87593208D02*
X148615601Y-88259875D01*
X148615601Y-87688446D02*
X148567982Y-87640827D01*
X148567982Y-87640827D02*
X148472744Y-87593208D01*
X148472744Y-87593208D02*
X148329887Y-87593208D01*
X148329887Y-87593208D02*
X148234649Y-87640827D01*
X148234649Y-87640827D02*
X148187030Y-87736065D01*
X148187030Y-87736065D02*
X148187030Y-88259875D01*
X147329887Y-88212256D02*
X147425125Y-88259875D01*
X147425125Y-88259875D02*
X147615601Y-88259875D01*
X147615601Y-88259875D02*
X147710839Y-88212256D01*
X147710839Y-88212256D02*
X147758458Y-88117017D01*
X147758458Y-88117017D02*
X147758458Y-87736065D01*
X147758458Y-87736065D02*
X147710839Y-87640827D01*
X147710839Y-87640827D02*
X147615601Y-87593208D01*
X147615601Y-87593208D02*
X147425125Y-87593208D01*
X147425125Y-87593208D02*
X147329887Y-87640827D01*
X147329887Y-87640827D02*
X147282268Y-87736065D01*
X147282268Y-87736065D02*
X147282268Y-87831303D01*
X147282268Y-87831303D02*
X147758458Y-87926541D01*
X146425125Y-88259875D02*
X146425125Y-87259875D01*
X146425125Y-88212256D02*
X146520363Y-88259875D01*
X146520363Y-88259875D02*
X146710839Y-88259875D01*
X146710839Y-88259875D02*
X146806077Y-88212256D01*
X146806077Y-88212256D02*
X146853696Y-88164636D01*
X146853696Y-88164636D02*
X146901315Y-88069398D01*
X146901315Y-88069398D02*
X146901315Y-87783684D01*
X146901315Y-87783684D02*
X146853696Y-87688446D01*
X146853696Y-87688446D02*
X146806077Y-87640827D01*
X146806077Y-87640827D02*
X146710839Y-87593208D01*
X146710839Y-87593208D02*
X146520363Y-87593208D01*
X146520363Y-87593208D02*
X146425125Y-87640827D01*
X145187029Y-88259875D02*
X145187029Y-87259875D01*
X145187029Y-87640827D02*
X145091791Y-87593208D01*
X145091791Y-87593208D02*
X144901315Y-87593208D01*
X144901315Y-87593208D02*
X144806077Y-87640827D01*
X144806077Y-87640827D02*
X144758458Y-87688446D01*
X144758458Y-87688446D02*
X144710839Y-87783684D01*
X144710839Y-87783684D02*
X144710839Y-88069398D01*
X144710839Y-88069398D02*
X144758458Y-88164636D01*
X144758458Y-88164636D02*
X144806077Y-88212256D01*
X144806077Y-88212256D02*
X144901315Y-88259875D01*
X144901315Y-88259875D02*
X145091791Y-88259875D01*
X145091791Y-88259875D02*
X145187029Y-88212256D01*
X144377505Y-87593208D02*
X144139410Y-88259875D01*
X143901315Y-87593208D02*
X144139410Y-88259875D01*
X144139410Y-88259875D02*
X144234648Y-88497970D01*
X144234648Y-88497970D02*
X144282267Y-88545589D01*
X144282267Y-88545589D02*
X144377505Y-88593208D01*
X143520362Y-87878922D02*
X142758458Y-87878922D01*
X142282267Y-88259875D02*
X142282267Y-87259875D01*
X142282267Y-87259875D02*
X141901315Y-87259875D01*
X141901315Y-87259875D02*
X141806077Y-87307494D01*
X141806077Y-87307494D02*
X141758458Y-87355113D01*
X141758458Y-87355113D02*
X141710839Y-87450351D01*
X141710839Y-87450351D02*
X141710839Y-87593208D01*
X141710839Y-87593208D02*
X141758458Y-87688446D01*
X141758458Y-87688446D02*
X141806077Y-87736065D01*
X141806077Y-87736065D02*
X141901315Y-87783684D01*
X141901315Y-87783684D02*
X142282267Y-87783684D01*
X140853696Y-88259875D02*
X140853696Y-87736065D01*
X140853696Y-87736065D02*
X140901315Y-87640827D01*
X140901315Y-87640827D02*
X140996553Y-87593208D01*
X140996553Y-87593208D02*
X141187029Y-87593208D01*
X141187029Y-87593208D02*
X141282267Y-87640827D01*
X140853696Y-88212256D02*
X140948934Y-88259875D01*
X140948934Y-88259875D02*
X141187029Y-88259875D01*
X141187029Y-88259875D02*
X141282267Y-88212256D01*
X141282267Y-88212256D02*
X141329886Y-88117017D01*
X141329886Y-88117017D02*
X141329886Y-88021779D01*
X141329886Y-88021779D02*
X141282267Y-87926541D01*
X141282267Y-87926541D02*
X141187029Y-87878922D01*
X141187029Y-87878922D02*
X140948934Y-87878922D01*
X140948934Y-87878922D02*
X140853696Y-87831303D01*
X140377505Y-88259875D02*
X140377505Y-87593208D01*
X140377505Y-87783684D02*
X140329886Y-87688446D01*
X140329886Y-87688446D02*
X140282267Y-87640827D01*
X140282267Y-87640827D02*
X140187029Y-87593208D01*
X140187029Y-87593208D02*
X140091791Y-87593208D01*
X139901314Y-87593208D02*
X139520362Y-87593208D01*
X139758457Y-87259875D02*
X139758457Y-88117017D01*
X139758457Y-88117017D02*
X139710838Y-88212256D01*
X139710838Y-88212256D02*
X139615600Y-88259875D01*
X139615600Y-88259875D02*
X139520362Y-88259875D01*
X139187028Y-88259875D02*
X139187028Y-87259875D01*
X138758457Y-88259875D02*
X138758457Y-87736065D01*
X138758457Y-87736065D02*
X138806076Y-87640827D01*
X138806076Y-87640827D02*
X138901314Y-87593208D01*
X138901314Y-87593208D02*
X139044171Y-87593208D01*
X139044171Y-87593208D02*
X139139409Y-87640827D01*
X139139409Y-87640827D02*
X139187028Y-87688446D01*
X137520361Y-88259875D02*
X137520361Y-87259875D01*
X137520361Y-87259875D02*
X137282266Y-87259875D01*
X137282266Y-87259875D02*
X137139409Y-87307494D01*
X137139409Y-87307494D02*
X137044171Y-87402732D01*
X137044171Y-87402732D02*
X136996552Y-87497970D01*
X136996552Y-87497970D02*
X136948933Y-87688446D01*
X136948933Y-87688446D02*
X136948933Y-87831303D01*
X136948933Y-87831303D02*
X136996552Y-88021779D01*
X136996552Y-88021779D02*
X137044171Y-88117017D01*
X137044171Y-88117017D02*
X137139409Y-88212256D01*
X137139409Y-88212256D02*
X137282266Y-88259875D01*
X137282266Y-88259875D02*
X137520361Y-88259875D01*
X136520361Y-88259875D02*
X136520361Y-87259875D01*
X136091790Y-88259875D02*
X136091790Y-87736065D01*
X136091790Y-87736065D02*
X136139409Y-87640827D01*
X136139409Y-87640827D02*
X136234647Y-87593208D01*
X136234647Y-87593208D02*
X136377504Y-87593208D01*
X136377504Y-87593208D02*
X136472742Y-87640827D01*
X136472742Y-87640827D02*
X136520361Y-87688446D01*
X135615599Y-88259875D02*
X135615599Y-87593208D01*
X135615599Y-87259875D02*
X135663218Y-87307494D01*
X135663218Y-87307494D02*
X135615599Y-87355113D01*
X135615599Y-87355113D02*
X135567980Y-87307494D01*
X135567980Y-87307494D02*
X135615599Y-87259875D01*
X135615599Y-87259875D02*
X135615599Y-87355113D01*
X135139409Y-88259875D02*
X135139409Y-87593208D01*
X135139409Y-87688446D02*
X135091790Y-87640827D01*
X135091790Y-87640827D02*
X134996552Y-87593208D01*
X134996552Y-87593208D02*
X134853695Y-87593208D01*
X134853695Y-87593208D02*
X134758457Y-87640827D01*
X134758457Y-87640827D02*
X134710838Y-87736065D01*
X134710838Y-87736065D02*
X134710838Y-88259875D01*
X134710838Y-87736065D02*
X134663219Y-87640827D01*
X134663219Y-87640827D02*
X134567981Y-87593208D01*
X134567981Y-87593208D02*
X134425124Y-87593208D01*
X134425124Y-87593208D02*
X134329885Y-87640827D01*
X134329885Y-87640827D02*
X134282266Y-87736065D01*
X134282266Y-87736065D02*
X134282266Y-88259875D01*
X133377505Y-88259875D02*
X133377505Y-87736065D01*
X133377505Y-87736065D02*
X133425124Y-87640827D01*
X133425124Y-87640827D02*
X133520362Y-87593208D01*
X133520362Y-87593208D02*
X133710838Y-87593208D01*
X133710838Y-87593208D02*
X133806076Y-87640827D01*
X133377505Y-88212256D02*
X133472743Y-88259875D01*
X133472743Y-88259875D02*
X133710838Y-88259875D01*
X133710838Y-88259875D02*
X133806076Y-88212256D01*
X133806076Y-88212256D02*
X133853695Y-88117017D01*
X133853695Y-88117017D02*
X133853695Y-88021779D01*
X133853695Y-88021779D02*
X133806076Y-87926541D01*
X133806076Y-87926541D02*
X133710838Y-87878922D01*
X133710838Y-87878922D02*
X133472743Y-87878922D01*
X133472743Y-87878922D02*
X133377505Y-87831303D01*
X132901314Y-87593208D02*
X132901314Y-88259875D01*
X132901314Y-87688446D02*
X132853695Y-87640827D01*
X132853695Y-87640827D02*
X132758457Y-87593208D01*
X132758457Y-87593208D02*
X132615600Y-87593208D01*
X132615600Y-87593208D02*
X132520362Y-87640827D01*
X132520362Y-87640827D02*
X132472743Y-87736065D01*
X132472743Y-87736065D02*
X132472743Y-88259875D01*
X152710839Y-88965057D02*
X152663220Y-88917438D01*
X152663220Y-88917438D02*
X152567982Y-88869819D01*
X152567982Y-88869819D02*
X152329887Y-88869819D01*
X152329887Y-88869819D02*
X152234649Y-88917438D01*
X152234649Y-88917438D02*
X152187030Y-88965057D01*
X152187030Y-88965057D02*
X152139411Y-89060295D01*
X152139411Y-89060295D02*
X152139411Y-89155533D01*
X152139411Y-89155533D02*
X152187030Y-89298390D01*
X152187030Y-89298390D02*
X152758458Y-89869819D01*
X152758458Y-89869819D02*
X152139411Y-89869819D01*
X151234649Y-88869819D02*
X151710839Y-88869819D01*
X151710839Y-88869819D02*
X151758458Y-89346009D01*
X151758458Y-89346009D02*
X151710839Y-89298390D01*
X151710839Y-89298390D02*
X151615601Y-89250771D01*
X151615601Y-89250771D02*
X151377506Y-89250771D01*
X151377506Y-89250771D02*
X151282268Y-89298390D01*
X151282268Y-89298390D02*
X151234649Y-89346009D01*
X151234649Y-89346009D02*
X151187030Y-89441247D01*
X151187030Y-89441247D02*
X151187030Y-89679342D01*
X151187030Y-89679342D02*
X151234649Y-89774580D01*
X151234649Y-89774580D02*
X151282268Y-89822200D01*
X151282268Y-89822200D02*
X151377506Y-89869819D01*
X151377506Y-89869819D02*
X151615601Y-89869819D01*
X151615601Y-89869819D02*
X151710839Y-89822200D01*
X151710839Y-89822200D02*
X151758458Y-89774580D01*
X150044173Y-88822200D02*
X150901315Y-90107914D01*
X149234649Y-88869819D02*
X149710839Y-88869819D01*
X149710839Y-88869819D02*
X149758458Y-89346009D01*
X149758458Y-89346009D02*
X149710839Y-89298390D01*
X149710839Y-89298390D02*
X149615601Y-89250771D01*
X149615601Y-89250771D02*
X149377506Y-89250771D01*
X149377506Y-89250771D02*
X149282268Y-89298390D01*
X149282268Y-89298390D02*
X149234649Y-89346009D01*
X149234649Y-89346009D02*
X149187030Y-89441247D01*
X149187030Y-89441247D02*
X149187030Y-89679342D01*
X149187030Y-89679342D02*
X149234649Y-89774580D01*
X149234649Y-89774580D02*
X149282268Y-89822200D01*
X149282268Y-89822200D02*
X149377506Y-89869819D01*
X149377506Y-89869819D02*
X149615601Y-89869819D01*
X149615601Y-89869819D02*
X149710839Y-89822200D01*
X149710839Y-89822200D02*
X149758458Y-89774580D01*
X148044173Y-88822200D02*
X148901315Y-90107914D01*
X147758458Y-88965057D02*
X147710839Y-88917438D01*
X147710839Y-88917438D02*
X147615601Y-88869819D01*
X147615601Y-88869819D02*
X147377506Y-88869819D01*
X147377506Y-88869819D02*
X147282268Y-88917438D01*
X147282268Y-88917438D02*
X147234649Y-88965057D01*
X147234649Y-88965057D02*
X147187030Y-89060295D01*
X147187030Y-89060295D02*
X147187030Y-89155533D01*
X147187030Y-89155533D02*
X147234649Y-89298390D01*
X147234649Y-89298390D02*
X147806077Y-89869819D01*
X147806077Y-89869819D02*
X147187030Y-89869819D01*
X146567982Y-88869819D02*
X146472744Y-88869819D01*
X146472744Y-88869819D02*
X146377506Y-88917438D01*
X146377506Y-88917438D02*
X146329887Y-88965057D01*
X146329887Y-88965057D02*
X146282268Y-89060295D01*
X146282268Y-89060295D02*
X146234649Y-89250771D01*
X146234649Y-89250771D02*
X146234649Y-89488866D01*
X146234649Y-89488866D02*
X146282268Y-89679342D01*
X146282268Y-89679342D02*
X146329887Y-89774580D01*
X146329887Y-89774580D02*
X146377506Y-89822200D01*
X146377506Y-89822200D02*
X146472744Y-89869819D01*
X146472744Y-89869819D02*
X146567982Y-89869819D01*
X146567982Y-89869819D02*
X146663220Y-89822200D01*
X146663220Y-89822200D02*
X146710839Y-89774580D01*
X146710839Y-89774580D02*
X146758458Y-89679342D01*
X146758458Y-89679342D02*
X146806077Y-89488866D01*
X146806077Y-89488866D02*
X146806077Y-89250771D01*
X146806077Y-89250771D02*
X146758458Y-89060295D01*
X146758458Y-89060295D02*
X146710839Y-88965057D01*
X146710839Y-88965057D02*
X146663220Y-88917438D01*
X146663220Y-88917438D02*
X146567982Y-88869819D01*
X145853696Y-88965057D02*
X145806077Y-88917438D01*
X145806077Y-88917438D02*
X145710839Y-88869819D01*
X145710839Y-88869819D02*
X145472744Y-88869819D01*
X145472744Y-88869819D02*
X145377506Y-88917438D01*
X145377506Y-88917438D02*
X145329887Y-88965057D01*
X145329887Y-88965057D02*
X145282268Y-89060295D01*
X145282268Y-89060295D02*
X145282268Y-89155533D01*
X145282268Y-89155533D02*
X145329887Y-89298390D01*
X145329887Y-89298390D02*
X145901315Y-89869819D01*
X145901315Y-89869819D02*
X145282268Y-89869819D01*
X144425125Y-88869819D02*
X144615601Y-88869819D01*
X144615601Y-88869819D02*
X144710839Y-88917438D01*
X144710839Y-88917438D02*
X144758458Y-88965057D01*
X144758458Y-88965057D02*
X144853696Y-89107914D01*
X144853696Y-89107914D02*
X144901315Y-89298390D01*
X144901315Y-89298390D02*
X144901315Y-89679342D01*
X144901315Y-89679342D02*
X144853696Y-89774580D01*
X144853696Y-89774580D02*
X144806077Y-89822200D01*
X144806077Y-89822200D02*
X144710839Y-89869819D01*
X144710839Y-89869819D02*
X144520363Y-89869819D01*
X144520363Y-89869819D02*
X144425125Y-89822200D01*
X144425125Y-89822200D02*
X144377506Y-89774580D01*
X144377506Y-89774580D02*
X144329887Y-89679342D01*
X144329887Y-89679342D02*
X144329887Y-89441247D01*
X144329887Y-89441247D02*
X144377506Y-89346009D01*
X144377506Y-89346009D02*
X144425125Y-89298390D01*
X144425125Y-89298390D02*
X144520363Y-89250771D01*
X144520363Y-89250771D02*
X144710839Y-89250771D01*
X144710839Y-89250771D02*
X144806077Y-89298390D01*
X144806077Y-89298390D02*
X144853696Y-89346009D01*
X144853696Y-89346009D02*
X144901315Y-89441247D01*
D11*
%TO.C,G\u002A\u002A\u002A*%
G36*
X143755948Y-98280824D02*
G01*
X143982127Y-98979455D01*
X144165187Y-99669910D01*
X144308934Y-100363173D01*
X144339732Y-100542567D01*
X144380143Y-100800186D01*
X144417862Y-101063792D01*
X144450814Y-101317205D01*
X144476922Y-101544244D01*
X144494109Y-101728728D01*
X144500299Y-101854478D01*
X144500299Y-101998203D01*
X144221065Y-101998203D01*
X143941831Y-101998203D01*
X143917079Y-101399325D01*
X143916067Y-101375547D01*
X143901527Y-101112120D01*
X143880931Y-100835115D01*
X143855637Y-100555715D01*
X143827002Y-100285105D01*
X143796383Y-100034469D01*
X143765137Y-99814992D01*
X143734621Y-99637858D01*
X143706192Y-99514252D01*
X143681207Y-99455358D01*
X143665180Y-99446517D01*
X143580810Y-99426851D01*
X143441849Y-99408795D01*
X143263181Y-99393728D01*
X143059689Y-99383028D01*
X142846258Y-99378071D01*
X142765315Y-99378033D01*
X142499028Y-99386040D01*
X142218156Y-99407385D01*
X141916999Y-99443298D01*
X141589854Y-99495007D01*
X141231021Y-99563740D01*
X140834797Y-99650728D01*
X140395481Y-99757198D01*
X139907371Y-99884379D01*
X139649404Y-99955275D01*
X139364766Y-100033501D01*
X138761964Y-100205792D01*
X138093264Y-100402481D01*
X137905135Y-100458148D01*
X137299869Y-100632352D01*
X136750773Y-100781685D01*
X136246596Y-100908598D01*
X135776086Y-101015540D01*
X135327991Y-101104961D01*
X134891061Y-101179313D01*
X134454044Y-101241044D01*
X134005689Y-101292606D01*
X133853780Y-101307382D01*
X133500886Y-101335654D01*
X133137142Y-101357467D01*
X132776946Y-101372432D01*
X132434695Y-101380160D01*
X132124788Y-101380261D01*
X131861623Y-101372346D01*
X131659597Y-101356027D01*
X131627266Y-101351915D01*
X131050863Y-101245698D01*
X130443123Y-101073950D01*
X129808178Y-100838196D01*
X129150160Y-100539961D01*
X128473204Y-100180769D01*
X128418445Y-100149352D01*
X128104895Y-99960236D01*
X127874004Y-99812550D01*
X130089222Y-99812550D01*
X130109417Y-99881909D01*
X130193178Y-99958843D01*
X130345429Y-100027189D01*
X130569887Y-100089085D01*
X130718762Y-100122380D01*
X130944940Y-100168465D01*
X131112251Y-100191687D01*
X131230277Y-100189645D01*
X131308602Y-100159937D01*
X131330280Y-100133057D01*
X131762276Y-100133057D01*
X131762329Y-100137346D01*
X131800181Y-100252236D01*
X131897941Y-100357542D01*
X132040425Y-100436688D01*
X132156199Y-100469330D01*
X132366266Y-100473442D01*
X132562434Y-100409298D01*
X132732702Y-100281855D01*
X132865071Y-100096070D01*
X132940761Y-99896875D01*
X132992795Y-99638612D01*
X133014082Y-99357089D01*
X133004242Y-99075337D01*
X132962896Y-98816387D01*
X132889665Y-98603270D01*
X132839312Y-98515516D01*
X132711403Y-98371559D01*
X132561753Y-98278676D01*
X132513116Y-98266479D01*
X134081737Y-98266479D01*
X134081944Y-98272769D01*
X134111372Y-98369796D01*
X134182529Y-98501460D01*
X134283875Y-98650639D01*
X134403870Y-98800208D01*
X134530973Y-98933044D01*
X134648259Y-99042886D01*
X134574760Y-99186955D01*
X134561316Y-99215260D01*
X134512184Y-99337464D01*
X134505293Y-99357089D01*
X134456210Y-99496877D01*
X134403068Y-99666484D01*
X134399577Y-99678481D01*
X134342870Y-99911860D01*
X134325508Y-100091161D01*
X134347588Y-100226967D01*
X134409208Y-100329865D01*
X134410959Y-100331778D01*
X134512259Y-100392392D01*
X134628550Y-100386723D01*
X134739576Y-100315643D01*
X134752466Y-100301149D01*
X134792721Y-100232862D01*
X134830617Y-100125574D01*
X134869884Y-99967107D01*
X134914250Y-99745284D01*
X134944941Y-99583805D01*
X134975844Y-99435626D01*
X135001546Y-99341122D01*
X135026386Y-99288375D01*
X135054706Y-99265466D01*
X135090847Y-99260478D01*
X135147934Y-99275057D01*
X135195019Y-99331337D01*
X135243422Y-99445766D01*
X135319555Y-99617711D01*
X135428940Y-99791054D01*
X135552626Y-99931411D01*
X135680309Y-100029246D01*
X135801683Y-100075027D01*
X135906444Y-100059218D01*
X135955665Y-100019378D01*
X135976716Y-99955275D01*
X135961661Y-99859429D01*
X135908679Y-99721193D01*
X135815951Y-99529920D01*
X135782918Y-99464290D01*
X135649681Y-99165760D01*
X135555707Y-98879643D01*
X135492916Y-98576953D01*
X135453228Y-98228700D01*
X135445004Y-98134197D01*
X135418523Y-97914020D01*
X135384752Y-97758006D01*
X135340316Y-97657404D01*
X135281839Y-97603460D01*
X135265038Y-97599910D01*
X135835569Y-97599910D01*
X135837648Y-97729980D01*
X135890590Y-97831864D01*
X135905732Y-97846195D01*
X135979978Y-97886231D01*
X136062376Y-97869203D01*
X136170816Y-97792604D01*
X136276005Y-97726258D01*
X136382728Y-97718058D01*
X136485530Y-97780974D01*
X136591549Y-97917117D01*
X136601874Y-97933627D01*
X136746816Y-98228352D01*
X136840871Y-98549642D01*
X136875179Y-98867808D01*
X136873460Y-98961550D01*
X136848787Y-99140157D01*
X136788703Y-99263911D01*
X136685255Y-99344991D01*
X136530489Y-99395575D01*
X136485645Y-99406175D01*
X136374784Y-99448980D01*
X136331422Y-99503148D01*
X136325834Y-99570214D01*
X136365439Y-99701849D01*
X136472041Y-99802703D01*
X136487932Y-99811799D01*
X136611190Y-99858253D01*
X136745004Y-99858065D01*
X136914521Y-99811749D01*
X137023652Y-99760468D01*
X137181831Y-99622038D01*
X137296512Y-99424419D01*
X137366164Y-99170665D01*
X137389258Y-98863831D01*
X137381227Y-98685129D01*
X137333708Y-98377003D01*
X137248651Y-98080627D01*
X137131965Y-97808776D01*
X136989559Y-97574226D01*
X136873358Y-97442083D01*
X137694919Y-97442083D01*
X137697246Y-97602353D01*
X137723104Y-97962009D01*
X137779797Y-98345540D01*
X137870143Y-98774373D01*
X137892107Y-98863831D01*
X137912573Y-98947187D01*
X137951585Y-99079542D01*
X137990407Y-99170461D01*
X138036567Y-99237246D01*
X138097593Y-99297203D01*
X138106063Y-99304524D01*
X138237215Y-99388369D01*
X138354585Y-99409928D01*
X138446886Y-99366945D01*
X138457687Y-99355044D01*
X138484713Y-99298683D01*
X138487107Y-99215320D01*
X138463812Y-99090362D01*
X138413772Y-98909214D01*
X138408964Y-98892944D01*
X138373920Y-98764927D01*
X138352902Y-98670656D01*
X138350310Y-98629529D01*
X138382634Y-98619929D01*
X138472198Y-98605179D01*
X138596149Y-98590150D01*
X138722882Y-98579139D01*
X138798784Y-98582929D01*
X138841752Y-98607036D01*
X138873238Y-98656604D01*
X138894774Y-98692281D01*
X138966616Y-98788039D01*
X139056075Y-98889745D01*
X139147521Y-98970937D01*
X139262786Y-99029367D01*
X139356721Y-99026525D01*
X139419954Y-98963575D01*
X139443114Y-98841680D01*
X139441020Y-98830604D01*
X139411950Y-98757535D01*
X139352913Y-98632670D01*
X139269332Y-98466859D01*
X139166632Y-98270950D01*
X139050236Y-98055793D01*
X139031344Y-98021372D01*
X138903752Y-97788178D01*
X138779818Y-97560540D01*
X138667811Y-97353716D01*
X138575996Y-97182967D01*
X138512641Y-97063550D01*
X138397059Y-96865881D01*
X138271916Y-96711064D01*
X138182112Y-96648582D01*
X139302480Y-96648582D01*
X139327245Y-96819225D01*
X139380717Y-97048222D01*
X139396802Y-97109798D01*
X139458019Y-97333518D01*
X139527296Y-97573793D01*
X139600579Y-97817789D01*
X139673812Y-98052672D01*
X139742939Y-98265608D01*
X139803905Y-98443765D01*
X139852654Y-98574308D01*
X139885131Y-98644404D01*
X139888951Y-98650092D01*
X139964441Y-98731267D01*
X140063069Y-98805864D01*
X140125446Y-98840094D01*
X140131195Y-98841680D01*
X140245647Y-98873257D01*
X140334307Y-98839805D01*
X140396956Y-98738625D01*
X140404875Y-98710140D01*
X140409124Y-98614528D01*
X140391996Y-98470079D01*
X140352388Y-98265063D01*
X140328977Y-98152235D01*
X140302401Y-98012353D01*
X140286827Y-97914056D01*
X140285060Y-97873658D01*
X140330392Y-97847394D01*
X140424185Y-97806970D01*
X140545776Y-97760382D01*
X140675502Y-97714559D01*
X140793701Y-97676431D01*
X140880711Y-97652928D01*
X140916871Y-97650979D01*
X140921517Y-97661049D01*
X140956184Y-97726590D01*
X141015609Y-97834364D01*
X141090277Y-97967026D01*
X141163559Y-98086896D01*
X141313004Y-98274456D01*
X141463230Y-98386654D01*
X141614764Y-98423951D01*
X141647754Y-98422113D01*
X141738388Y-98384723D01*
X141787147Y-98296586D01*
X141794359Y-98154307D01*
X141760353Y-97954491D01*
X141685458Y-97693741D01*
X141673930Y-97658156D01*
X141504019Y-97074937D01*
X141363601Y-96465728D01*
X141317924Y-96284414D01*
X141245475Y-96115402D01*
X141156187Y-96018106D01*
X141048280Y-95990784D01*
X140919972Y-96031694D01*
X140880561Y-96060558D01*
X140800646Y-96170065D01*
X140736033Y-96325148D01*
X140692484Y-96505008D01*
X140675761Y-96688847D01*
X140691626Y-96855868D01*
X140697921Y-96885628D01*
X140708228Y-96993840D01*
X140684110Y-97048935D01*
X140683497Y-97049409D01*
X140628921Y-97078523D01*
X140533347Y-97119650D01*
X140418969Y-97164429D01*
X140307978Y-97204495D01*
X140222568Y-97231486D01*
X140184931Y-97237040D01*
X140184919Y-97237025D01*
X140166000Y-97200340D01*
X140121061Y-97108832D01*
X140056812Y-96976271D01*
X139979962Y-96816425D01*
X139901433Y-96656199D01*
X139829918Y-96523993D01*
X139770597Y-96436773D01*
X139714110Y-96381076D01*
X139651097Y-96343440D01*
X139626809Y-96331971D01*
X139546015Y-96301736D01*
X139487496Y-96309576D01*
X139414284Y-96357720D01*
X139406415Y-96363715D01*
X139341467Y-96433134D01*
X139307021Y-96523987D01*
X139302480Y-96648582D01*
X138182112Y-96648582D01*
X138149112Y-96625622D01*
X138025171Y-96606294D01*
X137908714Y-96645848D01*
X137814222Y-96746807D01*
X137747824Y-96911312D01*
X137708423Y-97142143D01*
X137694919Y-97442083D01*
X136873358Y-97442083D01*
X136827340Y-97389752D01*
X136651219Y-97268129D01*
X136567159Y-97237602D01*
X136389479Y-97210588D01*
X136207895Y-97219611D01*
X136057737Y-97264864D01*
X135958270Y-97342492D01*
X135877920Y-97463474D01*
X135835569Y-97599910D01*
X135265038Y-97599910D01*
X135205947Y-97587424D01*
X135204787Y-97587431D01*
X135111028Y-97621075D01*
X135071616Y-97656502D01*
X135011695Y-97710365D01*
X134993206Y-97732554D01*
X134952880Y-97787992D01*
X134929311Y-97845385D01*
X134919452Y-97923221D01*
X134920257Y-98039991D01*
X134928678Y-98214183D01*
X134935125Y-98317308D01*
X134948837Y-98476845D01*
X134964212Y-98601656D01*
X134978978Y-98671107D01*
X134973350Y-98681578D01*
X134924868Y-98653702D01*
X134839098Y-98585965D01*
X134725906Y-98485597D01*
X134605534Y-98378139D01*
X134418616Y-98231531D01*
X134272158Y-98146850D01*
X134166781Y-98124308D01*
X134103101Y-98164114D01*
X134081737Y-98266479D01*
X132513116Y-98266479D01*
X132403579Y-98239010D01*
X132250098Y-98254703D01*
X132114524Y-98327896D01*
X132051140Y-98408506D01*
X132010075Y-98460731D01*
X131968367Y-98560006D01*
X131955018Y-98673097D01*
X131994217Y-98739990D01*
X132080373Y-98753713D01*
X132207894Y-98707297D01*
X132210311Y-98705997D01*
X132301770Y-98663412D01*
X132366424Y-98659880D01*
X132440579Y-98693199D01*
X132506999Y-98740561D01*
X132590272Y-98855658D01*
X132636926Y-99021368D01*
X132650680Y-99247497D01*
X132650628Y-99255174D01*
X132640868Y-99434699D01*
X132609509Y-99578814D01*
X132548399Y-99725626D01*
X132536097Y-99750317D01*
X132443698Y-99900043D01*
X132343751Y-99984638D01*
X132219826Y-100013054D01*
X132055497Y-99994246D01*
X131933199Y-99975170D01*
X131830897Y-99984116D01*
X131777595Y-100035006D01*
X131762276Y-100133057D01*
X131330280Y-100133057D01*
X131356810Y-100100162D01*
X131384484Y-100007920D01*
X131401208Y-99880809D01*
X131402156Y-99871389D01*
X131418251Y-99727733D01*
X131441865Y-99534966D01*
X131469975Y-99317152D01*
X131499555Y-99098354D01*
X131519794Y-98949657D01*
X131548834Y-98714890D01*
X131564855Y-98538202D01*
X131567844Y-98408506D01*
X131557788Y-98314716D01*
X131534674Y-98245748D01*
X131498490Y-98190514D01*
X131472913Y-98161273D01*
X131415894Y-98124130D01*
X131355900Y-98142007D01*
X131335018Y-98157324D01*
X131302303Y-98201665D01*
X131275710Y-98237709D01*
X131222752Y-98371948D01*
X131175189Y-98564476D01*
X131132062Y-98819729D01*
X131092417Y-99142142D01*
X131055297Y-99536152D01*
X131033768Y-99792813D01*
X130877481Y-99792813D01*
X130811369Y-99790162D01*
X130660373Y-99774255D01*
X130507886Y-99748755D01*
X130357578Y-99727029D01*
X130217018Y-99729097D01*
X130123303Y-99758253D01*
X130089222Y-99812550D01*
X127874004Y-99812550D01*
X127751319Y-99734076D01*
X127372575Y-99481284D01*
X126983523Y-99212274D01*
X126599022Y-98937458D01*
X126233929Y-98667249D01*
X125961560Y-98457150D01*
X127402193Y-98457150D01*
X127406439Y-98600254D01*
X127412208Y-98619479D01*
X127484408Y-98742276D01*
X127608483Y-98868268D01*
X127766418Y-98981705D01*
X127940200Y-99066843D01*
X128095833Y-99116275D01*
X128242275Y-99142561D01*
X128346334Y-99137064D01*
X128395092Y-99098876D01*
X128398308Y-99088261D01*
X128424797Y-98998193D01*
X128450694Y-98908781D01*
X128924935Y-98908781D01*
X128937424Y-99168326D01*
X128987429Y-99380173D01*
X129073553Y-99537435D01*
X129194398Y-99633225D01*
X129314282Y-99669955D01*
X129506951Y-99671790D01*
X129697693Y-99616209D01*
X129866199Y-99510154D01*
X129992160Y-99360565D01*
X130016909Y-99312234D01*
X130075381Y-99170031D01*
X130140517Y-98984336D01*
X130206024Y-98775711D01*
X130265611Y-98564718D01*
X130312986Y-98371917D01*
X130341855Y-98217871D01*
X130343918Y-98201665D01*
X130341787Y-98052513D01*
X130294855Y-97960852D01*
X130204531Y-97929640D01*
X130186441Y-97930696D01*
X130125930Y-97955194D01*
X130071525Y-98018900D01*
X130018709Y-98130787D01*
X129962964Y-98299829D01*
X129899773Y-98534998D01*
X129833716Y-98787318D01*
X129770412Y-99003434D01*
X129715636Y-99157440D01*
X129666960Y-99256079D01*
X129621953Y-99306093D01*
X129536899Y-99334517D01*
X129436940Y-99320852D01*
X129368104Y-99262978D01*
X129344725Y-99190322D01*
X129330703Y-99036521D01*
X129337184Y-98832155D01*
X129363597Y-98590187D01*
X129409373Y-98323581D01*
X129445428Y-98120058D01*
X129461613Y-97943561D01*
X129449242Y-97825755D01*
X129407469Y-97759966D01*
X129335451Y-97739520D01*
X129250484Y-97764203D01*
X129167731Y-97850068D01*
X129094039Y-98000970D01*
X129027673Y-98220546D01*
X128966898Y-98512434D01*
X128951360Y-98608422D01*
X128924935Y-98908781D01*
X128450694Y-98908781D01*
X128466123Y-98855513D01*
X128517423Y-98677219D01*
X128573835Y-98480309D01*
X128630496Y-98281783D01*
X128682543Y-98098638D01*
X128725115Y-97947873D01*
X128753348Y-97846486D01*
X128781687Y-97736979D01*
X128793624Y-97656502D01*
X128782219Y-97604676D01*
X128746945Y-97557770D01*
X128699970Y-97514653D01*
X128563849Y-97426899D01*
X128393205Y-97346123D01*
X128215114Y-97284268D01*
X128056648Y-97253276D01*
X127985644Y-97248316D01*
X127892741Y-97251850D01*
X127832186Y-97279871D01*
X127775828Y-97341191D01*
X127734069Y-97415483D01*
X127697290Y-97565826D01*
X127697461Y-97727010D01*
X127737189Y-97863780D01*
X127742413Y-97873758D01*
X127760790Y-97934398D01*
X127728049Y-97962556D01*
X127625901Y-98025159D01*
X127523852Y-98145950D01*
X127445306Y-98297831D01*
X127402193Y-98457150D01*
X125961560Y-98457150D01*
X125903105Y-98412059D01*
X125621407Y-98182302D01*
X125448394Y-98035081D01*
X125183375Y-97806318D01*
X124960465Y-97609484D01*
X124783088Y-97447728D01*
X124654671Y-97324205D01*
X124578640Y-97242064D01*
X124558422Y-97204458D01*
X124572668Y-97198771D01*
X124652599Y-97189076D01*
X124793908Y-97180906D01*
X124987041Y-97174622D01*
X125222445Y-97170586D01*
X125490568Y-97169161D01*
X125667062Y-97168715D01*
X125903500Y-97166589D01*
X126105506Y-97162952D01*
X126262677Y-97158075D01*
X126364609Y-97152224D01*
X126400898Y-97145669D01*
X126394611Y-97129403D01*
X126358935Y-97054154D01*
X126295981Y-96927032D01*
X126210618Y-96757738D01*
X126107714Y-96555970D01*
X125992141Y-96331429D01*
X125920561Y-96191643D01*
X125814780Y-95979664D01*
X125726513Y-95795983D01*
X125660274Y-95650329D01*
X125620578Y-95552431D01*
X125611938Y-95512020D01*
X125638965Y-95509373D01*
X125716809Y-95534897D01*
X125821070Y-95587512D01*
X125868957Y-95614104D01*
X125997367Y-95681869D01*
X126168352Y-95769416D01*
X126365402Y-95868329D01*
X126572006Y-95970197D01*
X127077754Y-96203930D01*
X127912373Y-96533571D01*
X128752642Y-96797675D01*
X129593945Y-96995770D01*
X130431664Y-97127382D01*
X131261184Y-97192040D01*
X132077888Y-97189271D01*
X132877160Y-97118603D01*
X133654383Y-96979564D01*
X134404940Y-96771680D01*
X134537963Y-96725516D01*
X134775531Y-96636167D01*
X135041683Y-96529861D01*
X135312651Y-96416169D01*
X135564671Y-96304660D01*
X136313686Y-95976481D01*
X137023740Y-95695852D01*
X137691428Y-95465529D01*
X138322706Y-95283987D01*
X138923530Y-95149701D01*
X139499857Y-95061147D01*
X140057643Y-95016801D01*
X140602844Y-95015138D01*
X140922332Y-95030941D01*
X141207065Y-95057195D01*
X141455731Y-95096412D01*
X141688771Y-95151861D01*
X141926624Y-95226810D01*
X141957172Y-95237258D01*
X142081130Y-95273152D01*
X142161415Y-95279604D01*
X142219183Y-95258939D01*
X142223017Y-95256608D01*
X142267447Y-95240851D01*
X142313641Y-95250880D01*
X142365864Y-95292891D01*
X142428382Y-95373081D01*
X142505460Y-95497645D01*
X142601366Y-95672780D01*
X142720363Y-95904683D01*
X142866719Y-96199550D01*
X143159019Y-96815102D01*
X143482847Y-97563034D01*
X143707811Y-98154307D01*
X143755948Y-98280824D01*
G37*
G36*
X138136556Y-97302567D02*
G01*
X138197392Y-97373972D01*
X138281234Y-97485675D01*
X138377885Y-97624618D01*
X138397791Y-97654145D01*
X138493793Y-97796339D01*
X138549647Y-97888659D01*
X138564745Y-97944086D01*
X138538480Y-97975600D01*
X138470245Y-97996181D01*
X138359431Y-98018808D01*
X138346443Y-98021536D01*
X138223932Y-98041000D01*
X138154341Y-98026298D01*
X138118913Y-97964854D01*
X138098890Y-97844086D01*
X138087176Y-97731434D01*
X138076636Y-97557083D01*
X138077356Y-97414605D01*
X138089016Y-97318491D01*
X138111295Y-97283233D01*
X138136556Y-97302567D01*
G37*
G36*
X128056146Y-98298185D02*
G01*
X128161910Y-98338217D01*
X128233786Y-98391233D01*
X128250705Y-98451701D01*
X128249681Y-98455388D01*
X128228785Y-98541807D01*
X128205403Y-98652095D01*
X128202531Y-98666308D01*
X128180441Y-98759955D01*
X128162506Y-98813357D01*
X128150771Y-98821551D01*
X128087389Y-98814952D01*
X127991871Y-98778561D01*
X127885247Y-98722820D01*
X127788551Y-98658172D01*
X127722813Y-98595059D01*
X127717705Y-98587213D01*
X127695780Y-98498995D01*
X127703869Y-98394366D01*
X127739341Y-98317484D01*
X127746198Y-98311279D01*
X127827223Y-98279186D01*
X127937561Y-98276664D01*
X128056146Y-98298185D01*
G37*
G36*
X128160858Y-97598343D02*
G01*
X128269805Y-97622420D01*
X128385174Y-97658252D01*
X128487264Y-97697731D01*
X128406145Y-97889733D01*
X128371183Y-97967296D01*
X128327060Y-98049735D01*
X128299440Y-98081736D01*
X128272249Y-98067372D01*
X128201651Y-98014055D01*
X128108373Y-97934885D01*
X128020054Y-97853504D01*
X127974238Y-97795411D01*
X127967725Y-97745530D01*
X127990763Y-97682974D01*
X128018905Y-97630361D01*
X128070671Y-97593508D01*
X128160858Y-97598343D01*
G37*
%TD*%
M02*
