%TF.GenerationSoftware,KiCad,Pcbnew,9.0.7*%
%TF.CreationDate,2026-05-25T19:45:48+05:30*%
%TF.ProjectId,GYRA_motherboard,47595241-5f6d-46f7-9468-6572626f6172,rev?*%
%TF.SameCoordinates,Original*%
%TF.FileFunction,Copper,L2,Bot*%
%TF.FilePolarity,Positive*%
%FSLAX46Y46*%
G04 Gerber Fmt 4.6, Leading zero omitted, Abs format (unit mm)*
G04 Created by KiCad (PCBNEW 9.0.7) date 2026-05-25 19:45:48*
%MOMM*%
%LPD*%
G01*
G04 APERTURE LIST*
G04 Aperture macros list*
%AMRoundRect*
0 Rectangle with rounded corners*
0 $1 Rounding radius*
0 $2 $3 $4 $5 $6 $7 $8 $9 X,Y pos of 4 corners*
0 Add a 4 corners polygon primitive as box body*
4,1,4,$2,$3,$4,$5,$6,$7,$8,$9,$2,$3,0*
0 Add four circle primitives for the rounded corners*
1,1,$1+$1,$2,$3*
1,1,$1+$1,$4,$5*
1,1,$1+$1,$6,$7*
1,1,$1+$1,$8,$9*
0 Add four rect primitives between the rounded corners*
20,1,$1+$1,$2,$3,$4,$5,0*
20,1,$1+$1,$4,$5,$6,$7,0*
20,1,$1+$1,$6,$7,$8,$9,0*
20,1,$1+$1,$8,$9,$2,$3,0*%
G04 Aperture macros list end*
%TA.AperFunction,HeatsinkPad*%
%ADD10C,0.600000*%
%TD*%
%TA.AperFunction,ComponentPad*%
%ADD11RoundRect,0.250000X0.725000X-0.600000X0.725000X0.600000X-0.725000X0.600000X-0.725000X-0.600000X0*%
%TD*%
%TA.AperFunction,ComponentPad*%
%ADD12O,1.950000X1.700000*%
%TD*%
%TA.AperFunction,ComponentPad*%
%ADD13RoundRect,0.250000X-0.725000X0.600000X-0.725000X-0.600000X0.725000X-0.600000X0.725000X0.600000X0*%
%TD*%
%TA.AperFunction,ComponentPad*%
%ADD14RoundRect,0.250000X0.750000X-0.600000X0.750000X0.600000X-0.750000X0.600000X-0.750000X-0.600000X0*%
%TD*%
%TA.AperFunction,ComponentPad*%
%ADD15O,2.000000X1.700000*%
%TD*%
%TA.AperFunction,ViaPad*%
%ADD16C,0.600000*%
%TD*%
%TA.AperFunction,Conductor*%
%ADD17C,0.200000*%
%TD*%
G04 APERTURE END LIST*
D10*
%TO.P,U1,41,GND*%
%TO.N,GND*%
X135200000Y-74610000D03*
X135200000Y-73210000D03*
X134500000Y-75310000D03*
X134500000Y-73910000D03*
X134500000Y-72510000D03*
X133800000Y-74610000D03*
X133800000Y-73210000D03*
X133100000Y-75310000D03*
X133100000Y-73910000D03*
X133100000Y-72510000D03*
X132400000Y-74610000D03*
X132400000Y-73210000D03*
%TD*%
D11*
%TO.P,J1,1,Pin_1*%
%TO.N,3V3*%
X150000000Y-83000000D03*
D12*
%TO.P,J1,2,Pin_2*%
%TO.N,GND*%
X150000000Y-80500000D03*
%TO.P,J1,3,Pin_3*%
%TO.N,SCL*%
X150000000Y-78000000D03*
%TO.P,J1,4,Pin_4*%
%TO.N,SDA*%
X150000000Y-75500000D03*
%TD*%
D13*
%TO.P,J3,1,Pin_1*%
%TO.N,YAW*%
X119500000Y-77000000D03*
D12*
%TO.P,J3,2,Pin_2*%
%TO.N,ROLL*%
X119500000Y-79500000D03*
%TO.P,J3,3,Pin_3*%
%TO.N,PITCH*%
X119500000Y-82000000D03*
%TO.P,J3,4,Pin_4*%
%TO.N,GND*%
X119500000Y-84500000D03*
%TD*%
D14*
%TO.P,J4,1,Pin_1*%
%TO.N,Net-(J4-Pin_1)*%
X148500000Y-96500000D03*
D15*
%TO.P,J4,2,Pin_2*%
%TO.N,GND*%
X148500000Y-94000000D03*
%TD*%
D13*
%TO.P,J2,1,Pin_1*%
%TO.N,3V3*%
X119500000Y-91000000D03*
D12*
%TO.P,J2,2,Pin_2*%
%TO.N,GND*%
X119500000Y-93500000D03*
%TO.P,J2,3,Pin_3*%
%TO.N,SCL*%
X119500000Y-96000000D03*
%TO.P,J2,4,Pin_4*%
%TO.N,SDA*%
X119500000Y-98500000D03*
%TD*%
D16*
%TO.N,IO0*%
X145900000Y-82500000D03*
X149000000Y-71000000D03*
%TO.N,SDA*%
X128500000Y-80000000D03*
X147000000Y-75500000D03*
%TO.N,3V3*%
X146000000Y-69500000D03*
X141500000Y-67500000D03*
X128500000Y-91000000D03*
X123000000Y-91000000D03*
%TO.N,SCL*%
X123000000Y-93500000D03*
X124600000Y-92500000D03*
%TD*%
D17*
%TO.N,GND*%
X151276000Y-91224000D02*
X148500000Y-94000000D01*
X150000000Y-80500000D02*
X151276000Y-81776000D01*
X151276000Y-81776000D02*
X151276000Y-91224000D01*
%TO.N,IO0*%
X147000000Y-77500000D02*
X145900000Y-78600000D01*
X149000000Y-74349943D02*
X147000000Y-76349943D01*
X145900000Y-78600000D02*
X145900000Y-82500000D01*
X149000000Y-71000000D02*
X149000000Y-74349943D01*
X147000000Y-76349943D02*
X147000000Y-77500000D01*
%TO.N,SDA*%
X142500000Y-80000000D02*
X128500000Y-80000000D01*
X147000000Y-75500000D02*
X142500000Y-80000000D01*
%TO.N,3V3*%
X144000000Y-67500000D02*
X146000000Y-69500000D01*
X141500000Y-67500000D02*
X144000000Y-67500000D01*
X123000000Y-91000000D02*
X128500000Y-91000000D01*
%TO.N,SCL*%
X124000000Y-92500000D02*
X124600000Y-92500000D01*
X123000000Y-93500000D02*
X124000000Y-92500000D01*
%TD*%
M02*
