ISO-10303-21;
HEADER;
/* Generated by software containing ST-Developer
 * from STEP Tools, Inc. (www.steptools.com) 
 */

FILE_DESCRIPTION(
/* description */ (''),
/* implementation_level */ '2;1');

FILE_NAME(
/* name */ 'GYRA PITCH ARM V3 v20.step',
/* time_stamp */ '2026-05-17T23:55:47+05:30',
/* author */ (''),
/* organization */ (''),
/* preprocessor_version */ 'ST-DEVELOPER v20.1',
/* originating_system */ 'Autodesk Translation Framework v15.8.0.0',
/* authorisation */ '');

FILE_SCHEMA (('AUTOMOTIVE_DESIGN { 1 0 10303 214 3 1 1 }'));
ENDSEC;

DATA;
#10=MECHANICAL_DESIGN_GEOMETRIC_PRESENTATION_REPRESENTATION('',(#13),#765);
#11=SHAPE_REPRESENTATION_RELATIONSHIP('SRR','None',#772,#12);
#12=ADVANCED_BREP_SHAPE_REPRESENTATION('',(#14),#764);
#13=STYLED_ITEM('',(#781),#14);
#14=MANIFOLD_SOLID_BREP('Body1',#453);
#15=CYLINDRICAL_SURFACE('',#489,15.);
#16=CYLINDRICAL_SURFACE('',#490,2.515);
#17=CYLINDRICAL_SURFACE('',#492,5.);
#18=CYLINDRICAL_SURFACE('',#499,5.);
#19=CYLINDRICAL_SURFACE('',#501,1.25);
#20=CYLINDRICAL_SURFACE('',#502,1.25);
#21=CYLINDRICAL_SURFACE('',#503,1.25);
#22=CYLINDRICAL_SURFACE('',#504,1.25);
#23=CYLINDRICAL_SURFACE('',#506,2.55778);
#24=CYLINDRICAL_SURFACE('',#509,11.25);
#25=FACE_BOUND('',#83,.T.);
#26=FACE_BOUND('',#84,.T.);
#27=FACE_BOUND('',#85,.T.);
#28=FACE_BOUND('',#86,.T.);
#29=FACE_BOUND('',#87,.T.);
#30=FACE_BOUND('',#89,.T.);
#31=FACE_BOUND('',#93,.T.);
#32=FACE_BOUND('',#94,.T.);
#33=FACE_BOUND('',#95,.T.);
#34=FACE_BOUND('',#96,.T.);
#35=FACE_BOUND('',#97,.T.);
#36=FACE_BOUND('',#106,.T.);
#37=FACE_BOUND('',#115,.T.);
#38=CIRCLE('',#469,11.25);
#39=CIRCLE('',#470,2.515);
#40=CIRCLE('',#471,1.25);
#41=CIRCLE('',#472,1.25);
#42=CIRCLE('',#473,1.25);
#43=CIRCLE('',#474,1.25);
#44=CIRCLE('',#476,15.);
#45=CIRCLE('',#477,11.25);
#46=CIRCLE('',#481,15.);
#47=CIRCLE('',#482,1.25);
#48=CIRCLE('',#483,1.25);
#49=CIRCLE('',#484,1.25);
#50=CIRCLE('',#485,1.25);
#51=CIRCLE('',#486,2.515);
#52=CIRCLE('',#493,5.);
#53=CIRCLE('',#494,5.);
#54=CIRCLE('',#497,5.);
#55=CIRCLE('',#498,2.55778);
#56=CIRCLE('',#500,5.);
#57=CIRCLE('',#507,2.55778);
#58=FACE_OUTER_BOUND('',#81,.T.);
#59=FACE_OUTER_BOUND('',#82,.T.);
#60=FACE_OUTER_BOUND('',#88,.T.);
#61=FACE_OUTER_BOUND('',#90,.T.);
#62=FACE_OUTER_BOUND('',#91,.T.);
#63=FACE_OUTER_BOUND('',#92,.T.);
#64=FACE_OUTER_BOUND('',#98,.T.);
#65=FACE_OUTER_BOUND('',#99,.T.);
#66=FACE_OUTER_BOUND('',#100,.T.);
#67=FACE_OUTER_BOUND('',#101,.T.);
#68=FACE_OUTER_BOUND('',#102,.T.);
#69=FACE_OUTER_BOUND('',#103,.T.);
#70=FACE_OUTER_BOUND('',#104,.T.);
#71=FACE_OUTER_BOUND('',#105,.T.);
#72=FACE_OUTER_BOUND('',#107,.T.);
#73=FACE_OUTER_BOUND('',#108,.T.);
#74=FACE_OUTER_BOUND('',#109,.T.);
#75=FACE_OUTER_BOUND('',#110,.T.);
#76=FACE_OUTER_BOUND('',#111,.T.);
#77=FACE_OUTER_BOUND('',#112,.T.);
#78=FACE_OUTER_BOUND('',#113,.T.);
#79=FACE_OUTER_BOUND('',#114,.T.);
#80=FACE_OUTER_BOUND('',#116,.T.);
#81=EDGE_LOOP('',(#297,#298,#299,#300,#301,#302,#303,#304,#305,#306,#307));
#82=EDGE_LOOP('',(#308));
#83=EDGE_LOOP('',(#309));
#84=EDGE_LOOP('',(#310));
#85=EDGE_LOOP('',(#311));
#86=EDGE_LOOP('',(#312));
#87=EDGE_LOOP('',(#313));
#88=EDGE_LOOP('',(#314,#315,#316,#317));
#89=EDGE_LOOP('',(#318));
#90=EDGE_LOOP('',(#319,#320,#321,#322,#323,#324,#325,#326,#327,#328,#329));
#91=EDGE_LOOP('',(#330,#331,#332,#333));
#92=EDGE_LOOP('',(#334,#335,#336,#337));
#93=EDGE_LOOP('',(#338));
#94=EDGE_LOOP('',(#339));
#95=EDGE_LOOP('',(#340));
#96=EDGE_LOOP('',(#341));
#97=EDGE_LOOP('',(#342));
#98=EDGE_LOOP('',(#343,#344,#345,#346));
#99=EDGE_LOOP('',(#347,#348,#349,#350));
#100=EDGE_LOOP('',(#351,#352,#353,#354));
#101=EDGE_LOOP('',(#355,#356,#357,#358));
#102=EDGE_LOOP('',(#359,#360,#361,#362));
#103=EDGE_LOOP('',(#363,#364,#365,#366));
#104=EDGE_LOOP('',(#367,#368,#369,#370));
#105=EDGE_LOOP('',(#371,#372,#373,#374,#375,#376));
#106=EDGE_LOOP('',(#377));
#107=EDGE_LOOP('',(#378,#379,#380,#381));
#108=EDGE_LOOP('',(#382,#383,#384,#385));
#109=EDGE_LOOP('',(#386,#387,#388,#389));
#110=EDGE_LOOP('',(#390,#391,#392,#393));
#111=EDGE_LOOP('',(#394,#395,#396,#397));
#112=EDGE_LOOP('',(#398,#399,#400,#401));
#113=EDGE_LOOP('',(#402,#403,#404,#405));
#114=EDGE_LOOP('',(#406,#407,#408,#409,#410,#411));
#115=EDGE_LOOP('',(#412));
#116=EDGE_LOOP('',(#413,#414,#415,#416));
#117=LINE('',#642,#157);
#118=LINE('',#644,#158);
#119=LINE('',#646,#159);
#120=LINE('',#648,#160);
#121=LINE('',#650,#161);
#122=LINE('',#652,#162);
#123=LINE('',#654,#163);
#124=LINE('',#656,#164);
#125=LINE('',#658,#165);
#126=LINE('',#660,#166);
#127=LINE('',#661,#167);
#128=LINE('',#677,#168);
#129=LINE('',#679,#169);
#130=LINE('',#686,#170);
#131=LINE('',#688,#171);
#132=LINE('',#689,#172);
#133=LINE('',#691,#173);
#134=LINE('',#693,#174);
#135=LINE('',#695,#175);
#136=LINE('',#697,#176);
#137=LINE('',#699,#177);
#138=LINE('',#701,#178);
#139=LINE('',#702,#179);
#140=LINE('',#704,#180);
#141=LINE('',#706,#181);
#142=LINE('',#719,#182);
#143=LINE('',#721,#183);
#144=LINE('',#724,#184);
#145=LINE('',#726,#185);
#146=LINE('',#731,#186);
#147=LINE('',#735,#187);
#148=LINE('',#737,#188);
#149=LINE('',#738,#189);
#150=LINE('',#740,#190);
#151=LINE('',#747,#191);
#152=LINE('',#749,#192);
#153=LINE('',#751,#193);
#154=LINE('',#753,#194);
#155=LINE('',#757,#195);
#156=LINE('',#761,#196);
#157=VECTOR('',#514,10.);
#158=VECTOR('',#515,10.);
#159=VECTOR('',#516,10.);
#160=VECTOR('',#517,10.);
#161=VECTOR('',#518,10.);
#162=VECTOR('',#519,10.);
#163=VECTOR('',#520,10.);
#164=VECTOR('',#521,10.);
#165=VECTOR('',#522,10.);
#166=VECTOR('',#523,10.);
#167=VECTOR('',#524,10.);
#168=VECTOR('',#541,10.);
#169=VECTOR('',#542,10.);
#170=VECTOR('',#549,10.);
#171=VECTOR('',#550,10.);
#172=VECTOR('',#551,10.);
#173=VECTOR('',#552,10.);
#174=VECTOR('',#553,10.);
#175=VECTOR('',#554,10.);
#176=VECTOR('',#555,10.);
#177=VECTOR('',#556,10.);
#178=VECTOR('',#557,10.);
#179=VECTOR('',#558,10.);
#180=VECTOR('',#561,10.);
#181=VECTOR('',#564,10.);
#182=VECTOR('',#579,10.);
#183=VECTOR('',#582,10.);
#184=VECTOR('',#587,2.515);
#185=VECTOR('',#590,10.);
#186=VECTOR('',#595,10.);
#187=VECTOR('',#600,10.);
#188=VECTOR('',#601,10.);
#189=VECTOR('',#602,10.);
#190=VECTOR('',#605,10.);
#191=VECTOR('',#616,1.25);
#192=VECTOR('',#619,1.25);
#193=VECTOR('',#622,1.25);
#194=VECTOR('',#625,1.25);
#195=VECTOR('',#630,3.175);
#196=VECTOR('',#637,11.25);
#197=VERTEX_POINT('',#640);
#198=VERTEX_POINT('',#641);
#199=VERTEX_POINT('',#643);
#200=VERTEX_POINT('',#645);
#201=VERTEX_POINT('',#647);
#202=VERTEX_POINT('',#649);
#203=VERTEX_POINT('',#651);
#204=VERTEX_POINT('',#653);
#205=VERTEX_POINT('',#655);
#206=VERTEX_POINT('',#657);
#207=VERTEX_POINT('',#659);
#208=VERTEX_POINT('',#663);
#209=VERTEX_POINT('',#665);
#210=VERTEX_POINT('',#667);
#211=VERTEX_POINT('',#669);
#212=VERTEX_POINT('',#671);
#213=VERTEX_POINT('',#673);
#214=VERTEX_POINT('',#676);
#215=VERTEX_POINT('',#678);
#216=VERTEX_POINT('',#681);
#217=VERTEX_POINT('',#684);
#218=VERTEX_POINT('',#685);
#219=VERTEX_POINT('',#687);
#220=VERTEX_POINT('',#690);
#221=VERTEX_POINT('',#692);
#222=VERTEX_POINT('',#694);
#223=VERTEX_POINT('',#696);
#224=VERTEX_POINT('',#698);
#225=VERTEX_POINT('',#700);
#226=VERTEX_POINT('',#708);
#227=VERTEX_POINT('',#710);
#228=VERTEX_POINT('',#712);
#229=VERTEX_POINT('',#714);
#230=VERTEX_POINT('',#716);
#231=VERTEX_POINT('',#728);
#232=VERTEX_POINT('',#730);
#233=VERTEX_POINT('',#734);
#234=VERTEX_POINT('',#736);
#235=VERTEX_POINT('',#742);
#236=VERTEX_POINT('',#756);
#237=EDGE_CURVE('',#197,#198,#117,.T.);
#238=EDGE_CURVE('',#199,#197,#118,.T.);
#239=EDGE_CURVE('',#200,#199,#119,.T.);
#240=EDGE_CURVE('',#201,#200,#120,.T.);
#241=EDGE_CURVE('',#202,#201,#121,.T.);
#242=EDGE_CURVE('',#202,#203,#122,.T.);
#243=EDGE_CURVE('',#203,#204,#123,.T.);
#244=EDGE_CURVE('',#204,#205,#124,.T.);
#245=EDGE_CURVE('',#205,#206,#125,.T.);
#246=EDGE_CURVE('',#207,#206,#126,.T.);
#247=EDGE_CURVE('',#207,#198,#127,.T.);
#248=EDGE_CURVE('',#208,#208,#38,.T.);
#249=EDGE_CURVE('',#209,#209,#39,.T.);
#250=EDGE_CURVE('',#210,#210,#40,.T.);
#251=EDGE_CURVE('',#211,#211,#41,.T.);
#252=EDGE_CURVE('',#212,#212,#42,.T.);
#253=EDGE_CURVE('',#213,#213,#43,.T.);
#254=EDGE_CURVE('',#214,#204,#128,.T.);
#255=EDGE_CURVE('',#215,#214,#129,.T.);
#256=EDGE_CURVE('',#205,#215,#44,.T.);
#257=EDGE_CURVE('',#216,#216,#45,.T.);
#258=EDGE_CURVE('',#217,#218,#130,.T.);
#259=EDGE_CURVE('',#219,#217,#131,.T.);
#260=EDGE_CURVE('',#215,#219,#132,.T.);
#261=EDGE_CURVE('',#214,#220,#133,.T.);
#262=EDGE_CURVE('',#220,#221,#134,.T.);
#263=EDGE_CURVE('',#221,#222,#135,.T.);
#264=EDGE_CURVE('',#223,#222,#136,.T.);
#265=EDGE_CURVE('',#224,#223,#137,.T.);
#266=EDGE_CURVE('',#224,#225,#138,.T.);
#267=EDGE_CURVE('',#218,#225,#139,.T.);
#268=EDGE_CURVE('',#220,#203,#140,.T.);
#269=EDGE_CURVE('',#207,#217,#141,.T.);
#270=EDGE_CURVE('',#206,#219,#46,.T.);
#271=EDGE_CURVE('',#226,#226,#47,.T.);
#272=EDGE_CURVE('',#227,#227,#48,.T.);
#273=EDGE_CURVE('',#228,#228,#49,.T.);
#274=EDGE_CURVE('',#229,#229,#50,.T.);
#275=EDGE_CURVE('',#230,#230,#51,.T.);
#276=EDGE_CURVE('',#198,#218,#142,.T.);
#277=EDGE_CURVE('',#202,#221,#143,.T.);
#278=EDGE_CURVE('',#230,#209,#144,.T.);
#279=EDGE_CURVE('',#225,#197,#145,.T.);
#280=EDGE_CURVE('',#200,#231,#52,.T.);
#281=EDGE_CURVE('',#231,#232,#146,.T.);
#282=EDGE_CURVE('',#232,#201,#53,.T.);
#283=EDGE_CURVE('',#233,#231,#147,.T.);
#284=EDGE_CURVE('',#234,#233,#148,.T.);
#285=EDGE_CURVE('',#234,#232,#149,.T.);
#286=EDGE_CURVE('',#224,#199,#150,.T.);
#287=EDGE_CURVE('',#233,#223,#54,.T.);
#288=EDGE_CURVE('',#235,#235,#55,.T.);
#289=EDGE_CURVE('',#222,#234,#56,.T.);
#290=EDGE_CURVE('',#228,#213,#151,.T.);
#291=EDGE_CURVE('',#227,#212,#152,.T.);
#292=EDGE_CURVE('',#229,#210,#153,.T.);
#293=EDGE_CURVE('',#226,#211,#154,.T.);
#294=EDGE_CURVE('',#235,#236,#155,.T.);
#295=EDGE_CURVE('',#236,#236,#57,.T.);
#296=EDGE_CURVE('',#216,#208,#156,.T.);
#297=ORIENTED_EDGE('',*,*,#237,.F.);
#298=ORIENTED_EDGE('',*,*,#238,.F.);
#299=ORIENTED_EDGE('',*,*,#239,.F.);
#300=ORIENTED_EDGE('',*,*,#240,.F.);
#301=ORIENTED_EDGE('',*,*,#241,.F.);
#302=ORIENTED_EDGE('',*,*,#242,.T.);
#303=ORIENTED_EDGE('',*,*,#243,.T.);
#304=ORIENTED_EDGE('',*,*,#244,.T.);
#305=ORIENTED_EDGE('',*,*,#245,.T.);
#306=ORIENTED_EDGE('',*,*,#246,.F.);
#307=ORIENTED_EDGE('',*,*,#247,.T.);
#308=ORIENTED_EDGE('',*,*,#248,.F.);
#309=ORIENTED_EDGE('',*,*,#249,.F.);
#310=ORIENTED_EDGE('',*,*,#250,.F.);
#311=ORIENTED_EDGE('',*,*,#251,.F.);
#312=ORIENTED_EDGE('',*,*,#252,.F.);
#313=ORIENTED_EDGE('',*,*,#253,.F.);
#314=ORIENTED_EDGE('',*,*,#254,.F.);
#315=ORIENTED_EDGE('',*,*,#255,.F.);
#316=ORIENTED_EDGE('',*,*,#256,.F.);
#317=ORIENTED_EDGE('',*,*,#244,.F.);
#318=ORIENTED_EDGE('',*,*,#257,.F.);
#319=ORIENTED_EDGE('',*,*,#258,.F.);
#320=ORIENTED_EDGE('',*,*,#259,.F.);
#321=ORIENTED_EDGE('',*,*,#260,.F.);
#322=ORIENTED_EDGE('',*,*,#255,.T.);
#323=ORIENTED_EDGE('',*,*,#261,.T.);
#324=ORIENTED_EDGE('',*,*,#262,.T.);
#325=ORIENTED_EDGE('',*,*,#263,.T.);
#326=ORIENTED_EDGE('',*,*,#264,.F.);
#327=ORIENTED_EDGE('',*,*,#265,.F.);
#328=ORIENTED_EDGE('',*,*,#266,.T.);
#329=ORIENTED_EDGE('',*,*,#267,.F.);
#330=ORIENTED_EDGE('',*,*,#254,.T.);
#331=ORIENTED_EDGE('',*,*,#243,.F.);
#332=ORIENTED_EDGE('',*,*,#268,.F.);
#333=ORIENTED_EDGE('',*,*,#261,.F.);
#334=ORIENTED_EDGE('',*,*,#269,.F.);
#335=ORIENTED_EDGE('',*,*,#246,.T.);
#336=ORIENTED_EDGE('',*,*,#270,.T.);
#337=ORIENTED_EDGE('',*,*,#259,.T.);
#338=ORIENTED_EDGE('',*,*,#271,.T.);
#339=ORIENTED_EDGE('',*,*,#272,.T.);
#340=ORIENTED_EDGE('',*,*,#273,.T.);
#341=ORIENTED_EDGE('',*,*,#274,.T.);
#342=ORIENTED_EDGE('',*,*,#275,.T.);
#343=ORIENTED_EDGE('',*,*,#269,.T.);
#344=ORIENTED_EDGE('',*,*,#258,.T.);
#345=ORIENTED_EDGE('',*,*,#276,.F.);
#346=ORIENTED_EDGE('',*,*,#247,.F.);
#347=ORIENTED_EDGE('',*,*,#268,.T.);
#348=ORIENTED_EDGE('',*,*,#242,.F.);
#349=ORIENTED_EDGE('',*,*,#277,.T.);
#350=ORIENTED_EDGE('',*,*,#262,.F.);
#351=ORIENTED_EDGE('',*,*,#256,.T.);
#352=ORIENTED_EDGE('',*,*,#260,.T.);
#353=ORIENTED_EDGE('',*,*,#270,.F.);
#354=ORIENTED_EDGE('',*,*,#245,.F.);
#355=ORIENTED_EDGE('',*,*,#275,.F.);
#356=ORIENTED_EDGE('',*,*,#278,.T.);
#357=ORIENTED_EDGE('',*,*,#249,.T.);
#358=ORIENTED_EDGE('',*,*,#278,.F.);
#359=ORIENTED_EDGE('',*,*,#276,.T.);
#360=ORIENTED_EDGE('',*,*,#267,.T.);
#361=ORIENTED_EDGE('',*,*,#279,.T.);
#362=ORIENTED_EDGE('',*,*,#237,.T.);
#363=ORIENTED_EDGE('',*,*,#280,.T.);
#364=ORIENTED_EDGE('',*,*,#281,.T.);
#365=ORIENTED_EDGE('',*,*,#282,.T.);
#366=ORIENTED_EDGE('',*,*,#240,.T.);
#367=ORIENTED_EDGE('',*,*,#281,.F.);
#368=ORIENTED_EDGE('',*,*,#283,.F.);
#369=ORIENTED_EDGE('',*,*,#284,.F.);
#370=ORIENTED_EDGE('',*,*,#285,.T.);
#371=ORIENTED_EDGE('',*,*,#280,.F.);
#372=ORIENTED_EDGE('',*,*,#239,.T.);
#373=ORIENTED_EDGE('',*,*,#286,.F.);
#374=ORIENTED_EDGE('',*,*,#265,.T.);
#375=ORIENTED_EDGE('',*,*,#287,.F.);
#376=ORIENTED_EDGE('',*,*,#283,.T.);
#377=ORIENTED_EDGE('',*,*,#288,.T.);
#378=ORIENTED_EDGE('',*,*,#287,.T.);
#379=ORIENTED_EDGE('',*,*,#264,.T.);
#380=ORIENTED_EDGE('',*,*,#289,.T.);
#381=ORIENTED_EDGE('',*,*,#284,.T.);
#382=ORIENTED_EDGE('',*,*,#273,.F.);
#383=ORIENTED_EDGE('',*,*,#290,.T.);
#384=ORIENTED_EDGE('',*,*,#253,.T.);
#385=ORIENTED_EDGE('',*,*,#290,.F.);
#386=ORIENTED_EDGE('',*,*,#272,.F.);
#387=ORIENTED_EDGE('',*,*,#291,.T.);
#388=ORIENTED_EDGE('',*,*,#252,.T.);
#389=ORIENTED_EDGE('',*,*,#291,.F.);
#390=ORIENTED_EDGE('',*,*,#274,.F.);
#391=ORIENTED_EDGE('',*,*,#292,.T.);
#392=ORIENTED_EDGE('',*,*,#250,.T.);
#393=ORIENTED_EDGE('',*,*,#292,.F.);
#394=ORIENTED_EDGE('',*,*,#271,.F.);
#395=ORIENTED_EDGE('',*,*,#293,.T.);
#396=ORIENTED_EDGE('',*,*,#251,.T.);
#397=ORIENTED_EDGE('',*,*,#293,.F.);
#398=ORIENTED_EDGE('',*,*,#286,.T.);
#399=ORIENTED_EDGE('',*,*,#238,.T.);
#400=ORIENTED_EDGE('',*,*,#279,.F.);
#401=ORIENTED_EDGE('',*,*,#266,.F.);
#402=ORIENTED_EDGE('',*,*,#288,.F.);
#403=ORIENTED_EDGE('',*,*,#294,.T.);
#404=ORIENTED_EDGE('',*,*,#295,.F.);
#405=ORIENTED_EDGE('',*,*,#294,.F.);
#406=ORIENTED_EDGE('',*,*,#282,.F.);
#407=ORIENTED_EDGE('',*,*,#285,.F.);
#408=ORIENTED_EDGE('',*,*,#289,.F.);
#409=ORIENTED_EDGE('',*,*,#263,.F.);
#410=ORIENTED_EDGE('',*,*,#277,.F.);
#411=ORIENTED_EDGE('',*,*,#241,.T.);
#412=ORIENTED_EDGE('',*,*,#295,.T.);
#413=ORIENTED_EDGE('',*,*,#257,.T.);
#414=ORIENTED_EDGE('',*,*,#296,.T.);
#415=ORIENTED_EDGE('',*,*,#248,.T.);
#416=ORIENTED_EDGE('',*,*,#296,.F.);
#417=PLANE('',#467);
#418=PLANE('',#468);
#419=PLANE('',#475);
#420=PLANE('',#478);
#421=PLANE('',#479);
#422=PLANE('',#480);
#423=PLANE('',#487);
#424=PLANE('',#488);
#425=PLANE('',#491);
#426=PLANE('',#495);
#427=PLANE('',#496);
#428=PLANE('',#505);
#429=PLANE('',#508);
#430=ADVANCED_FACE('',(#58),#417,.T.);
#431=ADVANCED_FACE('',(#59,#25,#26,#27,#28,#29),#418,.F.);
#432=ADVANCED_FACE('',(#60,#30),#419,.F.);
#433=ADVANCED_FACE('',(#61),#420,.T.);
#434=ADVANCED_FACE('',(#62),#421,.F.);
#435=ADVANCED_FACE('',(#63,#31,#32,#33,#34,#35),#422,.T.);
#436=ADVANCED_FACE('',(#64),#423,.T.);
#437=ADVANCED_FACE('',(#65),#424,.T.);
#438=ADVANCED_FACE('',(#66),#15,.T.);
#439=ADVANCED_FACE('',(#67),#16,.F.);
#440=ADVANCED_FACE('',(#68),#425,.T.);
#441=ADVANCED_FACE('',(#69),#17,.T.);
#442=ADVANCED_FACE('',(#70),#426,.T.);
#443=ADVANCED_FACE('',(#71,#36),#427,.T.);
#444=ADVANCED_FACE('',(#72),#18,.T.);
#445=ADVANCED_FACE('',(#73),#19,.F.);
#446=ADVANCED_FACE('',(#74),#20,.F.);
#447=ADVANCED_FACE('',(#75),#21,.F.);
#448=ADVANCED_FACE('',(#76),#22,.F.);
#449=ADVANCED_FACE('',(#77),#428,.T.);
#450=ADVANCED_FACE('',(#78),#23,.F.);
#451=ADVANCED_FACE('',(#79,#37),#429,.T.);
#452=ADVANCED_FACE('',(#80),#24,.F.);
#453=CLOSED_SHELL('',(#430,#431,#432,#433,#434,#435,#436,#437,#438,#439,
#440,#441,#442,#443,#444,#445,#446,#447,#448,#449,#450,#451,#452));
#454=DERIVED_UNIT_ELEMENT(#456,1.);
#455=DERIVED_UNIT_ELEMENT(#767,-3.);
#456=(
MASS_UNIT()
NAMED_UNIT(*)
SI_UNIT(.KILO.,.GRAM.)
);
#457=DERIVED_UNIT((#454,#455));
#458=MEASURE_REPRESENTATION_ITEM('density measure',
POSITIVE_RATIO_MEASURE(952.),#457);
#459=PROPERTY_DEFINITION_REPRESENTATION(#464,#461);
#460=PROPERTY_DEFINITION_REPRESENTATION(#465,#462);
#461=REPRESENTATION('material name',(#463),#764);
#462=REPRESENTATION('density',(#458),#764);
#463=DESCRIPTIVE_REPRESENTATION_ITEM('Plastic, Opaque White',
'Plastic, Opaque White');
#464=PROPERTY_DEFINITION('material property','material name',#774);
#465=PROPERTY_DEFINITION('material property','density of part',#774);
#466=AXIS2_PLACEMENT_3D('',#638,#510,#511);
#467=AXIS2_PLACEMENT_3D('',#639,#512,#513);
#468=AXIS2_PLACEMENT_3D('',#662,#525,#526);
#469=AXIS2_PLACEMENT_3D('',#664,#527,#528);
#470=AXIS2_PLACEMENT_3D('',#666,#529,#530);
#471=AXIS2_PLACEMENT_3D('',#668,#531,#532);
#472=AXIS2_PLACEMENT_3D('',#670,#533,#534);
#473=AXIS2_PLACEMENT_3D('',#672,#535,#536);
#474=AXIS2_PLACEMENT_3D('',#674,#537,#538);
#475=AXIS2_PLACEMENT_3D('',#675,#539,#540);
#476=AXIS2_PLACEMENT_3D('',#680,#543,#544);
#477=AXIS2_PLACEMENT_3D('',#682,#545,#546);
#478=AXIS2_PLACEMENT_3D('',#683,#547,#548);
#479=AXIS2_PLACEMENT_3D('',#703,#559,#560);
#480=AXIS2_PLACEMENT_3D('',#705,#562,#563);
#481=AXIS2_PLACEMENT_3D('',#707,#565,#566);
#482=AXIS2_PLACEMENT_3D('',#709,#567,#568);
#483=AXIS2_PLACEMENT_3D('',#711,#569,#570);
#484=AXIS2_PLACEMENT_3D('',#713,#571,#572);
#485=AXIS2_PLACEMENT_3D('',#715,#573,#574);
#486=AXIS2_PLACEMENT_3D('',#717,#575,#576);
#487=AXIS2_PLACEMENT_3D('',#718,#577,#578);
#488=AXIS2_PLACEMENT_3D('',#720,#580,#581);
#489=AXIS2_PLACEMENT_3D('',#722,#583,#584);
#490=AXIS2_PLACEMENT_3D('',#723,#585,#586);
#491=AXIS2_PLACEMENT_3D('',#725,#588,#589);
#492=AXIS2_PLACEMENT_3D('',#727,#591,#592);
#493=AXIS2_PLACEMENT_3D('',#729,#593,#594);
#494=AXIS2_PLACEMENT_3D('',#732,#596,#597);
#495=AXIS2_PLACEMENT_3D('',#733,#598,#599);
#496=AXIS2_PLACEMENT_3D('',#739,#603,#604);
#497=AXIS2_PLACEMENT_3D('',#741,#606,#607);
#498=AXIS2_PLACEMENT_3D('',#743,#608,#609);
#499=AXIS2_PLACEMENT_3D('',#744,#610,#611);
#500=AXIS2_PLACEMENT_3D('',#745,#612,#613);
#501=AXIS2_PLACEMENT_3D('',#746,#614,#615);
#502=AXIS2_PLACEMENT_3D('',#748,#617,#618);
#503=AXIS2_PLACEMENT_3D('',#750,#620,#621);
#504=AXIS2_PLACEMENT_3D('',#752,#623,#624);
#505=AXIS2_PLACEMENT_3D('',#754,#626,#627);
#506=AXIS2_PLACEMENT_3D('',#755,#628,#629);
#507=AXIS2_PLACEMENT_3D('',#758,#631,#632);
#508=AXIS2_PLACEMENT_3D('',#759,#633,#634);
#509=AXIS2_PLACEMENT_3D('',#760,#635,#636);
#510=DIRECTION('axis',(0.,0.,1.));
#511=DIRECTION('refdir',(1.,0.,0.));
#512=DIRECTION('center_axis',(0.,-1.,0.));
#513=DIRECTION('ref_axis',(-1.,0.,0.));
#514=DIRECTION('',(-0.000458817612436491,0.,-0.999999894743194));
#515=DIRECTION('',(0.999999894743194,0.,-0.000458817612436491));
#516=DIRECTION('',(-0.00479640984327655,0.,-0.99998849716015));
#517=DIRECTION('',(0.99998849716015,0.,-0.00479640984327655));
#518=DIRECTION('',(0.00479640984327655,0.,0.99998849716015));
#519=DIRECTION('',(-0.000458817612434929,0.,-0.999999894743194));
#520=DIRECTION('',(0.843391445812886,0.,-0.537299608346824));
#521=DIRECTION('',(1.,0.,0.));
#522=DIRECTION('',(0.,0.,1.));
#523=DIRECTION('',(1.,0.,0.));
#524=DIRECTION('',(-0.843391445812884,0.,0.537299608346826));
#525=DIRECTION('center_axis',(0.,0.,1.));
#526=DIRECTION('ref_axis',(1.,0.,0.));
#527=DIRECTION('center_axis',(0.,0.,1.));
#528=DIRECTION('ref_axis',(1.,0.,0.));
#529=DIRECTION('center_axis',(0.,0.,-1.));
#530=DIRECTION('ref_axis',(-1.,0.,0.));
#531=DIRECTION('center_axis',(0.,0.,-1.));
#532=DIRECTION('ref_axis',(1.,0.,0.));
#533=DIRECTION('center_axis',(0.,0.,-1.));
#534=DIRECTION('ref_axis',(1.,0.,0.));
#535=DIRECTION('center_axis',(0.,0.,-1.));
#536=DIRECTION('ref_axis',(1.,0.,0.));
#537=DIRECTION('center_axis',(0.,0.,-1.));
#538=DIRECTION('ref_axis',(1.,0.,0.));
#539=DIRECTION('center_axis',(0.,0.,1.));
#540=DIRECTION('ref_axis',(1.,0.,0.));
#541=DIRECTION('',(0.,-1.,0.));
#542=DIRECTION('',(-1.,0.,0.));
#543=DIRECTION('center_axis',(0.,0.,1.));
#544=DIRECTION('ref_axis',(1.,0.,0.));
#545=DIRECTION('center_axis',(0.,0.,-1.));
#546=DIRECTION('ref_axis',(1.,0.,0.));
#547=DIRECTION('center_axis',(0.,1.,0.));
#548=DIRECTION('ref_axis',(1.,0.,0.));
#549=DIRECTION('',(-0.843391445812885,0.,0.537299608346825));
#550=DIRECTION('',(-1.,0.,0.));
#551=DIRECTION('',(0.,0.,1.));
#552=DIRECTION('',(-0.843391445812886,0.,0.537299608346824));
#553=DIRECTION('',(0.000458817612434929,0.,0.999999894743194));
#554=DIRECTION('',(0.00479640984327655,0.,0.99998849716015));
#555=DIRECTION('',(-0.99998849716015,0.,0.00479640984327655));
#556=DIRECTION('',(0.00479640984327655,0.,0.99998849716015));
#557=DIRECTION('',(0.999999894743194,0.,-0.000458817612436491));
#558=DIRECTION('',(0.000458817612436491,0.,0.999999894743194));
#559=DIRECTION('center_axis',(0.537299608346824,0.,0.843391445812886));
#560=DIRECTION('ref_axis',(0.843391445812886,0.,-0.537299608346824));
#561=DIRECTION('',(0.,-1.,0.));
#562=DIRECTION('center_axis',(0.,0.,1.));
#563=DIRECTION('ref_axis',(1.,0.,0.));
#564=DIRECTION('',(0.,1.,0.));
#565=DIRECTION('center_axis',(0.,0.,1.));
#566=DIRECTION('ref_axis',(1.,0.,0.));
#567=DIRECTION('center_axis',(0.,0.,-1.));
#568=DIRECTION('ref_axis',(1.,0.,0.));
#569=DIRECTION('center_axis',(0.,0.,-1.));
#570=DIRECTION('ref_axis',(1.,0.,0.));
#571=DIRECTION('center_axis',(0.,0.,-1.));
#572=DIRECTION('ref_axis',(1.,0.,0.));
#573=DIRECTION('center_axis',(0.,0.,-1.));
#574=DIRECTION('ref_axis',(1.,0.,0.));
#575=DIRECTION('center_axis',(0.,0.,-1.));
#576=DIRECTION('ref_axis',(-1.,0.,0.));
#577=DIRECTION('center_axis',(0.537299608346825,0.,0.843391445812885));
#578=DIRECTION('ref_axis',(0.843391445812885,0.,-0.537299608346825));
#579=DIRECTION('',(0.,1.,0.));
#580=DIRECTION('center_axis',(-0.999999894743194,0.,0.000458817612434929));
#581=DIRECTION('ref_axis',(-0.000458817612434929,0.,-0.999999894743194));
#582=DIRECTION('',(0.,1.,0.));
#583=DIRECTION('center_axis',(0.,0.,1.));
#584=DIRECTION('ref_axis',(1.,0.,0.));
#585=DIRECTION('center_axis',(0.,0.,-1.));
#586=DIRECTION('ref_axis',(-1.,0.,0.));
#587=DIRECTION('',(0.,0.,-1.));
#588=DIRECTION('center_axis',(0.999999894743194,0.,-0.00045881761243649));
#589=DIRECTION('ref_axis',(-0.00045881761243649,0.,-0.999999894743194));
#590=DIRECTION('',(0.,-1.,0.));
#591=DIRECTION('center_axis',(0.99998849716015,0.,-0.00479640984327655));
#592=DIRECTION('ref_axis',(0.00339157392553069,-0.707106781186549,0.707098647450486));
#593=DIRECTION('center_axis',(-0.99998849716015,0.,0.00479640984327489));
#594=DIRECTION('ref_axis',(0.00339157392553069,-0.707106781186549,0.707098647450486));
#595=DIRECTION('',(-0.99998849716015,0.,0.00479640984327655));
#596=DIRECTION('center_axis',(0.99998849716015,0.,-0.00479640984327655));
#597=DIRECTION('ref_axis',(0.00339157392553069,-0.707106781186549,0.707098647450486));
#598=DIRECTION('center_axis',(0.00479640984327655,0.,0.99998849716015));
#599=DIRECTION('ref_axis',(0.99998849716015,0.,-0.00479640984327655));
#600=DIRECTION('',(0.,-1.,0.));
#601=DIRECTION('',(0.99998849716015,0.,-0.00479640984327655));
#602=DIRECTION('',(0.,-1.,0.));
#603=DIRECTION('center_axis',(0.99998849716015,0.,-0.00479640984327489));
#604=DIRECTION('ref_axis',(-0.00479640984327489,0.,-0.99998849716015));
#605=DIRECTION('',(0.,-1.,0.));
#606=DIRECTION('center_axis',(-0.99998849716015,0.,0.00479640984327489));
#607=DIRECTION('ref_axis',(0.00339157392553069,0.707106781186549,0.707098647450485));
#608=DIRECTION('center_axis',(-0.99998849716015,0.,0.00479640984327489));
#609=DIRECTION('ref_axis',(0.,1.,0.));
#610=DIRECTION('center_axis',(0.99998849716015,0.,-0.00479640984327655));
#611=DIRECTION('ref_axis',(0.00339157392553069,0.707106781186549,0.707098647450485));
#612=DIRECTION('center_axis',(0.99998849716015,0.,-0.00479640984327655));
#613=DIRECTION('ref_axis',(0.00339157392553069,0.707106781186549,0.707098647450485));
#614=DIRECTION('center_axis',(0.,0.,1.));
#615=DIRECTION('ref_axis',(1.,0.,0.));
#616=DIRECTION('',(0.,0.,-1.));
#617=DIRECTION('center_axis',(0.,0.,1.));
#618=DIRECTION('ref_axis',(1.,0.,0.));
#619=DIRECTION('',(0.,0.,-1.));
#620=DIRECTION('center_axis',(0.,0.,1.));
#621=DIRECTION('ref_axis',(1.,0.,0.));
#622=DIRECTION('',(0.,0.,-1.));
#623=DIRECTION('center_axis',(0.,0.,1.));
#624=DIRECTION('ref_axis',(1.,0.,0.));
#625=DIRECTION('',(0.,0.,-1.));
#626=DIRECTION('center_axis',(0.000458817612436491,0.,0.999999894743194));
#627=DIRECTION('ref_axis',(0.,-1.,0.));
#628=DIRECTION('center_axis',(-0.99998849716015,0.,0.00479640984327543));
#629=DIRECTION('ref_axis',(0.,1.,0.));
#630=DIRECTION('',(-0.99998849716015,0.,0.00479640984327543));
#631=DIRECTION('center_axis',(0.99998849716015,0.,-0.00479640984327655));
#632=DIRECTION('ref_axis',(0.,1.,0.));
#633=DIRECTION('center_axis',(-0.99998849716015,0.,0.00479640984327655));
#634=DIRECTION('ref_axis',(0.,-1.,0.));
#635=DIRECTION('center_axis',(0.,0.,1.));
#636=DIRECTION('ref_axis',(1.,0.,0.));
#637=DIRECTION('',(0.,0.,1.));
#638=CARTESIAN_POINT('',(0.,0.,0.));
#639=CARTESIAN_POINT('Origin',(0.,-15.0000002235174,9.5));
#640=CARTESIAN_POINT('',(-59.5146727834715,-14.9999997764826,62.299304522913));
#641=CARTESIAN_POINT('',(-59.5219107566246,-15.0000002235174,46.5240330534338));
#642=CARTESIAN_POINT('',(-59.535106682958,-15.0000002235174,17.763312917952));
#643=CARTESIAN_POINT('',(-59.5506260808243,-14.9999997764826,62.2993210189208));
#644=CARTESIAN_POINT('',(-64.5146722571875,-14.9999997764826,62.3015986109751));
#645=CARTESIAN_POINT('',(-59.2245734879417,-14.9999997764826,130.277007039403));
#646=CARTESIAN_POINT('',(-59.5507293572845,-14.9999997764826,62.2777892325131));
#647=CARTESIAN_POINT('',(-68.824066965789,-14.9999997764826,130.323050674044));
#648=CARTESIAN_POINT('',(-31.8052947598603,-15.0000002235174,130.145491428213));
#649=CARTESIAN_POINT('',(-69.1502228351318,-14.9999997764826,62.3238328671533));
#650=CARTESIAN_POINT('',(-69.1502228351318,-14.9999997764826,62.3238328671533));
#651=CARTESIAN_POINT('',(-69.1606454819666,-14.9999997764826,39.6075171564591));
#652=CARTESIAN_POINT('',(-69.1698910357762,-14.9999997764826,19.4566934174552));
#653=CARTESIAN_POINT('',(-17.5846747015822,-15.0000002235174,6.75));
#654=CARTESIAN_POINT('',(-36.9365432276914,-15.0000002235174,19.0784999290407));
#655=CARTESIAN_POINT('',(0.,-15.0000002235174,6.75));
#656=CARTESIAN_POINT('',(0.,-15.0000002235174,6.75));
#657=CARTESIAN_POINT('',(0.,-15.0000002235174,17.45));
#658=CARTESIAN_POINT('',(0.,-15.0000002235174,0.));
#659=CARTESIAN_POINT('',(-13.8848204040125,-15.0000002235174,17.45));
#660=CARTESIAN_POINT('',(0.,-15.0000002235174,17.45));
#661=CARTESIAN_POINT('',(-57.9116434999034,-15.0000002235174,45.4981796722247));
#662=CARTESIAN_POINT('Origin',(0.,0.,10.75));
#663=CARTESIAN_POINT('',(-11.25,-1.11022302462516E-15,10.75));
#664=CARTESIAN_POINT('Origin',(0.,0.,10.75));
#665=CARTESIAN_POINT('',(2.515,-3.07998669985559E-16,10.75));
#666=CARTESIAN_POINT('Origin',(0.,0.,10.75));
#667=CARTESIAN_POINT('',(-1.25,-7.,10.75));
#668=CARTESIAN_POINT('Origin',(0.,-7.,10.75));
#669=CARTESIAN_POINT('',(5.75,0.,10.75));
#670=CARTESIAN_POINT('Origin',(7.,0.,10.75));
#671=CARTESIAN_POINT('',(-8.25,0.,10.75));
#672=CARTESIAN_POINT('Origin',(-7.,0.,10.75));
#673=CARTESIAN_POINT('',(-1.25,7.,10.75));
#674=CARTESIAN_POINT('Origin',(0.,7.,10.75));
#675=CARTESIAN_POINT('Origin',(0.,0.,6.75));
#676=CARTESIAN_POINT('',(-17.5846747015822,15.0000002235174,6.75));
#677=CARTESIAN_POINT('',(-17.5846747015822,7.50000011175871,6.75));
#678=CARTESIAN_POINT('',(0.,15.0000002235174,6.75));
#679=CARTESIAN_POINT('',(-14.3145,15.0000002235174,6.75));
#680=CARTESIAN_POINT('Origin',(0.,0.,6.75));
#681=CARTESIAN_POINT('',(-11.25,2.22044604925031E-15,6.75));
#682=CARTESIAN_POINT('Origin',(0.,0.,6.75));
#683=CARTESIAN_POINT('Origin',(-28.629,15.0000002235174,9.5));
#684=CARTESIAN_POINT('',(-13.8848204040125,15.0000002235174,17.45));
#685=CARTESIAN_POINT('',(-59.5219107566245,15.0000002235174,46.5240330534337));
#686=CARTESIAN_POINT('',(-28.6204863993457,15.0000002235174,26.837654578819));
#687=CARTESIAN_POINT('',(0.,15.0000002235174,17.45));
#688=CARTESIAN_POINT('',(-14.3145,15.0000002235174,17.45));
#689=CARTESIAN_POINT('',(0.,15.0000002235174,10.5));
#690=CARTESIAN_POINT('',(-69.1606454819666,15.0000002235174,39.6075171564591));
#691=CARTESIAN_POINT('',(-47.118577781535,15.0000002235174,25.5651713378087));
#692=CARTESIAN_POINT('',(-69.1502228351318,15.0000002235174,62.3238328671533));
#693=CARTESIAN_POINT('',(-69.1698910357762,15.0000002235174,19.4566934174552));
#694=CARTESIAN_POINT('',(-68.824066965789,15.0000002235174,130.323050674044));
#695=CARTESIAN_POINT('',(-69.1502228351318,15.0000002235174,62.3238328671533));
#696=CARTESIAN_POINT('',(-59.2245734879417,15.0000002235174,130.277007039403));
#697=CARTESIAN_POINT('',(-46.1194654469522,15.0000002235174,130.214148847151));
#698=CARTESIAN_POINT('',(-59.5506260808243,15.0000002235174,62.2993210189208));
#699=CARTESIAN_POINT('',(-59.5507293572845,15.0000002235174,62.2777892325131));
#700=CARTESIAN_POINT('',(-59.5146727834715,15.0000002235174,62.299304522913));
#701=CARTESIAN_POINT('',(-64.5146722571875,15.0000002235174,62.3015986109751));
#702=CARTESIAN_POINT('',(-59.535109696355,15.0000002235174,17.7567451739301));
#703=CARTESIAN_POINT('Origin',(-60.0357976938802,15.0000002235174,33.7943479962743));
#704=CARTESIAN_POINT('',(-69.1606454819666,2.23517417907715E-7,39.6075171564591));
#705=CARTESIAN_POINT('Origin',(0.,0.,17.45));
#706=CARTESIAN_POINT('',(-13.8848204040125,7.50000011175871,17.45));
#707=CARTESIAN_POINT('Origin',(0.,0.,17.45));
#708=CARTESIAN_POINT('',(5.75,0.,17.45));
#709=CARTESIAN_POINT('Origin',(7.,0.,17.45));
#710=CARTESIAN_POINT('',(-8.25,0.,17.45));
#711=CARTESIAN_POINT('Origin',(-7.,0.,17.45));
#712=CARTESIAN_POINT('',(-1.25,7.,17.45));
#713=CARTESIAN_POINT('Origin',(0.,7.,17.45));
#714=CARTESIAN_POINT('',(-1.25,-7.,17.45));
#715=CARTESIAN_POINT('Origin',(0.,-7.,17.45));
#716=CARTESIAN_POINT('',(2.515,0.,17.45));
#717=CARTESIAN_POINT('Origin',(0.,0.,17.45));
#718=CARTESIAN_POINT('Origin',(-27.8830078330635,15.0000002235174,26.3678289162577));
#719=CARTESIAN_POINT('',(-59.5219107566245,0.,46.5240330534337));
#720=CARTESIAN_POINT('Origin',(-69.1501618763649,15.0000002235174,62.4566934174552));
#721=CARTESIAN_POINT('',(-69.1502228351318,15.0000002235174,62.3238328671533));
#722=CARTESIAN_POINT('Origin',(0.,0.,0.));
#723=CARTESIAN_POINT('Origin',(0.,0.,10.5));
#724=CARTESIAN_POINT('',(2.515,-3.07998669985559E-16,10.5));
#725=CARTESIAN_POINT('Origin',(-59.5313278628029,15.0000002235174,25.999308343735));
#726=CARTESIAN_POINT('',(-59.5146727834715,15.0000002235174,62.299304522913));
#727=CARTESIAN_POINT('Origin',(-31.8052947598603,-10.0000002235174,130.145491428213));
#728=CARTESIAN_POINT('',(-59.2005914387253,-10.0000002235174,135.276949525204));
#729=CARTESIAN_POINT('Origin',(-59.2245734879417,-10.0000002235174,130.277007039403));
#730=CARTESIAN_POINT('',(-68.8000849165726,-10.0000002235174,135.322993159844));
#731=CARTESIAN_POINT('',(-31.7813127106439,-10.0000002235174,135.145433914014));
#732=CARTESIAN_POINT('Origin',(-68.824066965789,-10.0000002235174,130.323050674044));
#733=CARTESIAN_POINT('Origin',(-64.1645343386283,15.0000002235174,135.300758903666));
#734=CARTESIAN_POINT('',(-59.2005914387253,10.0000002235174,135.276949525204));
#735=CARTESIAN_POINT('',(-59.2005914387253,15.0000002235174,135.276949525204));
#736=CARTESIAN_POINT('',(-68.8000849165726,10.0000002235174,135.322993159844));
#737=CARTESIAN_POINT('',(-46.0954833977359,10.0000002235174,135.214091332951));
#738=CARTESIAN_POINT('',(-68.8000849165726,15.0000002235174,135.322993159844));
#739=CARTESIAN_POINT('Origin',(-59.5507293572845,-14.9999997764826,62.2777892325131));
#740=CARTESIAN_POINT('',(-59.5506260808243,2.23517417907715E-7,62.2993210189208));
#741=CARTESIAN_POINT('Origin',(-59.2245734879417,10.0000002235174,130.277007039403));
#742=CARTESIAN_POINT('',(-59.4464074431933,-2.55777977648258,84.0275390457464));
#743=CARTESIAN_POINT('Origin',(-59.4464074431933,2.23517417907715E-7,84.0275390457464));
#744=CARTESIAN_POINT('Origin',(-46.1194654469522,10.0000002235174,130.214148847151));
#745=CARTESIAN_POINT('Origin',(-68.824066965789,10.0000002235174,130.323050674043));
#746=CARTESIAN_POINT('Origin',(0.,7.,0.));
#747=CARTESIAN_POINT('',(-1.25,7.,0.));
#748=CARTESIAN_POINT('Origin',(-7.,0.,0.));
#749=CARTESIAN_POINT('',(-8.25,-1.53080849893419E-16,0.));
#750=CARTESIAN_POINT('Origin',(0.,-7.,0.));
#751=CARTESIAN_POINT('',(-1.25,-7.,0.));
#752=CARTESIAN_POINT('Origin',(7.,0.,0.));
#753=CARTESIAN_POINT('',(5.75,-1.53080849893419E-16,0.));
#754=CARTESIAN_POINT('Origin',(-64.5146722571875,15.0000002235174,62.3015986109751));
#755=CARTESIAN_POINT('Origin',(-62.4373730381993,2.23517417907715E-7,84.0418851075877));
#756=CARTESIAN_POINT('',(-69.0459009210406,-2.55777977648258,84.0735826803866));
#757=CARTESIAN_POINT('',(-62.4373730381993,-2.55777977648258,84.0418851075877));
#758=CARTESIAN_POINT('Origin',(-69.0459009210406,2.23517417907715E-7,84.0735826803866));
#759=CARTESIAN_POINT('Origin',(-69.1502228351318,15.0000002235174,62.3238328671533));
#760=CARTESIAN_POINT('Origin',(0.,0.,0.));
#761=CARTESIAN_POINT('',(-11.25,-1.37772764904077E-15,0.));
#762=UNCERTAINTY_MEASURE_WITH_UNIT(LENGTH_MEASURE(0.01),#766,
'DISTANCE_ACCURACY_VALUE',
'Maximum model space distance between geometric entities at asserted c
onnectivities');
#763=UNCERTAINTY_MEASURE_WITH_UNIT(LENGTH_MEASURE(0.01),#766,
'DISTANCE_ACCURACY_VALUE',
'Maximum model space distance between geometric entities at asserted c
onnectivities');
#764=(
GEOMETRIC_REPRESENTATION_CONTEXT(3)
GLOBAL_UNCERTAINTY_ASSIGNED_CONTEXT((#762))
GLOBAL_UNIT_ASSIGNED_CONTEXT((#766,#768,#769))
REPRESENTATION_CONTEXT('','3D')
);
#765=(
GEOMETRIC_REPRESENTATION_CONTEXT(3)
GLOBAL_UNCERTAINTY_ASSIGNED_CONTEXT((#763))
GLOBAL_UNIT_ASSIGNED_CONTEXT((#766,#768,#769))
REPRESENTATION_CONTEXT('','3D')
);
#766=(
LENGTH_UNIT()
NAMED_UNIT(*)
SI_UNIT(.MILLI.,.METRE.)
);
#767=(
LENGTH_UNIT()
NAMED_UNIT(*)
SI_UNIT($,.METRE.)
);
#768=(
NAMED_UNIT(*)
PLANE_ANGLE_UNIT()
SI_UNIT($,.RADIAN.)
);
#769=(
NAMED_UNIT(*)
SI_UNIT($,.STERADIAN.)
SOLID_ANGLE_UNIT()
);
#770=SHAPE_DEFINITION_REPRESENTATION(#771,#772);
#771=PRODUCT_DEFINITION_SHAPE('',$,#774);
#772=SHAPE_REPRESENTATION('',(#466),#764);
#773=PRODUCT_DEFINITION_CONTEXT('part definition',#778,'design');
#774=PRODUCT_DEFINITION('GYRA PITCH ARM V3','GYRA PITCH ARM V3 v20',#775,
#773);
#775=PRODUCT_DEFINITION_FORMATION('',$,#780);
#776=PRODUCT_RELATED_PRODUCT_CATEGORY('GYRA PITCH ARM V3 v20',
'GYRA PITCH ARM V3 v20',(#780));
#777=APPLICATION_PROTOCOL_DEFINITION('international standard',
'automotive_design',2009,#778);
#778=APPLICATION_CONTEXT(
'Core Data for Automotive Mechanical Design Process');
#779=PRODUCT_CONTEXT('part definition',#778,'mechanical');
#780=PRODUCT('GYRA PITCH ARM V3','GYRA PITCH ARM V3 v20',$,(#779));
#781=PRESENTATION_STYLE_ASSIGNMENT((#782));
#782=SURFACE_STYLE_USAGE(.BOTH.,#783);
#783=SURFACE_SIDE_STYLE('',(#784));
#784=SURFACE_STYLE_FILL_AREA(#785);
#785=FILL_AREA_STYLE('Plastic - Matte (White)',(#786));
#786=FILL_AREA_STYLE_COLOUR('Plastic - Matte (White)',#787);
#787=COLOUR_RGB('Plastic - Matte (White)',0.964705882352941,0.964705882352941,
0.952941176470588);
ENDSEC;
END-ISO-10303-21;
