ISO-10303-21;
HEADER;
/* Generated by software containing ST-Developer
 * from STEP Tools, Inc. (www.steptools.com) 
 */

FILE_DESCRIPTION(
/* description */ (''),
/* implementation_level */ '2;1');

FILE_NAME(
/* name */ 'GYRA PITCH ARM(PRT 1).step',
/* time_stamp */ '2026-05-23T22:49:06+05:30',
/* author */ (''),
/* organization */ (''),
/* preprocessor_version */ 'ST-DEVELOPER v20.1',
/* originating_system */ 'Autodesk Translation Framework v15.8.0.0',
/* authorisation */ '');

FILE_SCHEMA (('AUTOMOTIVE_DESIGN { 1 0 10303 214 3 1 1 }'));
ENDSEC;

DATA;
#10=MECHANICAL_DESIGN_GEOMETRIC_PRESENTATION_REPRESENTATION('',(#13),#750);
#11=SHAPE_REPRESENTATION_RELATIONSHIP('SRR','None',#757,#12);
#12=ADVANCED_BREP_SHAPE_REPRESENTATION('',(#14),#749);
#13=STYLED_ITEM('',(#766),#14);
#14=MANIFOLD_SOLID_BREP('Body1',#430);
#15=FACE_BOUND('',#63,.T.);
#16=FACE_BOUND('',#73,.T.);
#17=FACE_BOUND('',#75,.T.);
#18=FACE_BOUND('',#76,.T.);
#19=FACE_BOUND('',#77,.T.);
#20=FACE_BOUND('',#78,.T.);
#21=FACE_BOUND('',#79,.T.);
#22=FACE_BOUND('',#82,.T.);
#23=FACE_BOUND('',#87,.T.);
#24=FACE_BOUND('',#91,.T.);
#25=FACE_BOUND('',#92,.T.);
#26=FACE_BOUND('',#93,.T.);
#27=FACE_BOUND('',#94,.T.);
#28=FACE_BOUND('',#95,.T.);
#29=PLANE('',#447);
#30=PLANE('',#461);
#31=PLANE('',#462);
#32=PLANE('',#463);
#33=PLANE('',#467);
#34=PLANE('',#469);
#35=PLANE('',#477);
#36=PLANE('',#486);
#37=PLANE('',#490);
#38=FACE_OUTER_BOUND('',#61,.T.);
#39=FACE_OUTER_BOUND('',#62,.T.);
#40=FACE_OUTER_BOUND('',#64,.T.);
#41=FACE_OUTER_BOUND('',#65,.T.);
#42=FACE_OUTER_BOUND('',#66,.T.);
#43=FACE_OUTER_BOUND('',#67,.T.);
#44=FACE_OUTER_BOUND('',#68,.T.);
#45=FACE_OUTER_BOUND('',#69,.T.);
#46=FACE_OUTER_BOUND('',#70,.T.);
#47=FACE_OUTER_BOUND('',#71,.T.);
#48=FACE_OUTER_BOUND('',#72,.T.);
#49=FACE_OUTER_BOUND('',#74,.T.);
#50=FACE_OUTER_BOUND('',#80,.T.);
#51=FACE_OUTER_BOUND('',#81,.T.);
#52=FACE_OUTER_BOUND('',#83,.T.);
#53=FACE_OUTER_BOUND('',#84,.T.);
#54=FACE_OUTER_BOUND('',#85,.T.);
#55=FACE_OUTER_BOUND('',#86,.T.);
#56=FACE_OUTER_BOUND('',#88,.T.);
#57=FACE_OUTER_BOUND('',#89,.T.);
#58=FACE_OUTER_BOUND('',#90,.T.);
#59=FACE_OUTER_BOUND('',#96,.T.);
#60=FACE_OUTER_BOUND('',#97,.T.);
#61=EDGE_LOOP('',(#279,#280,#281,#282));
#62=EDGE_LOOP('',(#283,#284,#285,#286,#287));
#63=EDGE_LOOP('',(#288));
#64=EDGE_LOOP('',(#289,#290,#291,#292));
#65=EDGE_LOOP('',(#293,#294,#295,#296));
#66=EDGE_LOOP('',(#297,#298,#299,#300));
#67=EDGE_LOOP('',(#301,#302,#303,#304));
#68=EDGE_LOOP('',(#305,#306,#307,#308));
#69=EDGE_LOOP('',(#309,#310,#311,#312,#313,#314,#315,#316,#317,#318));
#70=EDGE_LOOP('',(#319,#320,#321,#322,#323,#324,#325,#326,#327,#328));
#71=EDGE_LOOP('',(#329,#330,#331,#332));
#72=EDGE_LOOP('',(#333));
#73=EDGE_LOOP('',(#334));
#74=EDGE_LOOP('',(#335,#336,#337,#338));
#75=EDGE_LOOP('',(#339));
#76=EDGE_LOOP('',(#340));
#77=EDGE_LOOP('',(#341));
#78=EDGE_LOOP('',(#342));
#79=EDGE_LOOP('',(#343));
#80=EDGE_LOOP('',(#344,#345,#346,#347));
#81=EDGE_LOOP('',(#348,#349,#350,#351));
#82=EDGE_LOOP('',(#352));
#83=EDGE_LOOP('',(#353,#354,#355,#356));
#84=EDGE_LOOP('',(#357,#358,#359,#360));
#85=EDGE_LOOP('',(#361,#362,#363,#364));
#86=EDGE_LOOP('',(#365,#366,#367,#368,#369));
#87=EDGE_LOOP('',(#370));
#88=EDGE_LOOP('',(#371,#372,#373,#374));
#89=EDGE_LOOP('',(#375,#376,#377,#378));
#90=EDGE_LOOP('',(#379));
#91=EDGE_LOOP('',(#380));
#92=EDGE_LOOP('',(#381));
#93=EDGE_LOOP('',(#382));
#94=EDGE_LOOP('',(#383));
#95=EDGE_LOOP('',(#384));
#96=EDGE_LOOP('',(#385,#386,#387,#388));
#97=EDGE_LOOP('',(#389,#390,#391,#392));
#98=LINE('',#634,#127);
#99=LINE('',#637,#128);
#100=LINE('',#642,#129);
#101=LINE('',#644,#130);
#102=LINE('',#645,#131);
#103=LINE('',#651,#132);
#104=LINE('',#656,#133);
#105=LINE('',#662,#134);
#106=LINE('',#669,#135);
#107=LINE('',#672,#136);
#108=LINE('',#675,#137);
#109=LINE('',#677,#138);
#110=LINE('',#678,#139);
#111=LINE('',#681,#140);
#112=LINE('',#683,#141);
#113=LINE('',#684,#142);
#114=LINE('',#685,#143);
#115=LINE('',#687,#144);
#116=LINE('',#689,#145);
#117=LINE('',#691,#146);
#118=LINE('',#692,#147);
#119=LINE('',#697,#148);
#120=LINE('',#715,#149);
#121=LINE('',#722,#150);
#122=LINE('',#727,#151);
#123=LINE('',#730,#152);
#124=LINE('',#736,#153);
#125=LINE('',#744,#154);
#126=LINE('',#746,#155);
#127=VECTOR('',#501,10.);
#128=VECTOR('',#504,10.);
#129=VECTOR('',#509,10.);
#130=VECTOR('',#510,10.);
#131=VECTOR('',#511,10.);
#132=VECTOR('',#518,10.);
#133=VECTOR('',#523,10.);
#134=VECTOR('',#530,10.);
#135=VECTOR('',#537,10.);
#136=VECTOR('',#540,10.);
#137=VECTOR('',#543,10.);
#138=VECTOR('',#544,10.);
#139=VECTOR('',#545,10.);
#140=VECTOR('',#548,10.);
#141=VECTOR('',#549,10.);
#142=VECTOR('',#550,10.);
#143=VECTOR('',#551,10.);
#144=VECTOR('',#554,10.);
#145=VECTOR('',#555,10.);
#146=VECTOR('',#556,10.);
#147=VECTOR('',#557,10.);
#148=VECTOR('',#562,2.5);
#149=VECTOR('',#585,1.25);
#150=VECTOR('',#594,11.25);
#151=VECTOR('',#601,1.25);
#152=VECTOR('',#604,2.75);
#153=VECTOR('',#613,1.25);
#154=VECTOR('',#624,1.25);
#155=VECTOR('',#627,1.25);
#156=CIRCLE('',#445,15.);
#157=CIRCLE('',#446,15.);
#158=CIRCLE('',#448,15.);
#159=CIRCLE('',#449,2.75);
#160=CIRCLE('',#451,15.);
#161=CIRCLE('',#453,12.);
#162=CIRCLE('',#454,12.);
#163=CIRCLE('',#456,55.5);
#164=CIRCLE('',#457,55.5);
#165=CIRCLE('',#459,17.5);
#166=CIRCLE('',#460,17.5);
#167=CIRCLE('',#465,2.5);
#168=CIRCLE('',#466,2.5);
#169=CIRCLE('',#468,1.25);
#170=CIRCLE('',#470,15.);
#171=CIRCLE('',#471,1.25);
#172=CIRCLE('',#472,1.25);
#173=CIRCLE('',#473,1.25);
#174=CIRCLE('',#474,1.25);
#175=CIRCLE('',#476,1.25);
#176=CIRCLE('',#478,15.);
#177=CIRCLE('',#479,11.25);
#178=CIRCLE('',#481,11.25);
#179=CIRCLE('',#483,1.25);
#180=CIRCLE('',#485,2.75);
#181=CIRCLE('',#488,1.25);
#182=CIRCLE('',#491,1.25);
#183=CIRCLE('',#492,1.25);
#184=VERTEX_POINT('',#630);
#185=VERTEX_POINT('',#631);
#186=VERTEX_POINT('',#633);
#187=VERTEX_POINT('',#635);
#188=VERTEX_POINT('',#639);
#189=VERTEX_POINT('',#641);
#190=VERTEX_POINT('',#643);
#191=VERTEX_POINT('',#646);
#192=VERTEX_POINT('',#649);
#193=VERTEX_POINT('',#653);
#194=VERTEX_POINT('',#655);
#195=VERTEX_POINT('',#659);
#196=VERTEX_POINT('',#661);
#197=VERTEX_POINT('',#665);
#198=VERTEX_POINT('',#666);
#199=VERTEX_POINT('',#668);
#200=VERTEX_POINT('',#670);
#201=VERTEX_POINT('',#674);
#202=VERTEX_POINT('',#676);
#203=VERTEX_POINT('',#680);
#204=VERTEX_POINT('',#682);
#205=VERTEX_POINT('',#688);
#206=VERTEX_POINT('',#690);
#207=VERTEX_POINT('',#694);
#208=VERTEX_POINT('',#696);
#209=VERTEX_POINT('',#700);
#210=VERTEX_POINT('',#704);
#211=VERTEX_POINT('',#706);
#212=VERTEX_POINT('',#708);
#213=VERTEX_POINT('',#710);
#214=VERTEX_POINT('',#713);
#215=VERTEX_POINT('',#718);
#216=VERTEX_POINT('',#721);
#217=VERTEX_POINT('',#725);
#218=VERTEX_POINT('',#729);
#219=VERTEX_POINT('',#734);
#220=VERTEX_POINT('',#739);
#221=VERTEX_POINT('',#741);
#222=EDGE_CURVE('',#184,#185,#156,.T.);
#223=EDGE_CURVE('',#186,#185,#98,.T.);
#224=EDGE_CURVE('',#186,#187,#157,.T.);
#225=EDGE_CURVE('',#187,#184,#99,.T.);
#226=EDGE_CURVE('',#188,#186,#158,.T.);
#227=EDGE_CURVE('',#189,#188,#100,.T.);
#228=EDGE_CURVE('',#190,#189,#101,.T.);
#229=EDGE_CURVE('',#187,#190,#102,.T.);
#230=EDGE_CURVE('',#191,#191,#159,.T.);
#231=EDGE_CURVE('',#185,#192,#160,.T.);
#232=EDGE_CURVE('',#192,#188,#103,.T.);
#233=EDGE_CURVE('',#189,#193,#161,.T.);
#234=EDGE_CURVE('',#193,#194,#104,.T.);
#235=EDGE_CURVE('',#194,#190,#162,.T.);
#236=EDGE_CURVE('',#193,#195,#163,.T.);
#237=EDGE_CURVE('',#196,#195,#105,.T.);
#238=EDGE_CURVE('',#196,#194,#164,.T.);
#239=EDGE_CURVE('',#197,#198,#165,.T.);
#240=EDGE_CURVE('',#198,#199,#106,.T.);
#241=EDGE_CURVE('',#199,#200,#166,.T.);
#242=EDGE_CURVE('',#200,#197,#107,.T.);
#243=EDGE_CURVE('',#201,#200,#108,.T.);
#244=EDGE_CURVE('',#202,#201,#109,.T.);
#245=EDGE_CURVE('',#197,#202,#110,.T.);
#246=EDGE_CURVE('',#203,#196,#111,.T.);
#247=EDGE_CURVE('',#204,#203,#112,.T.);
#248=EDGE_CURVE('',#201,#204,#113,.T.);
#249=EDGE_CURVE('',#184,#199,#114,.T.);
#250=EDGE_CURVE('',#198,#192,#115,.T.);
#251=EDGE_CURVE('',#205,#202,#116,.T.);
#252=EDGE_CURVE('',#205,#206,#117,.T.);
#253=EDGE_CURVE('',#195,#206,#118,.T.);
#254=EDGE_CURVE('',#207,#207,#167,.T.);
#255=EDGE_CURVE('',#207,#208,#119,.T.);
#256=EDGE_CURVE('',#208,#208,#168,.T.);
#257=EDGE_CURVE('',#209,#209,#169,.T.);
#258=EDGE_CURVE('',#206,#203,#170,.T.);
#259=EDGE_CURVE('',#210,#210,#171,.T.);
#260=EDGE_CURVE('',#211,#211,#172,.T.);
#261=EDGE_CURVE('',#212,#212,#173,.T.);
#262=EDGE_CURVE('',#213,#213,#174,.T.);
#263=EDGE_CURVE('',#214,#214,#175,.T.);
#264=EDGE_CURVE('',#214,#211,#120,.T.);
#265=EDGE_CURVE('',#205,#204,#176,.T.);
#266=EDGE_CURVE('',#215,#215,#177,.T.);
#267=EDGE_CURVE('',#215,#216,#121,.T.);
#268=EDGE_CURVE('',#216,#216,#178,.T.);
#269=EDGE_CURVE('',#217,#217,#179,.T.);
#270=EDGE_CURVE('',#217,#212,#122,.T.);
#271=EDGE_CURVE('',#191,#218,#123,.T.);
#272=EDGE_CURVE('',#218,#218,#180,.T.);
#273=EDGE_CURVE('',#219,#219,#181,.T.);
#274=EDGE_CURVE('',#219,#209,#124,.T.);
#275=EDGE_CURVE('',#220,#220,#182,.T.);
#276=EDGE_CURVE('',#221,#221,#183,.T.);
#277=EDGE_CURVE('',#221,#213,#125,.T.);
#278=EDGE_CURVE('',#220,#210,#126,.T.);
#279=ORIENTED_EDGE('',*,*,#222,.T.);
#280=ORIENTED_EDGE('',*,*,#223,.F.);
#281=ORIENTED_EDGE('',*,*,#224,.T.);
#282=ORIENTED_EDGE('',*,*,#225,.T.);
#283=ORIENTED_EDGE('',*,*,#224,.F.);
#284=ORIENTED_EDGE('',*,*,#226,.F.);
#285=ORIENTED_EDGE('',*,*,#227,.F.);
#286=ORIENTED_EDGE('',*,*,#228,.F.);
#287=ORIENTED_EDGE('',*,*,#229,.F.);
#288=ORIENTED_EDGE('',*,*,#230,.F.);
#289=ORIENTED_EDGE('',*,*,#226,.T.);
#290=ORIENTED_EDGE('',*,*,#223,.T.);
#291=ORIENTED_EDGE('',*,*,#231,.T.);
#292=ORIENTED_EDGE('',*,*,#232,.T.);
#293=ORIENTED_EDGE('',*,*,#233,.T.);
#294=ORIENTED_EDGE('',*,*,#234,.T.);
#295=ORIENTED_EDGE('',*,*,#235,.T.);
#296=ORIENTED_EDGE('',*,*,#228,.T.);
#297=ORIENTED_EDGE('',*,*,#234,.F.);
#298=ORIENTED_EDGE('',*,*,#236,.T.);
#299=ORIENTED_EDGE('',*,*,#237,.F.);
#300=ORIENTED_EDGE('',*,*,#238,.T.);
#301=ORIENTED_EDGE('',*,*,#239,.T.);
#302=ORIENTED_EDGE('',*,*,#240,.T.);
#303=ORIENTED_EDGE('',*,*,#241,.T.);
#304=ORIENTED_EDGE('',*,*,#242,.T.);
#305=ORIENTED_EDGE('',*,*,#242,.F.);
#306=ORIENTED_EDGE('',*,*,#243,.F.);
#307=ORIENTED_EDGE('',*,*,#244,.F.);
#308=ORIENTED_EDGE('',*,*,#245,.F.);
#309=ORIENTED_EDGE('',*,*,#225,.F.);
#310=ORIENTED_EDGE('',*,*,#229,.T.);
#311=ORIENTED_EDGE('',*,*,#235,.F.);
#312=ORIENTED_EDGE('',*,*,#238,.F.);
#313=ORIENTED_EDGE('',*,*,#246,.F.);
#314=ORIENTED_EDGE('',*,*,#247,.F.);
#315=ORIENTED_EDGE('',*,*,#248,.F.);
#316=ORIENTED_EDGE('',*,*,#243,.T.);
#317=ORIENTED_EDGE('',*,*,#241,.F.);
#318=ORIENTED_EDGE('',*,*,#249,.F.);
#319=ORIENTED_EDGE('',*,*,#232,.F.);
#320=ORIENTED_EDGE('',*,*,#250,.F.);
#321=ORIENTED_EDGE('',*,*,#239,.F.);
#322=ORIENTED_EDGE('',*,*,#245,.T.);
#323=ORIENTED_EDGE('',*,*,#251,.F.);
#324=ORIENTED_EDGE('',*,*,#252,.T.);
#325=ORIENTED_EDGE('',*,*,#253,.F.);
#326=ORIENTED_EDGE('',*,*,#236,.F.);
#327=ORIENTED_EDGE('',*,*,#233,.F.);
#328=ORIENTED_EDGE('',*,*,#227,.T.);
#329=ORIENTED_EDGE('',*,*,#254,.F.);
#330=ORIENTED_EDGE('',*,*,#255,.T.);
#331=ORIENTED_EDGE('',*,*,#256,.T.);
#332=ORIENTED_EDGE('',*,*,#255,.F.);
#333=ORIENTED_EDGE('',*,*,#256,.F.);
#334=ORIENTED_EDGE('',*,*,#257,.F.);
#335=ORIENTED_EDGE('',*,*,#258,.T.);
#336=ORIENTED_EDGE('',*,*,#246,.T.);
#337=ORIENTED_EDGE('',*,*,#237,.T.);
#338=ORIENTED_EDGE('',*,*,#253,.T.);
#339=ORIENTED_EDGE('',*,*,#259,.T.);
#340=ORIENTED_EDGE('',*,*,#260,.T.);
#341=ORIENTED_EDGE('',*,*,#254,.T.);
#342=ORIENTED_EDGE('',*,*,#261,.T.);
#343=ORIENTED_EDGE('',*,*,#262,.T.);
#344=ORIENTED_EDGE('',*,*,#263,.T.);
#345=ORIENTED_EDGE('',*,*,#264,.T.);
#346=ORIENTED_EDGE('',*,*,#260,.F.);
#347=ORIENTED_EDGE('',*,*,#264,.F.);
#348=ORIENTED_EDGE('',*,*,#265,.F.);
#349=ORIENTED_EDGE('',*,*,#251,.T.);
#350=ORIENTED_EDGE('',*,*,#244,.T.);
#351=ORIENTED_EDGE('',*,*,#248,.T.);
#352=ORIENTED_EDGE('',*,*,#266,.T.);
#353=ORIENTED_EDGE('',*,*,#266,.F.);
#354=ORIENTED_EDGE('',*,*,#267,.T.);
#355=ORIENTED_EDGE('',*,*,#268,.T.);
#356=ORIENTED_EDGE('',*,*,#267,.F.);
#357=ORIENTED_EDGE('',*,*,#269,.T.);
#358=ORIENTED_EDGE('',*,*,#270,.T.);
#359=ORIENTED_EDGE('',*,*,#261,.F.);
#360=ORIENTED_EDGE('',*,*,#270,.F.);
#361=ORIENTED_EDGE('',*,*,#230,.T.);
#362=ORIENTED_EDGE('',*,*,#271,.T.);
#363=ORIENTED_EDGE('',*,*,#272,.F.);
#364=ORIENTED_EDGE('',*,*,#271,.F.);
#365=ORIENTED_EDGE('',*,*,#222,.F.);
#366=ORIENTED_EDGE('',*,*,#249,.T.);
#367=ORIENTED_EDGE('',*,*,#240,.F.);
#368=ORIENTED_EDGE('',*,*,#250,.T.);
#369=ORIENTED_EDGE('',*,*,#231,.F.);
#370=ORIENTED_EDGE('',*,*,#272,.T.);
#371=ORIENTED_EDGE('',*,*,#273,.T.);
#372=ORIENTED_EDGE('',*,*,#274,.T.);
#373=ORIENTED_EDGE('',*,*,#257,.T.);
#374=ORIENTED_EDGE('',*,*,#274,.F.);
#375=ORIENTED_EDGE('',*,*,#252,.F.);
#376=ORIENTED_EDGE('',*,*,#265,.T.);
#377=ORIENTED_EDGE('',*,*,#247,.T.);
#378=ORIENTED_EDGE('',*,*,#258,.F.);
#379=ORIENTED_EDGE('',*,*,#268,.F.);
#380=ORIENTED_EDGE('',*,*,#273,.F.);
#381=ORIENTED_EDGE('',*,*,#269,.F.);
#382=ORIENTED_EDGE('',*,*,#275,.F.);
#383=ORIENTED_EDGE('',*,*,#263,.F.);
#384=ORIENTED_EDGE('',*,*,#276,.F.);
#385=ORIENTED_EDGE('',*,*,#276,.T.);
#386=ORIENTED_EDGE('',*,*,#277,.T.);
#387=ORIENTED_EDGE('',*,*,#262,.F.);
#388=ORIENTED_EDGE('',*,*,#277,.F.);
#389=ORIENTED_EDGE('',*,*,#275,.T.);
#390=ORIENTED_EDGE('',*,*,#278,.T.);
#391=ORIENTED_EDGE('',*,*,#259,.F.);
#392=ORIENTED_EDGE('',*,*,#278,.F.);
#393=CYLINDRICAL_SURFACE('',#444,15.);
#394=CYLINDRICAL_SURFACE('',#450,15.);
#395=CYLINDRICAL_SURFACE('',#452,12.);
#396=CYLINDRICAL_SURFACE('',#455,55.5);
#397=CYLINDRICAL_SURFACE('',#458,17.5);
#398=CYLINDRICAL_SURFACE('',#464,2.5);
#399=CYLINDRICAL_SURFACE('',#475,1.25);
#400=CYLINDRICAL_SURFACE('',#480,11.25);
#401=CYLINDRICAL_SURFACE('',#482,1.25);
#402=CYLINDRICAL_SURFACE('',#484,2.75);
#403=CYLINDRICAL_SURFACE('',#487,1.25);
#404=CYLINDRICAL_SURFACE('',#489,15.);
#405=CYLINDRICAL_SURFACE('',#493,1.25);
#406=CYLINDRICAL_SURFACE('',#494,1.25);
#407=ADVANCED_FACE('',(#38),#393,.T.);
#408=ADVANCED_FACE('',(#39,#15),#29,.T.);
#409=ADVANCED_FACE('',(#40),#394,.T.);
#410=ADVANCED_FACE('',(#41),#395,.F.);
#411=ADVANCED_FACE('',(#42),#396,.T.);
#412=ADVANCED_FACE('',(#43),#397,.T.);
#413=ADVANCED_FACE('',(#44),#30,.T.);
#414=ADVANCED_FACE('',(#45),#31,.T.);
#415=ADVANCED_FACE('',(#46),#32,.T.);
#416=ADVANCED_FACE('',(#47),#398,.F.);
#417=ADVANCED_FACE('',(#48,#16),#33,.T.);
#418=ADVANCED_FACE('',(#49,#17,#18,#19,#20,#21),#34,.T.);
#419=ADVANCED_FACE('',(#50),#399,.F.);
#420=ADVANCED_FACE('',(#51,#22),#35,.F.);
#421=ADVANCED_FACE('',(#52),#400,.F.);
#422=ADVANCED_FACE('',(#53),#401,.F.);
#423=ADVANCED_FACE('',(#54),#402,.F.);
#424=ADVANCED_FACE('',(#55,#23),#36,.T.);
#425=ADVANCED_FACE('',(#56),#403,.F.);
#426=ADVANCED_FACE('',(#57),#404,.T.);
#427=ADVANCED_FACE('',(#58,#24,#25,#26,#27,#28),#37,.F.);
#428=ADVANCED_FACE('',(#59),#405,.F.);
#429=ADVANCED_FACE('',(#60),#406,.F.);
#430=CLOSED_SHELL('',(#407,#408,#409,#410,#411,#412,#413,#414,#415,#416,
#417,#418,#419,#420,#421,#422,#423,#424,#425,#426,#427,#428,#429));
#431=DERIVED_UNIT_ELEMENT(#433,1.);
#432=DERIVED_UNIT_ELEMENT(#752,-3.);
#433=(
MASS_UNIT()
NAMED_UNIT(*)
SI_UNIT(.KILO.,.GRAM.)
);
#434=DERIVED_UNIT((#431,#432));
#435=MEASURE_REPRESENTATION_ITEM('density measure',
POSITIVE_RATIO_MEASURE(952.),#434);
#436=PROPERTY_DEFINITION_REPRESENTATION(#441,#438);
#437=PROPERTY_DEFINITION_REPRESENTATION(#442,#439);
#438=REPRESENTATION('material name',(#440),#749);
#439=REPRESENTATION('density',(#435),#749);
#440=DESCRIPTIVE_REPRESENTATION_ITEM('Plastic, Opaque White',
'Plastic, Opaque White');
#441=PROPERTY_DEFINITION('material property','material name',#759);
#442=PROPERTY_DEFINITION('material property','density of part',#759);
#443=AXIS2_PLACEMENT_3D('',#628,#495,#496);
#444=AXIS2_PLACEMENT_3D('',#629,#497,#498);
#445=AXIS2_PLACEMENT_3D('',#632,#499,#500);
#446=AXIS2_PLACEMENT_3D('',#636,#502,#503);
#447=AXIS2_PLACEMENT_3D('',#638,#505,#506);
#448=AXIS2_PLACEMENT_3D('',#640,#507,#508);
#449=AXIS2_PLACEMENT_3D('',#647,#512,#513);
#450=AXIS2_PLACEMENT_3D('',#648,#514,#515);
#451=AXIS2_PLACEMENT_3D('',#650,#516,#517);
#452=AXIS2_PLACEMENT_3D('',#652,#519,#520);
#453=AXIS2_PLACEMENT_3D('',#654,#521,#522);
#454=AXIS2_PLACEMENT_3D('',#657,#524,#525);
#455=AXIS2_PLACEMENT_3D('',#658,#526,#527);
#456=AXIS2_PLACEMENT_3D('',#660,#528,#529);
#457=AXIS2_PLACEMENT_3D('',#663,#531,#532);
#458=AXIS2_PLACEMENT_3D('',#664,#533,#534);
#459=AXIS2_PLACEMENT_3D('',#667,#535,#536);
#460=AXIS2_PLACEMENT_3D('',#671,#538,#539);
#461=AXIS2_PLACEMENT_3D('',#673,#541,#542);
#462=AXIS2_PLACEMENT_3D('',#679,#546,#547);
#463=AXIS2_PLACEMENT_3D('',#686,#552,#553);
#464=AXIS2_PLACEMENT_3D('',#693,#558,#559);
#465=AXIS2_PLACEMENT_3D('',#695,#560,#561);
#466=AXIS2_PLACEMENT_3D('',#698,#563,#564);
#467=AXIS2_PLACEMENT_3D('',#699,#565,#566);
#468=AXIS2_PLACEMENT_3D('',#701,#567,#568);
#469=AXIS2_PLACEMENT_3D('',#702,#569,#570);
#470=AXIS2_PLACEMENT_3D('',#703,#571,#572);
#471=AXIS2_PLACEMENT_3D('',#705,#573,#574);
#472=AXIS2_PLACEMENT_3D('',#707,#575,#576);
#473=AXIS2_PLACEMENT_3D('',#709,#577,#578);
#474=AXIS2_PLACEMENT_3D('',#711,#579,#580);
#475=AXIS2_PLACEMENT_3D('',#712,#581,#582);
#476=AXIS2_PLACEMENT_3D('',#714,#583,#584);
#477=AXIS2_PLACEMENT_3D('',#716,#586,#587);
#478=AXIS2_PLACEMENT_3D('',#717,#588,#589);
#479=AXIS2_PLACEMENT_3D('',#719,#590,#591);
#480=AXIS2_PLACEMENT_3D('',#720,#592,#593);
#481=AXIS2_PLACEMENT_3D('',#723,#595,#596);
#482=AXIS2_PLACEMENT_3D('',#724,#597,#598);
#483=AXIS2_PLACEMENT_3D('',#726,#599,#600);
#484=AXIS2_PLACEMENT_3D('',#728,#602,#603);
#485=AXIS2_PLACEMENT_3D('',#731,#605,#606);
#486=AXIS2_PLACEMENT_3D('',#732,#607,#608);
#487=AXIS2_PLACEMENT_3D('',#733,#609,#610);
#488=AXIS2_PLACEMENT_3D('',#735,#611,#612);
#489=AXIS2_PLACEMENT_3D('',#737,#614,#615);
#490=AXIS2_PLACEMENT_3D('',#738,#616,#617);
#491=AXIS2_PLACEMENT_3D('',#740,#618,#619);
#492=AXIS2_PLACEMENT_3D('',#742,#620,#621);
#493=AXIS2_PLACEMENT_3D('',#743,#622,#623);
#494=AXIS2_PLACEMENT_3D('',#745,#625,#626);
#495=DIRECTION('axis',(0.,0.,1.));
#496=DIRECTION('refdir',(1.,0.,0.));
#497=DIRECTION('center_axis',(1.,0.,0.));
#498=DIRECTION('ref_axis',(0.,-0.707106781186547,0.707106781186547));
#499=DIRECTION('center_axis',(-1.,0.,0.));
#500=DIRECTION('ref_axis',(0.,-0.707106781186547,0.707106781186547));
#501=DIRECTION('',(1.,0.,0.));
#502=DIRECTION('center_axis',(1.,0.,0.));
#503=DIRECTION('ref_axis',(0.,-0.707106781186547,0.707106781186547));
#504=DIRECTION('',(1.,0.,0.));
#505=DIRECTION('center_axis',(-1.,0.,0.));
#506=DIRECTION('ref_axis',(0.,-1.,0.));
#507=DIRECTION('center_axis',(1.,0.,0.));
#508=DIRECTION('ref_axis',(0.,0.707106781186547,0.707106781186547));
#509=DIRECTION('',(0.,0.,1.));
#510=DIRECTION('',(0.,1.,0.));
#511=DIRECTION('',(0.,0.,-1.));
#512=DIRECTION('center_axis',(-1.,0.,0.));
#513=DIRECTION('ref_axis',(0.,-1.,0.));
#514=DIRECTION('center_axis',(-1.,0.,0.));
#515=DIRECTION('ref_axis',(0.,0.707106781186547,0.707106781186547));
#516=DIRECTION('center_axis',(-1.,0.,0.));
#517=DIRECTION('ref_axis',(0.,0.707106781186547,0.707106781186547));
#518=DIRECTION('',(-1.,0.,0.));
#519=DIRECTION('center_axis',(0.,-1.,0.));
#520=DIRECTION('ref_axis',(0.79986128571778,0.,-0.600184907849156));
#521=DIRECTION('center_axis',(0.,1.,0.));
#522=DIRECTION('ref_axis',(0.79986128571778,0.,-0.600184907849156));
#523=DIRECTION('',(0.,-1.,0.));
#524=DIRECTION('center_axis',(0.,-1.,0.));
#525=DIRECTION('ref_axis',(0.79986128571778,0.,-0.600184907849156));
#526=DIRECTION('center_axis',(0.,1.,0.));
#527=DIRECTION('ref_axis',(-0.495450766326857,0.,0.868636021671983));
#528=DIRECTION('center_axis',(0.,-1.,0.));
#529=DIRECTION('ref_axis',(-0.495450766326857,0.,0.868636021671983));
#530=DIRECTION('',(0.,1.,0.));
#531=DIRECTION('center_axis',(0.,1.,0.));
#532=DIRECTION('ref_axis',(-0.495450766326857,0.,0.868636021671983));
#533=DIRECTION('center_axis',(0.,1.,0.));
#534=DIRECTION('ref_axis',(0.876726755707508,0.,-0.480988768919387));
#535=DIRECTION('center_axis',(0.,-1.,0.));
#536=DIRECTION('ref_axis',(0.876726755707508,0.,-0.480988768919387));
#537=DIRECTION('',(0.,-1.,0.));
#538=DIRECTION('center_axis',(0.,1.,0.));
#539=DIRECTION('ref_axis',(0.876726755707508,0.,-0.480988768919387));
#540=DIRECTION('',(0.,1.,0.));
#541=DIRECTION('center_axis',(0.537299608346825,0.,-0.843391445812885));
#542=DIRECTION('ref_axis',(0.843391445812885,0.,0.537299608346825));
#543=DIRECTION('',(0.843391445812885,0.,0.537299608346825));
#544=DIRECTION('',(0.,-1.,0.));
#545=DIRECTION('',(-0.843391445812886,0.,-0.537299608346824));
#546=DIRECTION('center_axis',(0.,-1.,0.));
#547=DIRECTION('ref_axis',(-1.,0.,0.));
#548=DIRECTION('',(1.,0.,0.));
#549=DIRECTION('',(0.,0.,1.));
#550=DIRECTION('',(-1.,0.,0.));
#551=DIRECTION('',(0.,0.,-1.));
#552=DIRECTION('center_axis',(0.,1.,0.));
#553=DIRECTION('ref_axis',(1.,0.,0.));
#554=DIRECTION('',(0.,0.,1.));
#555=DIRECTION('',(1.,0.,0.));
#556=DIRECTION('',(0.,0.,1.));
#557=DIRECTION('',(-1.,0.,0.));
#558=DIRECTION('center_axis',(0.,0.,-1.));
#559=DIRECTION('ref_axis',(-1.,0.,0.));
#560=DIRECTION('center_axis',(0.,0.,-1.));
#561=DIRECTION('ref_axis',(-1.,0.,0.));
#562=DIRECTION('',(0.,0.,-1.));
#563=DIRECTION('center_axis',(0.,0.,-1.));
#564=DIRECTION('ref_axis',(-1.,0.,0.));
#565=DIRECTION('center_axis',(0.,0.,1.));
#566=DIRECTION('ref_axis',(-1.,0.,0.));
#567=DIRECTION('center_axis',(0.,0.,1.));
#568=DIRECTION('ref_axis',(1.,0.,0.));
#569=DIRECTION('center_axis',(0.,0.,1.));
#570=DIRECTION('ref_axis',(1.,0.,0.));
#571=DIRECTION('center_axis',(0.,0.,1.));
#572=DIRECTION('ref_axis',(1.,0.,0.));
#573=DIRECTION('center_axis',(0.,0.,-1.));
#574=DIRECTION('ref_axis',(1.,0.,0.));
#575=DIRECTION('center_axis',(0.,0.,-1.));
#576=DIRECTION('ref_axis',(1.,0.,0.));
#577=DIRECTION('center_axis',(0.,0.,-1.));
#578=DIRECTION('ref_axis',(1.,0.,0.));
#579=DIRECTION('center_axis',(0.,0.,-1.));
#580=DIRECTION('ref_axis',(1.,0.,0.));
#581=DIRECTION('center_axis',(0.,0.,1.));
#582=DIRECTION('ref_axis',(1.,0.,0.));
#583=DIRECTION('center_axis',(0.,0.,-1.));
#584=DIRECTION('ref_axis',(1.,0.,0.));
#585=DIRECTION('',(0.,0.,1.));
#586=DIRECTION('center_axis',(0.,0.,1.));
#587=DIRECTION('ref_axis',(1.,0.,0.));
#588=DIRECTION('center_axis',(0.,0.,1.));
#589=DIRECTION('ref_axis',(1.,0.,0.));
#590=DIRECTION('center_axis',(0.,0.,1.));
#591=DIRECTION('ref_axis',(1.,0.,0.));
#592=DIRECTION('center_axis',(0.,0.,1.));
#593=DIRECTION('ref_axis',(1.,0.,0.));
#594=DIRECTION('',(0.,0.,1.));
#595=DIRECTION('center_axis',(0.,0.,1.));
#596=DIRECTION('ref_axis',(1.,0.,0.));
#597=DIRECTION('center_axis',(0.,0.,1.));
#598=DIRECTION('ref_axis',(1.,0.,0.));
#599=DIRECTION('center_axis',(0.,0.,-1.));
#600=DIRECTION('ref_axis',(1.,0.,0.));
#601=DIRECTION('',(0.,0.,1.));
#602=DIRECTION('center_axis',(1.,0.,0.));
#603=DIRECTION('ref_axis',(0.,-1.,0.));
#604=DIRECTION('',(1.,0.,0.));
#605=DIRECTION('center_axis',(-1.,0.,0.));
#606=DIRECTION('ref_axis',(0.,-1.,0.));
#607=DIRECTION('center_axis',(1.,0.,0.));
#608=DIRECTION('ref_axis',(0.,0.,-1.));
#609=DIRECTION('center_axis',(0.,0.,1.));
#610=DIRECTION('ref_axis',(1.,0.,0.));
#611=DIRECTION('center_axis',(0.,0.,-1.));
#612=DIRECTION('ref_axis',(1.,0.,0.));
#613=DIRECTION('',(0.,0.,1.));
#614=DIRECTION('center_axis',(0.,0.,1.));
#615=DIRECTION('ref_axis',(-1.,1.22464679914735E-16,0.));
#616=DIRECTION('center_axis',(0.,0.,1.));
#617=DIRECTION('ref_axis',(1.,0.,0.));
#618=DIRECTION('center_axis',(0.,0.,-1.));
#619=DIRECTION('ref_axis',(1.,0.,0.));
#620=DIRECTION('center_axis',(0.,0.,-1.));
#621=DIRECTION('ref_axis',(1.,0.,0.));
#622=DIRECTION('center_axis',(0.,0.,1.));
#623=DIRECTION('ref_axis',(1.,0.,0.));
#624=DIRECTION('',(0.,0.,1.));
#625=DIRECTION('center_axis',(0.,0.,1.));
#626=DIRECTION('ref_axis',(1.,0.,0.));
#627=DIRECTION('',(0.,0.,1.));
#628=CARTESIAN_POINT('',(0.,0.,0.));
#629=CARTESIAN_POINT('Origin',(49.0562386092386,-2.23517417907715E-7,113.767908811563));
#630=CARTESIAN_POINT('',(44.5124772184771,-15.0000002235174,113.767908811563));
#631=CARTESIAN_POINT('',(44.5124772184771,2.23517417907715E-7,128.767908811563));
#632=CARTESIAN_POINT('Origin',(44.5124772184771,-2.23517417907715E-7,113.767908811563));
#633=CARTESIAN_POINT('',(34.5124772184771,2.23517417907715E-7,128.767908811563));
#634=CARTESIAN_POINT('',(34.7562386092386,2.23517417907715E-7,128.767908811563));
#635=CARTESIAN_POINT('',(34.5124772184771,-15.0000002235174,113.767908811563));
#636=CARTESIAN_POINT('Origin',(34.5124772184771,-2.23517417907715E-7,113.767908811563));
#637=CARTESIAN_POINT('',(49.0562386092386,-15.0000002235174,113.767908811563));
#638=CARTESIAN_POINT('Origin',(34.5124772184771,0.,73.119179247432));
#639=CARTESIAN_POINT('',(34.5124772184771,15.0000002235174,113.767908811563));
#640=CARTESIAN_POINT('Origin',(34.5124772184771,2.23517417907715E-7,113.767908811563));
#641=CARTESIAN_POINT('',(34.5124772184771,15.0000002235174,27.2994315253904));
#642=CARTESIAN_POINT('',(34.5124772184771,15.0000002235174,41.909589623716));
#643=CARTESIAN_POINT('',(34.5124772184771,-15.0000002235174,27.2994315253904));
#644=CARTESIAN_POINT('',(34.5124772184771,7.50000011175871,27.2994315253904));
#645=CARTESIAN_POINT('',(34.5124772184771,-15.0000002235174,41.909589623716));
#646=CARTESIAN_POINT('',(34.5124772184771,2.75000022351743,72.4704496833009));
#647=CARTESIAN_POINT('Origin',(34.5124772184771,2.23517434190986E-7,72.4704496833009));
#648=CARTESIAN_POINT('Origin',(34.7562386092386,2.23517417907715E-7,113.767908811563));
#649=CARTESIAN_POINT('',(44.5124772184771,15.0000002235174,113.767908811563));
#650=CARTESIAN_POINT('Origin',(44.5124772184771,2.23517417907715E-7,113.767908811563));
#651=CARTESIAN_POINT('',(34.7562386092386,15.0000002235174,113.767908811563));
#652=CARTESIAN_POINT('Origin',(22.5124772184771,7.50000011175871,27.2994315253904));
#653=CARTESIAN_POINT('',(25.8671510518395,15.0000002235174,15.7778793959352));
#654=CARTESIAN_POINT('Origin',(22.5124772184771,15.0000002235174,27.2994315253904));
#655=CARTESIAN_POINT('',(25.8671510518395,-15.0000002235174,15.7778793959352));
#656=CARTESIAN_POINT('',(25.8671510518395,7.50000011175871,15.7778793959352));
#657=CARTESIAN_POINT('Origin',(22.5124772184771,-15.0000002235174,27.2994315253904));
#658=CARTESIAN_POINT('Origin',(41.3825175311406,7.50000011175871,-37.5092992027951));
#659=CARTESIAN_POINT('',(13.885,15.0000002235174,10.7));
#660=CARTESIAN_POINT('Origin',(41.3825175311406,15.0000002235174,-37.5092992027951));
#661=CARTESIAN_POINT('',(13.885,-15.0000002235174,10.7));
#662=CARTESIAN_POINT('',(13.885,7.50000011175871,10.7));
#663=CARTESIAN_POINT('Origin',(41.3825175311406,-15.0000002235174,-37.5092992027951));
#664=CARTESIAN_POINT('Origin',(27.0124772184771,15.0000002235174,26.7555237004297));
#665=CARTESIAN_POINT('',(36.4152203645465,15.0000002235174,11.9961733987042));
#666=CARTESIAN_POINT('',(44.5124772184771,15.0000002235174,26.7555237004297));
#667=CARTESIAN_POINT('Origin',(27.0124772184771,15.0000002235174,26.7555237004297));
#668=CARTESIAN_POINT('',(44.5124772184771,-15.0000002235174,26.7555237004297));
#669=CARTESIAN_POINT('',(44.5124772184771,15.0000002235174,26.7555237004297));
#670=CARTESIAN_POINT('',(36.4152203645466,-15.0000002235174,11.9961733987042));
#671=CARTESIAN_POINT('Origin',(27.0124772184771,-15.0000002235174,26.7555237004297));
#672=CARTESIAN_POINT('',(36.4152203645466,15.0000002235174,11.9961733987042));
#673=CARTESIAN_POINT('Origin',(28.6,15.0000002235174,7.01732892279447));
#674=CARTESIAN_POINT('',(17.5850000000002,-15.0000002235174,0.));
#675=CARTESIAN_POINT('',(37.3906469778301,-15.0000002235174,12.6175886856273));
#676=CARTESIAN_POINT('',(17.5850000000002,15.0000002235174,0.));
#677=CARTESIAN_POINT('',(17.5850000000002,7.50000011175871,0.));
#678=CARTESIAN_POINT('',(19.2626877971455,15.0000002235174,1.06880500248102));
#679=CARTESIAN_POINT('Origin',(28.6,-15.0000002235174,10.7));
#680=CARTESIAN_POINT('',(0.,-15.0000002235174,10.7));
#681=CARTESIAN_POINT('',(0.,-15.0000002235174,10.7));
#682=CARTESIAN_POINT('',(0.,-15.0000002235174,0.));
#683=CARTESIAN_POINT('',(0.,-15.0000002235174,0.));
#684=CARTESIAN_POINT('',(0.,-15.0000002235174,0.));
#685=CARTESIAN_POINT('',(44.5124772184771,-15.0000002235174,21.8907257273252));
#686=CARTESIAN_POINT('Origin',(0.,15.0000002235174,10.7));
#687=CARTESIAN_POINT('',(44.5124772184771,15.0000002235174,10.741996163194));
#688=CARTESIAN_POINT('',(0.,15.0000002235174,0.));
#689=CARTESIAN_POINT('',(28.6,15.0000002235174,0.));
#690=CARTESIAN_POINT('',(0.,15.0000002235174,10.7));
#691=CARTESIAN_POINT('',(0.,15.0000002235174,0.));
#692=CARTESIAN_POINT('',(28.6,15.0000002235174,10.7));
#693=CARTESIAN_POINT('Origin',(0.,0.,10.7));
#694=CARTESIAN_POINT('',(2.5,-3.06161699786838E-16,10.7));
#695=CARTESIAN_POINT('Origin',(0.,0.,10.7));
#696=CARTESIAN_POINT('',(2.5,-3.06161699786838E-16,8.7));
#697=CARTESIAN_POINT('',(2.5,-3.06161699786838E-16,10.7));
#698=CARTESIAN_POINT('Origin',(0.,0.,8.7));
#699=CARTESIAN_POINT('Origin',(0.,0.,8.7));
#700=CARTESIAN_POINT('',(-1.25,-1.53080849893419E-16,8.7));
#701=CARTESIAN_POINT('Origin',(0.,0.,8.7));
#702=CARTESIAN_POINT('Origin',(0.,0.,10.7));
#703=CARTESIAN_POINT('Origin',(0.,0.,10.7));
#704=CARTESIAN_POINT('',(-1.25,7.,10.7));
#705=CARTESIAN_POINT('Origin',(0.,7.,10.7));
#706=CARTESIAN_POINT('',(5.75,-1.53080849893419E-16,10.7));
#707=CARTESIAN_POINT('Origin',(7.,0.,10.7));
#708=CARTESIAN_POINT('',(-1.25,-7.,10.7));
#709=CARTESIAN_POINT('Origin',(0.,-7.,10.7));
#710=CARTESIAN_POINT('',(-8.25,1.53080849893419E-16,10.7));
#711=CARTESIAN_POINT('Origin',(-7.,0.,10.7));
#712=CARTESIAN_POINT('Origin',(7.,0.,0.));
#713=CARTESIAN_POINT('',(5.75,0.,4.));
#714=CARTESIAN_POINT('Origin',(7.,0.,4.));
#715=CARTESIAN_POINT('',(5.75,-1.53080849893419E-16,0.));
#716=CARTESIAN_POINT('Origin',(0.,0.,0.));
#717=CARTESIAN_POINT('Origin',(0.,0.,0.));
#718=CARTESIAN_POINT('',(-11.25,-1.37772764904077E-15,0.));
#719=CARTESIAN_POINT('Origin',(0.,0.,0.));
#720=CARTESIAN_POINT('Origin',(0.,0.,0.));
#721=CARTESIAN_POINT('',(-11.25,-1.11022302462516E-15,4.));
#722=CARTESIAN_POINT('',(-11.25,-1.37772764904077E-15,0.));
#723=CARTESIAN_POINT('Origin',(0.,0.,4.));
#724=CARTESIAN_POINT('Origin',(0.,-7.,0.));
#725=CARTESIAN_POINT('',(-1.25,-7.,4.));
#726=CARTESIAN_POINT('Origin',(0.,-7.,4.));
#727=CARTESIAN_POINT('',(-1.25,-7.,0.));
#728=CARTESIAN_POINT('Origin',(24.5124772184771,2.23517434190986E-7,72.4704496833009));
#729=CARTESIAN_POINT('',(44.5124772184771,2.75000022351743,72.4704496833009));
#730=CARTESIAN_POINT('',(24.5124772184771,2.75000022351743,72.4704496833009));
#731=CARTESIAN_POINT('Origin',(44.5124772184771,2.23517434190986E-7,72.4704496833009));
#732=CARTESIAN_POINT('Origin',(44.5124772184771,15.0000002235174,33.0814514546504));
#733=CARTESIAN_POINT('Origin',(0.,0.,0.));
#734=CARTESIAN_POINT('',(-1.25,-1.53080849893419E-16,4.));
#735=CARTESIAN_POINT('Origin',(0.,0.,4.));
#736=CARTESIAN_POINT('',(-1.25,-1.53080849893419E-16,0.));
#737=CARTESIAN_POINT('Origin',(0.,0.,0.));
#738=CARTESIAN_POINT('Origin',(0.,0.,4.));
#739=CARTESIAN_POINT('',(-1.25,7.,4.));
#740=CARTESIAN_POINT('Origin',(0.,7.,4.));
#741=CARTESIAN_POINT('',(-8.25,-1.53080849893419E-16,4.));
#742=CARTESIAN_POINT('Origin',(-7.,0.,4.));
#743=CARTESIAN_POINT('Origin',(-7.,0.,0.));
#744=CARTESIAN_POINT('',(-8.25,-1.53080849893419E-16,0.));
#745=CARTESIAN_POINT('Origin',(0.,7.,0.));
#746=CARTESIAN_POINT('',(-1.25,7.,0.));
#747=UNCERTAINTY_MEASURE_WITH_UNIT(LENGTH_MEASURE(0.01),#751,
'DISTANCE_ACCURACY_VALUE',
'Maximum model space distance between geometric entities at asserted c
onnectivities');
#748=UNCERTAINTY_MEASURE_WITH_UNIT(LENGTH_MEASURE(0.01),#751,
'DISTANCE_ACCURACY_VALUE',
'Maximum model space distance between geometric entities at asserted c
onnectivities');
#749=(
GEOMETRIC_REPRESENTATION_CONTEXT(3)
GLOBAL_UNCERTAINTY_ASSIGNED_CONTEXT((#747))
GLOBAL_UNIT_ASSIGNED_CONTEXT((#751,#753,#754))
REPRESENTATION_CONTEXT('','3D')
);
#750=(
GEOMETRIC_REPRESENTATION_CONTEXT(3)
GLOBAL_UNCERTAINTY_ASSIGNED_CONTEXT((#748))
GLOBAL_UNIT_ASSIGNED_CONTEXT((#751,#753,#754))
REPRESENTATION_CONTEXT('','3D')
);
#751=(
LENGTH_UNIT()
NAMED_UNIT(*)
SI_UNIT(.MILLI.,.METRE.)
);
#752=(
LENGTH_UNIT()
NAMED_UNIT(*)
SI_UNIT($,.METRE.)
);
#753=(
NAMED_UNIT(*)
PLANE_ANGLE_UNIT()
SI_UNIT($,.RADIAN.)
);
#754=(
NAMED_UNIT(*)
SI_UNIT($,.STERADIAN.)
SOLID_ANGLE_UNIT()
);
#755=SHAPE_DEFINITION_REPRESENTATION(#756,#757);
#756=PRODUCT_DEFINITION_SHAPE('',$,#759);
#757=SHAPE_REPRESENTATION('',(#443),#749);
#758=PRODUCT_DEFINITION_CONTEXT('part definition',#763,'design');
#759=PRODUCT_DEFINITION('GYRA PITCH ARM V4','GYRA PITCH ARM V4 v4',#760,
#758);
#760=PRODUCT_DEFINITION_FORMATION('',$,#765);
#761=PRODUCT_RELATED_PRODUCT_CATEGORY('GYRA PITCH ARM V4 v4',
'GYRA PITCH ARM V4 v4',(#765));
#762=APPLICATION_PROTOCOL_DEFINITION('international standard',
'automotive_design',2009,#763);
#763=APPLICATION_CONTEXT(
'Core Data for Automotive Mechanical Design Process');
#764=PRODUCT_CONTEXT('part definition',#763,'mechanical');
#765=PRODUCT('GYRA PITCH ARM V4','GYRA PITCH ARM V4 v4',$,(#764));
#766=PRESENTATION_STYLE_ASSIGNMENT((#767));
#767=SURFACE_STYLE_USAGE(.BOTH.,#768);
#768=SURFACE_SIDE_STYLE('',(#769));
#769=SURFACE_STYLE_FILL_AREA(#770);
#770=FILL_AREA_STYLE('Plastic - Matte (White)',(#771));
#771=FILL_AREA_STYLE_COLOUR('Plastic - Matte (White)',#772);
#772=COLOUR_RGB('Plastic - Matte (White)',0.964705882352941,0.964705882352941,
0.952941176470588);
ENDSEC;
END-ISO-10303-21;
